<?xml version="1.0" standalone="no"?>
<!DOCTYPE svg PUBLIC "-//W3C//DTD SVG 1.1//EN" "http://www.w3.org/Graphics/SVG/1.1/DTD/svg11.dtd" >
<svg xmlns="http://www.w3.org/2000/svg" xmlns:xlink="http://www.w3.org/1999/xlink" version="1.1">
<metadata>
Created by FontForge 20170731 at Tue Oct 16 09:14:40 2018
 By Aleksey,,,
Copyright (c) 2018 by Typetype. Designer Ivan Gladkikh, technical designers Philipp Nurullin, Vika Usmanova, Nadyr Rakhimov, Marina Khodak. All rights reserved.
</metadata>
<defs>
<font id="TTFirsNeue-DemiBold" horiz-adv-x="0" >
  <font-face 
    font-family="TTFirsNeue-DemiBold"
    font-weight="400"
    font-stretch="normal"
    units-per-em="1000"
    panose-1="2 0 5 3 3 0 0 2 0 4"
    ascent="792"
    descent="-208"
    x-height="510"
    cap-height="700"
    bbox="-85 -200 970 760"
    underline-thickness="50"
    underline-position="-200"
    unicode-range="U+0020-FB02"
  />
<missing-glyph 
d="M0 0z" />
    <glyph glyph-name="ff" unicode="ff" horiz-adv-x="685" 
d="M15 500h65v200h270v-120h-130v-80h185v200h285v-120h-145v-80h115v-120h-115v-380h-140v380h-185v-380h-140v380h-65v120z" />
    <glyph glyph-name="fi" unicode="fi" horiz-adv-x="600" 
d="M15 500h65v200h380v-120h-240v-80h325v-500h-140v380h-185v-380h-140v380h-65v120z" />
    <glyph glyph-name="fl" unicode="fl" horiz-adv-x="670" 
d="M15 500h65v200h465v-580h115v-120h-255v580h-185v-80h115v-120h-115v-380h-140v380h-65v120z" />
    <glyph glyph-name="f_t" unicode="ft" 
 />
    <glyph glyph-name="f_j" unicode="fj" 
 />
    <glyph glyph-name=".notdef" 
d="M0 0z" />
    <glyph glyph-name=".null" 
d="M0 0z" />
    <glyph glyph-name="nonmarkingreturn" 
d="M0 0z" />
    <glyph glyph-name="space" unicode=" " horiz-adv-x="280" 
d="M0 0z" />
    <glyph glyph-name="quotesingle" unicode="'" horiz-adv-x="250" 
d="M60 700h130v-145l-20 -100h-90l-20 100v145z" />
    <glyph glyph-name="parenleft" unicode="(" horiz-adv-x="390" 
d="M55 290q0 56 10.5 106t28 93.5t40 80.5t46.5 67q55 70 125 123l70 -100q-50 -43 -90 -99q-17 -24 -33 -53t-29 -63t-20.5 -73t-7.5 -82t7.5 -82t20.5 -73t29 -63t33 -53q40 -56 90 -99l-70 -100q-70 52 -125 122q-24 30 -46.5 67t-40 80.5t-28 94t-10.5 106.5z" />
    <glyph glyph-name="parenright" unicode=")" horiz-adv-x="390" 
d="M105 19q17 24 33 53t29 63t20.5 73t7.5 82t-7.5 82t-20.5 73t-29 63t-33 53q-40 56 -90 99l70 100q70 -53 125 -123q23 -30 45.5 -67t40 -80.5t28.5 -93.5t11 -106t-11 -106.5t-28.5 -94t-40 -80.5t-45.5 -67q-55 -70 -125 -122l-70 100q50 43 90 99z" />
    <glyph glyph-name="asterisk" unicode="*" horiz-adv-x="400" 
d="M45 600h110v100h90v-100h110v-90h-85l65 -95l-75 -50l-60 100l-60 -100l-75 50l65 95h-85v90z" />
    <glyph glyph-name="plus" unicode="+" horiz-adv-x="530" 
d="M55 355h150v155h120v-155h150v-120h-150v-155h-120v155h-150v120z" />
    <glyph glyph-name="comma" unicode="," horiz-adv-x="230" 
d="M35 65q0 34 23 57t57 23t57 -26.5t23 -83.5q0 -87 -41 -131t-109 -44v60q34 0 52 17.5t18 47.5v10q-1 -2 -4 -3q-6 -2 -16 -2q-23 0 -41.5 20.5t-18.5 54.5z" />
    <glyph glyph-name="hyphen" unicode="-" horiz-adv-x="485" 
d="M55 330h375v-120h-375v120z" />
    <glyph glyph-name="period" unicode="." horiz-adv-x="230" 
d="M35 65q0 34 23 57t57 23t57 -23t23 -57t-23 -57t-57 -23t-57 23t-23 57z" />
    <glyph glyph-name="zero" unicode="0" horiz-adv-x="760" 
d="M40 350q0 82 26.5 150.5t72.5 117t108 75.5t133 27t133 -27t108 -75.5t72.5 -117t26.5 -150.5q0 -83 -26.5 -151t-72.5 -116.5t-108 -75.5t-133 -27t-133 27t-108 75.5t-72.5 116.5t-26.5 151zM200 350q0 -58 13.5 -101.5t37.5 -72t57 -42.5t72 -14t72 14t57 42.5
t37.5 72t13.5 101.5t-13.5 101.5t-37.5 72t-57 42.5t-72 14t-72 -14t-57 -42.5t-37.5 -72t-13.5 -101.5z" />
    <glyph glyph-name="one" unicode="1" horiz-adv-x="370" 
d="M30 600l135 100h135v-700h-150v525l-120 -90v165z" />
    <glyph glyph-name="three" unicode="3" horiz-adv-x="630" 
d="M180 210q7 -26 24 -45q14 -17 40.5 -31t70.5 -14q64 0 97 29t33 71q0 45 -30 72.5t-90 27.5h-170v110l185 125v5h-280v140h495v-140l-185 -115l-10 -4v-6h25q45 0 84 -16.5t68.5 -46t46 -68.5t16.5 -84q0 -49 -20 -92.5t-57 -76.5t-89.5 -52t-118.5 -19q-49 0 -87.5 10
t-68 26t-51 36.5t-36.5 42.5q-35 50 -47 115h155z" />
    <glyph glyph-name="four" unicode="4" horiz-adv-x="630" 
d="M20 265l235 435h165l-235 -430h195v160h10h140v-160h95v-140h-95v-130h-150v130h-360v135z" />
    <glyph glyph-name="five" unicode="5" horiz-adv-x="645" 
d="M195 205q7 -25 24 -43q14 -16 40.5 -29t70.5 -13q60 0 92.5 30t32.5 75q0 49 -32.5 79.5t-92.5 30.5q-32 0 -53 -7.5t-34 -15.5q-15 -10 -23 -22h-155l30 410h460v-140h-330l-10 -140h5q14 14 34 25q17 9 43.5 17t62.5 8q54 0 101 -19.5t81 -52.5t53.5 -77.5t19.5 -95.5
t-20 -95.5t-57 -77.5t-89.5 -52.5t-118.5 -19.5q-49 0 -87.5 9.5t-68 25.5t-51 36t-36.5 41q-35 49 -47 113h155z" />
    <glyph glyph-name="six" unicode="6" horiz-adv-x="645" 
d="M30 237q0 37 10.5 71.5t27 67.5t38 64t44.5 60l155 200h170l-155 -200l-45 -35v-5q9 6 22 10q11 4 28 7t40 3q50 0 94.5 -19t78 -52t53 -77.5t19.5 -96.5q0 -53 -20.5 -99t-58.5 -81t-91.5 -55t-119.5 -20t-119.5 20t-91.5 55t-58.5 82t-20.5 100zM190 235q0 -49 35 -82
t95 -33t95 33t35 82t-35 82t-95 33t-95 -33t-35 -82z" />
    <glyph glyph-name="eight" unicode="8" horiz-adv-x="670" 
d="M35 195q0 54 22.5 87.5t49.5 51.5q32 21 73 31v10q-32 12 -58 32q-22 17 -39.5 45.5t-17.5 72.5q0 37 17.5 72.5t52 62.5t84.5 43.5t116 16.5t116 -16.5t84.5 -43.5t52 -62.5t17.5 -72.5q0 -44 -18 -72.5t-40 -45.5q-26 -20 -57 -32v-10q40 -10 72 -31q27 -18 50 -51.5
t23 -87.5q0 -41 -19.5 -80t-57.5 -69t-94 -48t-129 -18t-129 18t-94 48t-57.5 69t-19.5 80zM225 505q0 -30 26.5 -52.5t83.5 -22.5t83.5 22.5t26.5 52.5t-26.5 52.5t-83.5 22.5t-83.5 -22.5t-26.5 -52.5zM195 210q0 -38 32.5 -64t107.5 -26t107.5 26t32.5 64t-32.5 64
t-107.5 26t-107.5 -26t-32.5 -64z" />
    <glyph glyph-name="A" unicode="A" horiz-adv-x="695" 
d="M190 700h315l185 -700h-155l-40 155h-295l-40 -155h-155zM460 295l-70 265h-85l-70 -265h225z" />
    <glyph glyph-name="C" unicode="C" horiz-adv-x="810" 
d="M35 350q0 79 28.5 146.5t79.5 117t122 78t155 28.5q56 0 101.5 -11.5t81 -30.5t62 -42.5t45.5 -48.5q45 -58 65 -132h-155q-14 35 -40 62q-23 23 -61.5 43t-98.5 20q-49 0 -90 -17t-71 -47.5t-47 -72.5t-17 -93q0 -53 16 -95.5t45.5 -72.5t71 -46t92.5 -16q62 0 101.5 22
t62.5 48q27 31 41 70h155q-22 -78 -69 -140q-20 -26 -47 -51.5t-63 -45t-81 -31.5t-100 -12q-84 0 -155 28.5t-122 78t-79.5 117t-28.5 146.5z" />
    <glyph glyph-name="I" unicode="I" horiz-adv-x="280" 
d="M65 700h150v-700h-150v700z" />
    <glyph glyph-name="P" unicode="P" horiz-adv-x="700" 
d="M65 700h325q64 0 115.5 -19.5t88 -52.5t56.5 -77.5t20 -95.5t-20 -95.5t-56.5 -77.5t-88 -52.5t-115.5 -19.5h-175v-210h-150v700zM385 350q64 0 97 30t33 75t-33 75t-97 30h-170v-210h170z" />
    <glyph glyph-name="T" unicode="T" horiz-adv-x="620" 
d="M10 700h600v-140h-225v-560h-150v560h-225v140z" />
    <glyph glyph-name="U" unicode="U" horiz-adv-x="720" 
d="M60 700h150v-425q0 -72 41 -113.5t109 -41.5t109 41.5t41 113.5v425h150v-425q0 -68 -21 -122.5t-60 -92.5t-94.5 -59t-124.5 -21t-124.5 21t-94.5 59t-60 92.5t-21 122.5v425z" />
    <glyph glyph-name="W" unicode="W" horiz-adv-x="990" 
d="M175 700l105 -545h10l105 545h200l105 -545h10l105 545h155l-145 -700h-220l-105 520h-10l-105 -520h-220l-145 700h155z" />
    <glyph glyph-name="bracketleft" unicode="[" horiz-adv-x="360" 
d="M65 730h275v-130h-135v-620h135v-130h-275v880z" />
    <glyph glyph-name="backslash" unicode="\" horiz-adv-x="410" 
d="M145 700l265 -700h-145l-265 700h145z" />
    <glyph glyph-name="bracketright" unicode="]" horiz-adv-x="360" 
d="M20 -20h135v620h-135v130h275v-880h-275v130z" />
    <glyph glyph-name="asciicircum" unicode="^" horiz-adv-x="480" 
d="M170 700h140l150 -325h-120l-90 205h-20l-90 -205h-120z" />
    <glyph glyph-name="underscore" unicode="_" horiz-adv-x="350" 
d="M-20 -85h390v-115h-390v115z" />
    <glyph glyph-name="grave" unicode="`" horiz-adv-x="285" 
d="M180 695l75 -150h-105l-120 149v1h150z" />
    <glyph glyph-name="a" unicode="a" horiz-adv-x="625" 
d="M30 255q0 62 18.5 112t50.5 85t74.5 54t91.5 19q42 0 71.5 -12.5t49.5 -27.5q23 -18 39 -40h5v65h140v-510h-140v65h-5q-16 -22 -39 -40q-20 -15 -49.5 -27.5t-71.5 -12.5q-49 0 -91.5 19t-74.5 54t-50.5 85t-18.5 112zM175 255q0 -72 36 -111t89 -39q57 0 93.5 39
t36.5 111t-36.5 111t-93.5 39q-53 0 -89 -39t-36 -111z" />
    <glyph glyph-name="b" unicode="b" horiz-adv-x="625" 
d="M55 700h140v-255h5q16 22 39 40q20 15 49.5 27.5t71.5 12.5q49 0 91.5 -19t74.5 -54t50.5 -85t18.5 -112t-18.5 -112t-50.5 -85t-74.5 -54t-91.5 -19q-42 0 -71.5 12.5t-49.5 27.5q-23 18 -39 40h-5v-65h-140v700zM195 255q0 -72 36.5 -111t93.5 -39q53 0 89 39t36 111
t-36 111t-89 39q-57 0 -93.5 -39t-36.5 -111z" />
    <glyph glyph-name="c" unicode="c" horiz-adv-x="585" 
d="M25 255q0 56 21 105.5t58 86t87.5 57.5t108.5 21q41 0 74 -8.5t59 -22.5t45.5 -32t33.5 -37q33 -44 48 -100h-145q-9 22 -24 40q-14 15 -35.5 27.5t-55.5 12.5q-26 0 -49.5 -11t-41.5 -30.5t-28.5 -47t-10.5 -61.5t10.5 -61.5t28.5 -47t41.5 -30.5t49.5 -11
q34 0 55.5 12.5t35.5 27.5q15 18 24 40h145q-13 -56 -46 -100q-14 -19 -33.5 -37t-45.5 -32t-59.5 -22.5t-75.5 -8.5q-58 0 -108.5 21t-87.5 57.5t-58 86t-21 105.5z" />
    <glyph glyph-name="d" unicode="d" horiz-adv-x="625" 
d="M30 255q0 62 18.5 112t50.5 85t74.5 54t91.5 19q42 0 71.5 -12.5t49.5 -27.5q23 -18 39 -40h5v255h140v-700h-140v65h-5q-16 -22 -39 -40q-20 -15 -49.5 -27.5t-71.5 -12.5q-49 0 -91.5 19t-74.5 54t-50.5 85t-18.5 112zM175 255q0 -72 36 -111t89 -39q57 0 93.5 39
t36.5 111t-36.5 111t-93.5 39q-53 0 -89 -39t-36 -111z" />
    <glyph glyph-name="e" unicode="e" horiz-adv-x="600" 
d="M25 255q0 56 21 105.5t58 86t87.5 57.5t108.5 21q60 0 109.5 -21t85.5 -58t55.5 -86t19.5 -105v-30h-400q4 -24 15.5 -46t29 -38.5t39.5 -26t46 -9.5q34 0 55.5 9.5t35.5 20.5q15 13 24 30h150q-16 -50 -50 -90q-15 -17 -35 -33t-46 -29t-59.5 -20.5t-74.5 -7.5
q-58 0 -108.5 21t-87.5 57.5t-58 86t-21 105.5zM420 310q-4 19 -14 36t-25.5 30t-36 21t-44.5 8q-49 0 -81.5 -28.5t-43.5 -66.5h245z" />
    <glyph glyph-name="f" unicode="f" horiz-adv-x="360" 
d="M15 500h65v200h285v-120h-145v-80h115v-120h-115v-380h-140v380h-65v120z" />
    <glyph glyph-name="g" unicode="g" horiz-adv-x="625" 
d="M30 260q0 60 18.5 108.5t50.5 83.5t74.5 54t91.5 19q42 0 71.5 -13t49.5 -28q23 -18 39 -40h5v66h140v-700h-465v120h325v146h-5q-16 -23 -39 -41q-20 -15 -49.5 -27.5t-71.5 -12.5q-49 0 -91.5 19t-74.5 54t-50.5 83.5t-18.5 108.5zM175 260q0 -68 36.5 -106.5
t93.5 -38.5q53 0 89 38.5t36 106.5t-36 106.5t-89 38.5q-57 0 -93.5 -38.5t-36.5 -106.5z" />
    <glyph glyph-name="h" unicode="h" horiz-adv-x="610" 
d="M55 700h140v-260h5q14 24 37 42q20 16 49.5 29.5t73.5 13.5q94 0 147 -54.5t53 -160.5v-310h-140v290q0 57 -28 86t-77 29q-24 0 -46 -10t-38.5 -27.5t-26 -42.5t-9.5 -55v-270h-140v700z" />
    <glyph glyph-name="i" unicode="i" horiz-adv-x="250" 
d="M45 650q0 30 23 52.5t57 22.5t57 -22.5t23 -52.5t-23 -52.5t-57 -22.5t-57 22.5t-23 52.5zM55 510h140v-510h-140v510z" />
    <glyph glyph-name="j" unicode="j" horiz-adv-x="250" 
d="M45 650q0 30 23 52.5t57 22.5t57 -22.5t23 -52.5t-23 -52.5t-57 -22.5t-57 22.5t-23 52.5zM-85 -75h140v585h140v-700h-280v115z" />
    <glyph glyph-name="k" unicode="k" horiz-adv-x="555" 
d="M55 700h140v-380h60l135 190h155l-165 -235l180 -275h-160l-130 200h-75v-200h-140v700z" />
    <glyph glyph-name="l" unicode="l" horiz-adv-x="320" 
d="M55 700h140v-580h115v-120h-255v700z" />
    <glyph glyph-name="m" unicode="m" horiz-adv-x="935" 
d="M55 510h140v-70h5q13 24 34 42q18 16 46 29.5t70 13.5q49 0 81.5 -15t52.5 -33q23 -21 36 -47h5q13 26 36 47q20 18 50.5 33t78.5 15q91 0 143 -54.5t52 -160.5v-310h-140v295q0 57 -25 83.5t-70 26.5t-77.5 -35t-32.5 -95v-275h-140v295q0 57 -25 83.5t-70 26.5
t-77.5 -35t-32.5 -95v-275h-140v510z" />
    <glyph glyph-name="n" unicode="n" horiz-adv-x="610" 
d="M55 510h140v-70h5q14 24 37 42q20 16 49.5 29.5t73.5 13.5q94 0 147 -54.5t53 -160.5v-310h-140v290q0 57 -28 86t-77 29q-24 0 -46 -10t-38.5 -27.5t-26 -42.5t-9.5 -55v-270h-140v510z" />
    <glyph glyph-name="o" unicode="o" horiz-adv-x="610" 
d="M25 255q0 56 21 105.5t58.5 86t89 57.5t111.5 21t111 -21t88.5 -57.5t59 -86t21.5 -105.5t-21.5 -105.5t-59 -86t-88.5 -57.5t-111 -21t-111.5 21t-89 57.5t-58.5 86t-21 105.5zM170 255q0 -34 10.5 -61.5t29 -47t43 -30.5t52.5 -11t52.5 11t43 30.5t29 47t10.5 61.5
t-10.5 61.5t-29 47t-43 30.5t-52.5 11t-52.5 -11t-43 -30.5t-29 -47t-10.5 -61.5z" />
    <glyph glyph-name="p" unicode="p" horiz-adv-x="625" 
d="M55 510h140v-65h5q16 22 39 40q20 15 49.5 27.5t71.5 12.5q49 0 91.5 -19t74.5 -54t50.5 -85t18.5 -112t-18.5 -112t-50.5 -85t-74.5 -54t-91.5 -19q-42 0 -71.5 12.5t-49.5 27.5q-23 18 -39 40h-5v-255h-140v700zM195 255q0 -72 36.5 -111t93.5 -39q53 0 89 39t36 111
t-36 111t-89 39q-57 0 -93.5 -39t-36.5 -111z" />
    <glyph glyph-name="q" unicode="q" horiz-adv-x="625" 
d="M30 255q0 62 18.5 112t50.5 85t74.5 54t91.5 19q42 0 71.5 -12.5t49.5 -27.5q23 -18 39 -40h5v65h140v-700h-140v255h-5q-16 -22 -39 -40q-20 -15 -49.5 -27.5t-71.5 -12.5q-49 0 -91.5 19t-74.5 54t-50.5 85t-18.5 112zM175 255q0 -72 36 -111t89 -39q57 0 93.5 39
t36.5 111t-36.5 111t-93.5 39q-53 0 -89 -39t-36 -111z" />
    <glyph glyph-name="r" unicode="r" horiz-adv-x="405" 
d="M55 510h140v-75h5q9 24 27 42q15 16 40 29.5t63 13.5h60v-135h-75q-57 0 -88.5 -31t-31.5 -84v-270h-140v510z" />
    <glyph glyph-name="s" unicode="s" horiz-adv-x="530" 
d="M165 165q8 -19 22 -33q12 -12 33 -22t55 -10q49 0 67 13.5t18 36.5q0 20 -23.5 30t-58.5 18t-75 17q-41 9 -76 27t-58.5 48t-23.5 80q0 30 14 58t41 49.5t67 34.5t93 13q40 0 72 -7t56.5 -19t42.5 -27t30 -30q29 -36 39 -82h-140q-6 14 -18 25q-11 9 -30.5 17t-51.5 8
q-38 0 -54 -12.5t-16 -27.5q0 -20 23.5 -30t58.5 -18t76 -17q40 -9 75 -27t58.5 -48t23.5 -80q0 -32 -15 -61.5t-44 -52.5t-72 -37t-99 -14q-41 0 -74 7.5t-58.5 20.5t-45 29t-32.5 33q-32 40 -45 90h145z" />
    <glyph glyph-name="t" unicode="t" horiz-adv-x="395" 
d="M15 510h65v110h140v-110h144v-120h-144v-270h150v-120h-290v390h-65v120z" />
    <glyph glyph-name="u" unicode="u" horiz-adv-x="615" 
d="M55 510h140v-290q0 -57 28 -86t77 -29q24 0 46 10t38.5 27.5t26 42.5t9.5 55v270h140v-510h-140v70h-5q-14 -25 -37 -43q-20 -16 -50 -29t-73 -13q-94 0 -147 54.5t-53 160.5v310z" />
    <glyph glyph-name="v" unicode="v" horiz-adv-x="555" 
d="M155 510l95 -390h55l95 390h145l-135 -510h-265l-135 510h145z" />
    <glyph glyph-name="w" unicode="w" horiz-adv-x="820" 
d="M160 510l70 -370h15l75 370h180l75 -370h15l70 370h145l-110 -510h-210l-70 350h-10l-70 -350h-210l-110 510h145z" />
    <glyph glyph-name="x" unicode="x" horiz-adv-x="545" 
d="M150 260l-140 250h155l95 -190h25l95 190h155l-140 -250l150 -260h-155l-105 200h-25l-105 -200h-155z" />
    <glyph glyph-name="y" unicode="y" horiz-adv-x="550" 
d="M155 510l100 -390h40l110 390h145l-205 -700h-145l55 190h-110l-135 510h145z" />
    <glyph glyph-name="z" unicode="z" horiz-adv-x="500" 
d="M25 120l255 260v10h-245v120h430v-120l-255 -260v-10h265v-120h-450v120z" />
    <glyph glyph-name="quoteright" unicode="&#x2019;" horiz-adv-x="230" 
d="M35 640q0 34 23 57t57 23t57 -26.5t23 -83.5q0 -87 -41 -131t-109 -44v60q34 0 52 17.5t18 47.5v10q-1 -2 -4 -3q-6 -2 -16 -2q-23 0 -41.5 20.5t-18.5 54.5z" />
    <glyph glyph-name="quotesinglbase" unicode="&#x201a;" horiz-adv-x="230" 
d="M35 65q0 34 23 57t57 23t57 -26.5t23 -83.5q0 -87 -41 -131t-109 -44v60q34 0 52 17.5t18 47.5v10q-1 -2 -4 -3q-6 -2 -16 -2q-23 0 -41.5 20.5t-18.5 54.5z" />
    <glyph glyph-name="quotedblleft" unicode="&#x201c;" horiz-adv-x="425" 
d="M35 545q0 87 41 131t109 44v-60q-34 0 -52 -17.5t-18 -47.5v-10q1 1 4 2q2 1 6 2t10 1q23 0 41.5 -20.5t18.5 -54.5t-23 -57t-57 -23t-57 26.5t-23 83.5zM230 545q0 87 41 131t109 44v-60q-34 0 -52 -17.5t-18 -47.5v-10q1 1 4 2q2 1 6 2t10 1q23 0 41.5 -20.5
t18.5 -54.5t-23 -57t-57 -23t-57 26.5t-23 83.5z" />
    <glyph glyph-name="quotedblright" unicode="&#x201d;" horiz-adv-x="425" 
d="M35 640q0 34 23 57t57 23t57 -26.5t23 -83.5q0 -87 -41 -131t-109 -44v60q34 0 52 17.5t18 47.5v10q-1 -2 -4 -3q-6 -2 -16 -2q-23 0 -41.5 20.5t-18.5 54.5zM230 640q0 34 23 57t57 23t57 -26.5t23 -83.5q0 -87 -41 -131t-109 -44v60q34 0 52 17.5t18 47.5v10
q-1 -2 -4 -3q-6 -2 -16 -2q-23 0 -41.5 20.5t-18.5 54.5z" />
    <glyph glyph-name="exclam" 
 />
    <glyph glyph-name="quotedbl" 
 />
    <glyph glyph-name="numbersign" 
 />
    <glyph glyph-name="dollar" 
 />
    <glyph glyph-name="percent" 
 />
    <glyph glyph-name="ampersand" 
 />
    <glyph glyph-name="slash" 
 />
    <glyph glyph-name="two" 
 />
    <glyph glyph-name="seven" 
 />
    <glyph glyph-name="nine" 
 />
    <glyph glyph-name="colon" 
 />
    <glyph glyph-name="semicolon" 
 />
    <glyph glyph-name="less" 
 />
    <glyph glyph-name="equal" 
 />
    <glyph glyph-name="greater" 
 />
    <glyph glyph-name="question" 
 />
    <glyph glyph-name="at" 
 />
    <glyph glyph-name="B" 
 />
    <glyph glyph-name="D" 
 />
    <glyph glyph-name="E" 
 />
    <glyph glyph-name="F" 
 />
    <glyph glyph-name="G" 
 />
    <glyph glyph-name="H" 
 />
    <glyph glyph-name="J" 
 />
    <glyph glyph-name="K" 
 />
    <glyph glyph-name="L" 
 />
    <glyph glyph-name="M" 
 />
    <glyph glyph-name="N" 
 />
    <glyph glyph-name="O" 
 />
    <glyph glyph-name="Q" 
 />
    <glyph glyph-name="R" 
 />
    <glyph glyph-name="S" 
 />
    <glyph glyph-name="V" 
 />
    <glyph glyph-name="X" 
 />
    <glyph glyph-name="Y" 
 />
    <glyph glyph-name="Z" 
 />
    <glyph glyph-name="braceleft" 
 />
    <glyph glyph-name="bar" 
 />
    <glyph glyph-name="braceright" 
 />
    <glyph glyph-name="asciitilde" 
 />
    <glyph glyph-name="nonbreakingspace" 
 />
    <glyph glyph-name="exclamdown" 
 />
    <glyph glyph-name="cent" 
 />
    <glyph glyph-name="sterling" 
 />
    <glyph glyph-name="currency" 
 />
    <glyph glyph-name="yen" 
 />
    <glyph glyph-name="brokenbar" 
 />
    <glyph glyph-name="section" 
 />
    <glyph glyph-name="dieresis" 
 />
    <glyph glyph-name="copyright" 
 />
    <glyph glyph-name="ordfeminine" 
 />
    <glyph glyph-name="guillemotleft" 
 />
    <glyph glyph-name="logicalnot" 
 />
    <glyph glyph-name="uni00AD" 
 />
    <glyph glyph-name="registered" 
 />
    <glyph glyph-name="macron" 
 />
    <glyph glyph-name="degree" 
 />
    <glyph glyph-name="plusminus" 
 />
    <glyph glyph-name="twosuperior" 
 />
    <glyph glyph-name="threesuperior" 
 />
    <glyph glyph-name="acute" 
 />
    <glyph glyph-name="mu" 
 />
    <glyph glyph-name="paragraph" 
 />
    <glyph glyph-name="periodcentered" 
 />
    <glyph glyph-name="cedilla" 
 />
    <glyph glyph-name="onesuperior" 
 />
    <glyph glyph-name="ordmasculine" 
 />
    <glyph glyph-name="guillemotright" 
 />
    <glyph glyph-name="onequarter" 
 />
    <glyph glyph-name="onehalf" 
 />
    <glyph glyph-name="threequarters" 
 />
    <glyph glyph-name="questiondown" 
 />
    <glyph glyph-name="Agrave" 
 />
    <glyph glyph-name="Aacute" 
 />
    <glyph glyph-name="Acircumflex" 
 />
    <glyph glyph-name="Atilde" 
 />
    <glyph glyph-name="Adieresis" 
 />
    <glyph glyph-name="Aring" 
 />
    <glyph glyph-name="AE" 
 />
    <glyph glyph-name="Ccedilla" 
 />
    <glyph glyph-name="Egrave" 
 />
    <glyph glyph-name="Eacute" 
 />
    <glyph glyph-name="Ecircumflex" 
 />
    <glyph glyph-name="Edieresis" 
 />
    <glyph glyph-name="Igrave" 
 />
    <glyph glyph-name="Iacute" 
 />
    <glyph glyph-name="Icircumflex" 
 />
    <glyph glyph-name="Idieresis" 
 />
    <glyph glyph-name="Eth" 
 />
    <glyph glyph-name="Ntilde" 
 />
    <glyph glyph-name="Ograve" 
 />
    <glyph glyph-name="Oacute" 
 />
    <glyph glyph-name="Ocircumflex" 
 />
    <glyph glyph-name="Otilde" 
 />
    <glyph glyph-name="Odieresis" 
 />
    <glyph glyph-name="multiply" 
 />
    <glyph glyph-name="Oslash" 
 />
    <glyph glyph-name="Ugrave" 
 />
    <glyph glyph-name="Uacute" 
 />
    <glyph glyph-name="Ucircumflex" 
 />
    <glyph glyph-name="Udieresis" 
 />
    <glyph glyph-name="Yacute" 
 />
    <glyph glyph-name="Thorn" 
 />
    <glyph glyph-name="germandbls" 
 />
    <glyph glyph-name="agrave" 
 />
    <glyph glyph-name="aacute" 
 />
    <glyph glyph-name="acircumflex" 
 />
    <glyph glyph-name="atilde" 
 />
    <glyph glyph-name="adieresis" 
 />
    <glyph glyph-name="aring" 
 />
    <glyph glyph-name="ae" 
 />
    <glyph glyph-name="ccedilla" 
 />
    <glyph glyph-name="egrave" 
 />
    <glyph glyph-name="eacute" 
 />
    <glyph glyph-name="ecircumflex" 
 />
    <glyph glyph-name="edieresis" 
 />
    <glyph glyph-name="igrave" 
 />
    <glyph glyph-name="iacute" 
 />
    <glyph glyph-name="icircumflex" 
 />
    <glyph glyph-name="idieresis" 
 />
    <glyph glyph-name="eth" 
 />
    <glyph glyph-name="ntilde" 
 />
    <glyph glyph-name="ograve" 
 />
    <glyph glyph-name="oacute" 
 />
    <glyph glyph-name="ocircumflex" 
 />
    <glyph glyph-name="otilde" 
 />
    <glyph glyph-name="odieresis" 
 />
    <glyph glyph-name="divide" 
 />
    <glyph glyph-name="oslash" 
 />
    <glyph glyph-name="ugrave" 
 />
    <glyph glyph-name="uacute" 
 />
    <glyph glyph-name="ucircumflex" 
 />
    <glyph glyph-name="udieresis" 
 />
    <glyph glyph-name="yacute" 
 />
    <glyph glyph-name="thorn" 
 />
    <glyph glyph-name="ydieresis" 
 />
    <glyph glyph-name="Amacron" 
 />
    <glyph glyph-name="amacron" 
 />
    <glyph glyph-name="Abreve" 
 />
    <glyph glyph-name="abreve" 
 />
    <glyph glyph-name="Aogonek" 
 />
    <glyph glyph-name="aogonek" 
 />
    <glyph glyph-name="Cacute" 
 />
    <glyph glyph-name="cacute" 
 />
    <glyph glyph-name="Ccircumflex" 
 />
    <glyph glyph-name="ccircumflex" 
 />
    <glyph glyph-name="Ccaron" 
 />
    <glyph glyph-name="ccaron" 
 />
    <glyph glyph-name="Dcaron" 
 />
    <glyph glyph-name="dcaron" 
 />
    <glyph glyph-name="Dcroat" 
 />
    <glyph glyph-name="dcroat" 
 />
    <glyph glyph-name="Emacron" 
 />
    <glyph glyph-name="emacron" 
 />
    <glyph glyph-name="Edotaccent" 
 />
    <glyph glyph-name="edotaccent" 
 />
    <glyph glyph-name="Eogonek" 
 />
    <glyph glyph-name="eogonek" 
 />
    <glyph glyph-name="Ecaron" 
 />
    <glyph glyph-name="ecaron" 
 />
    <glyph glyph-name="Gbreve" 
 />
    <glyph glyph-name="gbreve" 
 />
    <glyph glyph-name="Gcommaaccent" 
 />
    <glyph glyph-name="gcommaaccent" 
 />
    <glyph glyph-name="Imacron" 
 />
    <glyph glyph-name="imacron" 
 />
    <glyph glyph-name="Iogonek" 
 />
    <glyph glyph-name="iogonek" 
 />
    <glyph glyph-name="Idotaccent" 
 />
    <glyph glyph-name="dotlessi" 
 />
    <glyph glyph-name="Kcommaaccent" 
 />
    <glyph glyph-name="kcommaaccent" 
 />
    <glyph glyph-name="Lacute" 
 />
    <glyph glyph-name="lacute" 
 />
    <glyph glyph-name="Lcommaaccent" 
 />
    <glyph glyph-name="lcommaaccent" 
 />
    <glyph glyph-name="Lcaron" 
 />
    <glyph glyph-name="lcaron" 
 />
    <glyph glyph-name="Lslash" 
 />
    <glyph glyph-name="lslash" 
 />
    <glyph glyph-name="Nacute" 
 />
    <glyph glyph-name="nacute" 
 />
    <glyph glyph-name="Ncommaaccent" 
 />
    <glyph glyph-name="ncommaaccent" 
 />
    <glyph glyph-name="Ncaron" 
 />
    <glyph glyph-name="ncaron" 
 />
    <glyph glyph-name="Omacron" 
 />
    <glyph glyph-name="omacron" 
 />
    <glyph glyph-name="Ohungarumlaut" 
 />
    <glyph glyph-name="ohungarumlaut" 
 />
    <glyph glyph-name="OE" 
 />
    <glyph glyph-name="oe" 
 />
    <glyph glyph-name="Racute" 
 />
    <glyph glyph-name="racute" 
 />
    <glyph glyph-name="Rcommaaccent" 
 />
    <glyph glyph-name="rcommaaccent" 
 />
    <glyph glyph-name="Rcaron" 
 />
    <glyph glyph-name="rcaron" 
 />
    <glyph glyph-name="Sacute" 
 />
    <glyph glyph-name="sacute" 
 />
    <glyph glyph-name="Scedilla" 
 />
    <glyph glyph-name="scedilla" 
 />
    <glyph glyph-name="Scaron" 
 />
    <glyph glyph-name="scaron" 
 />
    <glyph glyph-name="Tcommaaccent" 
 />
    <glyph glyph-name="tcommaaccent" 
 />
    <glyph glyph-name="Tcaron" 
 />
    <glyph glyph-name="tcaron" 
 />
    <glyph glyph-name="Umacron" 
 />
    <glyph glyph-name="umacron" 
 />
    <glyph glyph-name="Uring" 
 />
    <glyph glyph-name="uring" 
 />
    <glyph glyph-name="Uhungarumlaut" 
 />
    <glyph glyph-name="uhungarumlaut" 
 />
    <glyph glyph-name="Uogonek" 
 />
    <glyph glyph-name="uogonek" 
 />
    <glyph glyph-name="Ydieresis" 
 />
    <glyph glyph-name="Zacute" 
 />
    <glyph glyph-name="zacute" 
 />
    <glyph glyph-name="Zdotaccent" 
 />
    <glyph glyph-name="zdotaccent" 
 />
    <glyph glyph-name="Zcaron" 
 />
    <glyph glyph-name="zcaron" 
 />
    <glyph glyph-name="florin" 
 />
    <glyph glyph-name="uni01FA" 
 />
    <glyph glyph-name="uni01FB" 
 />
    <glyph glyph-name="uni01FC" 
 />
    <glyph glyph-name="uni01FD" 
 />
    <glyph glyph-name="uni01FE" 
 />
    <glyph glyph-name="uni01FF" 
 />
    <glyph glyph-name="Scommaaccent" 
 />
    <glyph glyph-name="scommaaccent" 
 />
    <glyph glyph-name="uni021A" 
 />
    <glyph glyph-name="uni021B" 
 />
    <glyph glyph-name="afii57929" 
 />
    <glyph glyph-name="circumflex" 
 />
    <glyph glyph-name="caron" 
 />
    <glyph glyph-name="breve" 
 />
    <glyph glyph-name="dotaccent" 
 />
    <glyph glyph-name="ring" 
 />
    <glyph glyph-name="ogonek" 
 />
    <glyph glyph-name="tilde" 
 />
    <glyph glyph-name="hungarumlaut" 
 />
    <glyph glyph-name="uni0301" 
 />
    <glyph glyph-name="uni030A" 
 />
    <glyph glyph-name="afii10023" 
 />
    <glyph glyph-name="afii10051" 
 />
    <glyph glyph-name="afii10052" 
 />
    <glyph glyph-name="afii10053" 
 />
    <glyph glyph-name="afii10054" 
 />
    <glyph glyph-name="afii10055" 
 />
    <glyph glyph-name="afii10056" 
 />
    <glyph glyph-name="afii10057" 
 />
    <glyph glyph-name="afii10058" 
 />
    <glyph glyph-name="afii10059" 
 />
    <glyph glyph-name="afii10060" 
 />
    <glyph glyph-name="afii10061" 
 />
    <glyph glyph-name="afii10062" 
 />
    <glyph glyph-name="afii10145" 
 />
    <glyph glyph-name="afii10017" 
 />
    <glyph glyph-name="afii10018" 
 />
    <glyph glyph-name="afii10019" 
 />
    <glyph glyph-name="afii10020" 
 />
    <glyph glyph-name="afii10021" 
 />
    <glyph glyph-name="afii10022" 
 />
    <glyph glyph-name="afii10024" 
 />
    <glyph glyph-name="afii10025" 
 />
    <glyph glyph-name="afii10026" 
 />
    <glyph glyph-name="afii10027" 
 />
    <glyph glyph-name="afii10028" 
 />
    <glyph glyph-name="afii10029" 
 />
    <glyph glyph-name="afii10030" 
 />
    <glyph glyph-name="afii10031" 
 />
    <glyph glyph-name="afii10032" 
 />
    <glyph glyph-name="afii10033" 
 />
    <glyph glyph-name="afii10034" 
 />
    <glyph glyph-name="afii10035" 
 />
    <glyph glyph-name="afii10036" 
 />
    <glyph glyph-name="afii10037" 
 />
    <glyph glyph-name="afii10038" 
 />
    <glyph glyph-name="afii10039" 
 />
    <glyph glyph-name="afii10040" 
 />
    <glyph glyph-name="afii10041" 
 />
    <glyph glyph-name="afii10042" 
 />
    <glyph glyph-name="afii10043" 
 />
    <glyph glyph-name="afii10044" 
 />
    <glyph glyph-name="afii10045" 
 />
    <glyph glyph-name="afii10046" 
 />
    <glyph glyph-name="afii10047" 
 />
    <glyph glyph-name="afii10048" 
 />
    <glyph glyph-name="afii10049" 
 />
    <glyph glyph-name="afii10065" 
 />
    <glyph glyph-name="afii10066" 
 />
    <glyph glyph-name="afii10067" 
 />
    <glyph glyph-name="afii10068" 
 />
    <glyph glyph-name="afii10069" 
 />
    <glyph glyph-name="afii10070" 
 />
    <glyph glyph-name="afii10072" 
 />
    <glyph glyph-name="afii10073" 
 />
    <glyph glyph-name="afii10074" 
 />
    <glyph glyph-name="afii10075" 
 />
    <glyph glyph-name="afii10076" 
 />
    <glyph glyph-name="afii10077" 
 />
    <glyph glyph-name="afii10078" 
 />
    <glyph glyph-name="afii10079" 
 />
    <glyph glyph-name="afii10080" 
 />
    <glyph glyph-name="afii10081" 
 />
    <glyph glyph-name="afii10082" 
 />
    <glyph glyph-name="afii10083" 
 />
    <glyph glyph-name="afii10084" 
 />
    <glyph glyph-name="afii10085" 
 />
    <glyph glyph-name="afii10086" 
 />
    <glyph glyph-name="afii10087" 
 />
    <glyph glyph-name="afii10088" 
 />
    <glyph glyph-name="afii10089" 
 />
    <glyph glyph-name="afii10090" 
 />
    <glyph glyph-name="afii10091" 
 />
    <glyph glyph-name="afii10092" 
 />
    <glyph glyph-name="afii10093" 
 />
    <glyph glyph-name="afii10094" 
 />
    <glyph glyph-name="afii10095" 
 />
    <glyph glyph-name="afii10096" 
 />
    <glyph glyph-name="afii10097" 
 />
    <glyph glyph-name="afii10071" 
 />
    <glyph glyph-name="afii10099" 
 />
    <glyph glyph-name="afii10100" 
 />
    <glyph glyph-name="afii10101" 
 />
    <glyph glyph-name="afii10102" 
 />
    <glyph glyph-name="afii10103" 
 />
    <glyph glyph-name="afii10104" 
 />
    <glyph glyph-name="afii10105" 
 />
    <glyph glyph-name="afii10106" 
 />
    <glyph glyph-name="afii10107" 
 />
    <glyph glyph-name="afii10108" 
 />
    <glyph glyph-name="afii10109" 
 />
    <glyph glyph-name="afii10110" 
 />
    <glyph glyph-name="afii10193" 
 />
    <glyph glyph-name="afii10050" 
 />
    <glyph glyph-name="afii10098" 
 />
    <glyph glyph-name="uni1E9E" 
 />
    <glyph glyph-name="endash" 
 />
    <glyph glyph-name="emdash" 
 />
    <glyph glyph-name="quoteleft" horiz-adv-x="230" 
d="M35 545q0 87 41 131t109 44v-60q-34 0 -52 -17.5t-18 -47.5v-10q1 1 4 2q2 1 6 2t10 1q23 0 41.5 -20.5t18.5 -54.5t-23 -57t-57 -23t-57 26.5t-23 83.5z" />
    <glyph glyph-name="quotedblbase" 
 />
    <glyph glyph-name="dagger" 
 />
    <glyph glyph-name="daggerdbl" 
 />
    <glyph glyph-name="bullet" 
 />
    <glyph glyph-name="ellipsis" 
 />
    <glyph glyph-name="perthousand" 
 />
    <glyph glyph-name="guilsinglleft" 
 />
    <glyph glyph-name="guilsinglright" 
 />
    <glyph glyph-name="fraction" 
 />
    <glyph glyph-name="zerosuperior" 
 />
    <glyph glyph-name="foursuperior" 
 />
    <glyph glyph-name="fivesuperior" 
 />
    <glyph glyph-name="sixsuperior" 
 />
    <glyph glyph-name="sevensuperior" 
 />
    <glyph glyph-name="eightsuperior" 
 />
    <glyph glyph-name="ninesuperior" 
 />
    <glyph glyph-name="zeroinferior" 
 />
    <glyph glyph-name="oneinferior" 
 />
    <glyph glyph-name="twoinferior" 
 />
    <glyph glyph-name="threeinferior" 
 />
    <glyph glyph-name="fourinferior" 
 />
    <glyph glyph-name="fiveinferior" 
 />
    <glyph glyph-name="sixinferior" 
 />
    <glyph glyph-name="seveninferior" 
 />
    <glyph glyph-name="eightinferior" 
 />
    <glyph glyph-name="nineinferior" 
 />
    <glyph glyph-name="Euro" 
 />
    <glyph glyph-name="uni20B4" 
 />
    <glyph glyph-name="uni20BD" 
 />
    <glyph glyph-name="afii61352" 
 />
    <glyph glyph-name="trademark" 
 />
    <glyph glyph-name="arrowleft" 
 />
    <glyph glyph-name="arrowup" 
 />
    <glyph glyph-name="arrowright" 
 />
    <glyph glyph-name="arrowdown" 
 />
    <glyph glyph-name="uni2196" 
 />
    <glyph glyph-name="uni2197" 
 />
    <glyph glyph-name="uni2198" 
 />
    <glyph glyph-name="uni2199" 
 />
    <glyph glyph-name="minus" 
 />
    <glyph glyph-name="approxequal" 
 />
    <glyph glyph-name="notequal" 
 />
    <glyph glyph-name="lessequal" 
 />
    <glyph glyph-name="greaterequal" 
 />
    <glyph glyph-name="commaaccent" 
 />
    <glyph glyph-name="cyrBreve" 
 />
    <glyph glyph-name="cyrbreve" 
 />
    <glyph glyph-name="zero.oldstyle" 
 />
    <glyph glyph-name="one.oldstyle" 
 />
    <glyph glyph-name="two.oldstyle" 
 />
    <glyph glyph-name="three.oldstyle" 
 />
    <glyph glyph-name="four.oldstyle" 
 />
    <glyph glyph-name="five.oldstyle" 
 />
    <glyph glyph-name="six.oldstyle" 
 />
    <glyph glyph-name="seven.oldstyle" 
 />
    <glyph glyph-name="eight.oldstyle" 
 />
    <glyph glyph-name="nine.oldstyle" 
 />
    <glyph glyph-name="ecaron.sc" 
 />
    <glyph glyph-name="ecircumflex.sc" 
 />
    <glyph glyph-name="parenright.case" 
 />
    <glyph glyph-name="bracketleft.case" 
 />
    <glyph glyph-name="bracketright.case" 
 />
    <glyph glyph-name="braceleft.case" 
 />
    <glyph glyph-name="braceright.case" 
 />
    <glyph glyph-name="exclamdown.case" 
 />
    <glyph glyph-name="questiondown.case" 
 />
    <glyph glyph-name="guillemotleft.case" 
 />
    <glyph glyph-name="guillemotright.case" 
 />
    <glyph glyph-name="guilsinglleft.case" 
 />
    <glyph glyph-name="guilsinglright.case" 
 />
    <glyph glyph-name="hyphen.case" 
 />
    <glyph glyph-name="endash.case" 
 />
    <glyph glyph-name="emdash.case" 
 />
    <glyph glyph-name="periodcentered.case" 
 />
    <glyph glyph-name="Iogonek.alt" 
 />
    <glyph glyph-name="gbreve.alt" 
 />
    <glyph glyph-name="gcommaaccent.alt" 
 />
    <glyph glyph-name="Adieresis.alt2" 
 />
    <glyph glyph-name="Odieresis.alt2" 
 />
    <glyph glyph-name="Aring.alt2" 
 />
    <glyph glyph-name="Udieresis.alt2" 
 />
    <glyph glyph-name="Scaron.alt2" 
 />
    <glyph glyph-name="Zcaron.alt2" 
 />
    <glyph glyph-name="Otilde.alt2" 
 />
    <glyph glyph-name="I.alt" 
 />
    <glyph glyph-name="y.alt" 
 />
    <glyph glyph-name="afii10085.alt" 
 />
    <glyph glyph-name="l.alt" 
 />
    <glyph glyph-name="ydieresis.alt" 
 />
    <glyph glyph-name="yacute.alt" 
 />
    <glyph glyph-name="Imacron.alt" 
 />
    <glyph glyph-name="Idotaccent.alt" 
 />
    <glyph glyph-name="Idieresis.alt" 
 />
    <glyph glyph-name="Icircumflex.alt" 
 />
    <glyph glyph-name="Iacute.alt" 
 />
    <glyph glyph-name="Igrave.alt" 
 />
    <glyph glyph-name="lcommaaccent.alt" 
 />
    <glyph glyph-name="lcaron.alt" 
 />
    <glyph glyph-name="lacute.alt" 
 />
    <glyph glyph-name="atilde.alt" 
 />
    <glyph glyph-name="aring.alt" 
 />
    <glyph glyph-name="aogonek.alt" 
 />
    <glyph glyph-name="amacron.alt" 
 />
    <glyph glyph-name="adieresis.alt" 
 />
    <glyph glyph-name="acircumflex.alt" 
 />
    <glyph glyph-name="abreve.alt" 
 />
    <glyph glyph-name="aacute.alt" 
 />
    <glyph glyph-name="agrave.alt" 
 />
    <glyph glyph-name="afii10110.alt" 
 />
    <glyph glyph-name="lslash.alt" 
 />
    <glyph glyph-name="g.alt" 
 />
    <glyph glyph-name="a.alt" 
 />
    <glyph glyph-name="at.case" 
 />
    <glyph glyph-name="nine.taboldstyle" 
 />
    <glyph glyph-name="eight.taboldstyle" 
 />
    <glyph glyph-name="seven.taboldstyle" 
 />
    <glyph glyph-name="six.taboldstyle" 
 />
    <glyph glyph-name="five.taboldstyle" 
 />
    <glyph glyph-name="four.taboldstyle" 
 />
    <glyph glyph-name="three.taboldstyle" 
 />
    <glyph glyph-name="two.taboldstyle" 
 />
    <glyph glyph-name="one.taboldstyle" 
 />
    <glyph glyph-name="zero.taboldstyle" 
 />
    <glyph glyph-name="K_K" 
 />
    <glyph glyph-name="L_L" 
 />
    <glyph glyph-name="T_E" 
 />
    <glyph glyph-name="R_J" 
 />
    <glyph glyph-name="T_T" 
 />
    <glyph glyph-name="U_U" 
 />
    <glyph glyph-name="P_H" 
 />
    <glyph glyph-name="E_A" 
 />
    <glyph glyph-name="C_O" 
 />
    <glyph glyph-name="K_O" 
 />
    <glyph glyph-name="W_E" 
 />
    <glyph glyph-name="A_T" 
 />
    <glyph glyph-name="S_A" 
 />
    <glyph glyph-name="L_F" 
 />
    <glyph glyph-name="L_I" 
 />
    <glyph glyph-name="L_A" 
 />
    <glyph glyph-name="L_O" 
 />
    <glyph glyph-name="C_E" 
 />
    <glyph glyph-name="A_V" 
 />
    <glyph glyph-name="ampersand.alt2" 
 />
    <glyph glyph-name="O_G" 
 />
    <glyph glyph-name="O_O" 
 />
    <glyph glyph-name="O_C" 
 />
    <glyph glyph-name="T_H_E" 
 />
    <glyph glyph-name="nine.dnom" 
 />
    <glyph glyph-name="eight.dnom" 
 />
    <glyph glyph-name="seven.dnom" 
 />
    <glyph glyph-name="six.dnom" 
 />
    <glyph glyph-name="five.dnom" 
 />
    <glyph glyph-name="four.dnom" 
 />
    <glyph glyph-name="three.dnom" 
 />
    <glyph glyph-name="two.dnom" 
 />
    <glyph glyph-name="one.dnom" 
 />
    <glyph glyph-name="zero.dnom" 
 />
    <glyph glyph-name="nine.numr" 
 />
    <glyph glyph-name="eight.numr" 
 />
    <glyph glyph-name="seven.numr" 
 />
    <glyph glyph-name="six.numr" 
 />
    <glyph glyph-name="five.numr" 
 />
    <glyph glyph-name="four.numr" 
 />
    <glyph glyph-name="three.numr" 
 />
    <glyph glyph-name="two.numr" 
 />
    <glyph glyph-name="one.numr" 
 />
    <glyph glyph-name="zero.numr" 
 />
    <glyph glyph-name="nine.tab" 
 />
    <glyph glyph-name="eight.tab" 
 />
    <glyph glyph-name="afii10029.alt" 
 />
    <glyph glyph-name="afii10077.alt" 
 />
    <glyph glyph-name="afii10028.alt" 
 />
    <glyph glyph-name="afii10076.alt" 
 />
    <glyph glyph-name="afii10024.alt" 
 />
    <glyph glyph-name="afii10072.alt" 
 />
    <glyph glyph-name="afii10021.alt" 
 />
    <glyph glyph-name="afii10069.alt" 
 />
    <glyph glyph-name="seven.tab" 
 />
    <glyph glyph-name="six.tab" 
 />
    <glyph glyph-name="ff.alt" 
 />
    <glyph glyph-name="fi.alt" 
 />
    <glyph glyph-name="fl.alt" 
 />
    <glyph glyph-name="f_j.alt" 
 />
    <glyph glyph-name="f_t.alt" 
 />
    <glyph glyph-name="f.alt" 
 />
    <glyph glyph-name="j.alt" 
 />
    <glyph glyph-name="afii10051.alt" 
 />
    <glyph glyph-name="afii10099.alt" 
 />
    <glyph glyph-name="afii10105.alt" 
 />
    <glyph glyph-name="tcaron.alt" 
 />
    <glyph glyph-name="tcommaaccent.alt" 
 />
    <glyph glyph-name="uni021B.alt" 
 />
    <glyph glyph-name="t.alt" 
 />
    <glyph glyph-name="afii10058.alt" 
 />
    <glyph glyph-name="afii10061.alt" 
 />
    <glyph glyph-name="afii10106.alt" 
 />
    <glyph glyph-name="afii10109.alt" 
 />
    <glyph glyph-name="florin.alt" 
 />
    <glyph glyph-name="T_A" 
 />
    <glyph glyph-name="A_A" 
 />
    <glyph glyph-name="J_A" 
 />
    <glyph glyph-name="O_L_I" 
 />
    <glyph glyph-name="D_E" 
 />
    <glyph glyph-name="A_R" 
 />
    <glyph glyph-name="N_A" 
 />
    <glyph glyph-name="Aacute.alt2" 
 />
    <glyph glyph-name="Eacute.alt2" 
 />
    <glyph glyph-name="Iacute.alt2" 
 />
    <glyph glyph-name="Oacute.alt2" 
 />
    <glyph glyph-name="Uacute.alt2" 
 />
    <glyph glyph-name="Yacute.alt2" 
 />
    <glyph glyph-name="afii10056.alt" 
 />
    <glyph glyph-name="afii10055.alt" 
 />
    <glyph glyph-name="five.tab" 
 />
    <glyph glyph-name="a.sc" 
 />
    <glyph glyph-name="aacute.sc" 
 />
    <glyph glyph-name="abreve.sc" 
 />
    <glyph glyph-name="acircumflex.sc" 
 />
    <glyph glyph-name="adieresis.sc" 
 />
    <glyph glyph-name="agrave.sc" 
 />
    <glyph glyph-name="amacron.sc" 
 />
    <glyph glyph-name="aogonek.sc" 
 />
    <glyph glyph-name="aring.sc" 
 />
    <glyph glyph-name="atilde.sc" 
 />
    <glyph glyph-name="ae.sc" 
 />
    <glyph glyph-name="b.sc" 
 />
    <glyph glyph-name="c.sc" 
 />
    <glyph glyph-name="cacute.sc" 
 />
    <glyph glyph-name="ccaron.sc" 
 />
    <glyph glyph-name="ccedilla.sc" 
 />
    <glyph glyph-name="ccircumflex.sc" 
 />
    <glyph glyph-name="d.sc" 
 />
    <glyph glyph-name="dcaron.sc" 
 />
    <glyph glyph-name="dcroat.sc" 
 />
    <glyph glyph-name="eth.sc" 
 />
    <glyph glyph-name="e.sc" 
 />
    <glyph glyph-name="eacute.sc" 
 />
    <glyph glyph-name="afii10065.alt" 
 />
    <glyph glyph-name="parenleft.case" 
 />
    <glyph glyph-name="edieresis.sc" 
 />
    <glyph glyph-name="edotaccent.sc" 
 />
    <glyph glyph-name="egrave.sc" 
 />
    <glyph glyph-name="emacron.sc" 
 />
    <glyph glyph-name="eogonek.sc" 
 />
    <glyph glyph-name="f.sc" 
 />
    <glyph glyph-name="g.sc" 
 />
    <glyph glyph-name="gbreve.sc" 
 />
    <glyph glyph-name="gcommaaccent.sc" 
 />
    <glyph glyph-name="h.sc" 
 />
    <glyph glyph-name="i.sc" 
 />
    <glyph glyph-name="iacute.sc" 
 />
    <glyph glyph-name="icircumflex.sc" 
 />
    <glyph glyph-name="dotlessi.sc" 
 />
    <glyph glyph-name="idieresis.sc" 
 />
    <glyph glyph-name="igrave.sc" 
 />
    <glyph glyph-name="imacron.sc" 
 />
    <glyph glyph-name="iogonek.sc" 
 />
    <glyph glyph-name="j.sc" 
 />
    <glyph glyph-name="k.sc" 
 />
    <glyph glyph-name="kcommaaccent.sc" 
 />
    <glyph glyph-name="l.sc" 
 />
    <glyph glyph-name="lacute.sc" 
 />
    <glyph glyph-name="lcaron.sc" 
 />
    <glyph glyph-name="lcommaaccent.sc" 
 />
    <glyph glyph-name="lslash.sc" 
 />
    <glyph glyph-name="m.sc" 
 />
    <glyph glyph-name="n.sc" 
 />
    <glyph glyph-name="nacute.sc" 
 />
    <glyph glyph-name="ncaron.sc" 
 />
    <glyph glyph-name="ncommaaccent.sc" 
 />
    <glyph glyph-name="ntilde.sc" 
 />
    <glyph glyph-name="o.sc" 
 />
    <glyph glyph-name="oacute.sc" 
 />
    <glyph glyph-name="ocircumflex.sc" 
 />
    <glyph glyph-name="odieresis.sc" 
 />
    <glyph glyph-name="ograve.sc" 
 />
    <glyph glyph-name="ohungarumlaut.sc" 
 />
    <glyph glyph-name="omacron.sc" 
 />
    <glyph glyph-name="oslash.sc" 
 />
    <glyph glyph-name="otilde.sc" 
 />
    <glyph glyph-name="oe.sc" 
 />
    <glyph glyph-name="p.sc" 
 />
    <glyph glyph-name="q.sc" 
 />
    <glyph glyph-name="r.sc" 
 />
    <glyph glyph-name="racute.sc" 
 />
    <glyph glyph-name="rcaron.sc" 
 />
    <glyph glyph-name="rcommaaccent.sc" 
 />
    <glyph glyph-name="s.sc" 
 />
    <glyph glyph-name="sacute.sc" 
 />
    <glyph glyph-name="scaron.sc" 
 />
    <glyph glyph-name="scedilla.sc" 
 />
    <glyph glyph-name="scommaaccent.sc" 
 />
    <glyph glyph-name="t.sc" 
 />
    <glyph glyph-name="tcaron.sc" 
 />
    <glyph glyph-name="tcommaaccent.sc" 
 />
    <glyph glyph-name="uni021B.sc" 
 />
    <glyph glyph-name="u.sc" 
 />
    <glyph glyph-name="uacute.sc" 
 />
    <glyph glyph-name="ucircumflex.sc" 
 />
    <glyph glyph-name="udieresis.sc" 
 />
    <glyph glyph-name="ugrave.sc" 
 />
    <glyph glyph-name="uhungarumlaut.sc" 
 />
    <glyph glyph-name="umacron.sc" 
 />
    <glyph glyph-name="uogonek.sc" 
 />
    <glyph glyph-name="uring.sc" 
 />
    <glyph glyph-name="v.sc" 
 />
    <glyph glyph-name="w.sc" 
 />
    <glyph glyph-name="x.sc" 
 />
    <glyph glyph-name="y.sc" 
 />
    <glyph glyph-name="yacute.sc" 
 />
    <glyph glyph-name="ydieresis.sc" 
 />
    <glyph glyph-name="z.sc" 
 />
    <glyph glyph-name="zacute.sc" 
 />
    <glyph glyph-name="zcaron.sc" 
 />
    <glyph glyph-name="zdotaccent.sc" 
 />
    <glyph glyph-name="germandbls.sc" 
 />
    <glyph glyph-name="uni1E9E.sc" 
 />
    <glyph glyph-name="thorn.sc" 
 />
    <glyph glyph-name="dollar.sc" 
 />
    <glyph glyph-name="Euro.sc" 
 />
    <glyph glyph-name="sterling.sc" 
 />
    <glyph glyph-name="yen.sc" 
 />
    <glyph glyph-name="uni20BD.sc" 
 />
    <glyph glyph-name="currency.sc" 
 />
    <glyph glyph-name="uni20B4.sc" 
 />
    <glyph glyph-name="afii10065.sc" 
 />
    <glyph glyph-name="afii10066.sc" 
 />
    <glyph glyph-name="afii10067.sc" 
 />
    <glyph glyph-name="afii10068.sc" 
 />
    <glyph glyph-name="afii10069.sc" 
 />
    <glyph glyph-name="afii10070.sc" 
 />
    <glyph glyph-name="afii10071.sc" 
 />
    <glyph glyph-name="afii10072.sc" 
 />
    <glyph glyph-name="afii10073.sc" 
 />
    <glyph glyph-name="afii10074.sc" 
 />
    <glyph glyph-name="afii10075.sc" 
 />
    <glyph glyph-name="afii10076.sc" 
 />
    <glyph glyph-name="afii10077.sc" 
 />
    <glyph glyph-name="afii10078.sc" 
 />
    <glyph glyph-name="afii10079.sc" 
 />
    <glyph glyph-name="afii10080.sc" 
 />
    <glyph glyph-name="afii10081.sc" 
 />
    <glyph glyph-name="afii10082.sc" 
 />
    <glyph glyph-name="afii10083.sc" 
 />
    <glyph glyph-name="afii10084.sc" 
 />
    <glyph glyph-name="afii10085.sc" 
 />
    <glyph glyph-name="afii10086.sc" 
 />
    <glyph glyph-name="afii10087.sc" 
 />
    <glyph glyph-name="afii10088.sc" 
 />
    <glyph glyph-name="afii10089.sc" 
 />
    <glyph glyph-name="afii10090.sc" 
 />
    <glyph glyph-name="afii10091.sc" 
 />
    <glyph glyph-name="afii10092.sc" 
 />
    <glyph glyph-name="afii10093.sc" 
 />
    <glyph glyph-name="afii10094.sc" 
 />
    <glyph glyph-name="afii10095.sc" 
 />
    <glyph glyph-name="afii10096.sc" 
 />
    <glyph glyph-name="afii10097.sc" 
 />
    <glyph glyph-name="afii10098.sc" 
 />
    <glyph glyph-name="afii10099.sc" 
 />
    <glyph glyph-name="afii10100.sc" 
 />
    <glyph glyph-name="afii10101.sc" 
 />
    <glyph glyph-name="afii10102.sc" 
 />
    <glyph glyph-name="afii10103.sc" 
 />
    <glyph glyph-name="afii10104.sc" 
 />
    <glyph glyph-name="afii10105.sc" 
 />
    <glyph glyph-name="afii10106.sc" 
 />
    <glyph glyph-name="afii10107.sc" 
 />
    <glyph glyph-name="afii10108.sc" 
 />
    <glyph glyph-name="afii10109.sc" 
 />
    <glyph glyph-name="afii10110.sc" 
 />
    <glyph glyph-name="afii10193.sc" 
 />
    <glyph glyph-name="I.alt_sc" 
 />
    <glyph glyph-name="Iacute.alt_sc" 
 />
    <glyph glyph-name="Icircumflex.alt_sc" 
 />
    <glyph glyph-name="Idieresis.alt_sc" 
 />
    <glyph glyph-name="Idotaccent.alt_sc" 
 />
    <glyph glyph-name="Igrave.alt_sc" 
 />
    <glyph glyph-name="Imacron.alt_sc" 
 />
    <glyph glyph-name="Iogonek.alt_sc" 
 />
    <glyph glyph-name="afii10055.alt_sc" 
 />
    <glyph glyph-name="afii10056.alt_sc" 
 />
    <glyph glyph-name="afii10069.alt_sc" 
 />
    <glyph glyph-name="afii10072.alt_sc" 
 />
    <glyph glyph-name="afii10076.alt_sc" 
 />
    <glyph glyph-name="afii10077.alt_sc" 
 />
    <glyph glyph-name="afii10099.alt_sc" 
 />
    <glyph glyph-name="afii10106.alt_sc" 
 />
    <glyph glyph-name="afii10109.alt_sc" 
 />
    <glyph glyph-name="Aacute.alt2_sc" 
 />
    <glyph glyph-name="Adieresis.alt2_sc" 
 />
    <glyph glyph-name="Aring.alt2_sc" 
 />
    <glyph glyph-name="Eacute.alt2_sc" 
 />
    <glyph glyph-name="Iacute.alt2_sc" 
 />
    <glyph glyph-name="Oacute.alt2_sc" 
 />
    <glyph glyph-name="Odieresis.alt2_sc" 
 />
    <glyph glyph-name="Otilde.alt2_sc" 
 />
    <glyph glyph-name="Scaron.alt2_sc" 
 />
    <glyph glyph-name="Uacute.alt2_sc" 
 />
    <glyph glyph-name="Udieresis.alt2_sc" 
 />
    <glyph glyph-name="Yacute.alt2_sc" 
 />
    <glyph glyph-name="Zcaron.alt2_sc" 
 />
    <glyph glyph-name="four.tab" 
 />
    <glyph glyph-name="three.tab" 
 />
    <glyph glyph-name="uni01FB.alt" 
 />
    <glyph glyph-name="two.tab" 
 />
    <glyph glyph-name="one.tab" 
 />
    <glyph glyph-name="zero.tab" 
 />
    <glyph glyph-name="ampersand.alt" 
 />
    <glyph glyph-name="uni01FA.sc" 
 />
    <glyph glyph-name="uni01FC.sc" 
 />
    <glyph glyph-name="uni01FE.sc" 
 />
    <glyph glyph-name="uni01FA.alt2" 
 />
    <glyph glyph-name="uni01FC.alt2" 
 />
    <glyph glyph-name="uni01FE.alt2" 
 />
    <glyph glyph-name="uni01FA.alt2_sc" 
 />
    <glyph glyph-name="uni01FC.alt2_sc" 
 />
    <glyph glyph-name="uni01FE.alt2_sc" 
 />
    <glyph glyph-name="Germandbls" 
 />
    <glyph glyph-name="foundryicon" 
 />
    </font>
</defs>
</svg>
