<svg width="102" height="77" viewBox="0 0 102 77" fill="none" xmlns="http://www.w3.org/2000/svg">
<rect x="28" width="74" height="76.3871" rx="15.914" fill="#00C9BD"/>
<path d="M21.1765 56.5561C31.4087 56.5561 35.9131 51.9405 35.9131 37.6487C35.9131 23.3569 31.4087 18.7413 21.1765 18.7413C10.9442 18.7413 6.43981 23.3569 6.43981 37.6487C6.43981 51.9405 10.9442 56.5561 21.1765 56.5561ZM21.1765 50.1609C16.1716 50.1609 13.9472 47.0468 13.9472 37.6487C13.9472 28.3062 16.1716 25.1364 21.1765 25.1364C26.1814 25.1364 28.4058 28.3062 28.4058 37.6487C28.4058 47.0468 26.1814 50.1609 21.1765 50.1609Z" fill="#5846DF"/>
<path d="M60.952 49.6048H54.8349V19.2974L41.2104 21.5218V27.9169L47.3275 26.916V49.6048H41.2104V56H60.952V49.6048Z" fill="#F4F6FA"/>
</svg>
