<svg width="100" height="77" viewBox="0 0 100 77" fill="none" xmlns="http://www.w3.org/2000/svg">
<rect x="26" width="74" height="76.3871" rx="15.914" fill="#5846DF"/>
<path d="M18.7055 56.5561C28.9378 56.5561 33.4422 51.9405 33.4422 37.6487C33.4422 23.3569 28.9378 18.7413 18.7055 18.7413C8.47327 18.7413 3.96886 23.3569 3.96886 37.6487C3.96886 51.9405 8.47327 56.5561 18.7055 56.5561ZM18.7055 50.1609C13.7006 50.1609 11.4762 47.0468 11.4762 37.6487C11.4762 28.3062 13.7006 25.1364 18.7055 25.1364C23.7104 25.1364 25.9348 28.3062 25.9348 37.6487C25.9348 47.0468 23.7104 50.1609 18.7055 50.1609Z" fill="#00C9BD"/>
<path d="M64.1532 56V49.6048H47.0809L60.0937 36.4809C60.5942 35.9804 63.9864 33.1443 63.9864 27.8613C63.9864 22.1335 59.9825 18.7413 50.8624 18.7413C42.4097 18.7413 37.9053 21.633 37.9053 29.8633H45.357C45.357 26.193 46.9697 25.1364 50.9736 25.1364C54.922 25.1364 56.479 26.193 56.479 28.473C56.479 31.2535 53.1424 34.3121 52.1971 35.2019L37.7385 49.6048V56H64.1532Z" fill="#F5F6FA"/>
</svg>
