<svg width="99" height="77" viewBox="0 0 99 77" fill="none" xmlns="http://www.w3.org/2000/svg">
<rect x="25" width="74" height="76.3871" rx="15.914" fill="#00C9BD"/>
<path d="M18.8141 56.5561C29.0464 56.5561 33.5508 51.9405 33.5508 37.6487C33.5508 23.3569 29.0464 18.7413 18.8141 18.7413C8.58189 18.7413 4.07748 23.3569 4.07748 37.6487C4.07748 51.9405 8.58189 56.5561 18.8141 56.5561ZM18.8141 50.1609C13.8092 50.1609 11.5848 47.0468 11.5848 37.6487C11.5848 28.3062 13.8092 25.1364 18.8141 25.1364C23.819 25.1364 26.0434 28.3062 26.0434 37.6487C26.0434 47.0468 23.819 50.1609 18.8141 50.1609Z" fill="#5846DF"/>
<path d="M62.2599 25.6925V19.2974H37.2354V25.6925H52.5281L45.7437 33.756V39.8731H49.8032C54.4745 39.8731 56.0872 41.7638 56.0872 44.878C56.0872 47.7697 54.975 50.1609 49.5252 50.1609C46.0218 50.1609 43.6305 48.9375 43.6305 45.4341H36.1232C36.1232 53.4975 42.1847 56.5561 49.6364 56.5561C60.0911 56.5561 63.5945 51.5512 63.5945 44.878C63.5945 38.5941 60.3691 34.9238 53.5847 33.9784C54.975 32.8106 56.3652 31.6984 57.6442 30.3638L62.2599 25.6925Z" fill="#F5F6FA"/>
</svg>
