<svg width="100" height="77" viewBox="0 0 100 77" fill="none" xmlns="http://www.w3.org/2000/svg">
<rect x="26" width="74" height="76.3871" rx="15.914" fill="#5846DF"/>
<path d="M17.8366 56.5561C28.0688 56.5561 32.5733 51.9405 32.5733 37.6487C32.5733 23.3569 28.0688 18.7413 17.8366 18.7413C7.60437 18.7413 3.09996 23.3569 3.09996 37.6487C3.09996 51.9405 7.60437 56.5561 17.8366 56.5561ZM17.8366 50.1609C12.8317 50.1609 10.6073 47.0468 10.6073 37.6487C10.6073 28.3062 12.8317 25.1364 17.8366 25.1364C22.8415 25.1364 25.0659 28.3062 25.0659 37.6487C25.0659 47.0468 22.8415 50.1609 17.8366 50.1609Z" fill="#00C9BD"/>
<path d="M62.2277 56V47.6585H65.6199V41.2633H62.2277V30.4194L54.7204 31.5316V41.2633H44.1545L55.777 19.2974H47.6023L35.9798 41.2633V47.6585H54.7204V56H62.2277Z" fill="#F5F6FA"/>
</svg>
