<svg width="93" height="25" viewBox="0 0 93 25" fill="none" xmlns="http://www.w3.org/2000/svg">
<path d="M20.8397 18.1944C20.2744 19.4521 20.0041 20.0131 19.2751 21.1249C18.2593 22.6765 16.8258 24.6103 15.0523 24.6267C13.4754 24.6411 13.0699 23.5971 10.9298 23.6095C8.78973 23.6218 8.34329 24.6452 6.76639 24.6308C4.9929 24.6144 3.63513 22.8697 2.61937 21.316C-0.22314 16.9758 -0.518041 11.8813 1.23293 9.1748C2.47806 7.24922 4.44201 6.12305 6.28923 6.12305C8.16921 6.12305 9.35291 7.15879 10.9073 7.15879C12.4166 7.15879 13.3361 6.12305 15.5089 6.12305C17.1534 6.12305 18.8941 7.02111 20.1352 8.57472C16.0701 10.8086 16.7315 16.6367 20.8397 18.1944Z" fill="white"/>
<path d="M13.8618 4.38891C14.6523 3.37166 15.2523 1.93313 15.0332 0.46582C13.743 0.554187 12.2337 1.37826 11.351 2.45305C10.5503 3.4292 9.89085 4.8739 10.1468 6.27956C11.5579 6.32271 13.016 5.47809 13.8618 4.38891Z" fill="white"/>
<path d="M29.498 9.10742L25.4268 21.1295H27.2904L28.5048 17.4386H32.445L33.6942 21.1295H35.609L31.5214 9.10742H29.498ZM30.4626 11.0844C30.5998 11.6207 30.7493 12.1777 30.9397 12.7798L32.0374 15.9672H28.9164L29.9977 12.7592C30.1615 12.2393 30.3172 11.6783 30.4626 11.0844Z" fill="white"/>
<path d="M40.8795 12.2236C39.6446 12.2236 38.6554 12.7025 37.9981 13.6108L37.9264 12.4148H36.2676L36.2778 12.5668C36.327 13.3128 36.3474 14.1328 36.3474 15.3083V24.5745H38.1599V20.2507C38.723 20.9268 39.62 21.3193 40.6378 21.3193C41.6966 21.3193 42.6735 20.9021 43.3841 20.1479C44.1787 19.3053 44.5965 18.0949 44.5965 16.6482C44.5965 15.3699 44.2319 14.2643 43.5438 13.4526C42.868 12.6593 41.9219 12.2236 40.8795 12.2236ZM40.4269 13.7279C42.0427 13.7279 42.7656 15.2302 42.7656 16.718C42.7656 18.6374 41.842 19.8314 40.3573 19.8314C39.3435 19.8314 38.467 19.1389 38.2213 18.1442C38.1783 17.9901 38.1578 17.7867 38.1578 17.5544V16.0912C38.1578 15.9597 38.1865 15.7974 38.2151 15.6432C38.2233 15.5939 38.2336 15.5446 38.2418 15.4953C38.5121 14.4554 39.4091 13.7279 40.4269 13.7279Z" fill="white"/>
<path d="M50.2144 12.2236C48.9795 12.2236 47.9903 12.7025 47.3329 13.6108L47.2613 12.4148H45.6045L45.6127 12.5668C45.6618 13.3128 45.6823 14.1328 45.6823 15.3083V24.5745H47.4947V20.2507C48.0579 20.9268 48.9549 21.3193 49.9727 21.3193C51.0315 21.3193 52.0083 20.9021 52.721 20.1479C53.5135 19.3053 53.9334 18.0949 53.9334 16.6482C53.9334 15.3699 53.5688 14.2643 52.8787 13.4526C52.2029 12.6593 51.2567 12.2236 50.2144 12.2236ZM49.7618 13.7279C51.3776 13.7279 52.1005 15.2302 52.1005 16.718C52.1005 18.6374 51.1769 19.8314 49.6921 19.8314C48.6784 19.8314 47.7999 19.1389 47.5562 18.1442C47.5132 17.9901 47.4927 17.7867 47.4927 17.5544V16.0912C47.4927 15.9577 47.5213 15.7974 47.55 15.6412C47.5582 15.5919 47.5684 15.5425 47.5766 15.4953C47.847 14.4554 48.7439 13.7279 49.7618 13.7279Z" fill="white"/>
<path d="M61.9077 14.2016C60.2162 13.544 59.6735 13.0282 59.6735 12.0726C59.6735 11.269 60.3104 10.4573 61.7337 10.4573C62.9071 10.4573 63.6587 10.8663 63.8614 10.9937L64.015 11.0882L64.527 9.56952L64.4267 9.50993C64.1236 9.33114 63.2573 8.91602 61.7869 8.91602C59.4748 8.91602 57.861 10.2847 57.861 12.2452C57.861 13.8255 58.8727 14.9311 61.0435 15.7223C62.5815 16.2998 63.1549 16.8896 63.1549 17.9028C63.1549 19.0495 62.2723 19.7605 60.851 19.7605C59.9253 19.7605 58.9731 19.4893 58.2379 19.0166L58.0802 18.9159L57.5928 20.4695L57.6829 20.5291C58.3669 20.9874 59.655 21.3203 60.7466 21.3203C63.8614 21.3203 64.9673 19.4132 64.9673 17.7815C64.9653 16.1005 64.0785 15.0606 61.9077 14.2016Z" fill="white"/>
<path d="M68.2285 10.3438L66.4509 10.9048V12.4152H65.1484V13.8682H66.4509V18.3215C66.4509 19.3983 66.6557 20.1525 67.0776 20.6293C67.4831 21.0752 68.1056 21.3198 68.8306 21.3198C69.5166 21.3198 70.002 21.1841 70.2314 21.1019L70.3338 21.0649L70.2477 19.6079L70.0737 19.6613C69.8443 19.7312 69.6088 19.76 69.2299 19.76C68.5275 19.76 68.2285 19.314 68.2285 18.268V13.8661H70.4157V12.4132H68.2285V10.3438Z" fill="white"/>
<path d="M74.9074 12.2236C72.372 12.2236 70.6006 14.1225 70.6006 16.8413C70.6006 19.478 72.3147 21.3213 74.7701 21.3213H74.7865C76.8611 21.3213 79.0933 19.8705 79.0933 16.6851C79.0933 15.3905 78.6939 14.2787 77.9383 13.4669C77.1764 12.6531 76.1279 12.2236 74.9074 12.2236ZM74.8541 13.6581C76.4842 13.6581 77.2276 15.2528 77.2276 16.7365C77.2276 18.5594 76.2139 19.8828 74.8193 19.8828H74.8009C73.4267 19.8828 72.4273 18.582 72.4273 16.7879C72.4294 15.2322 73.1789 13.6581 74.8541 13.6581Z" fill="white"/>
<path d="M84.6424 12.3079L84.5339 12.2812C84.3741 12.2421 84.2431 12.2236 84.0833 12.2236C83.1351 12.2236 82.2832 12.7847 81.8101 13.6889L81.7569 12.4168H80.1309L80.1411 12.5689C80.1902 13.2881 80.2087 14.0978 80.2087 15.1891L80.1923 21.1323H82.0047V16.4961C82.0047 16.2433 82.0211 16.0049 82.0538 15.7912C82.2586 14.6774 83.0061 13.9581 83.9605 13.9581C84.1468 13.9581 84.2922 13.9725 84.4479 13.9889L84.6424 14.0095V12.3079Z" fill="white"/>
<path d="M88.7199 12.2061C86.3075 12.2061 84.6221 14.1399 84.6221 16.9121C84.6221 19.5796 86.2993 21.3038 88.894 21.3038C90.2579 21.3038 91.2082 21.0037 91.7631 20.751L91.8717 20.7016L91.5235 19.3453L91.372 19.407C90.8785 19.6083 90.2211 19.8138 89.1009 19.8138C88.3124 19.8138 86.498 19.5529 86.3853 17.1772L92.2362 17.1957L92.2608 17.0786C92.2977 16.8936 92.3161 16.645 92.3161 16.3203C92.3161 14.4235 91.3761 12.2061 88.7199 12.2061ZM88.5991 13.5912C89.1521 13.5912 89.5985 13.7617 89.9303 14.1008C90.4525 14.6331 90.5426 15.4181 90.5549 15.7942H86.4201C86.5901 14.742 87.2434 13.5912 88.5991 13.5912Z" fill="white"/>
<path d="M25.4269 0.89546C25.9327 0.827643 26.5204 0.77832 27.1655 0.77832C28.3349 0.77832 29.1663 1.01465 29.7172 1.47909C30.2866 1.94353 30.6142 2.60937 30.6142 3.53003C30.6142 4.45892 30.2866 5.21723 29.707 5.74127C29.109 6.27352 28.1362 6.56123 26.9116 6.56123C26.3218 6.56123 25.8467 6.54479 25.4248 6.49341V0.89546H25.4269ZM26.2501 5.93444C26.4549 5.96732 26.7539 5.96732 27.0734 5.96732C28.8121 5.97554 29.7561 5.08982 29.7561 3.55264C29.7664 2.19425 28.9247 1.35785 27.2044 1.35785C26.7846 1.35785 26.4651 1.39278 26.2501 1.43388V5.93444Z" fill="white"/>
<path d="M33.5301 6.60253C32.3136 6.60253 31.3613 5.79284 31.3613 4.50021C31.3613 3.13155 32.3607 2.33008 33.6038 2.33008C34.9042 2.33008 35.7828 3.18292 35.7828 4.42418C35.7828 5.94286 34.6134 6.60253 33.5403 6.60253H33.5301ZM33.5587 6.04355C34.3431 6.04355 34.9329 5.37566 34.9329 4.44883C34.9329 3.75628 34.5499 2.887 33.5772 2.887C32.6147 2.887 32.1928 3.69669 32.1928 4.47349C32.1928 5.36744 32.7539 6.04355 33.5485 6.04355H33.5587Z" fill="white"/>
<path d="M37.0867 2.42285L37.6949 4.49229C37.8158 4.94851 37.9386 5.37801 38.0226 5.80135H38.0513C38.1537 5.38829 38.3032 4.94851 38.4527 4.50051L39.192 2.42285H39.8842L40.5846 4.46557C40.7525 4.94645 40.8835 5.38624 40.9859 5.7993H41.0146C41.0904 5.38624 41.2112 4.95467 41.3607 4.47379L42.0058 2.42285H42.8188L41.3607 6.50829H40.6132L39.921 4.55805C39.7613 4.09361 39.6302 3.68876 39.5196 3.20788H39.5012C39.3886 3.69698 39.2493 4.12854 39.0896 4.56627L38.3605 6.50829H37.613L36.2471 2.42285H37.0867Z" fill="white"/>
<path d="M43.6404 3.52817C43.6404 3.09661 43.6301 2.75958 43.6035 2.42255H44.3326L44.3797 3.09045H44.3981C44.6234 2.71026 45.1456 2.33008 45.8931 2.33008C46.5198 2.33008 47.4925 2.6671 47.4925 4.06865V6.508H46.6713V4.15291C46.6713 3.49529 46.3989 2.93837 45.6248 2.93837C45.0924 2.93837 44.6705 3.28362 44.521 3.69874C44.4841 3.79122 44.4657 3.92685 44.4657 4.04399V6.51005H43.6424V3.52817H43.6404Z" fill="white"/>
<path d="M48.8281 0.515625H49.6514V6.51021H48.8281V0.515625Z" fill="white"/>
<path d="M52.8572 6.60253C51.6428 6.60253 50.6885 5.79284 50.6885 4.50021C50.6885 3.13155 51.6879 2.33008 52.933 2.33008C54.2314 2.33008 55.1099 3.18292 55.1099 4.42418C55.1099 5.94286 53.9406 6.60253 52.8654 6.60253H52.8572ZM52.8859 6.04355C53.6702 6.04355 54.26 5.37566 54.26 4.44883C54.26 3.75628 53.8771 2.887 52.9043 2.887C51.9418 2.887 51.5199 3.69669 51.5199 4.47349C51.5199 5.36744 52.0811 6.04355 52.8756 6.04355H52.8859Z" fill="white"/>
<path d="M59.334 5.53067C59.334 5.88413 59.3524 6.23144 59.3995 6.50887H58.6602L58.5845 5.99511H58.5578C58.3141 6.3157 57.8185 6.6034 57.1734 6.6034C56.258 6.6034 55.7891 6.02183 55.7891 5.42997C55.7891 4.44149 56.7618 3.90101 58.5087 3.91129V3.82703C58.5087 3.49 58.4063 2.87349 57.4806 2.88171C57.0506 2.88171 56.6103 2.99063 56.2928 3.18586L56.1065 2.68853C56.4813 2.47686 57.0321 2.33301 57.6015 2.33301C58.9941 2.33301 59.3299 3.18585 59.3299 4.00376V5.53067H59.334ZM58.5292 4.42505C57.6322 4.40861 56.6123 4.55246 56.6123 5.34571C56.6123 5.83481 56.9666 6.0547 57.3782 6.0547C57.9762 6.0547 58.3592 5.71768 58.4903 5.37037C58.5189 5.29434 58.5271 5.21008 58.5271 5.13404V4.42505H58.5292Z" fill="white"/>
<path d="M64.5634 0.515625V5.45391C64.5634 5.81766 64.5736 6.23072 64.6003 6.51021H63.861L63.8241 5.80122H63.8057C63.5538 6.25744 63.0111 6.60268 62.2718 6.60268C61.1782 6.60268 60.3263 5.76628 60.3263 4.52503C60.316 3.15636 61.2622 2.33023 62.3557 2.33023C63.0582 2.33023 63.5251 2.62616 63.7217 2.94675H63.7401V0.515625H64.5634ZM63.7422 4.08525C63.7422 3.98455 63.734 3.86536 63.7053 3.76466C63.5845 3.30022 63.136 2.91181 62.5175 2.91181C61.6676 2.91181 61.1618 3.58793 61.1618 4.48187C61.1618 5.31828 61.6205 6.00056 62.4991 6.00056C63.05 6.00056 63.5558 5.66353 63.7053 5.11483C63.734 5.01413 63.7422 4.91138 63.7422 4.79424V4.08525Z" fill="white"/>
<path d="M69.7508 6.60253C68.5364 6.60253 67.582 5.79284 67.582 4.50021C67.582 3.13155 68.5835 2.33008 69.8265 2.33008C71.127 2.33008 72.0055 3.18292 72.0055 4.42418C72.0055 5.94286 70.8362 6.60253 69.7631 6.60253H69.7508ZM69.7794 6.04355C70.5638 6.04355 71.1536 5.37566 71.1536 4.44883C71.1536 3.75628 70.7706 2.887 69.7979 2.887C68.8354 2.887 68.4135 3.69669 68.4135 4.47349C68.4135 5.36744 68.9746 6.04355 69.7692 6.04355H69.7794Z" fill="white"/>
<path d="M73.0417 3.52817C73.0417 3.09661 73.0315 2.75958 73.0049 2.42255H73.7339L73.781 3.09045H73.7995C74.0247 2.71026 74.547 2.33008 75.2945 2.33008C75.9211 2.33008 76.8939 2.6671 76.8939 4.06865V6.508H76.0706V4.15291C76.0706 3.49529 75.8003 2.93837 75.0241 2.93837C74.4917 2.93837 74.0698 3.28362 73.9203 3.69874C73.8834 3.79122 73.865 3.92685 73.865 4.04399V6.51005H73.0417V3.52817Z" fill="white"/>
<path d="M81.2015 1.44434V2.42254H82.3791V2.98768H81.2015V5.19069C81.2015 5.69623 81.3612 5.98394 81.8179 5.98394C82.0412 5.98394 82.1722 5.9675 82.2951 5.93257L82.332 6.4977C82.1722 6.54908 81.9203 6.5984 81.6029 6.5984C81.2199 6.5984 80.9107 6.47921 80.7141 6.28603C80.4888 6.05792 80.3967 5.69418 80.3967 5.2133V2.98357H79.6963V2.41843H80.3967V1.66628L81.2015 1.44434Z" fill="white"/>
<path d="M83.3077 0.515625H84.131V3.06594H84.1494C84.2805 2.85427 84.4853 2.6611 84.7392 2.54191C84.9829 2.40627 85.2717 2.33024 85.5809 2.33024C86.1871 2.33024 87.1598 2.66726 87.1598 4.07703V6.50815H86.3366V4.16129C86.3366 3.49339 86.0663 2.94469 85.2901 2.94469C84.7576 2.94469 84.346 3.28172 84.1863 3.68862C84.1392 3.78932 84.1289 3.90029 84.1289 4.04415V6.51021H83.3057V0.515625H83.3077Z" fill="white"/>
<path d="M88.9617 4.5931C88.9801 5.59802 89.6825 6.01108 90.5038 6.01108C91.0936 6.01108 91.4581 5.91861 91.7571 5.80763L91.9066 6.33167C91.6158 6.45086 91.112 6.59266 90.3911 6.59266C89.0067 6.59266 88.165 5.75626 88.165 4.5335C88.165 3.29225 88.9781 2.32227 90.2969 2.32227C91.7735 2.32227 92.1564 3.4957 92.1564 4.24785C92.1564 4.39992 92.1482 4.51706 92.1298 4.60132L88.9617 4.5931ZM91.3659 4.06084C91.3741 3.5964 91.1509 2.85247 90.2334 2.85247C89.3917 2.85247 89.0375 3.54502 88.9719 4.06084H91.3659Z" fill="white"/>
</svg>
