<svg width="45" height="50" viewBox="0 0 45 50" fill="none" xmlns="http://www.w3.org/2000/svg">
<circle cx="21.6484" cy="28.3125" r="21.5" fill="#5846DF"/>
<mask id="path-2-outside-1_14_33303" maskUnits="userSpaceOnUse" x="13.2586" y="-3.60247" width="34.564" height="38.0812" fill="black">
<rect fill="white" x="13.2586" y="-3.60247" width="34.564" height="38.0812"/>
<path fill-rule="evenodd" clip-rule="evenodd" d="M38.6295 4.00982C40.2578 8.69231 39.3628 14.5766 35.8007 19.4691C32.2386 24.3615 26.9135 27.0203 21.9572 26.9087C20.3289 22.2262 21.2239 16.3418 24.786 11.4494C28.348 6.557 33.6732 3.89815 38.6295 4.00982Z"/>
</mask>
<path fill-rule="evenodd" clip-rule="evenodd" d="M38.6295 4.00982C40.2578 8.69231 39.3628 14.5766 35.8007 19.4691C32.2386 24.3615 26.9135 27.0203 21.9572 26.9087C20.3289 22.2262 21.2239 16.3418 24.786 11.4494C28.348 6.557 33.6732 3.89815 38.6295 4.00982Z" fill="#14CFC5"/>
<path d="M38.6295 4.00982L40.5185 3.3529L40.0625 2.0416L38.6745 2.01033L38.6295 4.00982ZM21.9572 26.9087L20.0682 27.5656L20.5242 28.8769L21.9122 28.9082L21.9572 26.9087ZM36.7404 4.66674C38.129 8.65974 37.4063 13.866 34.1839 18.2919L37.4176 20.6463C41.3193 15.2873 42.3866 8.72487 40.5185 3.3529L36.7404 4.66674ZM34.1839 18.2919C30.9615 22.7177 26.2287 25.0044 22.0023 24.9092L21.9122 28.9082C27.5983 29.0363 33.5158 26.0052 37.4176 20.6463L34.1839 18.2919ZM23.8463 26.2518C22.4577 22.2588 23.1804 17.0525 26.4028 12.6266L23.1691 10.2722C19.2673 15.6312 18.2001 22.1936 20.0682 27.5656L23.8463 26.2518ZM26.4028 12.6266C29.6252 8.20075 34.3579 5.91409 38.5844 6.00932L38.6745 2.01033C32.9884 1.88222 27.0709 4.91326 23.1691 10.2722L26.4028 12.6266Z" fill="#F5F6FA" mask="url(#path-2-outside-1_14_33303)"/>
</svg>
