<svg width="53" height="56" viewBox="0 0 53 56" fill="none" xmlns="http://www.w3.org/2000/svg">
<path fill-rule="evenodd" clip-rule="evenodd" d="M5.27254 4.48926C10.1987 3.93193 15.7415 6.10067 19.7295 10.6526C23.7175 15.2046 25.1385 20.9845 23.9382 25.7945C19.0121 26.3518 13.4693 24.1831 9.48127 19.6311C5.49328 15.0792 4.07226 9.2993 5.27254 4.48926Z" fill="#14CFC5"/>
<path fill-rule="evenodd" clip-rule="evenodd" d="M28.3587 29.8178C27.1584 34.6278 28.5794 40.4077 32.5674 44.9597C36.5554 49.5116 42.0982 51.6804 47.0243 51.1231C48.2246 46.313 46.8036 40.5331 42.8156 35.9812C38.8276 31.4292 33.2848 29.2605 28.3587 29.8178Z" fill="#14CFC5"/>
<path fill-rule="evenodd" clip-rule="evenodd" d="M47.0243 4.48926C42.0982 3.93193 36.5554 6.10067 32.5674 10.6526C28.5794 15.2046 27.1584 20.9845 28.3587 25.7945C33.2848 26.3518 38.8276 24.1831 42.8156 19.6311C46.8036 15.0792 48.2246 9.2993 47.0243 4.48926Z" fill="#5846DF"/>
<path fill-rule="evenodd" clip-rule="evenodd" d="M5.27254 51.123C10.1987 51.6804 15.7415 49.5116 19.7295 44.9597C23.7175 40.4077 25.1385 34.6278 23.9382 29.8178C19.0121 29.2605 13.4693 31.4292 9.48127 35.9812C5.49328 40.5331 4.07226 46.313 5.27254 51.123Z" fill="#5846DF"/>
</svg>
