<svg width="97" height="26" viewBox="0 0 97 26" fill="none" xmlns="http://www.w3.org/2000/svg">
<path d="M0.6875 0.732422V12.8327V24.9329L12.8479 12.8327L0.6875 0.732422Z" fill="url(#paint0_linear_14_33196)"/>
<path d="M16.1142 9.58158L11.2037 6.73862L0.686523 0.642578V0.732288L12.8469 12.8325L16.1142 9.58158Z" fill="url(#paint1_linear_14_33196)"/>
<path d="M0.6875 24.9332V25.0208L11.2046 18.9269L16.1131 16.0818L12.8479 12.833L0.6875 24.9332Z" fill="url(#paint2_linear_14_33196)"/>
<path d="M16.112 9.58203L12.8447 12.833L16.1099 16.0818L21.7208 12.833L16.112 9.58203Z" fill="url(#paint3_linear_14_33196)"/>
<path d="M77.2465 17.5619C76.7888 17.5619 76.3738 17.4765 75.9949 17.3077C75.6181 17.139 75.301 16.8784 75.0434 16.5281H74.9689C75.02 16.9382 75.0455 17.3291 75.0455 17.6965V20.5928H73.9834V10.3957H74.8476L74.9945 11.3591H75.0455C75.318 10.9746 75.6373 10.6948 75.9991 10.5239C76.361 10.353 76.7782 10.2676 77.2465 10.2676C78.1766 10.2676 78.894 10.5858 79.4006 11.2245C79.9071 11.8631 80.1583 12.7581 80.1583 13.9094C80.1583 15.065 79.9008 15.9642 79.3878 16.6028C78.8727 17.2436 78.1596 17.5619 77.2465 17.5619ZM77.0932 11.1732C76.3759 11.1732 75.8586 11.3719 75.5394 11.7713C75.2201 12.1686 75.0541 12.803 75.0455 13.6723V13.9094C75.0455 14.8983 75.2094 15.6054 75.5394 16.0325C75.8672 16.4576 76.395 16.6712 77.1187 16.6712C77.7254 16.6712 78.2001 16.4256 78.5427 15.9322C78.8854 15.4409 79.0579 14.7616 79.0579 13.8966C79.0579 13.0187 78.8854 12.3459 78.5427 11.876C78.2001 11.4082 77.7147 11.1732 77.0932 11.1732Z" fill="white"/>
<path d="M82.6168 17.4334H81.5547V7.44141H82.6168V17.4334Z" fill="white"/>
<path d="M88.7269 17.4334L88.5161 16.4317H88.4651C88.116 16.8738 87.7669 17.1707 87.4178 17.3266C87.0708 17.4826 86.6366 17.5616 86.1151 17.5616C85.4191 17.5616 84.8742 17.3822 84.4804 17.0212C84.0866 16.6623 83.8887 16.1497 83.8887 15.4876C83.8887 14.0672 85.0211 13.3217 87.2858 13.2534L88.4757 13.2149V12.7792C88.4757 12.226 88.3565 11.818 88.1202 11.5553C87.884 11.2925 87.5051 11.1601 86.9836 11.1601C86.3982 11.1601 85.7384 11.3395 84.9998 11.7005L84.6741 10.8846C85.0211 10.6966 85.3978 10.5492 85.8107 10.4424C86.2216 10.3356 86.6345 10.2822 87.0496 10.2822C87.8861 10.2822 88.5055 10.4681 88.9078 10.8418C89.3101 11.2135 89.5123 11.8116 89.5123 12.6339V17.4377H88.7269V17.4334ZM86.3259 16.6837C86.9878 16.6837 87.5051 16.5022 87.884 16.139C88.2607 15.7759 88.4502 15.2654 88.4502 14.6097V13.9732L87.388 14.018C86.543 14.0479 85.9342 14.1804 85.5617 14.4132C85.1892 14.646 85.0019 15.0091 85.0019 15.5025C85.0019 15.887 85.1168 16.1818 85.351 16.3825C85.583 16.5833 85.9087 16.6837 86.3259 16.6837Z" fill="white"/>
<path d="M90.1289 10.3955H91.2677L92.8045 14.409C93.1408 15.3253 93.3515 15.9875 93.4324 16.3933H93.4835C93.5388 16.1754 93.6559 15.8016 93.8326 15.2719C94.0093 14.7422 94.5882 13.1189 95.5695 10.3955H96.7083L93.6942 18.4096C93.3962 19.2021 93.0471 19.7638 92.647 20.0949C92.2489 20.426 91.7594 20.5926 91.1783 20.5926C90.8548 20.5926 90.5333 20.5563 90.2183 20.4837V19.6293C90.4525 19.6805 90.7164 19.7062 91.0059 19.7062C91.736 19.7062 92.2553 19.2961 92.5682 18.4737L92.9578 17.472L90.1289 10.3955Z" fill="white"/>
<path d="M57.5731 11.0502C57.9094 11.33 58.6139 11.9196 58.6139 13.0388C58.6139 14.1281 57.9988 14.6429 57.3815 15.1299C57.1899 15.32 56.9707 15.5272 56.9707 15.8519C56.9707 16.1744 57.1899 16.3517 57.3517 16.4841L57.8796 16.8964C58.5245 17.441 59.112 17.943 59.112 18.9576C59.112 20.3417 57.7774 21.7386 55.2551 21.7386C53.1265 21.7386 52.1006 20.724 52.1006 19.6325C52.1006 19.1028 52.3645 18.3531 53.2308 17.8362C54.1397 17.2766 55.3722 17.2039 56.032 17.1591C55.8255 16.8942 55.5914 16.6144 55.5914 16.1595C55.5914 15.9095 55.6659 15.7622 55.7383 15.5849C55.5765 15.5998 55.4147 15.6148 55.2679 15.6148C53.714 15.6148 52.8328 14.4507 52.8328 13.3037C52.8328 12.6266 53.1414 11.8747 53.7715 11.33C54.608 10.638 55.6063 10.5205 56.3981 10.5205H59.4185L58.4798 11.0502H57.5731ZM56.5322 17.5884C56.4151 17.5735 56.3406 17.5735 56.1959 17.5735C56.0639 17.5735 55.27 17.6034 54.6548 17.8105C54.3313 17.928 53.3926 18.2805 53.3926 19.3271C53.3926 20.3716 54.4058 21.1234 55.9745 21.1234C57.3815 21.1234 58.1308 20.4442 58.1308 19.5321C58.1308 18.7781 57.6454 18.383 56.5322 17.5884ZM56.9579 14.7903C57.2942 14.4507 57.324 13.9808 57.324 13.7159C57.324 12.6565 56.694 11.0075 55.4765 11.0075C55.0954 11.0075 54.6846 11.1976 54.4484 11.4945C54.1993 11.8042 54.1248 12.2015 54.1248 12.5838C54.1248 13.5707 54.6974 15.2047 55.9596 15.2047C56.3258 15.2025 56.7217 15.0253 56.9579 14.7903Z" fill="white"/>
<path d="M48.3316 17.3507C46.003 17.3507 44.7578 15.5287 44.7578 13.8819C44.7578 11.9574 46.3244 10.3105 48.5509 10.3105C50.7028 10.3105 52.0502 12.0001 52.0502 13.7793C52.0523 15.5137 50.7199 17.3507 48.3316 17.3507ZM50.1622 16.1609C50.5134 15.691 50.6028 15.1015 50.6028 14.5291C50.6028 13.2347 49.9876 10.7655 48.172 10.7655C47.6888 10.7655 47.2056 10.9577 46.8544 11.2653C46.284 11.7801 46.1797 12.4251 46.1797 13.0595C46.1797 14.5141 46.897 16.9085 48.6701 16.9085C49.2405 16.9107 49.8259 16.6309 50.1622 16.1609Z" fill="white"/>
<path d="M40.3961 17.3507C38.0675 17.3507 36.8223 15.5287 36.8223 13.8819C36.8223 11.9574 38.3889 10.3105 40.6153 10.3105C42.7673 10.3105 44.1147 12.0001 44.1147 13.7793C44.1147 15.5137 42.7822 17.3507 40.3961 17.3507ZM42.2266 16.1609C42.5779 15.691 42.6673 15.1015 42.6673 14.5291C42.6673 13.2347 42.0521 10.7655 40.2365 10.7655C39.7533 10.7655 39.2701 10.9577 38.9189 11.2653C38.3484 11.7801 38.2441 12.4251 38.2441 13.0595C38.2441 14.5141 38.9615 16.9085 40.7345 16.9085C41.3029 16.9107 41.8903 16.6309 42.2266 16.1609Z" fill="white"/>
<path d="M35.7032 17.1226L33.5981 17.6096C32.7446 17.7421 31.9783 17.8595 31.1694 17.8595C27.1039 17.8595 25.5586 14.8606 25.5586 12.5111C25.5586 9.64462 27.7531 6.98535 31.5079 6.98535C32.304 6.98535 33.0681 7.10283 33.7599 7.29507C34.8646 7.60478 35.3797 7.98926 35.7032 8.2114L34.4815 9.37763L33.9663 9.49511L34.3346 8.90345C33.8344 8.41645 32.9212 7.51507 31.1843 7.51507C28.8578 7.51507 27.106 9.28792 27.106 11.8746C27.106 14.6513 29.109 17.2679 32.3189 17.2679C33.2618 17.2679 33.7471 17.0756 34.1898 16.8984V14.5189L31.9676 14.6364L33.1447 13.9999H36.2673L35.8842 14.3694C35.7799 14.4591 35.7671 14.489 35.7373 14.6065C35.7224 14.7389 35.7075 15.1682 35.7075 15.3156V17.1226H35.7032Z" fill="white"/>
<path d="M62.2264 16.6953C61.7411 16.6504 61.639 16.5628 61.639 15.9861V15.8238V7.62384C61.6411 7.5918 61.6432 7.55976 61.6475 7.52772C61.7071 7.01082 61.8539 6.92111 62.3116 6.65625H60.2043L59.0996 7.1881H60.2256V7.19451V7.1881V15.8217V16.3108C60.2256 16.6056 60.1681 16.6504 59.8276 17.0926H62.435L62.98 16.7679C62.7267 16.7401 62.4755 16.7252 62.2264 16.6953Z" fill="white"/>
<path d="M68.2162 16.8311C68.0565 16.9187 67.8947 17.0233 67.7351 17.0959C67.2519 17.316 66.7538 17.3758 66.3154 17.3758C65.8492 17.3758 65.117 17.3459 64.3699 16.8033C63.3333 16.0686 62.8799 14.8062 62.8799 13.7062C62.8799 11.4314 64.7232 10.3164 66.2281 10.3164C66.7538 10.3164 67.2966 10.4488 67.7351 10.7265C68.4652 11.2092 68.6568 11.8415 68.7568 12.179L65.3213 13.5737L64.1953 13.6613C64.5593 15.5239 65.8173 16.609 67.2072 16.609C67.9522 16.609 68.495 16.3462 68.9909 16.0963L68.2162 16.8311ZM66.8432 12.4566C67.1199 12.3541 67.2668 12.2665 67.2668 12.0615C67.2668 11.4741 66.6091 10.7991 65.8194 10.7991C65.2341 10.7991 64.1379 11.2541 64.1379 12.839C64.1379 13.0889 64.1677 13.3516 64.1826 13.6165L66.8432 12.4566Z" fill="white"/>
<path d="M69.6287 10.4158V11.3834H69.5117V10.4158H69.1924V10.3154H69.948V10.4158H69.6287Z" fill="white"/>
<path d="M70.9425 11.3834V10.4051H70.9361L70.6381 11.3834H70.5466L70.2464 10.4051H70.2422V11.3834H70.1357V10.3154H70.3188L70.5891 11.1784H70.5934L70.8594 10.3154H71.0446V11.3834H70.9425Z" fill="white"/>
<path d="M28.486 4.1054H27.7538C27.7538 4.00501 27.6835 3.71879 27.5452 3.24674H26.4894C26.3468 3.71025 26.2744 3.99646 26.2744 4.1054H25.5869C25.5869 4.04559 25.7657 3.55646 26.1212 2.63586C26.4766 1.71739 26.6554 1.21117 26.6554 1.11719H27.5196C27.5196 1.20476 27.6814 1.70244 28.0028 2.6145C28.3242 3.52655 28.486 4.02209 28.486 4.1054ZM27.4281 2.80887C27.1684 2.01856 27.0365 1.59351 27.0365 1.52943H27.0003C27.0003 1.58923 26.8662 2.01643 26.5958 2.80887H27.4281Z" fill="white"/>
<path d="M31.4353 4.10637H30.8712C30.8712 4.04443 30.6626 3.71336 30.2433 3.11315C29.8048 2.48091 29.5537 2.04944 29.4941 1.81662H29.4579C29.4962 2.15197 29.5154 2.45527 29.5154 2.72441C29.5154 3.10247 29.526 3.5617 29.5473 4.10637H28.9854C29.0088 3.63219 29.0194 3.11102 29.0194 2.54285C29.0194 1.98536 29.0088 1.50905 28.9854 1.11816H29.6644C29.6644 1.19933 29.8517 1.52186 30.2284 2.08789C30.6286 2.68809 30.8585 3.09606 30.9181 3.31179H30.9521C30.9159 2.97004 30.8968 2.6646 30.8968 2.39333C30.8968 1.97896 30.8861 1.5539 30.8649 1.11816H31.4374C31.4161 1.49837 31.4055 1.97255 31.4055 2.54285C31.4034 3.11956 31.414 3.6386 31.4353 4.10637Z" fill="white"/>
<path d="M34.7484 2.5088C34.7484 2.9424 34.61 3.3226 34.3312 3.64727C34.0545 3.97193 33.6649 4.13427 33.1647 4.13427C32.9391 4.13427 32.6283 4.12572 32.2324 4.1065C32.2516 3.64513 32.2622 3.12396 32.2622 2.54297C32.2622 1.98549 32.2516 1.5113 32.2324 1.11829H32.6326C32.6986 1.11829 32.7965 1.11615 32.9263 1.11188C33.0562 1.10761 33.1413 1.10547 33.1796 1.10547C33.7288 1.10547 34.129 1.24217 34.3759 1.51771C34.6228 1.79325 34.7484 2.12432 34.7484 2.5088ZM34.1226 2.60705C34.1226 2.31229 34.0374 2.06665 33.8671 1.86374C33.6969 1.66296 33.435 1.56256 33.086 1.56256C33.02 1.56256 32.9306 1.56897 32.8156 1.58393C32.8305 1.88937 32.8391 2.20976 32.8391 2.54297C32.8391 2.90822 32.8476 3.27134 32.8625 3.63018C32.9625 3.6494 33.0604 3.66008 33.1605 3.66008C33.4883 3.66008 33.7309 3.55756 33.8884 3.35464C34.0438 3.14959 34.1226 2.90182 34.1226 2.60705Z" fill="white"/>
<path d="M37.8011 4.10631H37.1242C36.9476 3.56378 36.8113 3.23057 36.7177 3.10454C36.624 2.97852 36.4708 2.91444 36.2601 2.91444C36.1707 2.91444 36.0876 2.91445 36.0068 2.91658C36.0068 3.3096 36.0131 3.70689 36.028 4.10845H35.3916C35.4108 3.64708 35.4214 3.12591 35.4214 2.54492C35.4214 1.98744 35.4108 1.51325 35.3916 1.12024H35.7875C35.8322 1.12024 35.928 1.1181 36.0749 1.11383C36.2196 1.10956 36.3558 1.10742 36.4793 1.10742C37.1796 1.10742 37.5287 1.34665 37.5287 1.82724C37.5287 2.20744 37.3286 2.47444 36.9305 2.62395V2.65813C37.0838 2.70085 37.22 2.82046 37.335 3.01911C37.4478 3.21562 37.6053 3.57873 37.8011 4.10631ZM36.9433 1.99598C36.9433 1.69268 36.7475 1.53889 36.358 1.53889C36.2154 1.53889 36.0876 1.54957 35.9791 1.57093C35.9961 1.80802 36.0046 2.11773 36.0046 2.49793C36.0876 2.50007 36.16 2.50221 36.2175 2.50221C36.7028 2.50221 36.9433 2.33347 36.9433 1.99598Z" fill="white"/>
<path d="M41.0808 2.55761C41.0808 3.02752 40.9382 3.41627 40.6508 3.72598C40.3635 4.0357 40.0101 4.18949 39.5866 4.18949C39.1843 4.18949 38.848 4.04852 38.5755 3.76443C38.3052 3.48035 38.1689 3.11937 38.1689 2.68363C38.1689 2.21372 38.3116 1.82498 38.5989 1.51526C38.8863 1.20555 39.2396 1.05176 39.6632 1.05176C40.0655 1.05176 40.4018 1.19273 40.6742 1.47682C40.9446 1.75663 41.0808 2.1176 41.0808 2.55761ZM40.4507 2.62383C40.4507 2.30343 40.3699 2.04498 40.206 1.84634C40.0421 1.64769 39.842 1.5473 39.6015 1.5473C39.378 1.5473 39.1906 1.64769 39.0353 1.84847C38.8799 2.04925 38.8011 2.3013 38.8011 2.60888C38.8011 2.92713 38.882 3.18559 39.0459 3.38637C39.2098 3.58501 39.4099 3.6854 39.6483 3.6854C39.8718 3.6854 40.0591 3.58501 40.2145 3.38423C40.372 3.18132 40.4507 2.92713 40.4507 2.62383Z" fill="white"/>
<path d="M42.3766 4.10637H41.7295C41.7486 3.63219 41.7593 3.11102 41.7593 2.54285C41.7593 1.98536 41.7486 1.50905 41.7295 1.11816H42.3766C42.3574 1.50264 42.3468 1.97896 42.3468 2.54285C42.3468 3.11956 42.3553 3.64073 42.3766 4.10637Z" fill="white"/>
<path d="M45.6907 2.5088C45.6907 2.9424 45.5524 3.3226 45.2735 3.64727C44.9968 3.97193 44.6073 4.13427 44.1071 4.13427C43.8815 4.13427 43.5707 4.12572 43.1748 4.1065C43.194 3.64513 43.2046 3.12396 43.2046 2.54297C43.2046 1.98549 43.194 1.5113 43.1748 1.11829H43.575C43.641 1.11829 43.7389 1.11615 43.8687 1.11188C43.9985 1.10761 44.0837 1.10547 44.122 1.10547C44.6712 1.10547 45.0713 1.24217 45.3183 1.51771C45.5652 1.79325 45.6907 2.12432 45.6907 2.5088ZM45.065 2.60705C45.065 2.31229 44.9798 2.06665 44.8095 1.86374C44.6392 1.66296 44.3774 1.56256 44.0283 1.56256C43.9624 1.56256 43.873 1.56897 43.758 1.58393C43.7729 1.88937 43.7814 2.20976 43.7814 2.54297C43.7814 2.90822 43.79 3.27134 43.8049 3.63018C43.9049 3.6494 44.0028 3.66008 44.1028 3.66008C44.4306 3.66008 44.6733 3.55756 44.8308 3.35464C44.9862 3.14959 45.065 2.90182 45.065 2.60705Z" fill="white"/>
<path d="M50.0846 4.10637H49.3524C49.3524 4.00598 49.2822 3.71977 49.1438 3.24772H48.088C47.9454 3.71122 47.8731 3.99744 47.8731 4.10637H47.1855C47.1855 4.04657 47.3643 3.55743 47.7198 2.63683C48.0753 1.71837 48.2541 1.21215 48.2541 1.11816H49.1183C49.1183 1.20574 49.28 1.70342 49.6014 2.61547C49.9229 3.52753 50.0846 4.02307 50.0846 4.10637ZM49.0289 2.80985C48.7692 2.01954 48.6372 1.59448 48.6372 1.5304H48.601C48.601 1.59021 48.4669 2.0174 48.1966 2.80985H49.0289Z" fill="white"/>
<path d="M52.7533 1.90219C52.7533 2.26743 52.6171 2.5387 52.3468 2.71171C52.0764 2.88686 51.7444 2.9723 51.3506 2.9723C51.2782 2.9723 51.2272 2.97016 51.1974 2.96803C51.1974 3.25638 51.2059 3.63445 51.2229 4.1065H50.5801C50.5992 3.66435 50.6099 3.14318 50.6099 2.54297C50.6099 1.9919 50.5992 1.51771 50.5801 1.11829H50.9781C51.0335 1.11829 51.142 1.11615 51.3038 1.11188C51.4634 1.10761 51.6018 1.10547 51.721 1.10547C52.0105 1.10547 52.2552 1.17169 52.4553 1.30198C52.6533 1.43441 52.7533 1.63305 52.7533 1.90219ZM52.1637 2.02821C52.1637 1.7014 51.9466 1.53693 51.5145 1.53693C51.406 1.53693 51.291 1.54761 51.1718 1.57111C51.1888 1.85947 51.1974 2.1884 51.1974 2.55365C51.2357 2.55579 51.2804 2.55792 51.3293 2.55792C51.8849 2.55792 52.1637 2.38064 52.1637 2.02821Z" fill="white"/>
<path d="M55.4955 1.90219C55.4955 2.26743 55.3593 2.5387 55.089 2.71171C54.8186 2.88686 54.4866 2.9723 54.0928 2.9723C54.0204 2.9723 53.9693 2.97016 53.9395 2.96803C53.9395 3.25638 53.9481 3.63445 53.9651 4.1065H53.3223C53.3414 3.66435 53.3521 3.14318 53.3521 2.54297C53.3521 1.9919 53.3414 1.51771 53.3223 1.11829H53.7203C53.7756 1.11829 53.8842 1.11615 54.046 1.11188C54.2056 1.10761 54.344 1.10547 54.4632 1.10547C54.7527 1.10547 54.9974 1.17169 55.1975 1.30198C55.3976 1.43227 55.4955 1.63305 55.4955 1.90219ZM54.9038 2.02821C54.9038 1.7014 54.6867 1.53693 54.2546 1.53693C54.146 1.53693 54.0311 1.54761 53.9119 1.57111C53.9289 1.85947 53.9374 2.1884 53.9374 2.55365C53.9757 2.55579 54.0204 2.55792 54.0694 2.55792C54.6271 2.55792 54.9038 2.38064 54.9038 2.02821Z" fill="white"/>
<path d="M59.9792 2.55761C59.9792 3.02752 59.8366 3.41627 59.5493 3.72598C59.2619 4.0357 58.9086 4.18949 58.485 4.18949C58.0827 4.18949 57.7464 4.04852 57.4739 3.76443C57.2036 3.48035 57.0674 3.11937 57.0674 2.68363C57.0674 2.21372 57.21 1.82498 57.4974 1.51526C57.7847 1.20555 58.138 1.05176 58.5616 1.05176C58.9639 1.05176 59.3002 1.19273 59.5727 1.47682C59.843 1.75663 59.9792 2.1176 59.9792 2.55761ZM59.3471 2.62383C59.3471 2.30343 59.2662 2.04498 59.1023 1.84634C58.9384 1.64769 58.7383 1.5473 58.4978 1.5473C58.2743 1.5473 58.087 1.64769 57.9316 1.84847C57.7762 2.04925 57.6974 2.3013 57.6974 2.60888C57.6974 2.92713 57.7783 3.18559 57.9443 3.38637C58.1082 3.58501 58.3083 3.6854 58.5467 3.6854C58.7702 3.6854 58.9575 3.58501 59.1129 3.38423C59.2704 3.18132 59.3471 2.92713 59.3471 2.62383Z" fill="white"/>
<path d="M63.0779 4.10637H62.5138C62.5138 4.04443 62.3052 3.71336 61.8859 3.11315C61.4474 2.48091 61.1962 2.04944 61.1366 1.81662H61.1005C61.1388 2.15197 61.1579 2.45527 61.1579 2.72441C61.1579 3.10247 61.1686 3.5617 61.1899 4.10637H60.6279C60.6513 3.63219 60.662 3.11102 60.662 2.54285C60.662 1.98536 60.6513 1.50905 60.6279 1.11816H61.3069C61.3069 1.19933 61.4942 1.52186 61.871 2.08789C62.2712 2.68809 62.501 3.09606 62.5606 3.31179H62.5947C62.5585 2.97004 62.5394 2.6646 62.5394 2.39333C62.5394 1.97896 62.5287 1.5539 62.5074 1.11816H63.08C63.0587 1.49837 63.0481 1.97255 63.0481 2.54285C63.046 3.11956 63.0566 3.6386 63.0779 4.10637Z" fill="white"/>
<defs>
<linearGradient id="paint0_linear_14_33196" x1="6.76722" y1="0.731397" x2="6.76722" y2="24.9324" gradientUnits="userSpaceOnUse">
<stop stop-color="#257CB0"/>
<stop offset="0.2863" stop-color="#4A93B5"/>
<stop offset="0.767" stop-color="#78BCBB"/>
<stop offset="1" stop-color="#89CFBD"/>
</linearGradient>
<linearGradient id="paint1_linear_14_33196" x1="0.685651" y1="6.73761" x2="16.1132" y2="6.73761" gradientUnits="userSpaceOnUse">
<stop stop-color="#52C1AD"/>
<stop offset="1" stop-color="#DEE89A"/>
</linearGradient>
<linearGradient id="paint2_linear_14_33196" x1="8.40031" y1="12.8325" x2="8.40031" y2="25.0208" gradientUnits="userSpaceOnUse">
<stop stop-color="#EC413D"/>
<stop offset="0.1668" stop-color="#DA4452"/>
<stop offset="0.5748" stop-color="#B0487A"/>
<stop offset="0.8619" stop-color="#954A92"/>
<stop offset="1" stop-color="#8A4A9D"/>
</linearGradient>
<linearGradient id="paint3_linear_14_33196" x1="17.2828" y1="9.58218" x2="17.2828" y2="16.0823" gradientUnits="userSpaceOnUse">
<stop stop-color="#F58879"/>
<stop offset="0.1194" stop-color="#F69079"/>
<stop offset="0.7128" stop-color="#FCB877"/>
<stop offset="1" stop-color="#FEC874"/>
</linearGradient>
</defs>
</svg>
