<svg width="16" height="14" viewBox="0 0 16 14" fill="none" xmlns="http://www.w3.org/2000/svg">
<path d="M11.2501 1H4.41669C2.5297 1 1 2.34315 1 4V10C1 11.6569 2.5297 13 4.41669 13H11.2501C13.137 13 14.6667 11.6569 14.6667 10V4C14.6667 2.34315 13.137 1 11.2501 1Z" stroke="#7A6982" stroke-width="1.07089" stroke-linecap="round" stroke-linejoin="round"/>
<path d="M10.233 6.38109C10.3173 6.88047 10.2202 7.39048 9.95541 7.83859C9.69062 8.2867 9.27165 8.65008 8.75812 8.87705C8.24458 9.10402 7.66261 9.18302 7.09499 9.10282C6.52737 9.02261 6.00301 8.78729 5.59648 8.43031C5.18995 8.07334 4.92195 7.61289 4.83062 7.11447C4.73928 6.61604 4.82925 6.10501 5.08773 5.65407C5.3462 5.20313 5.76003 4.83524 6.27034 4.60273C6.78066 4.37022 7.36147 4.28492 7.93017 4.35897C8.51027 4.43451 9.04732 4.67187 9.462 5.036C9.87667 5.40012 10.147 5.87171 10.233 6.38109Z" stroke="#7A6982" stroke-width="1.07089" stroke-linecap="round" stroke-linejoin="round"/>
</svg>
