<svg width="26" height="20" viewBox="0 0 26 20" fill="none" xmlns="http://www.w3.org/2000/svg">
<path fill-rule="evenodd" clip-rule="evenodd" d="M2.05821 3.10129H24.0727C24.3956 3.10129 24.7052 2.97303 24.9335 2.74473C25.1618 2.51642 25.2901 2.20677 25.2901 1.8839C25.2901 1.56102 25.1618 1.25137 24.9335 1.02306C24.7052 0.794757 24.3956 0.666504 24.0727 0.666504H2.05821C1.73534 0.666504 1.42569 0.794757 1.19738 1.02306C0.96908 1.25137 0.84082 1.56102 0.84082 1.8839C0.84082 2.20677 0.96908 2.51642 1.19738 2.74473C1.42569 2.97303 1.73534 3.10129 2.05821 3.10129ZM24.0727 8.78245H6.72487C6.402 8.78245 6.09235 8.9107 5.86405 9.139C5.63574 9.36731 5.50748 9.67696 5.50748 9.99984C5.50748 10.3227 5.63574 10.6324 5.86405 10.8607C6.09235 11.089 6.402 11.2172 6.72487 11.2172H24.0727C24.3956 11.2172 24.7052 11.089 24.9335 10.8607C25.1618 10.6324 25.2901 10.3227 25.2901 9.99984C25.2901 9.67696 25.1618 9.36731 24.9335 9.139C24.7052 8.9107 24.3956 8.78245 24.0727 8.78245ZM24.0727 16.8984H2.05821C1.73534 16.8984 1.42569 17.0266 1.19738 17.2549C0.96908 17.4833 0.84082 17.7929 0.84082 18.1158C0.84082 18.4387 0.96908 18.7483 1.19738 18.9766C1.42569 19.2049 1.73534 19.3332 2.05821 19.3332H24.0727C24.3956 19.3332 24.7052 19.2049 24.9335 18.9766C25.1618 18.7483 25.2901 18.4387 25.2901 18.1158C25.2901 17.7929 25.1618 17.4833 24.9335 17.2549C24.7052 17.0266 24.3956 16.8984 24.0727 16.8984Z" fill="white"/>
</svg>
