<svg width="157" height="37" viewBox="0 0 157 37" fill="none" xmlns="http://www.w3.org/2000/svg">
<path d="M14.6814 29.4773C22.8512 29.4773 29.4033 23.0061 29.4033 14.7554C29.4033 6.46427 22.8512 0.0335651 14.6814 0.0335651C6.51159 0.0335651 0 6.46427 0 14.7554C0 23.0061 6.51159 29.4773 14.6814 29.4773ZM14.6814 24.0173C9.54494 24.0173 5.54092 20.175 5.54092 14.7554C5.54092 9.2954 9.54494 5.45315 14.6814 5.45315C19.8179 5.45315 23.8219 9.2954 23.8219 14.7554C23.8219 20.175 19.8179 24.0173 14.6814 24.0173Z" fill="#462D4E"/>
<path d="M43.963 5.04871V0.0335651C37.5323 -0.370881 34.4585 2.90514 34.4585 8.4865V8.68873H31.5465V13.7039H34.4585V28.9111H39.6759V13.7039H43.963V8.68873H39.6759V8.4865C39.6759 5.73627 41.2533 4.84648 43.963 5.04871Z" fill="#462D4E"/>
<path d="M50.9698 14.4319C50.9698 13.3399 52.0213 12.7736 53.3156 12.7736C54.812 12.7736 55.9445 13.5421 56.5511 14.8363L61 12.4096C59.4227 9.61895 56.5916 8.1225 53.3156 8.1225C49.1498 8.1225 45.6311 10.4278 45.6311 14.5532C45.6311 21.6715 56.0658 20.0537 56.0658 23.0061C56.0658 24.179 54.9333 24.7453 53.2751 24.7453C51.2529 24.7453 49.8778 23.7746 49.3115 22.1164L44.7817 24.6644C46.2377 27.7786 49.2306 29.4773 53.2751 29.4773C57.6027 29.4773 61.4045 27.3742 61.4045 23.0061C61.4045 15.5643 50.9698 17.4248 50.9698 14.4319Z" fill="#462D4E"/>
<path d="M76.7267 8.1225C73.7743 8.1225 71.6307 9.21451 70.1747 11.075V8.68873H64.9573V37H70.1747V26.5248C71.6307 28.3853 73.7743 29.4773 76.7267 29.4773C82.1463 29.4773 86.5952 24.8262 86.5952 18.7999C86.5952 12.7736 82.1463 8.1225 76.7267 8.1225ZM75.756 24.5026C72.5609 24.5026 70.1747 22.1972 70.1747 18.7999C70.1747 15.4025 72.5609 13.0972 75.756 13.0972C78.9916 13.0972 81.3778 15.4025 81.3778 18.7999C81.3778 22.1972 78.9916 24.5026 75.756 24.5026Z" fill="#462D4E"/>
<path d="M105.644 8.68873V11.075C104.188 9.25495 102.004 8.1225 99.0512 8.1225C93.6721 8.1225 89.2232 12.7736 89.2232 18.7999C89.2232 24.8262 93.6721 29.4773 99.0512 29.4773C102.004 29.4773 104.188 28.3448 105.644 26.5248V28.9111H110.861V8.68873H105.644ZM100.022 24.5026C96.8268 24.5026 94.4405 22.1972 94.4405 18.7999C94.4405 15.4025 96.8268 13.0972 100.022 13.0972C103.257 13.0972 105.644 15.4025 105.644 18.7999C105.644 22.1972 103.257 24.5026 100.022 24.5026Z" fill="#462D4E"/>
<path d="M125.218 29.4773C129.182 29.4773 132.619 27.3742 134.358 24.2195L129.829 21.631C129.02 23.2893 127.281 24.3004 125.178 24.3004C122.063 24.3004 119.758 21.995 119.758 18.7999C119.758 15.5643 122.063 13.259 125.178 13.259C127.24 13.259 128.979 14.3105 129.788 15.9688L134.278 13.3399C132.619 10.2256 129.182 8.1225 125.218 8.1225C119.07 8.1225 114.541 12.7736 114.541 18.7999C114.541 24.8262 119.07 29.4773 125.218 29.4773Z" fill="#462D4E"/>
<path d="M141.21 20.9435H156.458C156.579 20.2559 156.66 19.5683 156.66 18.7999C156.66 12.8545 152.414 8.1225 146.428 8.1225C140.078 8.1225 135.75 12.7736 135.75 18.7999C135.75 24.8262 140.037 29.4773 146.832 29.4773C150.715 29.4773 153.748 27.8999 155.649 25.1497L151.443 22.723C150.553 23.8959 148.935 24.7453 146.913 24.7453C144.163 24.7453 141.938 23.6128 141.21 20.9435ZM141.129 16.899C141.736 14.3105 143.637 12.8141 146.428 12.8141C148.612 12.8141 150.796 13.987 151.443 16.899H141.129Z" fill="#462D4E"/>
</svg>
