<svg width="95" height="30" viewBox="0 0 95 30" fill="none" xmlns="http://www.w3.org/2000/svg">
<path d="M6.90902 18.7263C5.22459 18.7263 3.91131 17.3684 3.91131 15.3474C3.91131 13.4211 5.22459 12 6.90902 12C8.59345 12 9.93529 13.4211 9.93529 15.3474C9.93529 17.3684 8.622 18.7263 6.90902 18.7263ZM11.8196 20.9053C13.1614 19.4842 13.8466 17.6211 13.8466 15.3474C13.8466 13.0737 13.1614 11.2421 11.8196 9.82106C10.4777 8.4 8.8504 7.70527 6.90902 7.70527C4.96764 7.70527 3.34031 8.4 1.99848 9.82106C0.656643 11.2421 0 13.0737 0 15.3474C0 17.6211 0.656643 19.4842 1.99848 20.9053C3.34031 22.3263 4.96764 23.0211 6.90902 23.0211C8.8504 23.0211 10.4777 22.3263 11.8196 20.9053ZM22.4377 0C18.5835 0 16.4137 2.49474 16.4137 7.01053V8.02105H13.9013V11.4947H16.4137V22.7684H20.4106V11.4947H23.0943V8.02105H20.4106V7.01053C20.4106 5.14737 21.0958 4.2 22.4377 4.2H23.8937V0H22.4377ZM29.2587 17.2105C30.2008 17.4947 30.5719 17.8421 30.5719 18.4737C30.5719 19.2 29.8582 19.6737 28.9446 19.7053C27.8883 19.7053 27.0032 18.8842 26.9747 18H23.2632C23.2918 19.5474 23.8342 20.8105 24.9477 21.7263C26.0611 22.6421 27.3744 23.0842 28.8304 23.0842C30.3721 23.0842 31.7139 22.6737 32.8559 21.8842C33.9948 21.1161 34.5662 20.0191 34.5962 18.5933L34.5975 18.4737C34.5975 17.5895 34.4833 16.7684 33.3127 15.5368C32.7689 14.9654 32.0438 14.5086 31.1128 14.2208L28.7162 13.5158C27.9739 13.2947 27.5742 12.9474 27.5457 12.4105C27.5171 11.7474 28.0596 11.3053 28.9446 11.3053C29.9439 11.3053 30.4292 11.7474 30.4578 12.6H34.1978C34.1692 10.9263 33.6268 9.69474 32.5704 8.90527C31.5141 8.1158 30.2294 7.70527 28.7162 7.70527C27.3173 7.70527 26.1182 8.14737 25.0904 9C24.0626 9.85264 23.5487 10.8 23.5202 11.9053L23.515 12.1262C23.5037 12.9088 23.5844 13.4105 23.977 14.3368C24.4338 15.3158 25.6614 16.1684 27.5171 16.7053L29.2587 17.2105ZM39.9339 15.4421C39.9339 13.3895 41.3043 11.8737 43.0172 11.8737C44.7302 11.8737 46.1006 13.3263 46.1006 15.4421C46.1006 17.4947 44.7302 18.9474 43.0172 18.9474C41.3043 18.9474 39.9339 17.5895 39.9339 15.4421ZM35.9084 30H39.8482V20.9684C40.5049 22.2632 42.0465 23.0842 43.7595 23.0842C45.5296 23.0842 47.0427 22.3579 48.2989 20.9368C49.5837 19.5158 50.2118 17.6526 50.2118 15.3474C50.2118 13.1053 49.5837 11.2737 48.2989 9.85263C47.0427 8.43158 45.5296 7.70527 43.7595 7.70527C42.0465 7.70527 40.5049 8.49473 39.8482 9.85263V8.02105H35.9084V30ZM74.498 7.70527C72.5281 7.70527 70.8151 8.43158 69.3876 9.85263C67.9601 11.2737 67.2464 13.1053 67.2464 15.3474C67.2464 17.5895 67.9601 19.4526 69.3876 20.9053C70.8151 22.3579 72.5281 23.0842 74.498 23.0842C76.8962 23.0842 79.0374 21.9158 80.2936 19.9263L77.0675 17.4C76.4965 18.3789 75.64 18.8842 74.498 18.8842C73.613 18.8842 72.8421 18.5684 72.1855 17.9053C71.5288 17.2421 71.1862 16.3895 71.1862 15.3474C71.1862 14.3757 71.503 13.5792 72.1111 12.9579L72.1855 12.8842C72.8421 12.2211 73.613 11.9053 74.498 11.9053C75.64 11.9053 76.4965 12.4105 77.0675 13.3895L80.2936 10.8316C79.0089 8.84211 76.8676 7.70527 74.498 7.70527ZM90.7404 17.9053C90.0838 18.8211 89.1131 19.2947 87.8283 19.2947C86.2581 19.2947 84.745 18.4421 84.5451 16.8316H94.3091L94.3397 16.2881C94.3551 15.9992 94.3662 15.7303 94.3662 15.4737C94.3662 13.2246 93.7412 11.3964 92.4912 9.98898L92.3963 9.88421C91.1115 8.43158 89.4842 7.70527 87.5428 7.70527C85.5729 7.70527 83.917 8.4 82.5752 9.82106C81.2334 11.2421 80.5767 13.0737 80.5767 15.3474C80.5767 17.6211 81.2334 19.4842 82.5752 20.9368C83.917 22.3579 85.5729 23.0842 87.5428 23.0842C90.3693 23.0842 92.3963 22.0737 93.6239 20.0842L90.7404 17.9053ZM65.2907 18.8211V23.0974H52.2055V18.8211H65.2907ZM90.3692 14.0842H84.6022C85.2303 10.7053 89.9696 10.7368 90.3692 14.0842Z" fill="#F5F6FA"/>
</svg>
