<svg width="17" height="14" viewBox="0 0 17 14" fill="none" xmlns="http://www.w3.org/2000/svg">
<path d="M16.5954 6.02143L11.0001 0.426186C10.8742 0.293695 10.7231 0.187742 10.5556 0.114568C10.3881 0.0413943 10.2076 0.002479 10.0249 0.000114627C9.8421 -0.00224975 9.66071 0.0319846 9.49138 0.100801C9.32205 0.169618 9.1682 0.271625 9.03889 0.400814C8.90959 0.530004 8.80745 0.683762 8.73848 0.853034C8.66952 1.02231 8.63513 1.20367 8.63733 1.38643C8.63953 1.5692 8.67829 1.74968 8.75132 1.91724C8.82434 2.0848 8.93016 2.23605 9.06255 2.36208L12.3701 5.6645H1.36992C1.00659 5.6645 0.65815 5.80883 0.40124 6.06574C0.14433 6.32265 0 6.67109 0 7.03442C0 7.39774 0.14433 7.74618 0.40124 8.00309C0.65815 8.26 1.00659 8.40433 1.36992 8.40433H12.3395L9.06255 11.6864C8.81634 11.9454 8.68112 12.2904 8.68574 12.6478C8.69036 13.0052 8.83446 13.3466 9.08729 13.5992C9.34012 13.8518 9.68166 13.9956 10.039 13.9999C10.3964 14.0042 10.7413 13.8687 11.0001 13.6223L16.5954 8.02701C16.7231 7.90012 16.8242 7.74914 16.8931 7.58283C16.962 7.41653 16.9971 7.23821 16.9965 7.05821C16.9974 7.0469 16.9974 7.03553 16.9965 7.02422C16.9973 7.0129 16.9973 7.00154 16.9965 6.99023C16.9964 6.62691 16.8521 6.27849 16.5954 6.02143Z" fill="#5846DF"/>
</svg>
