<svg width="15" height="12" viewBox="0 0 15 12" fill="none" xmlns="http://www.w3.org/2000/svg">
<path d="M14.6591 1.38462C14.1094 1.66154 13.5597 1.75385 12.9184 1.84615C13.5597 1.47692 14.0178 0.923077 14.201 0.184615C13.6513 0.553846 13.01 0.738462 12.277 0.923077C11.7273 0.369231 10.9027 0 10.0781 0C8.52062 0 7.14632 1.38462 7.14632 3.04615C7.14632 3.32308 7.14632 3.50769 7.23794 3.69231C4.76422 3.6 2.47373 2.4 1.00782 0.553846C0.732956 1.01538 0.641337 1.47692 0.641337 2.12308C0.641337 3.13846 1.19105 4.06154 2.01563 4.61538C1.55753 4.61538 1.09943 4.43077 0.641337 4.24615C0.641337 5.72308 1.64915 6.92308 3.02344 7.2C2.74859 7.29231 2.47373 7.29231 2.19887 7.29231C2.01563 7.29231 1.83239 7.29231 1.64915 7.2C2.01563 8.4 3.11506 9.32308 4.48936 9.32308C3.48154 10.1538 2.19887 10.6154 0.732956 10.6154C0.458098 10.6154 0.274859 10.6154 0 10.6154C1.37429 11.4462 2.93183 12 4.58098 12C10.0781 12 13.1016 7.38462 13.1016 3.41538C13.1016 3.32308 13.1016 3.13846 13.1016 3.04615C13.7429 2.58462 14.2926 2.03077 14.6591 1.38462Z" fill="#7A6982"/>
</svg>
