<svg width="46" height="49" viewBox="0 0 46 49" fill="none" xmlns="http://www.w3.org/2000/svg">
<path d="M19 3.5C16.5147 3.5 14.5 5.51472 14.5 8C14.5 10.4853 16.5147 12.5 19 12.5V3.5ZM36.5 44C36.5 46.4853 38.5147 48.5 41 48.5C43.4853 48.5 45.5 46.4853 45.5 44H36.5ZM19 12.5H33V3.5H19V12.5ZM36.5 16V44H45.5V16H36.5ZM33 12.5C34.933 12.5 36.5 14.067 36.5 16H45.5C45.5 9.09644 39.9036 3.5 33 3.5V12.5Z" fill="#5846DF"/>
<path d="M29 45.5C31.4853 45.5 33.5 43.4853 33.5 41C33.5 38.5147 31.4853 36.5 29 36.5L29 45.5ZM9.5 5C9.5 2.51472 7.48528 0.499998 5 0.499998C2.51472 0.499999 0.500001 2.51472 0.500001 5L9.5 5ZM29 36.5L13 36.5L13 45.5L29 45.5L29 36.5ZM9.5 33L9.5 5L0.500001 5L0.500003 33L9.5 33ZM13 36.5C11.067 36.5 9.5 34.933 9.5 33L0.500003 33C0.500004 39.9036 6.09644 45.5 13 45.5L13 36.5Z" fill="#14CFC5"/>
</svg>
