<?xml version="1.0" standalone="no"?>
<!DOCTYPE svg PUBLIC "-//W3C//DTD SVG 1.1//EN" "http://www.w3.org/Graphics/SVG/1.1/DTD/svg11.dtd" >
<svg xmlns="http://www.w3.org/2000/svg" xmlns:xlink="http://www.w3.org/1999/xlink" version="1.1">
<metadata>
Created by FontForge 20170731 at Wed Oct 26 10:26:50 2022
 By Aleksey,,,
(c) 2010-2011 by Sergiy S. Tkachenko / 4th february (info@4thfebruary.com.ua).
All rights reserved. This font software is the property of Sergiy S. Tkachenko (Kremenchuk, Ukraine). You may not reproduce, modify, adapt, translate, alter nor create derivative works of the font software. You may not reverse engineer, decompile, decrypt, disassemble, nor seek to discover the source code of the font software.
</metadata>
<defs>
<font id="Akzentica4F-Bold" horiz-adv-x="819" >
  <font-face 
    font-family="Akzentica4F-Bold"
    font-weight="400"
    font-stretch="normal"
    units-per-em="2048"
    panose-1="2 0 0 0 0 0 0 0 0 0"
    ascent="1520"
    descent="-528"
    x-height="942"
    cap-height="1352"
    bbox="-246 -580 2992 2226"
    underline-thickness="102"
    underline-position="-204"
    unicode-range="U+0020-FB04"
  />
<missing-glyph horiz-adv-x="714" 
 />
    <glyph glyph-name="f_f_j" unicode="ffj" horiz-adv-x="1812" 
d="M147 0v727h-124v215h124v123q0 208 135 293q133 84 429 76v-215q-81 4 -142 -4q-57 -8 -87 -25q-31 -18 -45 -50q-13 -30 -13 -75v-123h393v123q0 105 33 175q33 71 101 114t175 61q112 19 254 19h60v-215h-60q-82 0 -141 -8q-57 -8 -87 -25q-32 -18 -45 -48
q-13 -29 -13 -73v-123h622v-1098q0 -66 -18 -126q-17 -58 -64 -106q-46 -48 -121 -74q-77 -27 -190 -27v221q52 0 84 19q33 20 33 73v903h-346v-727h-277v727h-393v-727h-277z" />
    <glyph glyph-name="uni0407_uni0407" unicode="&#x407;&#x407;" horiz-adv-x="1183" 
d="M158 0v1352h276v-1352h-276zM-16 1495v246h235v-246h-235zM750 0v1352h276v-1352h-276zM473 1495v246h236v-246h-236zM965 1495v246h235v-246h-235z" />
    <glyph glyph-name="uni0457_uni0457" unicode="&#x457;&#x457;" horiz-adv-x="946" 
d="M100 0v942h277v-942h-277zM-76 1085v246h236v-246h-236zM573 0v942h277v-942h-277zM356 1085v246h236v-246h-236zM786 1085v246h236v-246h-236z" />
    <glyph glyph-name="f_igrave" unicode="f&#xec;" horiz-adv-x="1142" 
d="M147 0v727h-124v215h124v123q0 102 25 175q24 69 76 114q50 43 130 61q84 19 189 19v-215q-83 0 -113 -33t-30 -121v-123h623v-942h-277v727h-346v-727h-277zM817 1073l-176 293h262l144 -293h-230zM770 0v942h277v-942h-277z" />
    <glyph glyph-name="f_iacute" unicode="f&#xed;" horiz-adv-x="1142" 
d="M147 0v727h-124v215h124v123q0 208 135 293q133 84 429 76v-215q-81 4 -142 -4q-57 -8 -87 -25q-31 -18 -45 -50q-13 -30 -13 -75v-123h623v-942h-277v727h-346v-727h-277zM764 1073l143 293h344l-258 -293h-229z" />
    <glyph glyph-name="f_icircumflex" unicode="f&#xee;" horiz-adv-x="1142" 
d="M147 0v727h-124v215h124v123q0 102 28 175q27 70 87 114q59 43 150 61q95 19 217 19v-215q-59 0 -101 -8q-39 -7 -62 -25q-24 -18 -33 -48t-9 -73v-123h623v-942h-277v727h-346v-727h-277zM997 1382l248 -292h-225l-59 63q-16 16 -21 25q-2 3 -5 9t-5 9q-4 7 -6 16h-9
q-2 -9 -6 -16q-6 -16 -30 -43l-60 -63h-225l248 292h155z" />
    <glyph glyph-name="apostrophe_uni0457" unicode="&#x27;&#x457;" horiz-adv-x="753" 
d="M594 1085v246h235v-246h-235zM381 0v942h276v-942h-276zM27 975q63 0 90 34q26 33 26 117h-123v308h297v-308q0 -60 -10 -110q-10 -52 -41 -93q-30 -41 -88 -65q-57 -24 -151 -24v141z" />
    <glyph glyph-name="apostrophe_uni0407" unicode="&#x27;&#x407;" horiz-adv-x="815" 
d="M381 0v1352h276v-1352h-276zM596 1495v246h235v-246h-235zM27 1282q63 0 90 34q26 33 26 118h-123v307h297v-307q0 -61 -10 -111q-10 -52 -41 -93q-30 -41 -88 -65q-57 -24 -151 -24v141z" />
    <glyph glyph-name="f_k" unicode="fk" horiz-adv-x="1699" 
d="M1057 584h90l231 358h293l-299 -463l309 -479h-292l-232 358h-100v-358h-277v1219h-69q-83 0 -142 -8q-57 -8 -87 -25q-32 -18 -45 -48q-13 -29 -13 -73v-123h248v-215h-248v-727h-277v727h-124v215h124v123q0 105 33 175t102 114q68 43 175 61q112 19 254 19h346v-850z
" />
    <glyph glyph-name="f_j" unicode="fj" horiz-adv-x="1142" 
d="M1047 -156q0 -63 -19 -126q-18 -59 -63 -106q-46 -48 -121 -74q-77 -27 -191 -27v221q52 0 84 19q33 20 33 73v903h-346v-727h-277v727h-124v215h124v123q0 105 33 175t102 114q68 43 175 61q112 19 254 19h59v-215h-59q-83 0 -142 -8q-57 -8 -87 -25q-32 -18 -45 -48
q-13 -29 -13 -73v-123h623v-1098z" />
    <glyph glyph-name="f_b" unicode="fb" horiz-adv-x="1789" 
d="M1057 1004q0 -43 -5 -95q-1 -16 -4.5 -47.5t-5.5 -46.5h7q35 84 95 116q61 32 159 32q105 0 185 -27q79 -27 131 -85q53 -59 78 -153q25 -93 25 -227t-25 -227q-25 -94 -78 -153q-52 -58 -131 -85q-77 -26 -185 -26q-103 0 -165 34q-63 34 -96 127l-47 -141h-215v1219
h-69q-83 0 -142 -8q-57 -8 -87 -25q-32 -18 -45 -48q-13 -29 -13 -73v-123h248v-215h-248v-727h-277v727h-124v215h124v123q0 105 33 175t102 114q68 43 175 61q112 19 254 19h346v-430zM1255 195q54 0 90 12q34 11 58 43q22 29 33 84q10 50 10 137t-10 137q-11 55 -33 84
q-23 31 -60 43q-41 13 -88 13q-100 0 -147 -58q-47 -57 -51 -190v-29q0 -149 47 -213q46 -63 151 -63z" />
    <glyph glyph-name="f_f_b" unicode="ffb" horiz-adv-x="2449" 
d="M147 0v727h-124v215h124v123q0 208 135 293q133 84 429 76v-215q-83 0 -142 -8q-57 -8 -87 -25q-32 -18 -45 -48q-13 -29 -13 -73v-123h393v123q0 105 33 175q33 71 101 114t175 61q112 19 254 19h336v-430q0 -43 -5 -95q-2 -15 -5 -46.5t-4 -47.5h6q35 84 95 116
q61 32 159 32q106 0 185 -27t131 -85q52 -59 78 -153q26 -96 26 -227t-26 -227q-26 -94 -78 -153q-52 -58 -131 -85q-77 -26 -185 -26q-103 0 -165 34q-61 34 -95 127l-47 -141h-215v1219h-60q-82 0 -141 -8q-57 -8 -87 -25q-32 -18 -45 -48q-13 -29 -13 -73v-123h247v-215
h-247v-727h-277v727h-393v-727h-277zM1915 195q53 0 89 12q34 11 58 43q22 29 33 84q10 50 10 137t-10 137q-11 55 -33 84q-24 32 -59 43q-41 13 -88 13q-105 0 -152 -64t-47 -213t47 -213q47 -63 152 -63z" />
    <glyph glyph-name="f_f_k" unicode="ffk" horiz-adv-x="2369" 
d="M147 0v727h-124v215h124v123q0 208 135 293q133 84 429 76v-215q-83 0 -142 -8q-57 -8 -87 -25q-32 -18 -45 -48q-13 -29 -13 -73v-123h393v123q0 105 33 175q33 71 101 114t175 61q112 19 254 19h336v-850h90l232 358h293l-299 -463l309 -479h-293l-231 358h-101v-358
h-276v1219h-60q-82 0 -141 -8q-57 -8 -87 -25q-32 -18 -45 -48q-13 -29 -13 -73v-123h247v-215h-247v-727h-277v727h-393v-727h-277z" />
    <glyph glyph-name="f_h" unicode="fh" horiz-adv-x="1800" 
d="M1057 1004q0 -43 -5 -95q-1 -16 -4.5 -47.5t-5.5 -46.5h7q35 88 97 117q65 31 165 31q184 0 277 -95q93 -94 93 -315v-553h-276v553q0 117 -33 156t-110 39q-109 0 -157 -63t-48 -214v-471h-277v1219h-69q-83 0 -142 -8q-57 -8 -87 -25q-32 -18 -45 -48q-13 -29 -13 -73
v-123h248v-215h-248v-727h-277v727h-124v215h124v123q0 105 33 175t102 114q68 43 175 61q112 19 254 19h346v-430z" />
    <glyph glyph-name="ff" unicode="ff" horiz-adv-x="1339" 
d="M147 0v727h-124v215h124v123q0 208 135 293q133 84 429 76v-215q-81 4 -142 -4q-57 -8 -87 -25q-31 -18 -45 -50q-13 -30 -13 -75v-123h393v123q0 209 134 293q133 84 429 76v-215q-80 4 -141 -4q-57 -8 -87 -25q-31 -18 -45 -50q-13 -30 -13 -75v-123h247v-215h-247
v-727h-277v727h-393v-727h-277z" />
    <glyph glyph-name="fi" unicode="fi" horiz-adv-x="1142" 
d="M711 1219q-83 0 -142 -8q-57 -8 -87 -25q-32 -18 -45 -48q-13 -29 -13 -73v-123h623v-942h-277v727h-346v-727h-277v727h-124v215h124v123q0 105 33 175t102 114q68 43 175 61q112 19 254 19h59v-215h-59z" />
    <glyph glyph-name="fl" unicode="fl" horiz-adv-x="1220" 
d="M1057 334q0 -64 33 -88q34 -25 84 -25v-221q-112 0 -191 28q-76 27 -121 73t-63 107q-19 63 -19 126v885h-69q-83 0 -142 -8q-57 -8 -87 -25q-32 -18 -45 -48q-13 -29 -13 -73v-123h248v-215h-248v-727h-277v727h-124v215h124v123q0 105 33 175t102 114q68 43 175 61
q112 19 254 19h346v-1100z" />
    <glyph glyph-name="ffi" unicode="ffi" horiz-adv-x="1812" 
d="M147 0v727h-124v215h124v123q0 208 135 293q133 84 429 76v-215q-81 4 -142 -4q-57 -8 -87 -25q-31 -18 -45 -50q-13 -30 -13 -75v-123h393v123q0 105 33 175q33 71 101 114t175 61q112 19 254 19h60v-215h-60q-82 0 -141 -8q-57 -8 -87 -25q-32 -18 -45 -48
q-13 -29 -13 -73v-123h622v-942h-276v727h-346v-727h-277v727h-393v-727h-277z" />
    <glyph glyph-name="ffl" unicode="ffl" horiz-adv-x="1878" 
d="M147 0v727h-124v215h124v123q0 208 135 293q133 84 429 76v-215q-81 4 -142 -4q-57 -8 -87 -25q-31 -18 -45 -50q-13 -30 -13 -75v-123h393v123q0 105 33 175q33 71 101 114t175 61q112 19 254 19h336v-1100q0 -64 33 -88q34 -25 84 -25v-221q-112 0 -191 28
q-75 26 -120 73q-46 48 -64 107q-18 60 -18 126v885h-60q-82 0 -141 -8q-57 -8 -87 -25q-32 -18 -45 -48q-13 -29 -13 -73v-123h247v-215h-247v-727h-277v727h-393v-727h-277z" />
    <glyph glyph-name=".notdef" horiz-adv-x="714" 
 />
    <glyph glyph-name=".null" horiz-adv-x="0" 
 />
    <glyph glyph-name="nonmarkingreturn" horiz-adv-x="682" 
 />
    <glyph glyph-name="space" unicode=" " horiz-adv-x="573" 
 />
    <glyph glyph-name="exclam" unicode="!" horiz-adv-x="473" 
d="M356 410h-235l-41 942h317zM377 0h-277v246h277v-246z" />
    <glyph glyph-name="quotedbl" unicode="&#x22;" horiz-adv-x="722" 
d="M305 1024h-133l-41 328h215zM592 1024h-133l-41 328h215z" />
    <glyph glyph-name="numbersign" unicode="#" horiz-adv-x="1157" 
d="M199 0l53 383h-186l26 174h184l33 236h-186l27 174h184l55 385h174l-55 -385h235l56 385h174l-55 -385h174l-27 -174h-172l-33 -236h174l-26 -174h-172l-54 -383h-174l54 383h-236l-53 -383h-174zM451 557h235l33 236h-236z" />
    <glyph glyph-name="dollar" unicode="$" horiz-adv-x="1167" 
d="M504 -82v166q-205 16 -307 114q-103 98 -103 294h275q0 -81 38 -119q37 -37 97 -49v247q-72 12 -141 36q-70 24 -124 65t-87 103q-33 63 -33 155q0 154 98 237q99 84 287 99v168h170v-168q86 -7 160 -35q71 -27 121 -75t77 -121q27 -72 27 -175h-275q0 75 -28 112
q-28 36 -82 52v-246q83 -16 161 -41q72 -23 131 -65q55 -39 88 -103q31 -61 31 -147q0 -165 -110 -244t-301 -94v-166h-170zM809 426q0 55 -41 82q-39 26 -94 37v-226q59 7 98 32q37 24 37 75zM395 924q0 -54 33 -79q34 -26 76 -38v221q-44 -7 -77 -31q-32 -23 -32 -73z" />
    <glyph glyph-name="percent" unicode="%" horiz-adv-x="1538" 
d="M518 0h-223l731 1352h223zM338 666q-77 0 -127 17q-56 19 -88 57q-35 40 -51 108q-17 70 -17 166q0 97 17 165q17 67 51 107q35 41 88 59q50 17 127 17q76 0 126 -17q52 -18 87 -59q34 -40 51 -107q16 -64 16 -165t-16 -166q-16 -68 -51 -108q-33 -38 -87 -57
q-50 -17 -126 -17zM338 809q44 0 65 44q21 43 21 161t-21 161q-21 44 -65 44q-47 0 -68 -44q-20 -41 -20 -161t20 -161q21 -44 68 -44zM1202 -20q-77 0 -127 17q-56 19 -88 57q-35 40 -51 108q-16 65 -16 166t16 165q17 67 51 107q33 39 88 58q53 18 127 18t126 -18
q53 -18 87 -58t51 -107q17 -68 17 -165q0 -96 -17 -166q-16 -68 -51 -108q-33 -38 -87 -57q-50 -17 -126 -17zM1202 123q45 0 66 44q20 41 20 161q0 119 -20 160q-21 44 -66 44q-46 0 -67 -44t-21 -160q0 -118 21 -161q21 -44 67 -44z" />
    <glyph glyph-name="ampersand" unicode="&#x26;" horiz-adv-x="1261" 
d="M1069 635q0 -120 -16 -209q-16 -90 -47 -164l243 -262h-323l-70 74q-72 -49 -164 -72q-89 -22 -207 -22q-236 0 -347 99t-111 281q0 143 59 229q58 84 152 152q-38 44 -56 65q-26 30 -47 68q-20 36 -34 82q-13 43 -13 103q0 145 100 229t322 84q209 0 312 -91
q104 -92 104 -318h-275q0 59 -10 92q-11 35 -30 53q-22 20 -46 24q-30 5 -57 5q-68 0 -107 -22q-36 -20 -36 -81q0 -34 12 -64q12 -31 32 -58q19 -27 44 -53q1 -1 20 -21t29 -31l284 -309q6 40 7 64q2 46 2 73h274zM485 215q64 0 110 10q47 10 85 39l-285 305
q-52 -40 -72 -91t-20 -101q0 -93 48 -128q47 -34 134 -34z" />
    <glyph glyph-name="quotesingle" unicode="'" horiz-adv-x="436" 
d="M305 983h-133l-41 328h215z" />
    <glyph glyph-name="parenleft" unicode="(" horiz-adv-x="630" 
d="M612 -492q-129 0 -225 47q-95 47 -156 157t-91 297q-29 180 -29 462t29 462q30 187 91 297q62 112 156 158q93 46 225 46v-236q-59 0 -101 -36q-43 -37 -70 -120q-28 -86 -41 -223q-13 -134 -13 -348t13 -348q13 -137 41 -223q27 -83 70 -120q42 -36 101 -36v-236z" />
    <glyph glyph-name="parenright" unicode=")" horiz-adv-x="630" 
d="M18 -256q58 0 101 36q43 35 70 120q28 86 41 223q14 145 14 348t-14 348q-13 137 -41 223q-27 85 -70 120q-43 36 -101 36v236q133 0 226 -46t155 -158q61 -110 91 -297q30 -186 30 -462t-30 -462q-30 -187 -91 -297q-61 -111 -155 -157q-96 -47 -226 -47v236z" />
    <glyph glyph-name="asterisk" unicode="*" horiz-adv-x="903" 
d="M150 1274l215 -70v230h172v-232l217 72l57 -158l-223 -74l139 -182l-131 -104l-145 192l-146 -194l-131 106l135 182l-217 74z" />
    <glyph glyph-name="plus" unicode="+" horiz-adv-x="1198" 
d="M496 172v406h-404v204h404v404h204v-404h406v-204h-406v-406h-204z" />
    <glyph glyph-name="comma" unicode="," horiz-adv-x="550" 
d="M104 -152q87 0 122 34q36 34 36 118h-164v307h338v-307q0 -63 -11 -111q-12 -53 -46 -93t-100 -64q-69 -25 -175 -25v141z" />
    <glyph glyph-name="hyphen" unicode="-" horiz-adv-x="899" 
d="M127 358v234h645v-234h-645z" />
    <glyph glyph-name="period" unicode="." horiz-adv-x="583" 
d="M461 0h-338v307h338v-307z" />
    <glyph glyph-name="slash" unicode="/" horiz-adv-x="837" 
d="M238 -246h-218l539 1680h217z" />
    <glyph glyph-name="zero" unicode="0" horiz-adv-x="1257" 
d="M629 -20q-143 0 -244 34q-103 35 -169 116q-67 82 -98 215q-32 136 -32 331t32 331q31 133 98 215q65 80 169 115q103 35 244 35q140 0 243 -35q104 -35 169 -115q68 -83 99 -215q31 -131 31 -331t-31 -331q-31 -132 -99 -215q-66 -81 -169 -116q-101 -34 -243 -34z
M629 215q71 0 120 24t82 76q34 54 49 143q15 88 15 218q0 128 -15 217q-14 86 -49 142q-33 54 -82 78t-120 24t-120 -24q-50 -24 -83 -78t-48 -142q-16 -94 -16 -217q0 -124 16 -218q15 -91 48 -143q32 -51 83 -76q49 -24 120 -24z" />
    <glyph glyph-name="one" unicode="1" horiz-adv-x="944" 
d="M836 0h-727v236h225v835l-225 -37v236l501 82v-1116h226v-236z" />
    <glyph glyph-name="two" unicode="2" horiz-adv-x="1126" 
d="M72 0v236l532 530q21 21 39 38q26 25 53 59q26 34 46 73q20 40 20 78q0 63 -46 93t-157 30t-159 -36t-48 -138h-274q0 226 122 318q121 91 355 91q252 0 368 -89q115 -88 115 -247q0 -75 -19 -129q-19 -53 -45 -95q-24 -38 -49 -63l-30 -30l-479 -483h628v-236h-972z" />
    <glyph glyph-name="three" unicode="3" horiz-adv-x="1118" 
d="M801 944q-27 -29 -73 -68q-25 -21 -77 -65q190 -27 279 -127q90 -100 90 -274q0 -92 -27 -171q-28 -82 -86 -137q-61 -58 -158 -90q-96 -32 -243 -32q-105 0 -194 22q-90 22 -158 72q-69 50 -107 127q-39 78 -39 188h277q0 -96 60 -135t157 -39q76 0 123 15q46 15 73 42
t36 62t9 76q0 86 -51 135q-50 49 -180 49h-150v225l250 297h-563v236h922v-236z" />
    <glyph glyph-name="four" unicode="4" horiz-adv-x="1189" 
d="M729 0v307h-690v236l428 809h301l-428 -809h389v358l277 41v-399h124v-236h-124v-307h-277z" />
    <glyph glyph-name="five" unicode="5" horiz-adv-x="1122" 
d="M332 1116l-19 -289q47 35 111 50q59 14 139 14q222 0 343 -119q120 -119 120 -346q0 -97 -26 -181q-26 -85 -85 -142q-60 -58 -155 -91q-93 -32 -236 -32q-112 0 -203 22q-94 23 -161 72q-69 50 -107 127q-39 78 -39 188h277q0 -51 15 -85q14 -33 44 -53q30 -21 70 -28
q43 -8 92 -8q76 0 123 15t73 44q25 28 33 67q9 45 9 85q0 44 -10 91q-9 44 -34 73q-25 30 -71 48q-43 17 -117 17q-33 0 -75 -5q-36 -4 -68 -17q-31 -12 -49 -32q-19 -21 -19 -48h-276l39 799h901v-236h-639z" />
    <glyph glyph-name="six" unicode="6" horiz-adv-x="1204" 
d="M825 963q0 94 -61 134t-146 40q-57 0 -105 -20t-77 -64q-32 -47 -49 -117t-22 -178q44 58 110 80t164 22q231 0 357 -115q124 -114 124 -325q0 -99 -28 -179t-91 -140q-62 -59 -157 -90q-94 -31 -232 -31t-233 36q-99 38 -163 119q-65 83 -96 215q-32 136 -32 326
q0 189 32 325q31 133 95 216q61 79 161 118q96 37 228 37q105 0 194 -22q90 -22 158 -72q69 -50 107 -127q39 -78 39 -188h-277zM621 625q-126 0 -187 -66t-39 -170q29 -96 84 -135t142 -39q119 0 171 60q52 59 52 149q0 92 -54 146q-55 55 -169 55z" />
    <glyph glyph-name="seven" unicode="7" horiz-adv-x="1132" 
d="M152 0l589 1116h-682v236h983v-236l-589 -1116h-301z" />
    <glyph glyph-name="eight" unicode="8" horiz-adv-x="1210" 
d="M1094 987q0 -138 -56 -220q-55 -81 -143 -124q103 -34 167 -101q62 -65 62 -192q0 -186 -138 -278q-139 -92 -392 -92q-140 0 -237 27q-94 26 -157 78q-60 49 -87 122q-27 72 -27 160q0 148 62 229t155 125q-86 35 -133 98q-47 64 -53 168q-6 84 19 153q26 72 85 122
q58 50 157 80q98 30 236 30q248 0 364 -96t116 -289zM848 371q0 49 -21 83t-55 55t-82 33q-41 11 -98 19q-8 -2 -14 -2q-25 -4 -75 -14q-37 -7 -69 -28q-30 -19 -51 -54t-21 -92q0 -34 11 -64q10 -28 37 -49q26 -20 74 -32q44 -11 122 -11q108 0 175 32t67 124zM393 983
q0 -98 54 -136q53 -37 145 -52q37 6 79 15q38 8 72 30t54 54q20 33 20 87q0 91 -59 123q-60 33 -156 33q-122 0 -165 -39q-44 -39 -44 -115z" />
    <glyph glyph-name="nine" unicode="9" horiz-adv-x="1165" 
d="M340 389q0 -94 61 -134t146 -40q60 0 104 19q45 19 77 64q30 42 49 117q17 69 22 179q-44 -57 -110 -80q-65 -22 -163 -22q-232 0 -357 114q-124 114 -124 326q0 97 29 179q28 80 90 139q61 58 158 90q98 32 231 32q135 0 233 -37q101 -38 163 -118q66 -84 97 -216
q31 -131 31 -325q0 -195 -31 -326q-30 -129 -96 -215q-62 -81 -160 -119q-94 -36 -229 -36q-104 0 -193 22q-92 22 -159 72q-69 50 -107 127q-39 78 -39 188h277zM545 727q125 0 186 66t39 170q-28 96 -84 135t-141 39q-118 0 -171 -61q-52 -59 -52 -148q0 -93 54 -147
t169 -54z" />
    <glyph glyph-name="colon" unicode=":" horiz-adv-x="583" 
d="M461 0h-338v307h338v-307zM461 614h-338v308h338v-308z" />
    <glyph glyph-name="semicolon" unicode=";" horiz-adv-x="550" 
d="M436 614h-338v308h338v-308zM104 -152q87 0 122 34q36 34 36 118h-164v307h338v-307q0 -63 -11 -111q-12 -53 -46 -93t-100 -64q-69 -25 -175 -25v141z" />
    <glyph glyph-name="less" unicode="&#x3c;" horiz-adv-x="1118" 
d="M92 612v138l932 483v-242l-418 -217l-289 -92l289 -92l418 -213v-244z" />
    <glyph glyph-name="equal" unicode="=" horiz-adv-x="1034" 
d="M92 772v205h850v-205h-850zM92 383v205h850v-205h-850z" />
    <glyph glyph-name="greater" unicode="&#x3e;" horiz-adv-x="1118" 
d="M92 133v244l418 213l289 92l-289 92l-418 217v242l932 -483v-138z" />
    <glyph glyph-name="question" unicode="?" horiz-adv-x="1038" 
d="M301 410q0 117 29 192t78 118t112 64q55 18 133 37q6 2 16.5 7.5t14.5 7.5q16 7 31 24q14 15 22 44t8 77q0 88 -67 122t-176 34q-107 0 -167 -39q-61 -40 -61 -135h-274q0 110 36 188t101 127q66 50 157 72q89 22 202 22q278 0 402 -102t124 -287q0 -128 -40 -201
q-41 -74 -97 -114q-58 -41 -121 -59q-14 -4 -53.5 -14.5t-57.5 -16.5q-6 -2 -29 -15q-14 -8 -24 -25q-9 -16 -16 -49q-6 -30 -6 -79h-277zM578 0h-277v246h277v-246z" />
    <glyph glyph-name="at" unicode="@" horiz-adv-x="1478" 
d="M1303 0q0 -62 -49 -106q-47 -43 -126 -70q-74 -26 -176 -38q-91 -11 -200 -11q-176 0 -299 34q-127 35 -205 113q-81 81 -118 213q-38 135 -38 332q0 198 38 333q37 133 116 216q78 83 199 117q120 34 288 34q193 0 316 -34q125 -35 198 -114q76 -82 105 -208
q30 -129 30 -319q0 -118 -14 -188q-15 -77 -44 -120q-30 -45 -77 -63q-49 -19 -112 -19q-57 0 -98 13q-38 12 -59 35q-23 24 -31 52q-10 32 -11 64q-22 -106 -79 -145t-155 -39q-151 0 -227 88t-76 301t76 301t227 88q72 0 122 -21t79 -75l39 76h133v-527q0 -16 16 -32
q15 -15 42 -15q45 0 60 49t15 156q0 153 -18 258q-18 104 -71 168q-53 63 -143 90q-92 27 -237 27q-122 0 -214 -28q-89 -27 -146 -92q-59 -66 -85 -169q-28 -109 -28 -260q0 -158 29 -263q29 -104 90 -164q63 -61 159 -85q102 -25 232 -25q62 0 114 4q45 3 106 13
q49 8 80 21q32 14 32 34h195zM733 246q86 0 122 49t36 176v25q-5 114 -41 156q-38 44 -117 44q-84 0 -117 -49q-32 -48 -32 -176t32 -176q33 -49 117 -49z" />
    <glyph glyph-name="A" unicode="A" horiz-adv-x="1374" 
d="M975 250h-576l-96 -250h-283l543 1352h252l539 -1352h-283zM489 485h396l-97 252q-31 80 -47 136q-15 53 -28 110q-14 62 -19 98h-8q-3 -14 -10.5 -47.5t-11.5 -52.5q-13 -52 -30 -110q-18 -64 -46 -134z" />
    <glyph glyph-name="B" unicode="B" horiz-adv-x="1294" 
d="M158 0v1352h565q109 0 194 -20t137 -62q54 -43 81 -113q26 -66 26 -172q0 -140 -62 -211q-63 -72 -196 -94q155 -23 226 -94q73 -73 73 -217q0 -106 -28 -175q-28 -70 -89 -114t-149 -62q-90 -18 -213 -18h-565zM711 236q67 0 109 9q44 9 66 29q23 20 31 50q9 34 9 69
q0 86 -45 128t-170 42h-277v-327h277zM711 797q92 0 133 38t41 140q0 34 -6 61q-6 25 -26 44q-20 18 -53 27q-35 9 -89 9h-277v-319h277z" />
    <glyph glyph-name="C" unicode="C" horiz-adv-x="1255" 
d="M1221 389q0 -127 -45 -206q-44 -78 -120 -125q-73 -45 -174 -62q-96 -16 -210 -16q-151 0 -262 30t-184 109t-107 214q-35 138 -35 345t35 344q35 135 108 213q72 76 187 107q113 30 266 30q121 0 214 -17q100 -18 172 -63q74 -46 114 -125q41 -80 41 -204h-277
q0 60 -22 94q-22 33 -59 52t-83 23q-52 5 -96 5q-88 0 -152 -14q-62 -14 -99 -61t-55 -139q-18 -91 -18 -245t18 -245t55 -140t98 -64q56 -14 147 -14q48 0 89 4q47 5 86 22q41 18 66 52t25 96h277z" />
    <glyph glyph-name="D" unicode="D" horiz-adv-x="1368" 
d="M578 236q114 0 193 22q80 22 133 74q53 51 78 136q26 87 26 208t-26 208q-25 85 -78 136q-53 52 -133 74q-79 22 -193 22h-144v-880h144zM158 0v1352h420q185 0 317 -34q134 -35 220 -113q88 -81 128 -209q41 -132 41 -320q0 -189 -41 -321q-40 -128 -128 -209
q-84 -77 -220 -112q-132 -34 -317 -34h-420z" />
    <glyph glyph-name="E" unicode="E" horiz-adv-x="1181" 
d="M158 0v1352h921v-236h-645v-319h563v-234h-563v-327h645v-236h-921z" />
    <glyph glyph-name="F" unicode="F" horiz-adv-x="1148" 
d="M158 0v1352h921v-236h-645v-319h563v-234h-563v-563h-276z" />
    <glyph glyph-name="G" unicode="G" horiz-adv-x="1368" 
d="M1016 0l-35 180q-56 -109 -154 -155q-96 -45 -229 -45q-152 0 -251 51q-100 52 -158 145q-56 91 -81 223q-24 129 -24 287q0 201 35 336q34 133 108 211q73 78 188 108q118 31 269 31q120 0 213 -17q99 -18 170 -64q74 -47 113 -125q41 -80 41 -203h-277q0 54 -18 89
q-17 33 -53 53q-34 19 -80 25q-54 7 -105 7q-94 0 -157 -18t-100 -67t-54 -142q-17 -94 -17 -238q0 -120 13 -214q12 -88 44 -141t85 -77q55 -25 135 -25q139 0 229 70q89 69 107 227h-268v213h546v-725h-235z" />
    <glyph glyph-name="H" unicode="H" horiz-adv-x="1431" 
d="M997 0v563h-563v-563h-276v1352h276v-555h563v555h277v-1352h-277z" />
    <glyph glyph-name="I" unicode="I" horiz-adv-x="591" 
d="M158 0v1352h276v-1352h-276z" />
    <glyph glyph-name="J" unicode="J" horiz-adv-x="1017" 
d="M616 1352h277v-963q0 -195 -106 -303q-105 -106 -343 -106q-225 0 -334 97q-110 98 -110 312h268q0 -97 43 -140q44 -44 135 -44q79 0 125 38q45 37 45 146v963z" />
    <glyph glyph-name="K" unicode="K" horiz-adv-x="1275" 
d="M158 0v1352h276v-555h156l358 555h293l-430 -668l440 -684h-293l-362 563h-162v-563h-276z" />
    <glyph glyph-name="L" unicode="L" horiz-adv-x="1095" 
d="M158 0v1352h276v-1116h604v-236h-880z" />
    <glyph glyph-name="M" unicode="M" horiz-adv-x="1818" 
d="M858 414q6 -18 25 -85q7 -24 14 -59q7 -31 8 -47h6q1 10 9 47q7 35 13 59q10 40 25 85l322 938h379v-1352h-277v745q0 101 7 166q2 34 6 56h-6l-72 -215l-252 -752h-313l-252 752q-25 74 -31 93q-8 28 -23 68q-3 9 -6.5 18.5t-6.5 20t-5 15.5h-6l6 -56q0 -3 1.5 -28
t2.5 -42q2 -56 2 -96v-745h-276v1352h379z" />
    <glyph glyph-name="N" unicode="N" horiz-adv-x="1431" 
d="M895 584q41 -87 51 -107q9 -18 22.5 -46.5t16.5 -35.5q21 -45 29 -71h8l-12 75q-4 35 -9 75q-4 36 -4 81v797h277v-1352h-338l-399 768q-7 14 -18.5 36.5t-20 39t-14.5 30.5q-21 46 -38 82q-16 36 -28 72h-8q8 -50 12 -76q2 -13 4.5 -39.5t3.5 -34.5q4 -36 4 -81v-797
h-276v1352h338z" />
    <glyph glyph-name="O" unicode="O" horiz-adv-x="1417" 
d="M709 -20q-165 0 -282 34q-116 34 -194 116q-73 78 -112 215q-37 132 -37 331t37 331q39 137 112 215q76 81 194 115q120 35 282 35q160 0 280 -35q119 -35 195 -115q73 -78 112 -215q37 -132 37 -331t-37 -331q-39 -137 -112 -215q-77 -82 -195 -116q-117 -34 -280 -34z
M709 215q89 0 155 24t109 76q41 49 63 143q21 88 21 218q0 128 -21 217q-21 90 -63 142q-44 54 -109 78q-66 24 -155 24q-90 0 -156 -24q-65 -24 -109 -78q-42 -52 -63 -142q-21 -89 -21 -217q0 -130 21 -218q22 -94 63 -143q43 -52 109 -76t156 -24z" />
    <glyph glyph-name="P" unicode="P" horiz-adv-x="1263" 
d="M434 0h-276v1352h565q123 0 214 -24t149 -76q60 -54 88 -139t28 -212q0 -133 -28 -221t-88 -145t-149 -80q-95 -25 -214 -25h-289v-430zM711 666q117 0 166 51q49 50 49 184q0 122 -49 168q-50 47 -166 47h-277v-450h277z" />
    <glyph glyph-name="Q" unicode="Q" horiz-adv-x="1417" 
d="M895 -328l-199 308q-160 2 -275 36q-116 35 -191 117q-74 81 -110 214q-36 132 -36 329q0 199 37 331q39 137 112 215q76 81 194 115q120 35 282 35q160 0 280 -35q119 -35 195 -115q73 -78 112 -215q37 -132 37 -331q0 -151 -21 -265q-21 -111 -67 -195
q-46 -82 -112 -131q-69 -50 -162 -77l219 -336h-295zM709 215q89 0 155 24t109 76q41 49 63 143q21 88 21 218q0 128 -21 217q-21 90 -63 142q-44 54 -109 78q-66 24 -155 24q-90 0 -156 -24q-65 -24 -109 -78q-42 -52 -63 -142q-21 -89 -21 -217q0 -130 21 -218
q22 -94 63 -143q43 -52 109 -76t156 -24z" />
    <glyph glyph-name="R" unicode="R" horiz-adv-x="1318" 
d="M158 0v1352h565q123 0 214 -24t149 -76q60 -54 88 -139t28 -212q0 -186 -57 -291q-56 -103 -180 -147l299 -463h-316l-276 430h-238v-430h-276zM711 666q117 0 166 51q49 50 49 184q0 122 -49 168q-50 47 -166 47h-277v-450h277z" />
    <glyph glyph-name="S" unicode="S" horiz-adv-x="1255" 
d="M872 963q0 48 -9 81t-36 54q-26 20 -77 29q-57 10 -134 10q-68 0 -127 -9q-49 -7 -77 -25t-40 -46q-12 -29 -12 -70q0 -63 21 -97t56 -50q38 -17 82 -23q15 -2 97 -14q126 -18 217 -37q98 -20 177 -65q75 -43 119 -121q45 -81 45 -209q0 -99 -31 -177q-30 -75 -97 -122
t-174 -70q-104 -22 -258 -22q-162 0 -264 23q-106 24 -171 74t-92 128q-28 81 -28 184h275q0 -49 10 -80q10 -33 41 -54q32 -22 87 -31q57 -9 149 -9q84 0 133 7q55 8 85 25q32 18 45 46q13 27 13 72q0 62 -25 98q-24 35 -64 51q-44 18 -90 22q-36 3 -102 13
q-107 16 -215 41q-101 23 -169 68q-70 46 -109 124t-39 207q0 91 24 161q24 72 83 120q59 49 165 76q101 26 267 26q141 0 241 -21q99 -21 163 -71q63 -49 91 -127q29 -79 29 -190h-275z" />
    <glyph glyph-name="T" unicode="T" horiz-adv-x="1116" 
d="M420 0v1116h-400v236h1076v-236h-400v-1116h-276z" />
    <glyph glyph-name="U" unicode="U" horiz-adv-x="1376" 
d="M975 1352h276v-676q0 -202 -32 -331q-33 -133 -103 -215q-69 -81 -175 -116q-103 -34 -253 -34t-253 34q-106 35 -175 116t-102 215q-33 133 -33 331v676h276v-676q0 -127 17 -218q17 -92 52 -143q36 -52 90 -76t128 -24t128 24t90 76q35 51 52 143q17 91 17 218v676z
" />
    <glyph glyph-name="V" unicode="V" horiz-adv-x="1374" 
d="M588 614q28 -70 46 -134q19 -68 30 -109q4 -19 11.5 -53t10.5 -48h8q5 38 19 99q12 52 28 109q16 56 47 136l283 738h283l-539 -1352h-252l-543 1352h283z" />
    <glyph glyph-name="W" unicode="W" horiz-adv-x="1794" 
d="M940 596q-10 62 -18 125q-12 101 -13 108q-7 62 -8 105h-8q-7 -79 -10 -105q-4 -36 -14 -108q-14 -94 -19 -127l-129 -594h-336l-348 1352h278l189 -764q14 -75 20 -127q12 -97 13 -109q4 -33 10 -106h8q6 73 10 106q1 12 13 109q8 63 18 125l127 561h348l127 -561
q16 -84 21 -124q7 -55 12 -108q7 -62 8 -108h8q1 44 8 106q1 12 13 109q8 65 22 127l189 764h278l-348 -1352h-336z" />
    <glyph glyph-name="X" unicode="X" horiz-adv-x="1275" 
d="M930 0l-221 346l-72 178l-72 -178l-221 -346h-324l441 684l-422 668h315l213 -346l72 -179l72 179l217 346h313l-426 -668l440 -684h-325z" />
    <glyph glyph-name="Y" unicode="Y" horiz-adv-x="1222" 
d="M516 977q30 -60 48 -108q15 -39 28 -83q9 -32 14 -71h8q4 31 15 71q19 61 26 82q16 45 47 107l197 377h303l-454 -875v-477h-277v477l-451 875h306z" />
    <glyph glyph-name="Z" unicode="Z" horiz-adv-x="1138" 
d="M57 0v236l676 880h-676v236h1024v-236l-675 -880h675v-236h-1024z" />
    <glyph glyph-name="bracketleft" unicode="[" horiz-adv-x="700" 
d="M158 -492v1926h471v-236h-195v-1454h195v-236h-471z" />
    <glyph glyph-name="backslash" unicode="\" horiz-adv-x="837" 
d="M817 -246h-217l-539 1680h218z" />
    <glyph glyph-name="bracketright" unicode="]" horiz-adv-x="700" 
d="M72 -492v236h194v1454h-194v236h471v-1926h-471z" />
    <glyph glyph-name="asciicircum" unicode="^" horiz-adv-x="931" 
d="M616 954l-79 142l-72 219l-72 -219l-80 -142h-252l310 480h190l309 -480h-254z" />
    <glyph glyph-name="underscore" unicode="_" horiz-adv-x="1198" 
d="M102 -399v194h994v-194h-994z" />
    <glyph glyph-name="grave" unicode="`" horiz-adv-x="651" 
d="M340 1073l-238 293h304l143 -293h-209z" />
    <glyph glyph-name="a" unicode="a" horiz-adv-x="1046" 
d="M1012 -10q-87 0 -143 10q-59 11 -95 28t-56 42q-21 26 -28 53q-34 -87 -97 -115t-171 -28q-72 0 -133 11q-67 12 -117 43q-52 32 -83 88q-32 58 -32 146q0 102 39 158q40 56 99 83q62 28 131 35q41 4 137 13l196 18v76q0 55 -29 75q-31 22 -112 22q-87 0 -114 -25
q-25 -24 -25 -84h-275q0 174 99 249t315 75q114 0 197 -22q80 -21 129 -61t70 -98q22 -60 22 -131v-368q0 -37 21 -58q20 -20 55 -20v-215zM446 205q100 0 149 38q48 37 60 140l-192 -18q-76 -7 -104 -24q-25 -15 -25 -62q0 -42 22 -58t90 -16z" />
    <glyph glyph-name="b" unicode="b" horiz-adv-x="1138" 
d="M129 1403l277 31v-430q0 -33 -6 -95q-2 -15 -4.5 -46.5t-4.5 -47.5h6q34 84 96 116q61 32 158 32q107 0 186 -27t131 -85q52 -59 78 -153q25 -93 25 -227t-25 -227q-26 -94 -78 -153q-52 -58 -131 -85q-77 -26 -186 -26q-103 0 -165 34q-61 34 -95 127l-47 -141h-215
v1403zM604 195q53 0 89 12t59 43q21 28 32 84q11 55 11 137t-11 137q-11 56 -32 84q-23 31 -60 43q-41 13 -88 13q-100 0 -147 -58q-47 -57 -51 -190v-29q0 -149 47 -213q47 -63 151 -63z" />
    <glyph glyph-name="c" unicode="c" horiz-adv-x="972" 
d="M934 303q0 -176 -116 -250q-115 -73 -314 -73q-123 0 -204 25q-83 26 -134 84t-75 152q-23 89 -23 230q0 138 23 229q24 94 75 153q51 58 134 84q84 26 202 26q100 0 180 -18q81 -18 136 -56t86 -101q30 -61 30 -149h-275q0 61 -32 84q-34 25 -109 25q-56 0 -91 -15
q-34 -15 -52 -46q-19 -33 -25 -85t-6 -131t6 -131t25 -85q17 -31 53 -46q32 -14 92 -14q73 0 106 23t33 85h275z" />
    <glyph glyph-name="d" unicode="d" horiz-adv-x="1138" 
d="M487 -20q-108 0 -185 26q-79 27 -131 85q-53 59 -78 153q-25 93 -25 227t25 227q25 94 78 153q52 58 131 85t185 27q96 0 158 -32q61 -31 94 -116h9q-1 15 -5 46.5t-5 47.5q-5 52 -5 95v399l277 31v-1434h-215l-47 141q-33 -92 -97 -127q-62 -34 -164 -34zM535 195
q105 0 151 63q47 64 47 213t-47 213t-151 64q-51 0 -90 -13q-34 -11 -58 -43q-22 -29 -33 -84q-10 -50 -10 -137t10 -137q11 -55 33 -84q24 -32 58 -43q36 -12 90 -12z" />
    <glyph glyph-name="e" unicode="e" horiz-adv-x="1019" 
d="M346 389q1 -50 12 -88q10 -34 32 -60q20 -23 57 -35q33 -11 92 -11q61 0 91 20q32 21 32 88h274q0 -89 -30 -151t-84 -101q-53 -38 -132 -55q-76 -16 -172 -16q-118 0 -202 25q-83 25 -140 83q-54 56 -82 151q-26 90 -26 228q0 143 28 236q29 96 86 153q58 58 145 82
q91 25 203 25q108 0 187 -21q83 -22 131 -66q52 -47 77 -124q25 -76 25 -191q0 -34 -4 -77q-5 -50 -22 -95h-578zM528 748q-98 0 -135 -37q-38 -38 -45 -127h326v24q0 38 -4 62q-4 26 -19 44t-43 25q-34 9 -80 9z" />
    <glyph glyph-name="f" unicode="f" horiz-adv-x="669" 
d="M147 0v727h-124v215h124v123q0 208 135 293q133 84 429 76v-215q-81 4 -142 -4q-57 -8 -87 -25q-31 -18 -45 -50q-13 -30 -13 -75v-123h248v-215h-248v-727h-277z" />
    <glyph glyph-name="g" unicode="g" horiz-adv-x="1093" 
d="M948 594q0 -104 -30 -175q-29 -68 -89 -114q-56 -43 -139 -61q-87 -19 -182 -19h-43q-15 0 -39 2q-18 -27 -18 -65q0 -20 15 -32q12 -10 85 -21q42 -8 140 -22q85 -12 161 -43t133 -92q55 -59 55 -167q0 -135 -111 -211q-110 -76 -372 -76q-246 0 -360 66
q-115 67 -115 182q0 80 47 141q45 58 113 109q-66 56 -66 143q0 53 23 85q26 37 59 63q-73 41 -110 115t-37 192q0 104 30 175q30 69 88 114q56 43 140 61q87 19 182 19q132 0 230 -33t151 -113q33 64 85 95q50 30 120 30v-235q-95 0 -148 -62q0 -16 1 -24t1 -27zM672 594
q0 86 -36 120q-35 34 -128 34t-128 -34q-36 -34 -36 -120t36 -120q35 -34 128 -34t128 34q36 34 36 120zM508 -104q-74 6 -143 24q-15 -24 -36 -47q-20 -22 -20 -59q0 -53 47 -77q46 -24 154 -24q83 0 148 20q63 19 63 77q0 31 -20 46q-18 14 -50 22q-27 7 -68 10
q-25 2 -75 8z" />
    <glyph glyph-name="h" unicode="h" horiz-adv-x="1148" 
d="M129 1403l277 31v-430q0 -33 -6 -95q-2 -15 -4.5 -46.5t-4.5 -47.5h6q35 87 98 117q65 31 164 31q185 0 278 -95q93 -94 93 -315v-553h-276v553q0 117 -33 156t-111 39q-108 0 -156 -63t-48 -214v-471h-277v1403z" />
    <glyph glyph-name="i" unicode="i" horiz-adv-x="473" 
d="M100 0v942h277v-942h-277zM100 1126v226h277v-226h-277z" />
    <glyph glyph-name="j" unicode="j" horiz-adv-x="591" 
d="M434 -158q0 -66 -18 -126q-17 -58 -64 -106q-46 -48 -121 -74q-79 -28 -190 -28v222q52 0 84 19q33 20 33 73v1120h276v-1100zM158 1126v226h276v-226h-276z" />
    <glyph glyph-name="k" unicode="k" horiz-adv-x="1048" 
d="M129 0v1403l277 31v-850h90l231 358h293l-299 -463l309 -479h-293l-231 358h-100v-358h-277z" />
    <glyph glyph-name="l" unicode="l" horiz-adv-x="550" 
d="M504 0q-112 0 -191 28q-75 26 -120 73q-46 48 -64 107q-18 60 -18 126v1069l276 31v-1100q0 -64 33 -88q34 -25 84 -25v-221z" />
    <glyph glyph-name="m" unicode="m" horiz-adv-x="1650" 
d="M129 0v942h236l38 -139q27 96 80 128t146 32q110 0 186 -40t115 -128q28 98 90 133t164 35q173 0 261 -90q87 -89 87 -300v-573h-277v573q0 107 -28 141t-90 34q-85 0 -126 -55q-40 -54 -42 -191v-502h-277v573q0 107 -28 141t-91 34q-85 0 -126 -55q-39 -53 -41 -191
v-502h-277z" />
    <glyph glyph-name="n" unicode="n" horiz-adv-x="1148" 
d="M129 0v942h215l49 -133q33 90 100 122t175 32q105 0 174 -24q68 -24 111 -74q42 -49 60 -128q17 -74 17 -184v-553h-276v553q0 59 -8 99q-8 41 -23 60q-16 20 -42 28q-27 8 -65 8q-110 0 -158 -56q-47 -55 -52 -192v-500h-277z" />
    <glyph glyph-name="o" unicode="o" horiz-adv-x="1056" 
d="M528 -20q-120 0 -206 24t-144 82q-57 57 -84 152q-26 91 -26 233q0 143 26 234q27 94 84 151q58 58 144 82q89 25 206 25q115 0 206 -25q87 -24 145 -82q57 -57 84 -151q26 -91 26 -234q0 -142 -26 -233q-27 -95 -84 -152q-58 -58 -145 -82t-206 -24zM528 195
q104 0 144 60q41 61 41 216t-41 216t-144 61q-102 0 -143 -61t-41 -216t41 -216q41 -60 143 -60z" />
    <glyph glyph-name="p" unicode="p" horiz-adv-x="1138" 
d="M129 942h215l47 -143q33 95 98 129q67 35 173 35q205 0 307 -114t102 -378t-102 -378q-101 -113 -307 -113q-103 0 -166 30q-64 31 -99 117h-6q1 -15 4 -47t5 -47q6 -62 6 -94v-431h-277v1434zM612 748q-106 0 -154 -57q-48 -56 -52 -191v-29q0 -151 48 -214
q47 -62 158 -62q50 0 84 12q36 13 57 44q20 30 31 85t11 135q0 78 -11 133t-31 85q-20 31 -57 45q-36 14 -84 14z" />
    <glyph glyph-name="q" unicode="q" horiz-adv-x="1138" 
d="M1010 -492h-277v431q0 42 5 94q1 15 5 47t5 47h-7q-35 -87 -98 -117t-166 -30q-206 0 -307 113q-102 114 -102 378t102 378t307 114q106 0 171 -35q64 -34 97 -129l50 143h215v-1434zM526 748q-48 0 -84 -14q-35 -14 -56 -45q-21 -32 -32 -85q-10 -50 -10 -133
q0 -85 10 -135q11 -53 32 -85t56 -44q34 -12 84 -12q105 0 154 55q48 54 53 190v60q-5 135 -53 191q-50 57 -154 57z" />
    <glyph glyph-name="r" unicode="r" horiz-adv-x="671" 
d="M100 0v942h236l41 -164q30 109 95 147t175 38v-215q-134 0 -201 -61q-64 -59 -69 -202v-485h-277z" />
    <glyph glyph-name="s" unicode="s" horiz-adv-x="968" 
d="M621 639q0 67 -34 88q-35 21 -110 21q-77 0 -108 -17t-31 -59q0 -54 37 -66q35 -11 104 -22q94 -12 172 -33t134 -55t88 -92t32 -140q0 -70 -22 -121q-22 -52 -73 -89q-48 -35 -132 -55q-80 -19 -201 -19q-227 0 -325 76q-99 76 -99 247h269q0 -70 40 -89q39 -19 119 -19
q87 0 118 16q32 17 32 57q0 28 -11 43q-13 18 -31 26t-48 13q-11 2 -32.5 4.5t-29.5 3.5q-72 10 -160 31q-74 17 -133 53q-56 34 -90 93q-33 57 -33 145q0 66 23 120q22 52 72 88q48 35 129 55q82 20 196 20q222 0 317 -77t95 -247h-274z" />
    <glyph glyph-name="t" unicode="t" horiz-adv-x="700" 
d="M670 727h-248v-358q0 -43 9 -73t33 -48q25 -19 62 -26q36 -7 101 -7v-215q-115 0 -204 18t-151 62q-61 43 -94 114t-33 175v358h-125v215h125v184l277 62v-246h248v-215z" />
    <glyph glyph-name="u" unicode="u" horiz-adv-x="1140" 
d="M387 942v-471q0 -90 7 -140q8 -55 24 -85q17 -31 45 -41q27 -10 69 -10q104 0 151 56q48 56 52 191v500h277v-942h-215l-52 133q-35 -91 -99 -122q-63 -31 -171 -31q-106 0 -175 28q-72 29 -113 88q-41 58 -59 153q-17 88 -17 222v471h276z" />
    <glyph glyph-name="v" unicode="v" horiz-adv-x="1011" 
d="M723 942h285l-375 -942h-252l-377 942h283l149 -424q18 -52 32 -114q10 -46 19 -97q11 -72 13 -96h8q1 9 14 96q2 11 21 97q14 63 32 112z" />
    <glyph glyph-name="w" unicode="w" horiz-adv-x="1542" 
d="M809 432q-16 76 -21 112q-8 55 -12 97q-6 51 -6 96h-8q-1 -39 -8 -96q-4 -42 -12 -97q-9 -62 -19 -114l-92 -430h-336l-275 942h279l96 -373q19 -75 30 -137q9 -50 17 -117q11 -87 13 -112h8q4 51 12 112q5 43 17 118q13 80 26 138l74 371h348l74 -371q4 -21 8.5 -44.5
t9 -51t7.5 -42.5q12 -64 18 -118q8 -61 12 -112h8q1 41 10 112q6 51 18 117q13 72 32 137l106 373h279l-285 -942h-336z" />
    <glyph glyph-name="x" unicode="x" horiz-adv-x="1005" 
d="M584 174q-29 47 -44 79q-20 42 -24 54q-6 21 -12 41h-8q-6 -17 -17 -43q-2 -4 -10.5 -23t-14.5 -31q-15 -32 -44 -79l-103 -172h-295l305 473l-286 469h317l72 -129q20 -37 46 -91l28 -60q10 -27 12 -46h8q6 23 14 43q3 6 27 61q19 43 49 91l76 131h299l-293 -461
l307 -481h-303z" />
    <glyph glyph-name="y" unicode="y" horiz-adv-x="1001" 
d="M426 512q21 -73 33 -127l20 -96q12 -75 13 -82h8q4 37 12 84q6 30 20 95q12 52 35 124l142 432h288l-385 -1030q-78 -209 -199 -306q-122 -98 -261 -98v236q31 0 62 19q30 19 60 50q31 33 53 67t35 75l-358 987h289z" />
    <glyph glyph-name="z" unicode="z" horiz-adv-x="954" 
d="M57 0v215l482 512h-482v215h840v-215l-481 -512h481v-215h-840z" />
    <glyph glyph-name="braceleft" unicode="{" horiz-adv-x="761" 
d="M702 -186q-109 0 -182 38t-116 96q-44 60 -65 129q-23 79 -30 138q-8 68 -9 124q-1 55 -3 83q-5 27 -12 48q-8 21 -39 34l-205 84v92l205 84q35 17 41 37q5 16 10 45q8 61 11 122q3 59 11 134q7 63 28 131q19 63 62 113q40 47 112 78q70 30 181 30v-225q-42 0 -68 -33
t-39 -88q-14 -59 -20 -129q-4 -55 -10 -158q0 -24 -7 -46q-8 -26 -23 -45q-16 -20 -48 -38q-29 -16 -77 -22l-150 -35v-2l150 -35q56 -7 89 -28q31 -19 46 -42q14 -21 17 -45q3 -23 3 -37q5 -100 10 -157q6 -70 20 -129q13 -55 39 -88t68 -33v-225z" />
    <glyph glyph-name="bar" unicode="|" horiz-adv-x="600" 
d="M205 -246v1680h190v-1680h-190z" />
    <glyph glyph-name="braceright" unicode="}" horiz-adv-x="761" 
d="M59 39q43 0 69 33t39 88q13 52 19 129q8 92 11 157q0 15 3 37q3 24 17 45q15 23 46 42q33 21 89 28l150 35v2l-150 35q-50 6 -78 22q-30 17 -47 38q-15 19 -23 45q-7 22 -7 46q-4 68 -11 158q-6 77 -19 129q-13 55 -39 88t-69 33v225q111 0 182 -30q72 -31 112 -78
q43 -50 62 -113t27 -131q10 -90 12 -134q3 -61 11 -122q5 -29 10 -45q6 -20 41 -37l205 -84v-92l-205 -84q-31 -13 -39 -34q-7 -21 -12 -48q-2 -28 -3 -83q-1 -56 -9 -124q-7 -59 -30 -138q-20 -67 -66 -129q-44 -59 -115 -96q-73 -38 -183 -38v225z" />
    <glyph glyph-name="asciitilde" unicode="~" horiz-adv-x="1232" 
d="M1128 831q0 -92 -23 -151q-24 -61 -67 -100q-45 -40 -104 -56q-60 -16 -137 -16q-71 0 -112 10q-46 11 -73 28q-29 18 -46 38q-10 12 -31 41q-15 18 -37 34q-23 17 -78 17q-23 0 -43 -5q-17 -4 -33 -22q-13 -14 -21 -45q-8 -30 -8 -78h-213q0 179 89 251q90 73 241 73
q72 0 118 -12t76 -30t44 -38q4 -6 24 -37q12 -22 39 -37q25 -14 74 -14q50 0 80 28q28 27 28 121h213z" />
    <glyph glyph-name="exclamdown" unicode="&#xa1;" horiz-adv-x="473" 
d="M397 -492h-317l41 943h235zM377 614h-277v246h277v-246z" />
    <glyph glyph-name="cent" unicode="&#xa2;" horiz-adv-x="972" 
d="M416 246v166q-96 6 -162 30q-65 24 -108 71q-42 47 -60 117t-18 169t18 168q18 68 60 115q43 47 108 71q69 25 162 31v168h170v-168q166 -15 256 -89q92 -75 92 -231h-254q0 95 -94 113v-359q46 10 70 36t24 79h254q0 -157 -93 -232q-92 -74 -255 -89v-166h-170zM324 799
q0 -80 16 -119q17 -41 76 -57v350q-60 -15 -76 -55q-16 -39 -16 -119z" />
    <glyph glyph-name="sterling" unicode="&#xa3;" horiz-adv-x="1095" 
d="M705 236q49 0 63 20t14 68h275q0 -174 -84 -249t-268 -75h-666v240h59q48 0 83 22q36 23 59 59q22 35 34 80q13 49 13 91h-205v163h137q-30 37 -50 61q-28 33 -47 64q-21 35 -35 76q-13 39 -13 92q0 84 31 143q30 58 88 100q54 39 131 59q78 20 165 20q81 0 158 -18
q78 -18 133 -56q57 -39 91 -101t34 -153h-274q0 64 -46 88q-48 25 -106 25q-72 0 -102 -30q-31 -31 -31 -89q0 -42 15 -80q15 -36 39 -70q16 -22 52 -64q29 -33 52 -67h223v-163h-168q-1 -110 -50 -174q-46 -60 -103 -82h299z" />
    <glyph glyph-name="yen" unicode="&#xa5;" horiz-adv-x="1222" 
d="M748 229v-229h-277v229h-287v164h287v84l-41 80h-246v164h162l-326 631h306l190 -375q30 -60 48 -108q15 -39 28 -83q9 -32 14 -71h8q4 31 15 71q19 61 26 82q16 45 47 107l197 377h303l-328 -631h160v-164h-246l-40 -80v-84h286v-164h-286z" />
    <glyph glyph-name="brokenbar" unicode="&#xa6;" horiz-adv-x="600" 
d="M395 453v-699h-190v699h190zM205 1434h190v-699h-190v699z" />
    <glyph glyph-name="section" unicode="&#xa7;" horiz-adv-x="968" 
d="M621 1038q0 67 -34 88q-35 21 -110 21q-79 0 -108 -16q-31 -17 -31 -60q0 -53 37 -65q41 -13 104 -23q94 -12 172 -33q79 -21 134 -56q57 -36 88 -88q32 -53 32 -130q0 -63 -23 -108t-77 -74q47 -35 74 -87q26 -51 26 -131q0 -69 -22 -120t-73 -90q-50 -38 -132 -57
q-80 -19 -201 -19q-225 0 -325 77q-99 77 -99 246h269q0 -73 39 -90q41 -18 118 -18q89 0 120 16q32 17 32 58q0 28 -11 43q-12 16 -31 25q-18 8 -48 13q-25 4 -62 9q-80 11 -152 28q-73 17 -133 53q-60 35 -95 88q-36 54 -36 138q0 59 23 107q22 47 78 75q-46 34 -74 88
q-27 53 -27 133q0 66 23 120q22 52 72 88q48 35 129 55q82 20 196 20q222 0 317 -77t95 -247h-274zM631 670q0 28 -11 42q-12 15 -31 24q-21 10 -48 14q-11 2 -32.5 4.5t-29.5 3.5q-77 0 -109 -18t-32 -60q0 -46 35 -61q33 -14 106 -25q87 0 119 16q33 16 33 60z" />
    <glyph glyph-name="dieresis" unicode="&#xa8;" horiz-adv-x="829" 
d="M102 1085v246h236v-246h-236zM492 1085v246h235v-246h-235z" />
    <glyph glyph-name="copyright" unicode="&#xa9;" horiz-adv-x="1527" 
d="M764 -20q-176 0 -300 34q-125 34 -207 116q-81 81 -120 215t-39 331q0 198 39 331q39 134 120 215q80 80 207 115q128 35 300 35q173 0 299 -35q125 -35 207 -115t121 -215q39 -133 39 -331q0 -197 -39 -331q-39 -135 -121 -215q-83 -82 -207 -116q-123 -34 -299 -34z
M764 61q146 0 258 31q108 30 178 103t104 189q33 113 33 292t-33 292q-34 116 -104 189t-178 103t-258 30t-258 -30t-178 -103t-104 -189q-34 -117 -34 -292t34 -292q34 -116 104 -189t178 -103q112 -31 258 -31zM1157 549q0 -167 -104 -235q-103 -68 -285 -68
q-108 0 -184 21q-75 21 -123 73q-47 52 -68 133q-20 79 -20 203q0 123 20 202q21 83 68 133q46 49 122 72q77 23 183 23q93 0 163 -16q74 -17 123 -54q51 -38 77 -94q28 -59 28 -139h-254q0 60 -27 84t-94 24q-52 0 -80 -11q-31 -12 -47 -39t-21 -73q-5 -50 -5 -112
q0 -63 5 -113q5 -46 21 -73q16 -25 47 -38q30 -12 82 -12q62 0 90 24q29 24 29 85h254z" />
    <glyph glyph-name="ordfeminine" unicode="&#xaa;" horiz-adv-x="1046" 
d="M772 670q-86 0 -120 18t-42 47q-16 -40 -48 -55q-29 -14 -85 -14q-31 0 -66 5q-31 4 -59 20q-27 15 -42 44t-15 74q0 53 19 79q19 27 50 42q28 14 65 17q45 4 69 7l98 9v38q0 27 -14 37q-16 11 -56 11q-44 0 -57 -13q-12 -12 -12 -41h-138q0 86 50 124t157 38
q116 0 163 -41q46 -40 46 -115v-184q0 -21 10 -30q11 -9 27 -9v-108zM489 778q50 0 75 19q24 18 30 69l-96 -8q-41 -6 -52 -13q-12 -7 -12 -30t10 -30t45 -7z" />
    <glyph glyph-name="guillemotleft" unicode="&#xab;" horiz-adv-x="854" 
d="M590 102h-225l-277 381l260 357h225l-219 -291q-8 -11 -24 -31q-9 -11 -27 -31v-8q5 -5 14 -14.5t13 -14.5q12 -14 24 -30zM590 479q10 -11 26 -29q18 -20 25 -30l166 -215h-184l-207 278l190 254h185l-150 -190q-7 -10 -25 -30q-3 -4 -11.5 -14t-14.5 -16v-8z" />
    <glyph glyph-name="uni00AD" unicode="&#xad;" horiz-adv-x="899" 
d="M127 563v234h645v-234h-645z" />
    <glyph glyph-name="registered" unicode="&#xae;" horiz-adv-x="1527" 
d="M764 -20q-176 0 -300 34q-125 34 -207 116q-81 81 -120 215t-39 331q0 198 39 331q39 134 120 215q80 80 207 115q128 35 300 35q173 0 299 -35q125 -35 207 -115t121 -215q39 -133 39 -331q0 -197 -39 -331q-39 -135 -121 -215q-83 -82 -207 -116q-123 -34 -299 -34z
M764 61q146 0 258 31q108 30 178 103t104 189q33 113 33 292t-33 292q-34 116 -104 189t-178 103t-258 30t-258 -30t-178 -103t-104 -189q-34 -117 -34 -292t34 -292q34 -116 104 -189t178 -103q112 -31 258 -31zM948 246l-176 276h-80v-276h-256v860h381q186 0 272 -66
q85 -66 85 -223q0 -116 -41 -180q-41 -63 -127 -92l192 -299h-250zM805 717q73 0 103 21t30 77q0 54 -29 75t-104 21h-113v-194h113z" />
    <glyph glyph-name="macron" unicode="&#xaf;" horiz-adv-x="1030" 
d="M152 1124v144h727v-144h-727z" />
    <glyph glyph-name="degree" unicode="&#xb0;" horiz-adv-x="673" 
d="M338 829q-73 0 -127 14q-53 14 -88 44q-34 30 -51 82q-17 53 -17 127q0 149 68 208q67 58 215 58q149 0 214 -58q66 -58 66 -208q0 -78 -16 -127q-17 -52 -51 -82q-35 -31 -87 -44q-54 -14 -126 -14zM338 973q45 0 65 26q21 27 21 97q0 69 -21 96t-65 27q-47 0 -68 -27
q-20 -26 -20 -96q0 -74 20 -98q21 -25 68 -25z" />
    <glyph glyph-name="plusminus" unicode="&#xb1;" horiz-adv-x="1198" 
d="M496 461v344h-404v205h404v342h204v-342h406v-205h-406v-344h-204zM1106 338v-205h-1014v205h1014z" />
    <glyph glyph-name="two.sups" unicode="&#xb2;" horiz-adv-x="559" 
d="M35 676v112l268 271q2 2 20 18q11 9 26 30t23 37q9 20 9 38q0 35 -24 50t-81 15t-81 -18q-25 -19 -25 -70h-131q0 114 59 158q60 45 176 45q128 0 185 -45t57 -123q0 -39 -10 -65t-23 -47t-23 -31q-5 -5 -10 -10.5t-6 -6.5l-243 -246h317v-112h-483z" />
    <glyph glyph-name="three.sups" unicode="&#xb3;" horiz-adv-x="555" 
d="M319 1081q187 -24 187 -200q0 -48 -13 -86q-14 -40 -43 -68q-30 -29 -78 -45q-47 -16 -120 -16q-55 0 -96 11q-47 12 -79 35q-34 23 -53 62q-20 40 -20 94h133q0 -48 32 -69q31 -21 81 -21q74 0 99 31q24 30 24 72q0 45 -27 69q-28 25 -92 25h-74v108l129 154h-284v115
h456v-115l-86 -90q-19 -19 -37 -34q-28 -24 -39 -32z" />
    <glyph glyph-name="acute" unicode="&#xb4;" horiz-adv-x="651" 
d="M102 1073l144 293h303l-238 -293h-209z" />
    <glyph glyph-name="periodcentered" unicode="&#xb7;" horiz-adv-x="440" 
d="M102 623v245h236v-245h-236z" />
    <glyph glyph-name="cedilla" unicode="&#xb8;" horiz-adv-x="655" 
d="M594 -242q0 -96 -80 -143t-197 -47q-55 0 -98 9q-42 9 -65 24v131q65 -31 133 -31q47 0 74 12q28 12 28 41q0 33 -34 52q-36 20 -111 26l22 205h137l-10 -115q201 -12 201 -164z" />
    <glyph glyph-name="one.sups" unicode="&#xb9;" horiz-adv-x="471" 
d="M55 676v112h113v426l-113 -18v115l246 41v-564h115v-112h-361z" />
    <glyph glyph-name="ordmasculine" unicode="&#xba;" horiz-adv-x="673" 
d="M338 666q-77 0 -127 17q-56 19 -88 57q-35 40 -51 108q-17 70 -17 166q0 97 17 165q17 67 51 107q35 41 88 59q50 17 127 17q76 0 126 -17q52 -18 87 -59q34 -40 51 -107q16 -64 16 -165t-16 -166q-16 -68 -51 -108q-33 -38 -87 -57q-50 -17 -126 -17zM338 809
q44 0 65 44q21 43 21 161t-21 161q-21 44 -65 44q-47 0 -68 -44q-20 -41 -20 -161t20 -161q21 -44 68 -44z" />
    <glyph glyph-name="guillemotright" unicode="&#xbb;" horiz-adv-x="894" 
d="M541 420q12 16 24 30q4 5 13 14.5t14 14.5v8q-18 20 -27 31q-16 20 -24 31l-219 291h225l260 -357l-277 -381h-225zM305 479v8q-6 6 -14.5 16t-11.5 14q-17 20 -25 30l-150 190h185l190 -254l-207 -278h-184l166 215q8 10 25 30q16 18 26 29z" />
    <glyph glyph-name="onequarter" unicode="&#xbc;" horiz-adv-x="1460" 
d="M389 0h-141l731 1352h141zM70 676v112h112v426l-112 -18v115l245 41v-564h115v-112h-360zM1194 0v154h-346v114l215 408h145l-215 -408h201v183l133 20v-203h64v-114h-64v-154h-133z" />
    <glyph glyph-name="onehalf" unicode="&#xbd;" horiz-adv-x="1427" 
d="M389 0h-141l731 1352h141zM70 676v112h112v426l-112 -18v115l245 41v-564h115v-112h-360zM874 0v113l269 270q10 10 19 18q14 12 27 30q13 17 22 37q10 22 10 38q0 35 -24 50t-81 15q-58 0 -82 -18t-24 -70h-131q0 114 59 158q60 45 176 45q127 0 184 -45q58 -46 58 -123
q0 -38 -10 -64t-23 -47t-24 -32q-5 -5 -9.5 -10.5t-5.5 -6.5l-244 -245h318v-113h-484z" />
    <glyph glyph-name="threequarters" unicode="&#xbe;" horiz-adv-x="1529" 
d="M459 0h-142l732 1352h141zM385 1081q186 -24 186 -200q0 -48 -13 -86q-14 -40 -43 -68q-30 -29 -78 -45q-47 -16 -120 -16q-55 0 -96 11q-47 12 -79 35q-34 23 -53 62q-19 38 -19 94h133q0 -48 31 -69q32 -21 81 -21q75 0 100 31q23 29 23 72q0 46 -26 69q-28 25 -93 25
h-73v108l129 154h-285v115h457v-115l-86 -90q-19 -19 -37 -34q-28 -24 -39 -32zM1264 0v154h-346v114l215 408h145l-215 -408h201v183l133 20v-203h63v-114h-63v-154h-133z" />
    <glyph glyph-name="questiondown" unicode="&#xbf;" horiz-adv-x="1038" 
d="M737 451q0 -123 -28 -194q-29 -74 -78 -117q-50 -44 -113 -65q-61 -20 -133 -36q-15 -5 -32 -14q-11 -6 -29 -25q-16 -17 -23 -44q-8 -29 -8 -77q0 -88 67 -122q65 -33 177 -33q108 0 166 38q61 40 61 136h274q0 -111 -36 -189t-101 -127q-64 -48 -157 -71
q-94 -23 -201 -23q-279 0 -403 102t-124 287q0 128 40 201q41 75 98 115q56 40 120 58q103 29 111 32q14 5 30 14q12 6 23 26q11 19 17 48q6 30 6 80h276zM461 860h276v-246h-276v246z" />
    <glyph glyph-name="Agrave" unicode="&#xc0;" horiz-adv-x="1374" 
d="M975 250h-576l-96 -250h-283l543 1352h252l539 -1352h-283zM489 485h396l-97 252q-31 80 -47 136q-15 53 -28 110q-14 62 -19 98h-8q-3 -14 -10.5 -47.5t-11.5 -52.5q-13 -52 -30 -110q-18 -64 -46 -134zM578 1483l-259 293h345l143 -293h-229z" />
    <glyph glyph-name="Aacute" unicode="&#xc1;" horiz-adv-x="1374" 
d="M975 250h-576l-96 -250h-283l543 1352h252l539 -1352h-283zM489 485h396l-97 252q-31 80 -47 136q-15 53 -28 110q-14 62 -19 98h-8q-3 -14 -10.5 -47.5t-11.5 -52.5q-13 -52 -30 -110q-18 -64 -46 -134zM571 1483l144 293h344l-258 -293h-230z" />
    <glyph glyph-name="Acircumflex" unicode="&#xc2;" horiz-adv-x="1374" 
d="M975 250h-576l-96 -250h-283l543 1352h252l539 -1352h-283zM489 485h396l-97 252q-31 80 -47 136q-15 53 -28 110q-14 62 -19 98h-8q-3 -14 -10.5 -47.5t-11.5 -52.5q-13 -52 -30 -110q-18 -64 -46 -134zM784 1772l289 -273h-266l-59 64q-39 43 -48 59q-9 13 -10 20h-8
q-1 -7 -10 -20q-10 -19 -47 -59l-60 -64h-266l289 273h196z" />
    <glyph glyph-name="Atilde" unicode="&#xc3;" horiz-adv-x="1374" 
d="M975 250h-576l-96 -250h-283l543 1352h252l539 -1352h-283zM489 485h396l-97 252q-31 80 -47 136q-15 53 -28 110q-14 62 -19 98h-8q-3 -14 -10.5 -47.5t-11.5 -52.5q-13 -52 -30 -110q-18 -64 -46 -134zM825 1497q-47 0 -72 12q-26 12 -61 35q-14 9 -33 22t-24 16
q-20 13 -43 13q-62 0 -62 -100h-151q0 39 5 87q4 40 24 80q17 35 53 58q35 23 94 23q44 0 67 -11q26 -12 54 -30q21 -15 57 -41q22 -16 51 -16t40 20q12 21 12 74h159q0 -53 -4 -92q-5 -45 -20 -77q-16 -34 -50 -53q-35 -20 -96 -20z" />
    <glyph glyph-name="Adieresis" unicode="&#xc4;" horiz-adv-x="1374" 
d="M975 250h-576l-96 -250h-283l543 1352h252l539 -1352h-283zM489 485h396l-97 252q-31 80 -47 136q-15 53 -28 110q-14 62 -19 98h-8q-3 -14 -10.5 -47.5t-11.5 -52.5q-13 -52 -30 -110q-18 -64 -46 -134zM375 1495v246h235v-246h-235zM764 1495v246h235v-246h-235z" />
    <glyph glyph-name="Aring" unicode="&#xc5;" horiz-adv-x="1374" 
d="M975 250h-576l-96 -250h-283l543 1352h252l539 -1352h-283zM489 485h396l-97 252q-31 80 -47 136q-15 53 -28 110q-14 62 -19 98h-8q-3 -14 -10.5 -47.5t-11.5 -52.5q-13 -52 -30 -110q-18 -64 -46 -134zM686 1481q-92 0 -140 53q-48 52 -48 131q0 73 51 125
q51 53 137 53t137 -53q51 -52 51 -125q0 -79 -48 -131q-48 -53 -140 -53zM686 1745q-38 0 -59 -24t-21 -58q0 -30 20 -55t60 -25t60 25t20 55q0 34 -21 58t-59 24z" />
    <glyph glyph-name="AE" unicode="&#xc6;" horiz-adv-x="1736" 
d="M815 0v250h-416l-96 -250h-283l543 1352h1071v-236h-542v-319h460v-234h-460v-327h542v-236h-819zM489 485h326v596h-129q-3 -14 -10.5 -47.5t-11.5 -52.5q-13 -52 -30 -110q-18 -64 -46 -134z" />
    <glyph glyph-name="Ccedilla" unicode="&#xc7;" horiz-adv-x="1255" 
d="M940 -242q0 -96 -80 -143t-196 -47q-56 0 -99 9q-42 9 -65 24v131q65 -31 133 -31q48 0 75 12t27 41q0 33 -34 52q-36 20 -111 26l16 150q-132 6 -233 41q-98 34 -163 114t-95 211q-31 135 -31 330q0 207 35 344q35 135 108 213q72 76 187 107q113 30 266 30
q121 0 214 -17q100 -18 172 -63q74 -46 114 -125q41 -80 41 -204h-277q0 60 -22 94q-22 33 -59 52t-83 23q-52 5 -96 5q-88 0 -152 -14q-62 -14 -99 -61t-55 -139q-18 -91 -18 -245t18 -245t55 -140t98 -64q56 -14 147 -14q48 0 89 4q47 5 86 22q41 18 66 52t25 96h277
q0 -114 -38 -192q-36 -74 -103 -122q-66 -47 -151 -68q-84 -20 -186 -25l-4 -60q201 -12 201 -164z" />
    <glyph glyph-name="Egrave" unicode="&#xc8;" horiz-adv-x="1181" 
d="M158 0v1352h921v-236h-645v-319h563v-234h-563v-327h645v-236h-921zM565 1483l-258 293h344l144 -293h-230z" />
    <glyph glyph-name="Eacute" unicode="&#xc9;" horiz-adv-x="1181" 
d="M158 0v1352h921v-236h-645v-319h563v-234h-563v-327h645v-236h-921zM430 1483l143 293h345l-259 -293h-229z" />
    <glyph glyph-name="Ecircumflex" unicode="&#xca;" horiz-adv-x="1181" 
d="M158 0v1352h921v-236h-645v-319h563v-234h-563v-327h645v-236h-921zM688 1772l289 -273h-266l-60 64q-37 40 -47 59q-9 13 -10 20h-8q-1 -6 -11 -20q-10 -19 -47 -59l-59 -64h-266l289 273h196z" />
    <glyph glyph-name="Edieresis" unicode="&#xcb;" horiz-adv-x="1181" 
d="M158 0v1352h921v-236h-645v-319h563v-234h-563v-327h645v-236h-921zM279 1495v246h235v-246h-235zM668 1495v246h235v-246h-235z" />
    <glyph glyph-name="Igrave" unicode="&#xcc;" horiz-adv-x="591" 
d="M158 0v1352h276v-1352h-276zM199 1483l-258 293h344l143 -293h-229z" />
    <glyph glyph-name="Iacute" unicode="&#xcd;" horiz-adv-x="591" 
d="M158 0v1352h276v-1352h-276zM164 1483l143 293h344l-258 -293h-229z" />
    <glyph glyph-name="Icircumflex" unicode="&#xce;" horiz-adv-x="591" 
d="M158 0v1352h276v-1352h-276zM397 1772l289 -273h-266l-60 64q-37 40 -47 59q-9 13 -10 20h-8q-1 -7 -10 -20q-10 -19 -47 -59l-60 -64h-266l289 273h196z" />
    <glyph glyph-name="Idieresis" unicode="&#xcf;" horiz-adv-x="591" 
d="M158 0v1352h276v-1352h-276zM-14 1495v246h235v-246h-235zM375 1495v246h235v-246h-235z" />
    <glyph glyph-name="Eth" unicode="&#xd0;" horiz-adv-x="1368" 
d="M158 0v563h-158v234h158v555h420q185 0 317 -34q134 -35 220 -113q88 -81 128 -209q41 -132 41 -320q0 -189 -41 -321q-40 -128 -128 -209q-84 -77 -220 -112q-132 -34 -317 -34h-420zM578 236q114 0 193 22q80 22 133 74q53 51 78 136q26 87 26 208t-26 208
q-25 85 -78 136q-53 52 -133 74q-79 22 -193 22h-144v-319h211v-234h-211v-327h144z" />
    <glyph glyph-name="Ntilde" unicode="&#xd1;" horiz-adv-x="1431" 
d="M895 584q41 -87 51 -107q9 -18 22.5 -46.5t16.5 -35.5q21 -45 29 -71h8l-12 75q-4 35 -9 75q-4 36 -4 81v797h277v-1352h-338l-399 768q-7 14 -18.5 36.5t-20 39t-14.5 30.5q-21 46 -38 82q-16 36 -28 72h-8q8 -50 12 -76q2 -13 4.5 -39.5t3.5 -34.5q4 -36 4 -81v-797
h-276v1352h338zM854 1497q-48 0 -73 12q-23 11 -60 35q-14 9 -33 22t-24 16q-20 13 -43 13q-62 0 -62 -100h-151q0 39 5 87q4 43 23 80q17 35 53 58q35 23 95 23q43 0 66 -11q29 -14 55 -30q21 -15 57 -41q22 -16 51 -16t40 20q11 19 11 74h160q0 -53 -4 -92q-4 -42 -21 -77
q-16 -34 -50 -53q-35 -20 -95 -20z" />
    <glyph glyph-name="Ograve" unicode="&#xd2;" horiz-adv-x="1417" 
d="M709 -20q-165 0 -282 34q-116 34 -194 116q-73 78 -112 215q-37 132 -37 331t37 331q39 137 112 215q76 81 194 115q120 35 282 35q160 0 280 -35q119 -35 195 -115q73 -78 112 -215q37 -132 37 -331t-37 -331q-39 -137 -112 -215q-77 -82 -195 -116q-117 -34 -280 -34z
M709 215q89 0 155 24t109 76q41 49 63 143q21 88 21 218q0 128 -21 217q-21 90 -63 142q-44 54 -109 78q-66 24 -155 24q-90 0 -156 -24q-65 -24 -109 -78q-42 -52 -63 -142q-21 -89 -21 -217q0 -130 21 -218q22 -94 63 -143q43 -52 109 -76t156 -24zM616 1483l-258 293h344
l144 -293h-230z" />
    <glyph glyph-name="Oacute" unicode="&#xd3;" horiz-adv-x="1417" 
d="M709 -20q-165 0 -282 34q-116 34 -194 116q-73 78 -112 215q-37 132 -37 331t37 331q39 137 112 215q76 81 194 115q120 35 282 35q160 0 280 -35q119 -35 195 -115q73 -78 112 -215q37 -132 37 -331t-37 -331q-39 -137 -112 -215q-77 -82 -195 -116q-117 -34 -280 -34z
M709 215q89 0 155 24t109 76q41 49 63 143q21 88 21 218q0 128 -21 217q-21 90 -63 142q-44 54 -109 78q-66 24 -155 24q-90 0 -156 -24q-65 -24 -109 -78q-42 -52 -63 -142q-21 -89 -21 -217q0 -130 21 -218q22 -94 63 -143q43 -52 109 -76t156 -24zM526 1483l144 293h344
l-258 -293h-230z" />
    <glyph glyph-name="Ocircumflex" unicode="&#xd4;" horiz-adv-x="1417" 
d="M709 -20q-165 0 -282 34q-116 34 -194 116q-73 78 -112 215q-37 132 -37 331t37 331q39 137 112 215q76 81 194 115q120 35 282 35q160 0 280 -35q119 -35 195 -115q73 -78 112 -215q37 -132 37 -331t-37 -331q-39 -137 -112 -215q-77 -82 -195 -116q-117 -34 -280 -34z
M709 215q89 0 155 24t109 76q41 49 63 143q21 88 21 218q0 128 -21 217q-21 90 -63 142q-44 54 -109 78q-66 24 -155 24q-90 0 -156 -24q-65 -24 -109 -78q-42 -52 -63 -142q-21 -89 -21 -217q0 -130 21 -218q22 -94 63 -143q43 -52 109 -76t156 -24zM807 1772l289 -273
h-267l-59 64q-37 40 -47 59q-9 13 -10 20h-8q-1 -6 -11 -20q-10 -19 -47 -59l-59 -64h-266l288 273h197z" />
    <glyph glyph-name="Otilde" unicode="&#xd5;" horiz-adv-x="1417" 
d="M709 -20q-165 0 -282 34q-116 34 -194 116q-73 78 -112 215q-37 132 -37 331t37 331q39 137 112 215q76 81 194 115q120 35 282 35q160 0 280 -35q119 -35 195 -115q73 -78 112 -215q37 -132 37 -331t-37 -331q-39 -137 -112 -215q-77 -82 -195 -116q-117 -34 -280 -34z
M709 215q89 0 155 24t109 76q41 49 63 143q21 88 21 218q0 128 -21 217q-21 90 -63 142q-44 54 -109 78q-66 24 -155 24q-90 0 -156 -24q-65 -24 -109 -78q-42 -52 -63 -142q-21 -89 -21 -217q0 -130 21 -218q22 -94 63 -143q43 -52 109 -76t156 -24zM846 1497q-48 0 -73 12
q-23 11 -60 35q-14 9 -33.5 22t-24.5 16q-20 13 -43 13q-61 0 -61 -100h-152q0 39 5 87q4 40 24 80q17 35 53 58q35 23 94 23q44 0 67 -11q26 -12 54 -30q41 -28 58 -41q22 -16 51 -16t40 20q11 19 11 74h160q0 -53 -4 -92q-4 -42 -21 -77q-16 -34 -50 -53q-35 -20 -95 -20z
" />
    <glyph glyph-name="Odieresis" unicode="&#xd6;" horiz-adv-x="1417" 
d="M709 -20q-165 0 -282 34q-116 34 -194 116q-73 78 -112 215q-37 132 -37 331t37 331q39 137 112 215q76 81 194 115q120 35 282 35q160 0 280 -35q119 -35 195 -115q73 -78 112 -215q37 -132 37 -331t-37 -331q-39 -137 -112 -215q-77 -82 -195 -116q-117 -34 -280 -34z
M709 215q89 0 155 24t109 76q41 49 63 143q21 88 21 218q0 128 -21 217q-21 90 -63 142q-44 54 -109 78q-66 24 -155 24q-90 0 -156 -24q-65 -24 -109 -78q-42 -52 -63 -142q-21 -89 -21 -217q0 -130 21 -218q22 -94 63 -143q43 -52 109 -76t156 -24zM395 1495v246h236v-246
h-236zM784 1495v246h236v-246h-236z" />
    <glyph glyph-name="multiply" unicode="&#xd7;" horiz-adv-x="1198" 
d="M885 248l-287 287l-287 -287l-143 145l285 285l-285 287l143 145l287 -287l287 287l145 -143l-287 -289l287 -287z" />
    <glyph glyph-name="Oslash" unicode="&#xd8;" horiz-adv-x="1417" 
d="M78 59l108 131q-102 159 -102 486q0 199 37 331q39 137 112 215q76 81 194 115q120 35 282 35q131 0 225 -20q97 -21 172 -68l90 109l145 -121l-104 -123q96 -159 96 -473q0 -199 -37 -331q-39 -137 -112 -215q-77 -82 -195 -116q-117 -34 -280 -34q-125 0 -219 18
q-95 18 -166 61l-101 -120zM360 676q0 -154 27 -246l543 647q-78 60 -221 60q-90 0 -156 -24q-65 -24 -109 -78q-42 -52 -63 -142q-21 -89 -21 -217zM709 215q89 0 155 24t109 76q41 49 63 143q21 88 21 218q0 134 -25 229l-534 -639q39 -28 93 -40q48 -11 118 -11z" />
    <glyph glyph-name="Ugrave" unicode="&#xd9;" horiz-adv-x="1376" 
d="M975 1352h276v-676q0 -202 -32 -331q-33 -133 -103 -215q-69 -81 -175 -116q-103 -34 -253 -34t-253 34q-106 35 -175 116t-102 215q-33 133 -33 331v676h276v-676q0 -127 17 -218q17 -92 52 -143q36 -52 90 -76t128 -24t128 24t90 76q35 51 52 143q17 91 17 218v676z
M606 1483l-258 293h344l144 -293h-230z" />
    <glyph glyph-name="Uacute" unicode="&#xda;" horiz-adv-x="1376" 
d="M975 1352h276v-676q0 -202 -32 -331q-33 -133 -103 -215q-69 -81 -175 -116q-103 -34 -253 -34t-253 34q-106 35 -175 116t-102 215q-33 133 -33 331v676h276v-676q0 -127 17 -218q17 -92 52 -143q36 -52 90 -76t128 -24t128 24t90 76q35 51 52 143q17 91 17 218v676z
M512 1483l143 293h344l-258 -293h-229z" />
    <glyph glyph-name="Ucircumflex" unicode="&#xdb;" horiz-adv-x="1376" 
d="M975 1352h276v-676q0 -202 -32 -331q-33 -133 -103 -215q-69 -81 -175 -116q-103 -34 -253 -34t-253 34q-106 35 -175 116t-102 215q-33 133 -33 331v676h276v-676q0 -127 17 -218q17 -92 52 -143q36 -52 90 -76t128 -24t128 24t90 76q35 51 52 143q17 91 17 218v676z
M786 1772l289 -273h-266l-59 64q-39 43 -48 59q-9 13 -10 20h-8q-1 -7 -10 -20q-10 -19 -47 -59l-60 -64h-266l289 273h196z" />
    <glyph glyph-name="Udieresis" unicode="&#xdc;" horiz-adv-x="1376" 
d="M975 1352h276v-676q0 -202 -32 -331q-33 -133 -103 -215q-69 -81 -175 -116q-103 -34 -253 -34t-253 34q-106 35 -175 116t-102 215q-33 133 -33 331v676h276v-676q0 -127 17 -218q17 -92 52 -143q36 -52 90 -76t128 -24t128 24t90 76q35 51 52 143q17 91 17 218v676z
M375 1495v246h235v-246h-235zM764 1495v246h235v-246h-235z" />
    <glyph glyph-name="Yacute" unicode="&#xdd;" horiz-adv-x="1222" 
d="M516 977q30 -60 48 -108q15 -39 28 -83q9 -32 14 -71h8q4 31 15 71q19 61 26 82q16 45 47 107l197 377h303l-454 -875v-477h-277v477l-451 875h306zM430 1483l143 293h345l-259 -293h-229z" />
    <glyph glyph-name="Thorn" unicode="&#xde;" horiz-adv-x="1263" 
d="M434 1352v-195h289q126 0 214 -23q91 -24 149 -76q60 -54 88 -139t28 -212q0 -134 -28 -222t-88 -145t-149 -80q-91 -24 -214 -24h-289v-236h-276v1352h276zM711 471q117 0 166 51q49 50 49 185q0 121 -49 167q-51 48 -166 48h-277v-451h277z" />
    <glyph glyph-name="germandbls" unicode="&#xdf;" horiz-adv-x="1253" 
d="M850 748q-45 0 -62 -17q-16 -16 -16 -59q0 -54 21 -67q21 -14 59 -21q85 -18 146 -37q69 -22 115 -55q48 -35 76 -90q28 -56 28 -138q0 -66 -19 -121q-18 -54 -61 -89t-114 -55q-69 -19 -173 -19q-196 0 -279 76q-84 76 -84 247h269q0 -70 25 -89t73 -19q53 0 70 16
q18 17 18 57q0 56 -24 69q-23 13 -66 21q-70 15 -136 33q-64 18 -113 53q-48 35 -77 92q-28 56 -28 144q0 107 52 163t136 56q57 0 95 23t38 82q0 78 -39 105q-40 28 -141 28q-123 0 -165 -39t-42 -135v-963h-276v727h-133v215h133v21q0 221 116 315t355 94q136 0 226 -26
q91 -27 149 -75q57 -48 78 -115q22 -68 16 -148q-6 -76 -36 -126q-31 -51 -67 -80q-38 -30 -77 -42q-40 -12 -66 -12z" />
    <glyph glyph-name="agrave" unicode="&#xe0;" horiz-adv-x="1046" 
d="M1012 -10q-87 0 -143 10q-59 11 -95 28t-56 42q-21 26 -28 53q-34 -87 -97 -115t-171 -28q-72 0 -133 11q-67 12 -117 43q-52 32 -83 88q-32 58 -32 146q0 102 39 158q40 56 99 83q62 28 131 35q41 4 137 13l196 18v76q0 55 -29 75q-31 22 -112 22q-87 0 -114 -25
q-25 -24 -25 -84h-275q0 174 99 249t315 75q114 0 197 -22q80 -21 129 -61t70 -98q22 -60 22 -131v-368q0 -37 21 -58q20 -20 55 -20v-215zM446 205q100 0 149 38q48 37 60 140l-192 -18q-76 -7 -104 -24q-25 -15 -25 -62q0 -42 22 -58t90 -16zM453 1073l-238 293h303
l144 -293h-209z" />
    <glyph glyph-name="aacute" unicode="&#xe1;" horiz-adv-x="1046" 
d="M1012 -10q-87 0 -143 10q-59 11 -95 28t-56 42q-21 26 -28 53q-34 -87 -97 -115t-171 -28q-72 0 -133 11q-67 12 -117 43q-52 32 -83 88q-32 58 -32 146q0 102 39 158q40 56 99 83q62 28 131 35q41 4 137 13l196 18v76q0 55 -29 75q-31 22 -112 22q-87 0 -114 -25
q-25 -24 -25 -84h-275q0 174 99 249t315 75q114 0 197 -22q80 -21 129 -61t70 -98q22 -60 22 -131v-368q0 -37 21 -58q20 -20 55 -20v-215zM446 205q100 0 149 38q48 37 60 140l-192 -18q-76 -7 -104 -24q-25 -15 -25 -62q0 -42 22 -58t90 -16zM391 1073l144 293h303
l-238 -293h-209z" />
    <glyph glyph-name="acircumflex" unicode="&#xe2;" horiz-adv-x="1046" 
d="M1012 -10q-87 0 -143 10q-59 11 -95 28t-56 42q-21 26 -28 53q-34 -87 -97 -115t-171 -28q-72 0 -133 11q-67 12 -117 43q-52 32 -83 88q-32 58 -32 146q0 102 39 158q40 56 99 83q62 28 131 35q41 4 137 13l196 18v76q0 55 -29 75q-31 22 -112 22q-87 0 -114 -25
q-25 -24 -25 -84h-275q0 174 99 249t315 75q114 0 197 -22q80 -21 129 -61t70 -98q22 -60 22 -131v-368q0 -37 21 -58q20 -20 55 -20v-215zM446 205q100 0 149 38q48 37 60 140l-192 -18q-76 -7 -104 -24q-25 -15 -25 -62q0 -42 22 -58t90 -16zM621 1362l288 -272h-266
l-59 63q-37 40 -47 59q-10 14 -11 21h-8q-1 -9 -10 -21q-10 -19 -47 -59l-60 -63h-266l289 272h197z" />
    <glyph glyph-name="atilde" unicode="&#xe3;" horiz-adv-x="1046" 
d="M1012 -10q-87 0 -143 10q-59 11 -95 28t-56 42q-21 26 -28 53q-34 -87 -97 -115t-171 -28q-72 0 -133 11q-67 12 -117 43q-52 32 -83 88q-32 58 -32 146q0 102 39 158q40 56 99 83q62 28 131 35q41 4 137 13l196 18v76q0 55 -29 75q-31 22 -112 22q-87 0 -114 -25
q-25 -24 -25 -84h-275q0 174 99 249t315 75q114 0 197 -22q80 -21 129 -61t70 -98q22 -60 22 -131v-368q0 -37 21 -58q20 -20 55 -20v-215zM446 205q100 0 149 38q48 37 60 140l-192 -18q-76 -7 -104 -24q-25 -15 -25 -62q0 -42 22 -58t90 -16zM662 1087q-45 0 -73 13
q-26 12 -61 35q-14 9 -33 21.5t-24 15.5q-22 14 -43 14q-61 0 -61 -101h-152q0 39 5 87q4 40 24 80q18 36 53 59q34 22 94 22q44 0 67 -11q26 -12 54 -30q21 -15 57 -41q22 -16 52 -16q28 0 39 20q12 21 12 74h159q0 -53 -4 -92q-5 -45 -20 -77q-16 -34 -50 -53
q-35 -20 -95 -20z" />
    <glyph glyph-name="adieresis" unicode="&#xe4;" horiz-adv-x="1046" 
d="M1012 -10q-87 0 -143 10q-59 11 -95 28t-56 42q-21 26 -28 53q-34 -87 -97 -115t-171 -28q-72 0 -133 11q-67 12 -117 43q-52 32 -83 88q-32 58 -32 146q0 102 39 158q40 56 99 83q62 28 131 35q41 4 137 13l196 18v76q0 55 -29 75q-31 22 -112 22q-87 0 -114 -25
q-25 -24 -25 -84h-275q0 174 99 249t315 75q114 0 197 -22q80 -21 129 -61t70 -98q22 -60 22 -131v-368q0 -37 21 -58q20 -20 55 -20v-215zM446 205q100 0 149 38q48 37 60 140l-192 -18q-76 -7 -104 -24q-25 -15 -25 -62q0 -42 22 -58t90 -16zM211 1085v246h235v-246h-235z
M600 1085v246h236v-246h-236z" />
    <glyph glyph-name="aring" unicode="&#xe5;" horiz-adv-x="1046" 
d="M1012 -10q-87 0 -143 10q-59 11 -95 28t-56 42q-21 26 -28 53q-34 -87 -97 -115t-171 -28q-72 0 -133 11q-67 12 -117 43q-52 32 -83 88q-32 58 -32 146q0 102 39 158q40 56 99 83q62 28 131 35q41 4 137 13l196 18v76q0 55 -29 75q-31 22 -112 22q-87 0 -114 -25
q-25 -24 -25 -84h-275q0 174 99 249t315 75q114 0 197 -22q80 -21 129 -61t70 -98q22 -60 22 -131v-368q0 -37 21 -58q20 -20 55 -20v-215zM446 205q100 0 149 38q48 37 60 140l-192 -18q-76 -7 -104 -24q-25 -15 -25 -62q0 -42 22 -58t90 -16zM522 1071q-92 0 -140 53
q-48 52 -48 131q0 73 51 125q52 54 137 54t137 -54t52 -125q0 -79 -48 -131q-48 -53 -141 -53zM522 1335q-39 0 -59 -23q-21 -24 -21 -59q0 -30 20 -55q20 -24 60 -24q42 0 61 24q19 23 19 55q0 36 -20 59t-60 23z" />
    <glyph glyph-name="ae" unicode="&#xe6;" horiz-adv-x="1529" 
d="M895 389q6 -101 39 -147q33 -47 129 -47q55 0 81 20q27 21 27 88h275q0 -89 -30 -151t-80 -101q-48 -38 -119 -55q-67 -16 -150 -16q-114 0 -186 34q-74 35 -113 127q-40 -95 -121 -129q-77 -32 -211 -32q-81 0 -144 11q-68 12 -121 42t-83 87q-31 59 -31 146
q0 69 20 118q20 50 51 79q31 30 74 48q42 18 87 27t90 12q55 4 84 7l155 16v78q0 54 -25 75q-27 22 -95 22q-76 0 -98 -25q-21 -24 -21 -84h-275q0 165 91 245q89 79 282 79q127 0 200 -35q72 -34 105 -107q45 81 117 111q76 31 182 31q188 0 284 -91q95 -90 95 -311
q0 -34 -4 -77q-5 -50 -22 -95h-539zM1057 748q-86 0 -119 -35q-34 -35 -41 -129h287v22q0 37 -3 64q-3 24 -16 44q-11 17 -38 25q-31 9 -70 9zM440 205q86 0 125 36t49 140l-151 -16q-76 -7 -104 -24q-25 -15 -25 -60q0 -41 21 -59q20 -17 85 -17z" />
    <glyph glyph-name="ccedilla" unicode="&#xe7;" horiz-adv-x="972" 
d="M758 -242q0 -96 -80 -143t-197 -47q-55 0 -98 9t-66 24v131q65 -31 134 -31q47 0 74 12q28 12 28 41q0 33 -34 52q-36 20 -111 26l16 152q-97 7 -166 38t-110 88t-61 147q-19 86 -19 214q0 138 23 229q24 94 75 153q51 58 134 84q84 26 202 26q100 0 180 -18
q81 -18 136 -56t86 -101q30 -61 30 -149h-275q0 61 -32 84q-34 25 -109 25q-56 0 -91 -15q-34 -15 -52 -46q-19 -33 -25 -85t-6 -131t6 -131t25 -85q17 -31 53 -46q32 -14 92 -14q73 0 106 23t33 85h275q0 -80 -26 -140q-26 -59 -74 -97q-50 -39 -118 -60q-63 -19 -155 -24
l-4 -60q201 -12 201 -164z" />
    <glyph glyph-name="egrave" unicode="&#xe8;" horiz-adv-x="1019" 
d="M346 389q1 -50 12 -88q10 -34 32 -60q20 -23 57 -35q33 -11 92 -11q61 0 91 20q32 21 32 88h274q0 -89 -30 -151t-84 -101q-53 -38 -132 -55q-76 -16 -172 -16q-118 0 -202 25q-83 25 -140 83q-54 56 -82 151q-26 90 -26 228q0 143 28 236q29 96 86 153q58 58 145 82
q91 25 203 25q108 0 187 -21q83 -22 131 -66q52 -47 77 -124q25 -76 25 -191q0 -34 -4 -77q-5 -50 -22 -95h-578zM528 748q-98 0 -135 -37q-38 -38 -45 -127h326v24q0 38 -4 62q-4 26 -19 44t-43 25q-34 9 -80 9zM504 1073l-238 293h303l144 -293h-209z" />
    <glyph glyph-name="eacute" unicode="&#xe9;" horiz-adv-x="1019" 
d="M346 389q1 -50 12 -88q10 -34 32 -60q20 -23 57 -35q33 -11 92 -11q61 0 91 20q32 21 32 88h274q0 -89 -30 -151t-84 -101q-53 -38 -132 -55q-76 -16 -172 -16q-118 0 -202 25q-83 25 -140 83q-54 56 -82 151q-26 90 -26 228q0 143 28 236q29 96 86 153q58 58 145 82
q91 25 203 25q108 0 187 -21q83 -22 131 -66q52 -47 77 -124q25 -76 25 -191q0 -34 -4 -77q-5 -50 -22 -95h-578zM528 748q-98 0 -135 -37q-38 -38 -45 -127h326v24q0 38 -4 62q-4 26 -19 44t-43 25q-34 9 -80 9zM389 1073l143 293h304l-238 -293h-209z" />
    <glyph glyph-name="ecircumflex" unicode="&#xea;" horiz-adv-x="1019" 
d="M346 389q1 -50 12 -88q10 -34 32 -60q20 -23 57 -35q33 -11 92 -11q61 0 91 20q32 21 32 88h274q0 -89 -30 -151t-84 -101q-53 -38 -132 -55q-76 -16 -172 -16q-118 0 -202 25q-83 25 -140 83q-54 56 -82 151q-26 90 -26 228q0 143 28 236q29 96 86 153q58 58 145 82
q91 25 203 25q108 0 187 -21q83 -22 131 -66q52 -47 77 -124q25 -76 25 -191q0 -34 -4 -77q-5 -50 -22 -95h-578zM528 748q-98 0 -135 -37q-38 -38 -45 -127h326v24q0 38 -4 62q-4 26 -19 44t-43 25q-34 9 -80 9zM608 1362l289 -272h-266l-60 63q-37 40 -47 59q-9 12 -10 21
h-8q-1 -9 -10 -21q-10 -19 -47 -59l-60 -63h-266l289 272h196z" />
    <glyph glyph-name="edieresis" unicode="&#xeb;" horiz-adv-x="1019" 
d="M346 389q1 -50 12 -88q10 -34 32 -60q20 -23 57 -35q33 -11 92 -11q61 0 91 20q32 21 32 88h274q0 -89 -30 -151t-84 -101q-53 -38 -132 -55q-76 -16 -172 -16q-118 0 -202 25q-83 25 -140 83q-54 56 -82 151q-26 90 -26 228q0 143 28 236q29 96 86 153q58 58 145 82
q91 25 203 25q108 0 187 -21q83 -22 131 -66q52 -47 77 -124q25 -76 25 -191q0 -34 -4 -77q-5 -50 -22 -95h-578zM528 748q-98 0 -135 -37q-38 -38 -45 -127h326v24q0 38 -4 62q-4 26 -19 44t-43 25q-34 9 -80 9zM197 1085v246h235v-246h-235zM586 1085v246h235v-246h-235z
" />
    <glyph glyph-name="igrave" unicode="&#xec;" horiz-adv-x="473" 
d="M100 0v942h277v-942h-277zM150 1073l-259 293h345l143 -293h-229z" />
    <glyph glyph-name="iacute" unicode="&#xed;" horiz-adv-x="473" 
d="M100 0v942h277v-942h-277zM96 1073l144 293h344l-258 -293h-230z" />
    <glyph glyph-name="icircumflex" unicode="&#xee;" horiz-adv-x="473" 
d="M100 0v942h277v-942h-277zM338 1362l289 -272h-267l-59 63q-37 40 -47 59q-9 12 -10 21h-8q-1 -7 -11 -21q-10 -19 -47 -59l-59 -63h-266l288 272h197z" />
    <glyph glyph-name="idieresis" unicode="&#xef;" horiz-adv-x="473" 
d="M100 0v942h277v-942h-277zM-74 1085v246h236v-246h-236zM315 1085v246h236v-246h-236z" />
    <glyph glyph-name="eth" unicode="&#xf0;" horiz-adv-x="1110" 
d="M553 1327h2q125 -43 213 -93q87 -49 143 -141t80 -239q25 -153 25 -383q0 -137 -29 -233q-29 -95 -87 -152q-60 -59 -148 -82q-90 -24 -213 -24t-211 24q-87 24 -145 83q-56 57 -83 153q-26 91 -26 235q0 149 26 240q26 92 77 149q50 56 120 77q72 22 156 22
q52 0 101 -11q47 -11 81 -37q36 -29 59 -75q24 -50 39 -125q-6 107 -20 167q-16 68 -37 107q-23 42 -54 64t-71 39l-82 30l-45 -112l-174 67l45 113l-107 41l82 192l107 -37l41 101l172 -74zM535 215q53 0 86 13q36 14 56 43q22 31 32 79q10 47 10 121q0 142 -41 200
q-40 56 -143 56q-104 0 -144 -56q-41 -58 -41 -200q0 -74 10 -121q10 -48 32 -79q20 -29 57 -43q33 -13 86 -13z" />
    <glyph glyph-name="ntilde" unicode="&#xf1;" horiz-adv-x="1148" 
d="M129 0v942h215l49 -133q33 90 100 122t175 32q105 0 174 -24q68 -24 111 -74q42 -49 60 -128q17 -74 17 -184v-553h-276v553q0 59 -8 99q-8 41 -23 60q-16 20 -42 28q-27 8 -65 8q-110 0 -158 -56q-47 -55 -52 -192v-500h-277zM713 1087q-45 0 -73 13q-23 11 -60 35
q-12 8 -31.5 20t-26.5 17q-22 14 -43 14q-61 0 -61 -101h-152q0 39 5 87q4 40 24 80q18 36 53 59q34 22 94 22q44 0 67 -11q25 -12 54 -30q41 -28 58 -41q22 -16 51 -16t40 20q11 19 11 74h160q0 -53 -4 -92q-4 -42 -21 -77q-16 -34 -50 -53q-35 -20 -95 -20z" />
    <glyph glyph-name="ograve" unicode="&#xf2;" horiz-adv-x="1056" 
d="M528 -20q-120 0 -206 24t-144 82q-57 57 -84 152q-26 91 -26 233q0 143 26 234q27 94 84 151q58 58 144 82q89 25 206 25q115 0 206 -25q87 -24 145 -82q57 -57 84 -151q26 -91 26 -234q0 -142 -26 -233q-27 -95 -84 -152q-58 -58 -145 -82t-206 -24zM528 195
q104 0 144 60q41 61 41 216t-41 216t-144 61q-102 0 -143 -61t-41 -216t41 -216q41 -60 143 -60zM504 1073l-238 293h303l144 -293h-209z" />
    <glyph glyph-name="oacute" unicode="&#xf3;" horiz-adv-x="1056" 
d="M528 -20q-120 0 -206 24t-144 82q-57 57 -84 152q-26 91 -26 233q0 143 26 234q27 94 84 151q58 58 144 82q89 25 206 25q115 0 206 -25q87 -24 145 -82q57 -57 84 -151q26 -91 26 -234q0 -142 -26 -233q-27 -95 -84 -152q-58 -58 -145 -82t-206 -24zM528 195
q104 0 144 60q41 61 41 216t-41 216t-144 61q-102 0 -143 -61t-41 -216t41 -216q41 -60 143 -60zM389 1073l143 293h304l-238 -293h-209z" />
    <glyph glyph-name="ocircumflex" unicode="&#xf4;" horiz-adv-x="1056" 
d="M528 -20q-120 0 -206 24t-144 82q-57 57 -84 152q-26 91 -26 233q0 143 26 234q27 94 84 151q58 58 144 82q89 25 206 25q115 0 206 -25q87 -24 145 -82q57 -57 84 -151q26 -91 26 -234q0 -142 -26 -233q-27 -95 -84 -152q-58 -58 -145 -82t-206 -24zM528 195
q104 0 144 60q41 61 41 216t-41 216t-144 61q-102 0 -143 -61t-41 -216t41 -216q41 -60 143 -60zM627 1362l288 -272h-266l-59 63q-37 40 -47 59q-10 14 -11 21h-8q-1 -9 -10 -21q-10 -19 -47 -59l-59 -63h-267l289 272h197z" />
    <glyph glyph-name="otilde" unicode="&#xf5;" horiz-adv-x="1056" 
d="M528 -20q-120 0 -206 24t-144 82q-57 57 -84 152q-26 91 -26 233q0 143 26 234q27 94 84 151q58 58 144 82q89 25 206 25q115 0 206 -25q87 -24 145 -82q57 -57 84 -151q26 -91 26 -234q0 -142 -26 -233q-27 -95 -84 -152q-58 -58 -145 -82t-206 -24zM528 195
q104 0 144 60q41 61 41 216t-41 216t-144 61q-102 0 -143 -61t-41 -216t41 -216q41 -60 143 -60zM666 1087q-45 0 -73 13q-26 12 -61 35q-14 9 -33 21.5t-24 15.5q-22 14 -43 14q-61 0 -61 -101h-152q0 39 5 87q4 40 24 80q18 36 53 59q34 22 94 22q44 0 67 -11
q26 -12 54 -30q21 -15 57 -41q22 -16 52 -16q29 0 40 20q11 19 11 74h160q0 -44 -5 -92q-5 -45 -20 -77q-16 -34 -50 -53q-35 -20 -95 -20z" />
    <glyph glyph-name="odieresis" unicode="&#xf6;" horiz-adv-x="1056" 
d="M528 -20q-120 0 -206 24t-144 82q-57 57 -84 152q-26 91 -26 233q0 143 26 234q27 94 84 151q58 58 144 82q89 25 206 25q115 0 206 -25q87 -24 145 -82q57 -57 84 -151q26 -91 26 -234q0 -142 -26 -233q-27 -95 -84 -152q-58 -58 -145 -82t-206 -24zM528 195
q104 0 144 60q41 61 41 216t-41 216t-144 61q-102 0 -143 -61t-41 -216t41 -216q41 -60 143 -60zM215 1085v246h236v-246h-236zM604 1085v246h236v-246h-236z" />
    <glyph glyph-name="divide" unicode="&#xf7;" horiz-adv-x="1198" 
d="M748 176h-297v287h297v-287zM748 893h-297v287h297v-287zM92 578v204h1014v-204h-1014z" />
    <glyph glyph-name="oslash" unicode="&#xf8;" horiz-adv-x="1056" 
d="M29 12l106 127q-35 60 -51 141q-16 79 -16 191q0 143 26 234q27 94 84 151q58 58 144 82q89 25 206 25q77 0 145 -11q65 -11 115 -34l97 114l145 -123l-102 -121q61 -113 61 -317q0 -142 -26 -233q-27 -95 -84 -152q-58 -58 -145 -82t-206 -24q-152 0 -247 36l-107 -127z
M344 471v-43q0 -15 2 -37l283 336q-39 21 -101 21q-102 0 -143 -61t-41 -216zM528 195q104 0 144 60q41 61 41 216v30q0 7 -2 27l-269 -319q28 -14 86 -14z" />
    <glyph glyph-name="ugrave" unicode="&#xf9;" horiz-adv-x="1140" 
d="M387 942v-471q0 -90 7 -140q8 -55 24 -85q17 -31 45 -41q27 -10 69 -10q104 0 151 56q48 56 52 191v500h277v-942h-215l-52 133q-35 -91 -99 -122q-63 -31 -171 -31q-106 0 -175 28q-72 29 -113 88q-41 58 -59 153q-17 88 -17 222v471h276zM467 1073l-258 293h344
l143 -293h-229z" />
    <glyph glyph-name="uacute" unicode="&#xfa;" horiz-adv-x="1140" 
d="M387 942v-471q0 -90 7 -140q8 -55 24 -85q17 -31 45 -41q27 -10 69 -10q104 0 151 56q48 56 52 191v500h277v-942h-215l-52 133q-35 -91 -99 -122q-63 -31 -171 -31q-106 0 -175 28q-72 29 -113 88q-41 58 -59 153q-17 88 -17 222v471h276zM430 1073l143 293h345
l-259 -293h-229z" />
    <glyph glyph-name="ucircumflex" unicode="&#xfb;" horiz-adv-x="1140" 
d="M387 942v-471q0 -90 7 -140q8 -55 24 -85q17 -31 45 -41q27 -10 69 -10q104 0 151 56q48 56 52 191v500h277v-942h-215l-52 133q-35 -91 -99 -122q-63 -31 -171 -31q-106 0 -175 28q-72 29 -113 88q-41 58 -59 153q-17 88 -17 222v471h276zM668 1362l288 -272h-266
l-59 63q-37 40 -47 59q-10 14 -11 21h-8q-1 -9 -10 -21q-10 -19 -47 -59l-59 -63h-267l289 272h197z" />
    <glyph glyph-name="udieresis" unicode="&#xfc;" horiz-adv-x="1140" 
d="M387 942v-471q0 -90 7 -140q8 -55 24 -85q17 -31 45 -41q27 -10 69 -10q104 0 151 56q48 56 52 191v500h277v-942h-215l-52 133q-35 -91 -99 -122q-63 -31 -171 -31q-106 0 -175 28q-72 29 -113 88q-41 58 -59 153q-17 88 -17 222v471h276zM258 1085v246h236v-246h-236z
M647 1085v246h236v-246h-236z" />
    <glyph glyph-name="yacute" unicode="&#xfd;" horiz-adv-x="1001" 
d="M426 512q21 -73 33 -127l20 -96q12 -75 13 -82h8q4 37 12 84q6 30 20 95q12 52 35 124l142 432h288l-385 -1030q-78 -209 -199 -306q-122 -98 -261 -98v236q31 0 62 19q30 19 60 50q31 33 53 67t35 75l-358 987h289zM307 1073l144 293h344l-258 -293h-230z" />
    <glyph glyph-name="thorn" unicode="&#xfe;" horiz-adv-x="1138" 
d="M406 1004q0 -33 -6 -95q-2 -15 -4.5 -46.5t-4.5 -47.5h6q34 84 96 116q61 32 158 32q107 0 186 -27t131 -85q52 -59 78 -153q25 -93 25 -227t-25 -227q-26 -94 -78 -153q-52 -58 -131 -85q-77 -26 -186 -26q-98 0 -158 30q-61 31 -96 117h-6q1 -15 4 -47t5 -47
q6 -62 6 -94v-431h-277v1895l277 31v-430zM795 471q0 82 -11 137q-11 56 -32 84q-23 31 -60 43q-41 13 -88 13q-104 0 -151 -64t-47 -213v-29q4 -134 51 -191q46 -56 147 -56q50 0 88 12q37 12 60 43q21 28 32 84q11 55 11 137z" />
    <glyph glyph-name="ydieresis" unicode="&#xff;" horiz-adv-x="1001" 
d="M426 512q21 -73 33 -127l20 -96q12 -75 13 -82h8q4 37 12 84q6 30 20 95q12 52 35 124l142 432h288l-385 -1030q-78 -209 -199 -306q-122 -98 -261 -98v236q31 0 62 19q30 19 60 50q31 33 53 67t35 75l-358 987h289zM188 1085v246h236v-246h-236zM578 1085v246h235v-246
h-235z" />
    <glyph glyph-name="Amacron" unicode="&#x100;" horiz-adv-x="1374" 
d="M975 250h-576l-96 -250h-283l543 1352h252l539 -1352h-283zM489 485h396l-97 252q-31 80 -47 136q-15 53 -28 110q-14 62 -19 98h-8q-3 -14 -10.5 -47.5t-11.5 -52.5q-13 -52 -30 -110q-18 -64 -46 -134zM324 1534v143h727v-143h-727z" />
    <glyph glyph-name="amacron" unicode="&#x101;" horiz-adv-x="1046" 
d="M1012 -10q-87 0 -143 10q-59 11 -95 28t-56 42q-21 26 -28 53q-34 -87 -97 -115t-171 -28q-72 0 -133 11q-67 12 -117 43q-52 32 -83 88q-32 58 -32 146q0 102 39 158q40 56 99 83q62 28 131 35q41 4 137 13l196 18v76q0 55 -29 75q-31 22 -112 22q-87 0 -114 -25
q-25 -24 -25 -84h-275q0 174 99 249t315 75q114 0 197 -22q80 -21 129 -61t70 -98q22 -60 22 -131v-368q0 -37 21 -58q20 -20 55 -20v-215zM446 205q100 0 149 38q48 37 60 140l-192 -18q-76 -7 -104 -24q-25 -15 -25 -62q0 -42 22 -58t90 -16zM160 1124v144h727v-144h-727z
" />
    <glyph glyph-name="Abreve" unicode="&#x102;" horiz-adv-x="1374" 
d="M975 250h-576l-96 -250h-283l543 1352h252l539 -1352h-283zM489 485h396l-97 252q-31 80 -47 136q-15 53 -28 110q-14 62 -19 98h-8q-3 -14 -10.5 -47.5t-11.5 -52.5q-13 -52 -30 -110q-18 -64 -46 -134zM686 1659q133 0 133 98h187q0 -136 -80 -199t-240 -63t-240 63
q-79 63 -79 199h186q0 -98 133 -98z" />
    <glyph glyph-name="abreve" unicode="&#x103;" horiz-adv-x="1046" 
d="M1012 -10q-87 0 -143 10q-59 11 -95 28t-56 42q-21 26 -28 53q-34 -87 -97 -115t-171 -28q-72 0 -133 11q-67 12 -117 43q-52 32 -83 88q-32 58 -32 146q0 102 39 158q40 56 99 83q62 28 131 35q41 4 137 13l196 18v76q0 55 -29 75q-31 22 -112 22q-87 0 -114 -25
q-25 -24 -25 -84h-275q0 174 99 249t315 75q114 0 197 -22q80 -21 129 -61t70 -98q22 -60 22 -131v-368q0 -37 21 -58q20 -20 55 -20v-215zM446 205q100 0 149 38q48 37 60 140l-192 -18q-76 -7 -104 -24q-25 -15 -25 -62q0 -42 22 -58t90 -16zM522 1249q133 0 133 99h187
q0 -137 -80 -200t-240 -63t-239 63q-80 63 -80 200h186q0 -99 133 -99z" />
    <glyph glyph-name="Aogonek" unicode="&#x104;" horiz-adv-x="1374" 
d="M1006 -186q0 66 22 110q23 47 57 76h-14l-96 250h-576l-96 -250h-283l543 1352h252l539 -1352q-61 0 -105 -34q-45 -34 -45 -105q0 -43 21 -67q20 -23 67 -23q22 0 65 6q46 6 91 28v-141q-41 -29 -102 -41q-62 -12 -113 -12q-95 0 -162 47q-65 46 -65 156zM489 485h396
l-97 252q-31 80 -47 136q-15 53 -28 110q-14 62 -19 98h-8q-3 -14 -10.5 -47.5t-11.5 -52.5q-13 -52 -30 -110q-18 -64 -46 -134z" />
    <glyph glyph-name="aogonek" unicode="&#x105;" horiz-adv-x="1046" 
d="M664 -186q0 82 32 131q34 52 80 82q-36 16 -56 42q-20 25 -30 54q-34 -87 -97 -115t-171 -28q-72 0 -133 11q-67 12 -117 43q-52 32 -83 88q-32 58 -32 146q0 102 39 158q40 56 99 83q62 28 131 35q41 4 137 13l196 18v76q0 55 -29 75q-31 22 -112 22q-87 0 -114 -25
q-25 -24 -25 -84h-275q0 174 99 249t315 75q114 0 197 -22q80 -21 129 -61t70 -98q22 -60 22 -131v-368q0 -37 21 -58q20 -20 55 -20v-215h-32q-10 0 -30 2q-40 -15 -63 -46q-25 -33 -25 -85q0 -43 21 -67q20 -23 67 -23q22 0 65 6q46 6 91 28v-141q-41 -29 -102 -41
q-62 -12 -113 -12q-95 0 -162 47q-65 46 -65 156zM446 205q100 0 149 38q48 37 60 140l-192 -18q-76 -7 -104 -24q-25 -15 -25 -62q0 -42 22 -58t90 -16z" />
    <glyph glyph-name="Cacute" unicode="&#x106;" horiz-adv-x="1255" 
d="M1221 389q0 -127 -45 -206q-44 -78 -120 -125q-73 -45 -174 -62q-96 -16 -210 -16q-151 0 -262 30t-184 109t-107 214q-35 138 -35 345t35 344q35 135 108 213q72 76 187 107q113 30 266 30q121 0 214 -17q100 -18 172 -63q74 -46 114 -125q41 -80 41 -204h-277
q0 60 -22 94q-22 33 -59 52t-83 23q-52 5 -96 5q-88 0 -152 -14q-62 -14 -99 -61t-55 -139q-18 -91 -18 -245t18 -245t55 -140t98 -64q56 -14 147 -14q48 0 89 4q47 5 86 22q41 18 66 52t25 96h277zM539 1483l143 293h344l-258 -293h-229z" />
    <glyph glyph-name="cacute" unicode="&#x107;" horiz-adv-x="972" 
d="M934 303q0 -176 -116 -250q-115 -73 -314 -73q-123 0 -204 25q-83 26 -134 84t-75 152q-23 89 -23 230q0 138 23 229q24 94 75 153q51 58 134 84q84 26 202 26q100 0 180 -18q81 -18 136 -56t86 -101q30 -61 30 -149h-275q0 61 -32 84q-34 25 -109 25q-56 0 -91 -15
q-34 -15 -52 -46q-19 -33 -25 -85t-6 -131t6 -131t25 -85q17 -31 53 -46q32 -14 92 -14q73 0 106 23t33 85h275zM367 1073l143 293h344l-258 -293h-229z" />
    <glyph glyph-name="Ccircumflex" unicode="&#x108;" horiz-adv-x="1255" 
d="M1221 389q0 -127 -45 -206q-44 -78 -120 -125q-73 -45 -174 -62q-96 -16 -210 -16q-151 0 -262 30t-184 109t-107 214q-35 138 -35 345t35 344q35 135 108 213q72 76 187 107q113 30 266 30q121 0 214 -17q100 -18 172 -63q74 -46 114 -125q41 -80 41 -204h-277
q0 60 -22 94q-22 33 -59 52t-83 23q-52 5 -96 5q-88 0 -152 -14q-62 -14 -99 -61t-55 -139q-18 -91 -18 -245t18 -245t55 -140t98 -64q56 -14 147 -14q48 0 89 4q47 5 86 22q41 18 66 52t25 96h277zM786 1772l289 -273h-266l-59 64q-39 43 -48 59q-9 13 -10 20h-8
q-1 -7 -10 -20q-10 -19 -47 -59l-60 -64h-266l289 273h196z" />
    <glyph glyph-name="ccircumflex" unicode="&#x109;" horiz-adv-x="972" 
d="M934 303q0 -176 -116 -250q-115 -73 -314 -73q-123 0 -204 25q-83 26 -134 84t-75 152q-23 89 -23 230q0 138 23 229q24 94 75 153q51 58 134 84q84 26 202 26q100 0 180 -18q81 -18 136 -56t86 -101q30 -61 30 -149h-275q0 61 -32 84q-34 25 -109 25q-56 0 -91 -15
q-34 -15 -52 -46q-19 -33 -25 -85t-6 -131t6 -131t25 -85q17 -31 53 -46q32 -14 92 -14q73 0 106 23t33 85h275zM627 1362l288 -272h-266l-59 63q-37 40 -47 59q-10 14 -11 21h-8q-1 -9 -10 -21q-10 -19 -47 -59l-59 -63h-267l289 272h197z" />
    <glyph glyph-name="Cdotaccent" unicode="&#x10a;" horiz-adv-x="1255" 
d="M1221 389q0 -127 -45 -206q-44 -78 -120 -125q-73 -45 -174 -62q-96 -16 -210 -16q-151 0 -262 30t-184 109t-107 214q-35 138 -35 345t35 344q35 135 108 213q72 76 187 107q113 30 266 30q121 0 214 -17q100 -18 172 -63q74 -46 114 -125q41 -80 41 -204h-277
q0 60 -22 94q-22 33 -59 52t-83 23q-52 5 -96 5q-88 0 -152 -14q-62 -14 -99 -61t-55 -139q-18 -91 -18 -245t18 -245t55 -140t98 -64q56 -14 147 -14q48 0 89 4q47 5 86 22q41 18 66 52t25 96h277zM510 1495v246h235v-246h-235z" />
    <glyph glyph-name="cdotaccent" unicode="&#x10b;" horiz-adv-x="972" 
d="M934 303q0 -176 -116 -250q-115 -73 -314 -73q-123 0 -204 25q-83 26 -134 84t-75 152q-23 89 -23 230q0 138 23 229q24 94 75 153q51 58 134 84q84 26 202 26q100 0 180 -18q81 -18 136 -56t86 -101q30 -61 30 -149h-275q0 61 -32 84q-34 25 -109 25q-56 0 -91 -15
q-34 -15 -52 -46q-19 -33 -25 -85t-6 -131t6 -131t25 -85q17 -31 53 -46q32 -14 92 -14q73 0 106 23t33 85h275zM369 1085v246h235v-246h-235z" />
    <glyph glyph-name="Ccaron" unicode="&#x10c;" horiz-adv-x="1255" 
d="M1221 389q0 -127 -45 -206q-44 -78 -120 -125q-73 -45 -174 -62q-96 -16 -210 -16q-151 0 -262 30t-184 109t-107 214q-35 138 -35 345t35 344q35 135 108 213q72 76 187 107q113 30 266 30q121 0 214 -17q100 -18 172 -63q74 -46 114 -125q41 -80 41 -204h-277
q0 60 -22 94q-22 33 -59 52t-83 23q-52 5 -96 5q-88 0 -152 -14q-62 -14 -99 -61t-55 -139q-18 -91 -18 -245t18 -245t55 -140t98 -64q56 -14 147 -14q48 0 89 4q47 5 86 22q41 18 66 52t25 96h277zM590 1499l-289 273h266l60 -64q15 -17 29 -35q15 -19 18 -24q9 -14 10 -21
h8q1 7 10 21q3 5 18 24l30 35l59 64h266l-289 -273h-196z" />
    <glyph glyph-name="ccaron" unicode="&#x10d;" horiz-adv-x="972" 
d="M934 303q0 -176 -116 -250q-115 -73 -314 -73q-123 0 -204 25q-83 26 -134 84t-75 152q-23 89 -23 230q0 138 23 229q24 94 75 153q51 58 134 84q84 26 202 26q100 0 180 -18q81 -18 136 -56t86 -101q30 -61 30 -149h-275q0 61 -32 84q-34 25 -109 25q-56 0 -91 -15
q-34 -15 -52 -46q-19 -33 -25 -85t-6 -131t6 -131t25 -85q17 -31 53 -46q32 -14 92 -14q73 0 106 23t33 85h275zM424 1090l-289 272h266l60 -64q27 -32 29 -34q13 -16 18 -25q9 -14 10 -20h8q1 4 11 20q7 13 17 25q4 5 14.5 16.5t15.5 17.5l59 64h266l-288 -272h-197z" />
    <glyph glyph-name="Dcaron" unicode="&#x10e;" horiz-adv-x="1368" 
d="M578 236q114 0 193 22q80 22 133 74q53 51 78 136q26 87 26 208t-26 208q-25 85 -78 136q-53 52 -133 74q-79 22 -193 22h-144v-880h144zM158 0v1352h420q185 0 317 -34q134 -35 220 -113q88 -81 128 -209q41 -132 41 -320q0 -189 -41 -321q-40 -128 -128 -209
q-84 -77 -220 -112q-132 -34 -317 -34h-420zM586 1499l-289 273h266l60 -64q15 -17 29 -35q15 -19 18 -24q9 -14 10 -21h8q1 7 10 21q3 5 18 24q14 18 29 35l60 64h266l-289 -273h-196z" />
    <glyph glyph-name="dcaron" unicode="&#x10f;" horiz-adv-x="1427" 
d="M487 -20q-108 0 -185 26q-79 27 -131 85q-53 59 -78 153q-25 93 -25 227t25 227q25 94 78 153q52 58 131 85t185 27q96 0 158 -32q61 -31 94 -116h9q-1 15 -5 46.5t-5 47.5q-5 52 -5 95v399l277 31v-1434h-215l-47 141q-33 -92 -97 -127q-62 -34 -164 -34zM535 195
q105 0 151 63q47 64 47 213t-47 213t-151 64q-51 0 -90 -13q-34 -11 -58 -43q-22 -29 -33 -84q-10 -50 -10 -137t10 -137q11 -55 33 -84q24 -32 58 -43q36 -12 90 -12zM1145 1016q18 0 46 2q22 2 37 12t24 33q10 25 10 63h-123v226h235v-226q0 -46 -8 -88q-7 -37 -33 -66
q-24 -27 -69 -42t-119 -15v101z" />
    <glyph glyph-name="Dcroat" unicode="&#x110;" horiz-adv-x="1368" 
d="M158 0v563h-158v234h158v555h420q185 0 317 -34q134 -35 220 -113q88 -81 128 -209q41 -132 41 -320q0 -189 -41 -321q-40 -128 -128 -209q-84 -77 -220 -112q-132 -34 -317 -34h-420zM578 236q114 0 193 22q80 22 133 74q53 51 78 136q26 87 26 208t-26 208
q-25 85 -78 136q-53 52 -133 74q-79 22 -193 22h-144v-319h211v-234h-211v-327h144z" />
    <glyph glyph-name="dcroat" unicode="&#x111;" horiz-adv-x="1138" 
d="M1010 1270h182v-205h-182v-1065h-215l-47 141q-33 -92 -97 -127q-62 -34 -164 -34q-108 0 -185 26q-79 27 -131 85q-53 59 -78 153q-25 93 -25 227t25 227q25 94 78 153q52 58 131 85t185 27q96 0 158 -32q61 -31 94 -116h9q-1 15 -5 46.5t-5 47.5q-5 52 -5 95v61h-248
v205h248v133l277 31v-164zM535 195q105 0 151 63q47 64 47 213v29q-5 134 -52 190q-49 58 -146 58q-51 0 -90 -13q-34 -11 -58 -43q-22 -29 -33 -84q-10 -50 -10 -137t10 -137q11 -55 33 -84q24 -32 58 -43q36 -12 90 -12z" />
    <glyph glyph-name="Emacron" unicode="&#x112;" horiz-adv-x="1181" 
d="M158 0v1352h921v-236h-645v-319h563v-234h-563v-327h645v-236h-921zM227 1534v143h727v-143h-727z" />
    <glyph glyph-name="emacron" unicode="&#x113;" horiz-adv-x="1019" 
d="M346 389q1 -50 12 -88q10 -34 32 -60q20 -23 57 -35q33 -11 92 -11q61 0 91 20q32 21 32 88h274q0 -89 -30 -151t-84 -101q-53 -38 -132 -55q-76 -16 -172 -16q-118 0 -202 25q-83 25 -140 83q-54 56 -82 151q-26 90 -26 228q0 143 28 236q29 96 86 153q58 58 145 82
q91 25 203 25q108 0 187 -21q83 -22 131 -66q52 -47 77 -124q25 -76 25 -191q0 -34 -4 -77q-5 -50 -22 -95h-578zM528 748q-98 0 -135 -37q-38 -38 -45 -127h326v24q0 38 -4 62q-4 26 -19 44t-43 25q-34 9 -80 9zM150 1124v144h727v-144h-727z" />
    <glyph glyph-name="Ebreve" unicode="&#x114;" horiz-adv-x="1181" 
d="M158 0v1352h921v-236h-645v-319h563v-234h-563v-327h645v-236h-921zM590 1659q133 0 133 98h186q0 -136 -80 -199q-79 -63 -239 -63t-240 63t-80 199h187q0 -98 133 -98z" />
    <glyph glyph-name="ebreve" unicode="&#x115;" horiz-adv-x="1019" 
d="M346 389q1 -50 12 -88q10 -34 32 -60q20 -23 57 -35q33 -11 92 -11q61 0 91 20q32 21 32 88h274q0 -89 -30 -151t-84 -101q-53 -38 -132 -55q-76 -16 -172 -16q-118 0 -202 25q-83 25 -140 83q-54 56 -82 151q-26 90 -26 228q0 143 28 236q29 96 86 153q58 58 145 82
q91 25 203 25q108 0 187 -21q83 -22 131 -66q52 -47 77 -124q25 -76 25 -191q0 -34 -4 -77q-5 -50 -22 -95h-578zM528 748q-98 0 -135 -37q-38 -38 -45 -127h326v24q0 38 -4 62q-4 26 -19 44t-43 25q-34 9 -80 9zM510 1249q133 0 133 99h186q0 -137 -79 -200
q-80 -63 -240 -63q-161 0 -240 63q-80 63 -80 200h187q0 -99 133 -99z" />
    <glyph glyph-name="Edotaccent" unicode="&#x116;" horiz-adv-x="1181" 
d="M158 0v1352h921v-236h-645v-319h563v-234h-563v-327h645v-236h-921zM473 1495v246h236v-246h-236z" />
    <glyph glyph-name="edotaccent" unicode="&#x117;" horiz-adv-x="1019" 
d="M346 389q1 -50 12 -88q10 -34 32 -60q20 -23 57 -35q33 -11 92 -11q61 0 91 20q32 21 32 88h274q0 -89 -30 -151t-84 -101q-53 -38 -132 -55q-76 -16 -172 -16q-118 0 -202 25q-83 25 -140 83q-54 56 -82 151q-26 90 -26 228q0 143 28 236q29 96 86 153q58 58 145 82
q91 25 203 25q108 0 187 -21q83 -22 131 -66q52 -47 77 -124q25 -76 25 -191q0 -34 -4 -77q-5 -50 -22 -95h-578zM528 748q-98 0 -135 -37q-38 -38 -45 -127h326v24q0 38 -4 62q-4 26 -19 44t-43 25q-34 9 -80 9zM391 1085v246h236v-246h-236z" />
    <glyph glyph-name="Eogonek" unicode="&#x118;" horiz-adv-x="1181" 
d="M731 -186q0 64 23 110q23 47 57 76h-653v1352h921v-236h-645v-319h563v-234h-563v-327h645v-236q-60 0 -104 -34q-45 -34 -45 -105q0 -44 20 -67t68 -23q20 0 64 6q48 7 92 28v-141q-41 -29 -103 -41q-61 -12 -113 -12q-94 0 -161 47q-66 46 -66 156z" />
    <glyph glyph-name="eogonek" unicode="&#x119;" horiz-adv-x="1019" 
d="M508 -170q0 91 55 152q-14 -2 -22 -2h-23q-118 0 -202 25q-83 25 -140 83q-54 56 -82 151q-26 90 -26 228q0 143 28 236q29 96 86 153q58 58 145 82q91 25 203 25q108 0 187 -21q83 -22 131 -66q52 -47 77 -124q25 -76 25 -191q0 -34 -4 -77q-5 -50 -22 -95h-578
q1 -50 12 -88q10 -36 31 -60q20 -23 55 -35q32 -11 91 -11q63 0 94 20q33 21 33 88h274q0 -80 -25 -139q-24 -57 -69 -96q-21 -21 -42 -34t-44 -36q-20 -20 -35 -50q-14 -28 -14 -79t19 -74q20 -24 69 -24q21 0 64 6q46 6 91 28v-141q-41 -29 -102 -41t-115 -12
q-49 0 -88 10q-43 11 -72 36q-30 25 -48 68q-17 40 -17 105zM526 748q-43 0 -81 -9q-30 -7 -52 -26q-19 -16 -30 -50q-10 -31 -15 -79h326v24q0 38 -4 62q-4 26 -19 44t-44 25q-36 9 -81 9z" />
    <glyph glyph-name="Ecaron" unicode="&#x11a;" horiz-adv-x="1181" 
d="M158 0v1352h921v-236h-645v-319h563v-234h-563v-327h645v-236h-921zM492 1499l-289 273h266l59 -64l30 -35q12 -14 17 -24q10 -16 11 -21h8q1 7 10 21q3 5 18 24q14 18 29 35l60 64h266l-289 -273h-196z" />
    <glyph glyph-name="ecaron" unicode="&#x11b;" horiz-adv-x="1019" 
d="M346 389q1 -50 12 -88q10 -34 32 -60q20 -23 57 -35q33 -11 92 -11q61 0 91 20q32 21 32 88h274q0 -89 -30 -151t-84 -101q-53 -38 -132 -55q-76 -16 -172 -16q-118 0 -202 25q-83 25 -140 83q-54 56 -82 151q-26 90 -26 228q0 143 28 236q29 96 86 153q58 58 145 82
q91 25 203 25q108 0 187 -21q83 -22 131 -66q52 -47 77 -124q25 -76 25 -191q0 -34 -4 -77q-5 -50 -22 -95h-578zM528 748q-98 0 -135 -37q-38 -38 -45 -127h326v24q0 38 -4 62q-4 26 -19 44t-43 25q-34 9 -80 9zM412 1090l-289 272h266l60 -64q27 -32 29 -34q13 -16 18 -25
q9 -14 10 -20h8q1 6 10 20q5 9 18 25q2 2 29 34l60 64h266l-289 -272h-196z" />
    <glyph glyph-name="Gcircumflex" unicode="&#x11c;" horiz-adv-x="1368" 
d="M1016 0l-35 180q-56 -109 -154 -155q-96 -45 -229 -45q-152 0 -251 51q-100 52 -158 145q-56 91 -81 223q-24 129 -24 287q0 201 35 336q34 133 108 211q73 78 188 108q118 31 269 31q120 0 213 -17q99 -18 170 -64q74 -47 113 -125q41 -80 41 -203h-277q0 54 -18 89
q-17 33 -53 53q-34 19 -80 25q-54 7 -105 7q-94 0 -157 -18t-100 -67t-54 -142q-17 -94 -17 -238q0 -120 13 -214q12 -88 44 -141t85 -77q55 -25 135 -25q139 0 229 70q89 69 107 227h-268v213h546v-725h-235zM782 1772l289 -273h-266l-60 64q-37 40 -47 59q-9 13 -10 20h-8
q-1 -7 -10 -20q-10 -19 -47 -59l-60 -64h-266l289 273h196z" />
    <glyph glyph-name="gcircumflex" unicode="&#x11d;" horiz-adv-x="1093" 
d="M948 594q0 -104 -30 -175q-29 -68 -89 -114q-56 -43 -139 -61q-87 -19 -182 -19h-43q-15 0 -39 2q-18 -27 -18 -65q0 -20 15 -32q12 -10 85 -21q42 -8 140 -22q85 -12 161 -43t133 -92q55 -59 55 -167q0 -135 -111 -211q-110 -76 -372 -76q-246 0 -360 66
q-115 67 -115 182q0 80 47 141q45 58 113 109q-66 56 -66 143q0 53 23 85q26 37 59 63q-73 41 -110 115t-37 192q0 104 30 175q30 69 88 114q56 43 140 61q87 19 182 19q132 0 230 -33t151 -113q33 64 85 95q50 30 120 30v-235q-95 0 -148 -62q0 -16 1 -24t1 -27zM672 594
q0 86 -36 120q-35 34 -128 34t-128 -34q-36 -34 -36 -120t36 -120q35 -34 128 -34t128 34q36 34 36 120zM508 -104q-74 6 -143 24q-15 -24 -36 -47q-20 -22 -20 -59q0 -53 47 -77q46 -24 154 -24q83 0 148 20q63 19 63 77q0 31 -20 46q-18 14 -50 22q-27 7 -68 10
q-25 2 -75 8zM645 1362l289 -272h-266l-60 63q-37 40 -47 59q-9 12 -10 21h-8q-1 -7 -11 -21q-10 -19 -47 -59l-59 -63h-266l289 272h196z" />
    <glyph glyph-name="Gbreve" unicode="&#x11e;" horiz-adv-x="1368" 
d="M1016 0l-35 180q-56 -109 -154 -155q-96 -45 -229 -45q-152 0 -251 51q-100 52 -158 145q-56 91 -81 223q-24 129 -24 287q0 201 35 336q34 133 108 211q73 78 188 108q118 31 269 31q120 0 213 -17q99 -18 170 -64q74 -47 113 -125q41 -80 41 -203h-277q0 54 -18 89
q-17 33 -53 53q-34 19 -80 25q-54 7 -105 7q-94 0 -157 -18t-100 -67t-54 -142q-17 -94 -17 -238q0 -120 13 -214q12 -88 44 -141t85 -77q55 -25 135 -25q139 0 229 70q89 69 107 227h-268v213h546v-725h-235zM684 1659q133 0 133 98h187q0 -136 -80 -199t-240 -63t-240 63
q-79 63 -79 199h186q0 -98 133 -98z" />
    <glyph glyph-name="gbreve" unicode="&#x11f;" horiz-adv-x="1093" 
d="M948 594q0 -104 -30 -175q-29 -68 -89 -114q-56 -43 -139 -61q-87 -19 -182 -19h-43q-15 0 -39 2q-18 -27 -18 -65q0 -20 15 -32q12 -10 85 -21q42 -8 140 -22q85 -12 161 -43t133 -92q55 -59 55 -167q0 -135 -111 -211q-110 -76 -372 -76q-246 0 -360 66
q-115 67 -115 182q0 80 47 141q45 58 113 109q-66 56 -66 143q0 53 23 85q26 37 59 63q-73 41 -110 115t-37 192q0 104 30 175q30 69 88 114q56 43 140 61q87 19 182 19q132 0 230 -33t151 -113q33 64 85 95q50 30 120 30v-235q-95 0 -148 -62q0 -16 1 -24t1 -27zM672 594
q0 86 -36 120q-35 34 -128 34t-128 -34q-36 -34 -36 -120t36 -120q35 -34 128 -34t128 34q36 34 36 120zM508 -104q-74 6 -143 24q-15 -24 -36 -47q-20 -22 -20 -59q0 -53 47 -77q46 -24 154 -24q83 0 148 20q63 19 63 77q0 31 -20 46q-18 14 -50 22q-27 7 -68 10
q-25 2 -75 8zM547 1249q133 0 133 99h186q0 -137 -80 -200t-239 -63q-161 0 -240 63q-80 63 -80 200h187q0 -99 133 -99z" />
    <glyph glyph-name="Gdotaccent" unicode="&#x120;" horiz-adv-x="1368" 
d="M1016 0l-35 180q-56 -109 -154 -155q-96 -45 -229 -45q-152 0 -251 51q-100 52 -158 145q-56 91 -81 223q-24 129 -24 287q0 201 35 336q34 133 108 211q73 78 188 108q118 31 269 31q120 0 213 -17q99 -18 170 -64q74 -47 113 -125q41 -80 41 -203h-277q0 54 -18 89
q-17 33 -53 53q-34 19 -80 25q-54 7 -105 7q-94 0 -157 -18t-100 -67t-54 -142q-17 -94 -17 -238q0 -120 13 -214q12 -88 44 -141t85 -77q55 -25 135 -25q139 0 229 70q89 69 107 227h-268v213h546v-725h-235zM565 1495v246h236v-246h-236z" />
    <glyph glyph-name="gdotaccent" unicode="&#x121;" horiz-adv-x="1093" 
d="M948 594q0 -104 -30 -175q-29 -68 -89 -114q-56 -43 -139 -61q-87 -19 -182 -19h-43q-15 0 -39 2q-18 -27 -18 -65q0 -20 15 -32q12 -10 85 -21q42 -8 140 -22q85 -12 161 -43t133 -92q55 -59 55 -167q0 -135 -111 -211q-110 -76 -372 -76q-246 0 -360 66
q-115 67 -115 182q0 80 47 141q45 58 113 109q-66 56 -66 143q0 53 23 85q26 37 59 63q-73 41 -110 115t-37 192q0 104 30 175q30 69 88 114q56 43 140 61q87 19 182 19q132 0 230 -33t151 -113q33 64 85 95q50 30 120 30v-235q-95 0 -148 -62q0 -16 1 -24t1 -27zM672 594
q0 86 -36 120q-35 34 -128 34t-128 -34q-36 -34 -36 -120t36 -120q35 -34 128 -34t128 34q36 34 36 120zM508 -104q-74 6 -143 24q-15 -24 -36 -47q-20 -22 -20 -59q0 -53 47 -77q46 -24 154 -24q83 0 148 20q63 19 63 77q0 31 -20 46q-18 14 -50 22q-27 7 -68 10
q-25 2 -75 8zM428 1085v246h236v-246h-236z" />
    <glyph glyph-name="Gcommaaccent" unicode="&#x122;" horiz-adv-x="1368" 
d="M1016 0l-35 180q-56 -109 -154 -155q-96 -45 -229 -45q-152 0 -251 51q-100 52 -158 145q-56 91 -81 223q-24 129 -24 287q0 201 35 336q34 133 108 211q73 78 188 108q118 31 269 31q120 0 213 -17q99 -18 170 -64q74 -47 113 -125q41 -80 41 -203h-277q0 54 -18 89
q-17 33 -53 53q-34 19 -80 25q-54 7 -105 7q-94 0 -157 -18t-100 -67t-54 -142q-17 -94 -17 -238q0 -120 13 -214q12 -88 44 -141t85 -77q55 -25 135 -25q139 0 229 70q89 69 107 227h-268v213h546v-725h-235zM573 -479q19 0 47 2q21 1 36 12q16 11 25 33t9 63h-123v226h236
v-226q0 -46 -8 -88q-7 -37 -33 -66q-24 -27 -70 -42q-45 -15 -119 -15v101z" />
    <glyph glyph-name="gcommaaccent" unicode="&#x123;" horiz-adv-x="1093" 
d="M948 594q0 -104 -30 -175q-29 -68 -89 -114q-56 -43 -139 -61q-87 -19 -182 -19h-43q-15 0 -39 2q-18 -27 -18 -65q0 -20 15 -32q12 -10 85 -21q42 -8 140 -22q85 -12 161 -43t133 -92q55 -59 55 -167q0 -135 -111 -211q-110 -76 -372 -76q-246 0 -360 66
q-115 67 -115 182q0 80 47 141q45 58 113 109q-66 56 -66 143q0 53 23 85q26 37 59 63q-73 41 -110 115t-37 192q0 104 30 175q30 69 88 114q56 43 140 61q87 19 182 19q132 0 230 -33t151 -113q33 64 85 95q50 30 120 30v-235q-95 0 -148 -62q0 -16 1 -24t1 -27zM672 594
q0 86 -36 120q-35 34 -128 34t-128 -34q-36 -34 -36 -120t36 -120q35 -34 128 -34t128 34q36 34 36 120zM508 -104q-74 6 -143 24q-15 -24 -36 -47q-20 -22 -20 -59q0 -53 47 -77q46 -24 154 -24q83 0 148 20q63 19 63 77q0 31 -20 46q-18 14 -50 22q-27 7 -68 10
q-25 2 -75 8zM621 1423q-33 0 -47 -1q-23 -2 -36 -11q-16 -11 -25 -33t-9 -65h123v-225h-236v225q0 46 8 88q7 37 33 66q24 27 70 42q45 15 119 15v-101z" />
    <glyph glyph-name="Hcircumflex" unicode="&#x124;" horiz-adv-x="1431" 
d="M997 0v563h-563v-563h-276v1352h276v-555h563v555h277v-1352h-277zM813 1772l289 -273h-266l-60 64q-37 40 -47 59q-9 13 -10 20h-8q-1 -6 -11 -20q-10 -19 -47 -59l-59 -64h-266l288 273h197z" />
    <glyph glyph-name="hcircumflex" unicode="&#x125;" horiz-adv-x="1148" 
d="M129 1403l277 31v-430q0 -33 -6 -95q-2 -15 -4.5 -46.5t-4.5 -47.5h6q35 87 98 117q65 31 164 31q185 0 278 -95q93 -94 93 -315v-553h-276v553q0 117 -33 156t-111 39q-108 0 -156 -63t-48 -214v-471h-277v1403zM950 1362l289 -272h-266l-60 63q-37 40 -47 59
q-9 12 -10 21h-8q-1 -9 -10 -21q-10 -19 -47 -59l-60 -63h-266l289 272h196z" />
    <glyph glyph-name="Hbar" unicode="&#x126;" horiz-adv-x="1431" 
d="M997 0v563h-563v-563h-276v1026h-133v164h133v162h276v-162h563v162h277v-162h133v-164h-133v-1026h-277zM997 797v229h-563v-229h563z" />
    <glyph glyph-name="hbar" unicode="&#x127;" horiz-adv-x="1148" 
d="M406 1065v-61q0 -33 -6 -95q-2 -15 -4.5 -46.5t-4.5 -47.5h6q34 84 96 116q61 32 158 32q94 0 166 -27q73 -27 119 -85q47 -59 71 -153q23 -91 23 -227v-471h-276v471q0 74 -9 137q-8 56 -25 84q-19 32 -46 43q-31 13 -70 13q-100 0 -147 -58q-47 -57 -51 -190v-500h-277
v1065h-182v205h182v133l277 31v-164h247v-205h-247z" />
    <glyph glyph-name="Itilde" unicode="&#x128;" horiz-adv-x="591" 
d="M158 0v1352h276v-1352h-276zM436 1497q-46 0 -72 12t-61 35q-14 9 -33 22t-24 16q-20 13 -43 13q-62 0 -62 -100h-151q0 39 5 87q4 43 23 80q17 34 54 58q35 23 94 23q43 0 66 -11q29 -14 55 -30q21 -15 57 -41q22 -16 51 -16t40 20q11 19 11 74h160q0 -53 -4 -92
q-5 -45 -20 -77q-16 -33 -51 -53t-95 -20z" />
    <glyph glyph-name="itilde" unicode="&#x129;" horiz-adv-x="473" 
d="M100 0v942h277v-942h-277zM377 1087q-45 0 -73 13q-23 11 -60 35q-12 8 -31.5 20.5t-26.5 16.5q-22 14 -43 14q-61 0 -61 -101h-152q0 39 5 87q4 40 24 80q18 36 53 59q34 22 95 22q43 0 66 -11q25 -12 54 -30q41 -28 58 -41q22 -16 51 -16t40 20q11 19 11 74h160
q0 -53 -4 -92q-4 -42 -21 -77q-16 -34 -50 -53q-35 -20 -95 -20z" />
    <glyph glyph-name="Imacron" unicode="&#x12a;" horiz-adv-x="591" 
d="M158 0v1352h276v-1352h-276zM-66 1534v143h728v-143h-728z" />
    <glyph glyph-name="imacron" unicode="&#x12b;" horiz-adv-x="473" 
d="M100 0v942h277v-942h-277zM-125 1124v144h727v-144h-727z" />
    <glyph glyph-name="Ibreve" unicode="&#x12c;" horiz-adv-x="591" 
d="M158 0v1352h276v-1352h-276zM299 1659q133 0 133 98h186q0 -136 -79 -199q-80 -63 -240 -63q-161 0 -240 63t-79 199h186q0 -98 133 -98z" />
    <glyph glyph-name="ibreve" unicode="&#x12d;" horiz-adv-x="473" 
d="M100 0v942h277v-942h-277zM240 1249q133 0 133 99h186q0 -137 -80 -200q-79 -63 -239 -63t-240 63t-80 200h186q0 -99 134 -99z" />
    <glyph glyph-name="Iogonek" unicode="&#x12e;" horiz-adv-x="591" 
d="M-8 -186q0 54 14 90q15 40 38 67q24 29 53 49t61 33v1299h276v-1352h-106q-58 -5 -98 -37q-40 -33 -40 -102q0 -43 21 -67q20 -23 68 -23q21 0 64 6q46 6 91 28v-141q-41 -29 -102 -41q-62 -12 -113 -12q-95 0 -162 47q-65 46 -65 156z" />
    <glyph glyph-name="iogonek" unicode="&#x12f;" horiz-adv-x="473" 
d="M16 -186q0 66 24 112q26 50 60 76v940h277v-942h-25q-57 -5 -97 -37q-40 -33 -40 -102q0 -43 21 -67q20 -23 67 -23q21 0 65 6q46 6 91 28v-141q-41 -29 -103 -41q-61 -12 -112 -12q-95 0 -162 47q-66 46 -66 156zM100 1126v226h277v-226h-277z" />
    <glyph glyph-name="Idotaccent" unicode="&#x130;" horiz-adv-x="591" 
d="M158 0v1352h276v-1352h-276zM178 1495v246h236v-246h-236z" />
    <glyph glyph-name="dotlessi" unicode="&#x131;" horiz-adv-x="473" 
d="M100 0v942h277v-942h-277z" />
    <glyph glyph-name="IJ" unicode="&#x132;" horiz-adv-x="1609" 
d="M158 0v1352h276v-1352h-276zM1208 1352h277v-963q0 -195 -106 -303q-105 -106 -343 -106q-226 0 -335 97t-109 312h268q0 -97 43 -140q44 -44 135 -44q79 0 125 38q45 37 45 146v963z" />
    <glyph glyph-name="ij" unicode="&#x133;" horiz-adv-x="1064" 
d="M100 0v942h277v-942h-277zM100 1126v226h277v-226h-277zM907 -158q0 -66 -18 -126q-17 -58 -64 -106t-120 -74q-79 -28 -191 -28v222q52 0 84 19q33 20 33 73v1120h276v-1100zM631 1126v226h276v-226h-276z" />
    <glyph glyph-name="Jcircumflex" unicode="&#x134;" horiz-adv-x="1017" 
d="M616 1352h277v-963q0 -195 -106 -303q-105 -106 -343 -106q-225 0 -334 97q-110 98 -110 312h268q0 -97 43 -140q44 -44 135 -44q79 0 125 38q45 37 45 146v963zM860 1772l289 -273h-266l-60 64q-37 40 -47 59q-9 13 -10 20h-8q-1 -7 -10 -20q-9 -16 -48 -59l-59 -64
h-266l289 273h196z" />
    <glyph glyph-name="jcircumflex" unicode="&#x135;" horiz-adv-x="591" 
d="M434 -158q0 -66 -18 -126q-17 -58 -64 -106q-46 -48 -121 -74q-79 -28 -190 -28v222q52 0 84 19q33 20 33 73v1120h276v-1100zM397 1362l289 -272h-266l-60 63q-37 40 -47 59q-9 12 -10 21h-8q-1 -9 -10 -21q-10 -19 -47 -59l-60 -63h-266l289 272h196z" />
    <glyph glyph-name="Kcommaaccent" unicode="&#x136;" horiz-adv-x="1275" 
d="M158 0v1352h276v-555h156l358 555h293l-430 -668l440 -684h-293l-362 563h-162v-563h-276zM526 -479q18 0 46 2q22 2 37 12q16 11 25 33t9 63h-123v226h236v-226q0 -46 -8 -88q-7 -37 -33 -66q-24 -27 -70 -42q-45 -15 -119 -15v101z" />
    <glyph glyph-name="kcommaaccent" unicode="&#x137;" horiz-adv-x="1048" 
d="M129 0v1403l277 31v-850h90l231 358h293l-299 -463l309 -479h-293l-231 358h-100v-358h-277zM414 -479q18 0 46 2q22 2 37 12q15 11 24 33t9 63h-122v226h235v-226q0 -46 -8 -88q-7 -37 -33 -66q-24 -27 -70 -42q-45 -15 -118 -15v101z" />
    <glyph glyph-name="kgreenlandic" unicode="&#x138;" horiz-adv-x="1048" 
d="M129 0v942h277v-358h90l231 358h293l-299 -463l309 -479h-293l-231 358h-100v-358h-277z" />
    <glyph glyph-name="Lacute" unicode="&#x139;" horiz-adv-x="1095" 
d="M158 0v1352h276v-1116h604v-236h-880zM190 1483l144 293h344l-258 -293h-230z" />
    <glyph glyph-name="lacute" unicode="&#x13a;" horiz-adv-x="550" 
d="M504 0q-112 0 -191 28q-75 26 -120 73q-46 48 -64 107q-18 60 -18 126v1069l276 31v-1100q0 -64 33 -88q34 -25 84 -25v-221zM145 1565l144 293h344l-258 -293h-230z" />
    <glyph glyph-name="Lcommaaccent" unicode="&#x13b;" horiz-adv-x="1095" 
d="M158 0v1352h276v-1116h604v-236h-880zM436 -479q18 0 46 2q22 2 37 12q16 11 25 33t9 63h-123v226h236v-226q0 -41 -9 -88q-7 -38 -32 -66q-24 -27 -70 -42q-45 -15 -119 -15v101z" />
    <glyph glyph-name="lcommaaccent" unicode="&#x13c;" horiz-adv-x="550" 
d="M504 0q-112 0 -191 28q-75 26 -120 73q-46 48 -64 107q-18 60 -18 126v1069l276 31v-1100q0 -64 33 -88q34 -25 84 -25v-221zM219 -479q18 0 46 2q22 2 37 12q16 11 25 33t9 63h-123v226h236v-226q0 -41 -9 -88q-7 -38 -32 -66q-24 -27 -70 -42q-45 -15 -119 -15v101z
" />
    <glyph glyph-name="Lcaron" unicode="&#x13d;" horiz-adv-x="1095" 
d="M158 0v1352h276v-1116h604v-236h-880zM692 1016q18 0 46 2q22 2 37 12q16 11 25 33q9 23 9 63h-123v226h236v-226q0 -41 -9 -88q-7 -38 -32 -66q-24 -27 -70 -42q-45 -15 -119 -15v101z" />
    <glyph glyph-name="lcaron" unicode="&#x13e;" horiz-adv-x="841" 
d="M504 0q-112 0 -191 28q-75 26 -120 73q-46 48 -64 107q-18 60 -18 126v1069l276 31v-1100q0 -64 33 -88q34 -25 84 -25v-221zM559 1016q18 0 46 2q22 2 37 12q16 11 25 33q9 23 9 63h-123v226h235v-226q0 -46 -8 -88q-7 -38 -32 -66q-24 -27 -70 -42q-45 -15 -119 -15
v101z" />
    <glyph glyph-name="Ldot" unicode="&#x13f;" horiz-adv-x="1095" 
d="M158 0v1352h276v-1116h604v-236h-880zM694 623v245h236v-245h-236z" />
    <glyph glyph-name="ldot" unicode="&#x140;" horiz-adv-x="897" 
d="M504 0q-112 0 -191 28q-75 26 -120 73q-46 48 -64 107q-18 60 -18 126v1069l276 31v-1100q0 -64 33 -88q34 -25 84 -25v-221zM551 623v245h235v-245h-235z" />
    <glyph glyph-name="Lslash" unicode="&#x141;" horiz-adv-x="1095" 
d="M158 0v477l-117 -41v180l117 41v695h276v-596l283 100v-184l-283 -99v-337h604v-236h-880z" />
    <glyph glyph-name="lslash" unicode="&#x142;" horiz-adv-x="550" 
d="M504 0q-112 0 -191 28q-75 26 -120 73q-46 48 -64 107q-18 60 -18 126v207l-103 -52v199l103 49v666l276 31v-560l195 97v-197l-195 -96v-344q0 -64 33 -88q34 -25 84 -25v-221z" />
    <glyph glyph-name="Nacute" unicode="&#x143;" horiz-adv-x="1431" 
d="M895 584q41 -87 51 -107q9 -18 22.5 -46.5t16.5 -35.5q21 -45 29 -71h8l-12 75q-4 35 -9 75q-4 36 -4 81v797h277v-1352h-338l-399 768q-7 14 -18.5 36.5t-20 39t-14.5 30.5q-21 46 -38 82q-16 36 -28 72h-8q8 -50 12 -76q2 -13 4.5 -39.5t3.5 -34.5q4 -36 4 -81v-797
h-276v1352h338zM559 1483l143 293h345l-259 -293h-229z" />
    <glyph glyph-name="nacute" unicode="&#x144;" horiz-adv-x="1148" 
d="M129 0v942h215l49 -133q33 90 100 122t175 32q105 0 174 -24q68 -24 111 -74q42 -49 60 -128q17 -74 17 -184v-553h-276v553q0 59 -8 99q-8 41 -23 60q-16 20 -42 28q-27 8 -65 8q-110 0 -158 -56q-47 -55 -52 -192v-500h-277zM442 1073l144 293h344l-258 -293h-230z" />
    <glyph glyph-name="Ncommaaccent" unicode="&#x145;" horiz-adv-x="1431" 
d="M895 584q41 -87 51 -107q9 -18 22.5 -46.5t16.5 -35.5q21 -45 29 -71h8l-12 75q-4 35 -9 75q-4 36 -4 81v797h277v-1352h-338l-399 768q-7 14 -18.5 36.5t-20 39t-14.5 30.5q-21 46 -38 82q-16 36 -28 72h-8q8 -50 12 -76q2 -13 4.5 -39.5t3.5 -34.5q4 -36 4 -81v-797
h-276v1352h338zM604 -479q18 0 46 2q22 2 37 12q16 11 25 33t9 63h-123v226h236v-226q0 -41 -9 -88q-7 -38 -32 -66q-24 -27 -70 -42q-45 -15 -119 -15v101z" />
    <glyph glyph-name="ncommaaccent" unicode="&#x146;" horiz-adv-x="1148" 
d="M129 0v942h215l49 -133q33 90 100 122t175 32q105 0 174 -24q68 -24 111 -74q42 -49 60 -128q17 -74 17 -184v-553h-276v553q0 59 -8 99q-8 41 -23 60q-16 20 -42 28q-27 8 -65 8q-110 0 -158 -56q-47 -55 -52 -192v-500h-277zM463 -479q18 0 46 2q22 2 37 12
q15 11 24 33q10 25 10 63h-123v226h235v-226q0 -46 -8 -88q-7 -37 -33 -66q-24 -27 -69 -42t-119 -15v101z" />
    <glyph glyph-name="Ncaron" unicode="&#x147;" horiz-adv-x="1431" 
d="M895 584q41 -87 51 -107q9 -18 22.5 -46.5t16.5 -35.5q21 -45 29 -71h8l-12 75q-4 35 -9 75q-4 36 -4 81v797h277v-1352h-338l-399 768q-7 14 -18.5 36.5t-20 39t-14.5 30.5q-21 46 -38 82q-16 36 -28 72h-8q8 -50 12 -76q2 -13 4.5 -39.5t3.5 -34.5q4 -36 4 -81v-797
h-276v1352h338zM616 1499l-288 273h266l59 -64l30 -35q11 -14 17 -24q10 -16 11 -21h8q1 7 10 21q5 10 17 24l30 35l60 64h266l-289 -273h-197z" />
    <glyph glyph-name="ncaron" unicode="&#x148;" horiz-adv-x="1148" 
d="M129 0v942h215l49 -133q33 90 100 122t175 32q105 0 174 -24q68 -24 111 -74q42 -49 60 -128q17 -74 17 -184v-553h-276v553q0 59 -8 99q-8 41 -23 60q-16 20 -42 28q-27 8 -65 8q-110 0 -158 -56q-47 -55 -52 -192v-500h-277zM475 1090l-289 272h267l59 -64
q5 -6 15.5 -17.5t14.5 -16.5q10 -12 17 -25q9 -14 10 -20h9q1 6 10 20q8 13 17 25q4 5 14.5 16.5t15.5 17.5l59 64h267l-289 -272h-197z" />
    <glyph glyph-name="napostrophe" unicode="&#x149;" horiz-adv-x="1148" 
d="M129 0v942h215l49 -133q33 90 100 122t175 32q105 0 174 -24q68 -24 111 -74q42 -49 60 -128q17 -74 17 -184v-553h-276v553q0 59 -8 99q-8 41 -23 60q-16 20 -42 28q-27 8 -65 8q-110 0 -158 -56q-47 -55 -52 -192v-500h-277zM135 1241q18 0 46 2q22 2 37 12
q16 11 25 33t9 64h-123v225h236v-225q0 -41 -9 -88q-8 -40 -32 -67t-70 -42q-42 -14 -119 -14v100z" />
    <glyph glyph-name="Eng" unicode="&#x14a;" horiz-adv-x="1431" 
d="M825 -266q72 0 117 33q46 33 53 118l-458 883q-7 14 -18.5 36.5t-20 39t-14.5 30.5q-21 46 -38 82q-16 36 -28 72h-8q8 -50 12 -76q2 -13 4.5 -39.5t3.5 -34.5q4 -36 4 -81v-797h-276v1352h338l399 -768q41 -87 51 -107q9 -18 22.5 -46.5t16.5 -35.5q21 -45 29 -71h8
l-12 75q-4 35 -9 75q-4 36 -4 81v797h277v-1432q0 -195 -106 -304q-105 -108 -343 -108v226z" />
    <glyph glyph-name="eng" unicode="&#x14b;" horiz-adv-x="1148" 
d="M129 0v942h215l49 -133q33 90 100 122t173 32q103 0 175 -29q70 -28 112 -88t60 -153q17 -88 17 -222v-629q0 -66 -18 -126q-17 -58 -64 -106q-46 -48 -121 -74q-79 -28 -190 -28v222q52 0 84 19q33 20 33 73v649q0 82 -8 140q-8 59 -24 85q-18 31 -45 41q-28 11 -69 11
q-108 0 -155 -63q-47 -64 -47 -214v-471h-277z" />
    <glyph glyph-name="Omacron" unicode="&#x14c;" horiz-adv-x="1417" 
d="M709 -20q-165 0 -282 34q-116 34 -194 116q-73 78 -112 215q-37 132 -37 331t37 331q39 137 112 215q76 81 194 115q120 35 282 35q160 0 280 -35q119 -35 195 -115q73 -78 112 -215q37 -132 37 -331t-37 -331q-39 -137 -112 -215q-77 -82 -195 -116q-117 -34 -280 -34z
M709 215q89 0 155 24t109 76q41 49 63 143q21 88 21 218q0 128 -21 217q-21 90 -63 142q-44 54 -109 78q-66 24 -155 24q-90 0 -156 -24q-65 -24 -109 -78q-42 -52 -63 -142q-21 -89 -21 -217q0 -130 21 -218q22 -94 63 -143q43 -52 109 -76t156 -24zM344 1534v143h727v-143
h-727z" />
    <glyph glyph-name="omacron" unicode="&#x14d;" horiz-adv-x="1056" 
d="M528 -20q-120 0 -206 24t-144 82q-57 57 -84 152q-26 91 -26 233q0 143 26 234q27 94 84 151q58 58 144 82q89 25 206 25q115 0 206 -25q87 -24 145 -82q57 -57 84 -151q26 -91 26 -234q0 -142 -26 -233q-27 -95 -84 -152q-58 -58 -145 -82t-206 -24zM528 195
q104 0 144 60q41 61 41 216t-41 216t-144 61q-102 0 -143 -61t-41 -216t41 -216q41 -60 143 -60zM164 1124v144h727v-144h-727z" />
    <glyph glyph-name="Obreve" unicode="&#x14e;" horiz-adv-x="1417" 
d="M709 -20q-165 0 -282 34q-116 34 -194 116q-73 78 -112 215q-37 132 -37 331t37 331q39 137 112 215q76 81 194 115q120 35 282 35q160 0 280 -35q119 -35 195 -115q73 -78 112 -215q37 -132 37 -331t-37 -331q-39 -137 -112 -215q-77 -82 -195 -116q-117 -34 -280 -34z
M709 215q89 0 155 24t109 76q41 49 63 143q21 88 21 218q0 128 -21 217q-21 90 -63 142q-44 54 -109 78q-66 24 -155 24q-90 0 -156 -24q-65 -24 -109 -78q-42 -52 -63 -142q-21 -89 -21 -217q0 -130 21 -218q22 -94 63 -143q43 -52 109 -76t156 -24zM709 1659q133 0 133 98
h186q0 -136 -80 -199t-239 -63q-161 0 -240 63q-80 63 -80 199h186q0 -98 134 -98z" />
    <glyph glyph-name="obreve" unicode="&#x14f;" horiz-adv-x="1056" 
d="M528 -20q-120 0 -206 24t-144 82q-57 57 -84 152q-26 91 -26 233q0 143 26 234q27 94 84 151q58 58 144 82q89 25 206 25q115 0 206 -25q87 -24 145 -82q57 -57 84 -151q26 -91 26 -234q0 -142 -26 -233q-27 -95 -84 -152q-58 -58 -145 -82t-206 -24zM528 195
q104 0 144 60q41 61 41 216t-41 216t-144 61q-102 0 -143 -61t-41 -216t41 -216q41 -60 143 -60zM528 1249q134 0 134 99h186q0 -137 -80 -200t-240 -63t-239 63q-80 63 -80 200h186q0 -99 133 -99z" />
    <glyph glyph-name="Ohungarumlaut" unicode="&#x150;" horiz-adv-x="1417" 
d="M709 -20q-165 0 -282 34q-116 34 -194 116q-73 78 -112 215q-37 132 -37 331t37 331q39 137 112 215q76 81 194 115q120 35 282 35q160 0 280 -35q119 -35 195 -115q73 -78 112 -215q37 -132 37 -331t-37 -331q-39 -137 -112 -215q-77 -82 -195 -116q-117 -34 -280 -34z
M709 215q89 0 155 24t109 76q41 49 63 143q21 88 21 218q0 128 -21 217q-21 90 -63 142q-44 54 -109 78q-66 24 -155 24q-90 0 -156 -24q-65 -24 -109 -78q-42 -52 -63 -142q-21 -89 -21 -217q0 -130 21 -218q22 -94 63 -143q43 -52 109 -76t156 -24zM406 1483l106 293h268
l-200 -293h-174zM745 1483l144 293h287l-238 -293h-193z" />
    <glyph glyph-name="ohungarumlaut" unicode="&#x151;" horiz-adv-x="1056" 
d="M528 -20q-120 0 -206 24t-144 82q-57 57 -84 152q-26 91 -26 233q0 143 26 234q27 94 84 151q58 58 144 82q89 25 206 25q115 0 206 -25q87 -24 145 -82q57 -57 84 -151q26 -91 26 -234q0 -142 -26 -233q-27 -95 -84 -152q-58 -58 -145 -82t-206 -24zM528 195
q104 0 144 60q41 61 41 216t-41 216t-144 61q-102 0 -143 -61t-41 -216t41 -216q41 -60 143 -60zM225 1073l107 293h268l-201 -293h-174zM565 1073l144 293h286l-237 -293h-193z" />
    <glyph glyph-name="OE" unicode="&#x152;" horiz-adv-x="1863" 
d="M647 -20q-150 0 -253 34q-106 35 -175 116t-102 215q-33 133 -33 331t33 331q33 134 102 215q68 80 175 115t253 35q123 0 203 -20h909v-236h-618q29 -63 44 -141q15 -80 21 -178h471v-234h-471q-5 -110 -20 -184q-17 -80 -45 -143h618v-236h-909q-80 -20 -203 -20z
M647 215q74 0 128 24t90 76q36 53 53 143q16 86 16 218q0 131 -16 217q-16 87 -53 142q-36 54 -90 78t-128 24t-128 -24t-90 -78q-35 -53 -52 -142q-17 -91 -17 -217q0 -127 17 -218q17 -92 52 -143q36 -52 90 -76t128 -24z" />
    <glyph glyph-name="oe" unicode="&#x153;" horiz-adv-x="1505" 
d="M909 389q5 -101 34 -147q30 -47 114 -47q43 0 65 19q23 20 23 89h274q0 -90 -26 -149q-27 -62 -75 -101q-46 -37 -115 -56q-62 -17 -148 -17q-106 0 -172 26q-71 28 -113 92q-44 -64 -118 -92q-69 -26 -177 -26q-106 0 -181 25q-77 26 -127 83q-51 59 -75 152
q-24 94 -24 231t24 231q24 93 75 152q50 57 127 83q78 26 181 26q104 0 179 -28q73 -27 118 -95q47 68 119 95q75 28 176 28q92 0 161 -21q67 -20 114 -69q47 -48 69 -124q23 -78 23 -188q0 -34 -4 -77q-4 -47 -23 -95h-498zM487 195q81 0 112 60q32 61 32 216t-32 216
t-112 61q-79 0 -111 -61t-32 -216t32 -216q32 -60 111 -60zM1051 748q-75 0 -103 -36q-30 -37 -37 -128h246v28q0 27 -2 61q-2 26 -13 42q-12 17 -33 24q-25 9 -58 9z" />
    <glyph glyph-name="Racute" unicode="&#x154;" horiz-adv-x="1318" 
d="M158 0v1352h565q123 0 214 -24t149 -76q60 -54 88 -139t28 -212q0 -186 -57 -291q-56 -103 -180 -147l299 -463h-316l-276 430h-238v-430h-276zM711 666q117 0 166 51q49 50 49 184q0 122 -49 168q-50 47 -166 47h-277v-450h277zM498 1483l143 293h344l-258 -293h-229z
" />
    <glyph glyph-name="racute" unicode="&#x155;" horiz-adv-x="679" 
d="M129 0v942h236l41 -164q30 109 95 147t175 38v-215q-134 0 -201 -61q-64 -59 -69 -202v-485h-277zM264 1073l144 293h344l-258 -293h-230z" />
    <glyph glyph-name="Rcommaaccent" unicode="&#x156;" horiz-adv-x="1318" 
d="M158 0v1352h565q123 0 214 -24t149 -76q60 -54 88 -139t28 -212q0 -186 -57 -291q-56 -103 -180 -147l299 -463h-316l-276 430h-238v-430h-276zM711 666q117 0 166 51q49 50 49 184q0 122 -49 168q-50 47 -166 47h-277v-450h277zM549 -479q18 0 46 2q22 2 37 12
q15 11 24 33q10 25 10 63h-123v226h235v-226q0 -46 -8 -88q-7 -37 -33 -66q-24 -27 -69 -42t-119 -15v101z" />
    <glyph glyph-name="rcommaaccent" unicode="&#x157;" horiz-adv-x="671" 
d="M100 0v942h236l41 -164q30 109 95 147t175 38v-215q-134 0 -201 -61q-64 -59 -69 -202v-485h-277zM123 -479q18 0 46 2q22 2 37 12q15 11 24 33q10 25 10 63h-123v226h235v-226q0 -46 -8 -88q-7 -37 -33 -66q-24 -27 -69 -42t-119 -15v101z" />
    <glyph glyph-name="Rcaron" unicode="&#x158;" horiz-adv-x="1318" 
d="M158 0v1352h565q123 0 214 -24t149 -76q60 -54 88 -139t28 -212q0 -186 -57 -291q-56 -103 -180 -147l299 -463h-316l-276 430h-238v-430h-276zM711 666q117 0 166 51q49 50 49 184q0 122 -49 168q-50 47 -166 47h-277v-450h277zM561 1499l-289 273h267l59 -64l30 -35
q12 -14 17 -24q9 -14 10 -21h9q1 7 10 21q6 10 17 24l30 35l59 64h267l-289 -273h-197z" />
    <glyph glyph-name="rcaron" unicode="&#x159;" horiz-adv-x="700" 
d="M129 0v942h236l41 -164q30 109 95 147t175 38v-215q-134 0 -201 -61q-64 -59 -69 -202v-485h-277zM254 1090l-289 272h266l60 -64q5 -6 15.5 -17.5t14.5 -16.5q9 -12 17 -25q9 -14 10 -20h8q1 4 11 20q7 13 17 25q4 5 14.5 16.5t15.5 17.5l59 64h266l-288 -272h-197z" />
    <glyph glyph-name="Sacute" unicode="&#x15a;" horiz-adv-x="1255" 
d="M872 963q0 48 -9 81t-36 54q-26 20 -77 29q-57 10 -134 10q-68 0 -127 -9q-49 -7 -77 -25t-40 -46q-12 -29 -12 -70q0 -63 21 -97t56 -50q38 -17 82 -23q15 -2 97 -14q126 -18 217 -37q98 -20 177 -65q75 -43 119 -121q45 -81 45 -209q0 -99 -31 -177q-30 -75 -97 -122
t-174 -70q-104 -22 -258 -22q-162 0 -264 23q-106 24 -171 74t-92 128q-28 81 -28 184h275q0 -49 10 -80q10 -33 41 -54q32 -22 87 -31q57 -9 149 -9q84 0 133 7q55 8 85 25q32 18 45 46q13 27 13 72q0 62 -25 98q-24 35 -64 51q-44 18 -90 22q-36 3 -102 13
q-107 16 -215 41q-101 23 -169 68q-70 46 -109 124t-39 207q0 91 24 161q24 72 83 120q59 49 165 76q101 26 267 26q141 0 241 -21q99 -21 163 -71q63 -49 91 -127q29 -79 29 -190h-275zM473 1483l143 293h345l-259 -293h-229z" />
    <glyph glyph-name="sacute" unicode="&#x15b;" horiz-adv-x="968" 
d="M621 639q0 67 -34 88q-35 21 -110 21q-77 0 -108 -17t-31 -59q0 -54 37 -66q35 -11 104 -22q94 -12 172 -33t134 -55t88 -92t32 -140q0 -70 -22 -121q-22 -52 -73 -89q-48 -35 -132 -55q-80 -19 -201 -19q-227 0 -325 76q-99 76 -99 247h269q0 -70 40 -89q39 -19 119 -19
q87 0 118 16q32 17 32 57q0 28 -11 43q-13 18 -31 26t-48 13q-11 2 -32.5 4.5t-29.5 3.5q-72 10 -160 31q-74 17 -133 53q-56 34 -90 93q-33 57 -33 145q0 66 23 120q22 52 72 88q48 35 129 55q82 20 196 20q222 0 317 -77t95 -247h-274zM330 1073l143 293h344l-258 -293
h-229z" />
    <glyph glyph-name="Scircumflex" unicode="&#x15c;" horiz-adv-x="1255" 
d="M872 963q0 48 -9 81t-36 54q-26 20 -77 29q-57 10 -134 10q-68 0 -127 -9q-49 -7 -77 -25t-40 -46q-12 -29 -12 -70q0 -63 21 -97t56 -50q38 -17 82 -23q15 -2 97 -14q126 -18 217 -37q98 -20 177 -65q75 -43 119 -121q45 -81 45 -209q0 -99 -31 -177q-30 -75 -97 -122
t-174 -70q-104 -22 -258 -22q-162 0 -264 23q-106 24 -171 74t-92 128q-28 81 -28 184h275q0 -49 10 -80q10 -33 41 -54q32 -22 87 -31q57 -9 149 -9q84 0 133 7q55 8 85 25q32 18 45 46q13 27 13 72q0 62 -25 98q-24 35 -64 51q-44 18 -90 22q-36 3 -102 13
q-107 16 -215 41q-101 23 -169 68q-70 46 -109 124t-39 207q0 91 24 161q24 72 83 120q59 49 165 76q101 26 267 26q141 0 241 -21q99 -21 163 -71q63 -49 91 -127q29 -79 29 -190h-275zM733 1772l289 -273h-266l-60 64q-37 40 -47 59q-9 13 -10 20h-8q-1 -7 -10 -20
q-9 -16 -48 -59l-59 -64h-266l289 273h196z" />
    <glyph glyph-name="scircumflex" unicode="&#x15d;" horiz-adv-x="968" 
d="M621 639q0 67 -34 88q-35 21 -110 21q-77 0 -108 -17t-31 -59q0 -54 37 -66q35 -11 104 -22q94 -12 172 -33t134 -55t88 -92t32 -140q0 -70 -22 -121q-22 -52 -73 -89q-48 -35 -132 -55q-80 -19 -201 -19q-227 0 -325 76q-99 76 -99 247h269q0 -70 40 -89q39 -19 119 -19
q87 0 118 16q32 17 32 57q0 28 -11 43q-13 18 -31 26t-48 13q-11 2 -32.5 4.5t-29.5 3.5q-72 10 -160 31q-74 17 -133 53q-56 34 -90 93q-33 57 -33 145q0 66 23 120q22 52 72 88q48 35 129 55q82 20 196 20q222 0 317 -77t95 -247h-274zM590 1362l289 -272h-267l-59 63
q-37 40 -47 59q-9 12 -10 21h-9q-1 -9 -10 -21q-10 -19 -47 -59l-59 -63h-267l289 272h197z" />
    <glyph glyph-name="Scedilla" unicode="&#x15e;" horiz-adv-x="1255" 
d="M864 -242q0 -96 -80 -143t-196 -47q-56 0 -99 9q-42 9 -65 24v131q65 -31 133 -31q48 0 75 12t27 41q0 33 -33 52q-36 20 -112 26l16 150q-137 6 -223 32q-88 27 -145 77q-54 48 -79 124q-24 73 -24 174h275q0 -49 10 -80q10 -33 41 -54q32 -22 87 -31q57 -9 149 -9
q84 0 133 7q55 8 85 25q32 18 45 46q13 27 13 72q0 62 -25 98q-24 35 -64 51q-44 18 -90 22q-36 3 -102 13q-107 16 -215 41q-101 23 -169 68q-70 46 -109 124t-39 207q0 91 24 161q24 72 83 120q59 49 165 76q101 26 267 26q141 0 241 -21q99 -21 163 -71q63 -49 91 -127
q29 -79 29 -190h-275q0 48 -9 81t-36 54q-26 20 -77 29q-57 10 -134 10q-68 0 -127 -9q-49 -7 -77 -25t-40 -46q-12 -29 -12 -70q0 -63 21 -97t56 -50q38 -17 82 -23q15 -2 97 -14q126 -18 217 -37q98 -20 177 -65q75 -43 119 -121q45 -81 45 -209q0 -95 -28 -170
q-27 -72 -88 -119q-62 -48 -157 -72q-94 -23 -233 -28l-4 -60q200 -12 200 -164z" />
    <glyph glyph-name="scedilla" unicode="&#x15f;" horiz-adv-x="968" 
d="M723 -242q0 -96 -80 -143t-197 -47q-54 0 -98 9q-42 9 -65 24v131q65 -31 133 -31q48 0 75 12t27 41q0 33 -34 52q-36 20 -111 26l16 152q-179 12 -258 89q-78 77 -78 230h269q0 -69 41 -89q39 -19 118 -19q87 0 118 16q32 17 32 57q0 28 -11 43q-13 18 -31 26t-48 13
q-11 2 -32.5 4.5t-29.5 3.5q-72 10 -160 31q-74 17 -133 53q-56 34 -90 93q-33 57 -33 145q0 66 23 120q22 52 72 88q48 35 129 55q82 20 196 20q222 0 317 -77t95 -247h-274q0 67 -34 88q-35 21 -110 21q-77 0 -108 -17t-31 -59q0 -54 37 -66q35 -11 104 -22
q94 -12 172 -33t134 -55t88 -92t32 -140q0 -128 -85 -201q-86 -73 -294 -81l-4 -60q201 -12 201 -164z" />
    <glyph glyph-name="Scaron" unicode="&#x160;" horiz-adv-x="1255" 
d="M872 963q0 48 -9 81t-36 54q-26 20 -77 29q-57 10 -134 10q-68 0 -127 -9q-49 -7 -77 -25t-40 -46q-12 -29 -12 -70q0 -63 21 -97t56 -50q38 -17 82 -23q15 -2 97 -14q126 -18 217 -37q98 -20 177 -65q75 -43 119 -121q45 -81 45 -209q0 -99 -31 -177q-30 -75 -97 -122
t-174 -70q-104 -22 -258 -22q-162 0 -264 23q-106 24 -171 74t-92 128q-28 81 -28 184h275q0 -49 10 -80q10 -33 41 -54q32 -22 87 -31q57 -9 149 -9q84 0 133 7q55 8 85 25q32 18 45 46q13 27 13 72q0 62 -25 98q-24 35 -64 51q-44 18 -90 22q-36 3 -102 13
q-107 16 -215 41q-101 23 -169 68q-70 46 -109 124t-39 207q0 91 24 161q24 72 83 120q59 49 165 76q101 26 267 26q141 0 241 -21q99 -21 163 -71q63 -49 91 -127q29 -79 29 -190h-275zM537 1499l-289 273h266l59 -64l30 -35q15 -19 18 -24q9 -14 10 -21h8q1 7 10 21
q3 5 18 24q14 18 29 35l60 64h266l-289 -273h-196z" />
    <glyph glyph-name="scaron" unicode="&#x161;" horiz-adv-x="968" 
d="M621 639q0 67 -34 88q-35 21 -110 21q-77 0 -108 -17t-31 -59q0 -54 37 -66q35 -11 104 -22q94 -12 172 -33t134 -55t88 -92t32 -140q0 -70 -22 -121q-22 -52 -73 -89q-48 -35 -132 -55q-80 -19 -201 -19q-227 0 -325 76q-99 76 -99 247h269q0 -70 40 -89q39 -19 119 -19
q87 0 118 16q32 17 32 57q0 28 -11 43q-13 18 -31 26t-48 13q-11 2 -32.5 4.5t-29.5 3.5q-72 10 -160 31q-74 17 -133 53q-56 34 -90 93q-33 57 -33 145q0 66 23 120q22 52 72 88q48 35 129 55q82 20 196 20q222 0 317 -77t95 -247h-274zM393 1090l-289 272h267l59 -64
q5 -6 15.5 -17.5t14.5 -16.5q10 -12 17 -25q9 -14 10 -20h9q1 6 10 20q8 13 17 25q4 5 14.5 16.5t15.5 17.5l59 64h267l-289 -272h-197z" />
    <glyph glyph-name="Tcedilla" unicode="&#x162;" horiz-adv-x="1116" 
d="M817 -242q0 -96 -80 -143t-196 -47q-55 0 -99 9q-42 9 -65 24v131q65 -31 133 -31q48 0 75 12t27 41q0 33 -33 52q-36 20 -112 26l18 168h-65v1116h-400v236h1076v-236h-400v-1116h-73l-7 -78q201 -12 201 -164z" />
    <glyph glyph-name="tcedilla" unicode="&#x163;" horiz-adv-x="700" 
d="M670 727h-248v-358q0 -43 9 -73t33 -48q25 -19 62 -26q36 -7 101 -7v-215q-75 0 -138 6l-6 -84q201 -12 201 -164q0 -96 -80 -143t-196 -47q-56 0 -99 9q-42 9 -65 24v131q65 -31 133 -31q48 0 75 12t27 41q0 33 -34 52q-36 20 -111 26l22 205q-105 38 -157 116
q-54 82 -54 216v358h-125v215h125v184l277 62v-246h248v-215z" />
    <glyph glyph-name="Tcaron" unicode="&#x164;" horiz-adv-x="1116" 
d="M420 0v1116h-400v236h1076v-236h-400v-1116h-276zM459 1499l-289 273h266l60 -64q15 -17 29 -35q15 -19 18 -24q9 -14 10 -21h8q1 7 10 21q3 5 18 24q14 18 29 35l60 64h266l-289 -273h-196z" />
    <glyph glyph-name="tcaron" unicode="&#x165;" horiz-adv-x="700" 
d="M670 727h-248v-358q0 -43 9 -73t33 -48q25 -19 62 -26q36 -7 101 -7v-215q-115 0 -204 18t-151 62q-61 43 -94 114t-33 175v358h-125v215h125v184l277 62v-246h248v-215zM590 1241q18 0 46 2q22 2 37 12q15 11 24 33q10 25 10 64h-123v225h235v-225q0 -46 -8 -88
q-7 -38 -33 -67q-24 -27 -69 -42q-42 -14 -119 -14v100z" />
    <glyph glyph-name="Tbar" unicode="&#x166;" horiz-adv-x="1116" 
d="M420 0v778h-184v164h184v174h-400v236h1076v-236h-400v-174h185v-164h-185v-778h-276z" />
    <glyph glyph-name="tbar" unicode="&#x167;" horiz-adv-x="700" 
d="M670 438h-248v-69q0 -43 9 -73t33 -48q25 -19 62 -26q36 -7 101 -7v-215q-115 0 -204 18t-151 62q-61 43 -94 114t-33 175v69h-125v174h125v156h-125v174h125v184l277 62v-246h248v-174h-248v-156h248v-174z" />
    <glyph glyph-name="Utilde" unicode="&#x168;" horiz-adv-x="1376" 
d="M975 1352h276v-676q0 -202 -32 -331q-33 -133 -103 -215q-69 -81 -175 -116q-103 -34 -253 -34t-253 34q-106 35 -175 116t-102 215q-33 133 -33 331v676h276v-676q0 -127 17 -218q17 -92 52 -143q36 -52 90 -76t128 -24t128 24t90 76q35 51 52 143q17 91 17 218v676z
M825 1497q-47 0 -72 12q-26 12 -61 35q-14 9 -33 22t-24 16q-20 13 -43 13q-62 0 -62 -100h-151q0 39 5 87q4 40 24 80q17 35 53 58q35 23 94 23q44 0 67 -11q26 -12 54 -30q21 -15 57 -41q22 -16 51 -16t40 20q12 21 12 74h159q0 -53 -4 -92q-5 -45 -20 -77
q-16 -34 -50 -53q-35 -20 -96 -20z" />
    <glyph glyph-name="utilde" unicode="&#x169;" horiz-adv-x="1140" 
d="M387 942v-471q0 -90 7 -140q8 -55 24 -85q17 -31 45 -41q27 -10 69 -10q104 0 151 56q48 56 52 191v500h277v-942h-215l-52 133q-35 -91 -99 -122q-63 -31 -171 -31q-106 0 -175 28q-72 29 -113 88q-41 58 -59 153q-17 88 -17 222v471h276zM709 1087q-45 0 -73 13
q-23 11 -60 35q-13 8 -32 20t-26 17q-22 14 -43 14q-61 0 -61 -101h-152q0 39 5 87q4 40 24 80q18 36 53 59q34 22 94 22q44 0 67 -11q25 -12 54 -30q21 -15 57 -41q22 -16 52 -16q29 0 40 20q11 19 11 74h160q0 -53 -4 -92q-4 -42 -21 -77q-16 -34 -50 -53q-35 -20 -95 -20
z" />
    <glyph glyph-name="Umacron" unicode="&#x16a;" horiz-adv-x="1376" 
d="M975 1352h276v-676q0 -202 -32 -331q-33 -133 -103 -215q-69 -81 -175 -116q-103 -34 -253 -34t-253 34q-106 35 -175 116t-102 215q-33 133 -33 331v676h276v-676q0 -127 17 -218q17 -92 52 -143q36 -52 90 -76t128 -24t128 24t90 76q35 51 52 143q17 91 17 218v676z
M324 1534v143h727v-143h-727z" />
    <glyph glyph-name="umacron" unicode="&#x16b;" horiz-adv-x="1140" 
d="M387 942v-471q0 -90 7 -140q8 -55 24 -85q17 -31 45 -41q27 -10 69 -10q104 0 151 56q48 56 52 191v500h277v-942h-215l-52 133q-35 -91 -99 -122q-63 -31 -171 -31q-106 0 -175 28q-72 29 -113 88q-41 58 -59 153q-17 88 -17 222v471h276zM207 1124v144h727v-144h-727z
" />
    <glyph glyph-name="Ubreve" unicode="&#x16c;" horiz-adv-x="1376" 
d="M975 1352h276v-676q0 -202 -32 -331q-33 -133 -103 -215q-69 -81 -175 -116q-103 -34 -253 -34t-253 34q-106 35 -175 116t-102 215q-33 133 -33 331v676h276v-676q0 -127 17 -218q17 -92 52 -143q36 -52 90 -76t128 -24t128 24t90 76q35 51 52 143q17 91 17 218v676z
M688 1659q133 0 133 98h187q0 -136 -80 -199t-240 -63t-239 63q-80 63 -80 199h186q0 -98 133 -98z" />
    <glyph glyph-name="ubreve" unicode="&#x16d;" horiz-adv-x="1140" 
d="M387 942v-471q0 -90 7 -140q8 -55 24 -85q17 -31 45 -41q27 -10 69 -10q104 0 151 56q48 56 52 191v500h277v-942h-215l-52 133q-35 -91 -99 -122q-63 -31 -171 -31q-106 0 -175 28q-72 29 -113 88q-41 58 -59 153q-17 88 -17 222v471h276zM569 1249q133 0 133 99h187
q0 -137 -80 -200q-79 -63 -240 -63q-159 0 -239 63t-80 200h186q0 -99 133 -99z" />
    <glyph glyph-name="Uring" unicode="&#x16e;" horiz-adv-x="1376" 
d="M975 1352h276v-676q0 -202 -32 -331q-33 -133 -103 -215q-69 -81 -175 -116q-103 -34 -253 -34t-253 34q-106 35 -175 116t-102 215q-33 133 -33 331v676h276v-676q0 -127 17 -218q17 -92 52 -143q36 -52 90 -76t128 -24t128 24t90 76q35 51 52 143q17 91 17 218v676z
M688 1481q-92 0 -140 53q-48 52 -48 131q0 73 51 125q51 53 137 53t137 -53q52 -54 52 -125q0 -77 -49 -131q-48 -53 -140 -53zM688 1745q-38 0 -59 -24t-21 -58q0 -30 20 -55t60 -25q41 0 61 25q19 23 19 55q0 35 -20 58q-21 24 -60 24z" />
    <glyph glyph-name="uring" unicode="&#x16f;" horiz-adv-x="1140" 
d="M387 942v-471q0 -90 7 -140q8 -55 24 -85q17 -31 45 -41q27 -10 69 -10q104 0 151 56q48 56 52 191v500h277v-942h-215l-52 133q-35 -91 -99 -122q-63 -31 -171 -31q-106 0 -175 28q-72 29 -113 88q-41 58 -59 153q-17 88 -17 222v471h276zM569 1071q-92 0 -140 53
q-48 52 -48 131q0 73 51 125q52 54 137 54q86 0 138 -54q51 -52 51 -125q0 -79 -48 -131q-48 -53 -141 -53zM569 1335q-39 0 -59 -23q-21 -24 -21 -59q0 -30 20 -55q19 -24 60 -24t61 24q19 23 19 55q0 36 -20 59t-60 23z" />
    <glyph glyph-name="Uhungarumlaut" unicode="&#x170;" horiz-adv-x="1376" 
d="M975 1352h276v-676q0 -202 -32 -331q-33 -133 -103 -215q-69 -81 -175 -116q-103 -34 -253 -34t-253 34q-106 35 -175 116t-102 215q-33 133 -33 331v676h276v-676q0 -127 17 -218q17 -92 52 -143q36 -52 90 -76t128 -24t128 24t90 76q35 51 52 143q17 91 17 218v676z
M303 1483l107 293h268l-201 -293h-174zM643 1483l143 293h287l-237 -293h-193z" />
    <glyph glyph-name="uhungarumlaut" unicode="&#x171;" horiz-adv-x="1140" 
d="M387 942v-471q0 -90 7 -140q8 -55 24 -85q17 -31 45 -41q27 -10 69 -10q104 0 151 56q48 56 52 191v500h277v-942h-215l-52 133q-35 -91 -99 -122q-63 -31 -171 -31q-106 0 -175 28q-72 29 -113 88q-41 58 -59 153q-17 88 -17 222v471h276zM184 1073l107 293h268
l-201 -293h-174zM524 1073l144 293h286l-237 -293h-193z" />
    <glyph glyph-name="Uogonek" unicode="&#x172;" horiz-adv-x="1376" 
d="M543 -186q0 56 16 97q17 44 45 73q-123 7 -215 49q-89 40 -148 123q-59 82 -87 210q-29 130 -29 310v676h276v-676q0 -127 17 -218q17 -92 52 -143q36 -52 90 -76t128 -24t128 24t90 76q35 51 52 143q17 91 17 218v676h276v-676q0 -171 -23 -287q-24 -120 -72 -203
q-47 -81 -123 -128q-74 -46 -177 -64q-49 -12 -82 -42t-33 -91q0 -43 21 -67q20 -23 67 -23q21 0 65 6q46 6 91 28v-141q-41 -29 -102 -41q-62 -12 -113 -12q-95 0 -162 47q-65 46 -65 156z" />
    <glyph glyph-name="uogonek" unicode="&#x173;" horiz-adv-x="1140" 
d="M387 942v-471q0 -90 7 -140q8 -55 24 -85q17 -31 45 -41q27 -10 69 -10q110 0 156 62q47 64 47 214v471h277v-942q-61 0 -105 -34q-45 -34 -45 -105q0 -43 21 -67q20 -23 67 -23q22 0 65 6q46 6 91 28v-141q-41 -29 -102 -41q-62 -12 -113 -12q-95 0 -162 47
q-65 46 -65 156q0 86 36 136q38 52 84 81l-39 102q-35 -91 -99 -122q-63 -31 -171 -31q-106 0 -175 28q-72 29 -113 88q-41 58 -59 153q-17 88 -17 222v471h276z" />
    <glyph glyph-name="Wcircumflex" unicode="&#x174;" horiz-adv-x="1794" 
d="M940 596q-10 62 -18 125q-12 101 -13 108q-7 62 -8 105h-8q-7 -79 -10 -105q-4 -36 -14 -108q-14 -94 -19 -127l-129 -594h-336l-348 1352h278l189 -764q14 -75 20 -127q12 -97 13 -109q4 -33 10 -106h8q6 73 10 106q1 12 13 109q8 63 18 125l127 561h348l127 -561
q16 -84 21 -124q7 -55 12 -108q7 -62 8 -108h8q1 44 8 106q1 12 13 109q8 65 22 127l189 764h278l-348 -1352h-336zM995 1772l289 -273h-266l-60 64q-37 40 -47 59q-9 12 -10 20h-8q-1 -7 -10 -20q-10 -19 -47 -59l-60 -64h-266l289 273h196z" />
    <glyph glyph-name="wcircumflex" unicode="&#x175;" horiz-adv-x="1542" 
d="M809 432q-16 76 -21 112q-8 55 -12 97q-6 51 -6 96h-8q-1 -39 -8 -96q-4 -42 -12 -97q-9 -62 -19 -114l-92 -430h-336l-275 942h279l96 -373q19 -75 30 -137q9 -50 17 -117q11 -87 13 -112h8q4 51 12 112q5 43 17 118q13 80 26 138l74 371h348l74 -371q4 -21 8.5 -44.5
t9 -51t7.5 -42.5q12 -64 18 -118q8 -61 12 -112h8q1 41 10 112q6 51 18 117q13 72 32 137l106 373h279l-285 -942h-336zM868 1362l289 -272h-266l-60 63q-37 40 -47 59q-9 12 -10 21h-8q-1 -9 -10 -21q-10 -19 -47 -59l-60 -63h-266l289 272h196z" />
    <glyph glyph-name="Ycircumflex" unicode="&#x176;" horiz-adv-x="1222" 
d="M516 977q30 -60 48 -108q15 -39 28 -83q9 -32 14 -71h8q4 31 15 71q19 61 26 82q16 45 47 107l197 377h303l-454 -875v-477h-277v477l-451 875h306zM709 1772l288 -273h-266l-59 64q-37 40 -47 59q-10 14 -11 20h-8q-1 -7 -10 -20q-10 -19 -47 -59l-60 -64h-266l289 273
h197z" />
    <glyph glyph-name="ycircumflex" unicode="&#x177;" horiz-adv-x="1011" 
d="M426 512q21 -73 33 -127l20 -96q12 -75 13 -82h8q4 37 12 84q6 30 20 95q12 52 35 124l142 432h288l-385 -1030q-78 -209 -199 -306q-122 -98 -261 -98v236q31 0 62 19q30 19 60 50q31 33 53 67t35 75l-358 987h289zM604 1362l289 -272h-266l-60 63q-37 40 -47 59
q-9 12 -10 21h-8q-1 -9 -10 -21q-9 -16 -48 -59l-59 -63h-266l289 272h196z" />
    <glyph glyph-name="Ydieresis" unicode="&#x178;" horiz-adv-x="1222" 
d="M516 977q30 -60 48 -108q15 -39 28 -83q9 -32 14 -71h8q4 31 15 71q19 61 26 82q16 45 47 107l197 377h303l-454 -875v-477h-277v477l-451 875h306zM299 1495v246h236v-246h-236zM688 1495v246h236v-246h-236z" />
    <glyph glyph-name="Zacute" unicode="&#x179;" horiz-adv-x="1138" 
d="M57 0v236l676 880h-676v236h1024v-236l-675 -880h675v-236h-1024zM326 1483l143 293h344l-258 -293h-229z" />
    <glyph glyph-name="zacute" unicode="&#x17a;" horiz-adv-x="954" 
d="M57 0v215l482 512h-482v215h840v-215l-481 -512h481v-215h-840zM295 1073l143 293h344l-258 -293h-229z" />
    <glyph glyph-name="Zdotaccent" unicode="&#x17b;" horiz-adv-x="1138" 
d="M57 0v236l676 880h-676v236h1024v-236l-675 -880h675v-236h-1024zM451 1495v246h235v-246h-235z" />
    <glyph glyph-name="zdotaccent" unicode="&#x17c;" horiz-adv-x="954" 
d="M57 0v215l482 512h-482v215h840v-215l-481 -512h481v-215h-840zM358 1085v246h236v-246h-236z" />
    <glyph glyph-name="Zcaron" unicode="&#x17d;" horiz-adv-x="1138" 
d="M57 0v236l676 880h-676v236h1024v-236l-675 -880h675v-236h-1024zM471 1499l-289 273h267l59 -64l30 -35q12 -14 17 -24q9 -14 10 -21h8q1 5 11 21q6 10 17 24l30 35l59 64h266l-288 -273h-197z" />
    <glyph glyph-name="zcaron" unicode="&#x17e;" horiz-adv-x="954" 
d="M57 0v215l482 512h-482v215h840v-215l-481 -512h481v-215h-840zM379 1090l-289 272h266l60 -64q27 -32 29 -34q13 -16 18 -25q9 -14 10 -20h8q1 4 11 20q8 13 17 25q4 5 14.5 16.5t15.5 17.5l59 64h266l-289 -272h-196z" />
    <glyph glyph-name="longs" unicode="&#x17f;" horiz-adv-x="669" 
d="M147 0v727h-124v215h124v123q0 208 135 293q133 84 429 76v-215q-81 4 -142 -4q-57 -8 -87 -25q-31 -18 -45 -50q-13 -30 -13 -75v-1065h-277z" />
    <glyph glyph-name="uni0186" unicode="&#x186;" horiz-adv-x="1255" 
d="M311 389q0 -61 26 -96q25 -34 65 -52q39 -17 86 -22q41 -4 90 -4q90 0 146 14q61 15 98 64q38 51 56 140q17 86 17 245t-17 245q-18 90 -56 139q-37 48 -100 61q-65 14 -151 14q-44 0 -96 -5q-46 -4 -83 -23q-36 -18 -58 -52q-23 -35 -23 -94h-276q0 124 41 204t113 125
t172 63q94 17 214 17q155 0 267 -30q114 -30 186 -107q75 -79 109 -213q34 -133 34 -344q0 -210 -34 -345q-34 -134 -108 -214q-73 -79 -183 -109q-111 -30 -262 -30q-114 0 -210 16q-101 17 -174 62q-76 47 -120 125q-45 79 -45 206h276z" />
    <glyph glyph-name="uni0189" unicode="&#x189;" horiz-adv-x="1368" 
d="M158 0v563h-158v234h158v555h420q185 0 317 -34q134 -35 220 -113q88 -81 128 -209q41 -132 41 -320q0 -189 -41 -321q-40 -128 -128 -209q-84 -77 -220 -112q-132 -34 -317 -34h-420zM578 236q114 0 193 22q80 22 133 74q53 51 78 136q26 87 26 208t-26 208
q-25 85 -78 136q-53 52 -133 74q-79 22 -193 22h-144v-319h211v-234h-211v-327h144z" />
    <glyph glyph-name="uni018E" unicode="&#x18e;" horiz-adv-x="1181" 
d="M102 0v236h646v327h-564v234h564v319h-646v236h922v-1352h-922z" />
    <glyph glyph-name="uni018F" unicode="&#x18f;" horiz-adv-x="1347" 
d="M82 711q0 199 35 328q35 128 107 202q72 73 181 102q110 29 256 29q157 0 269 -36q113 -36 186 -118q74 -83 110 -217q36 -133 36 -329q0 -191 -35 -325q-34 -129 -108 -214q-71 -82 -185 -118q-109 -35 -266 -35q-117 0 -214 22q-100 23 -173 72q-75 50 -116 127
q-42 78 -42 188h276q0 -51 21 -87q22 -37 56 -57q39 -22 84 -31q48 -9 104 -9q80 0 136 20q58 21 97 67q38 45 59 122t27 186h-901v111zM651 1147q-65 0 -115 -12q-48 -12 -86 -48q-37 -36 -58 -98q-23 -69 -30 -164h615q-23 179 -101 250q-80 72 -225 72z" />
    <glyph glyph-name="uni0190" unicode="&#x190;" horiz-adv-x="1273" 
d="M127 987q-8 87 17 155q26 71 92 122t173 79q110 29 263 29q264 0 391 -93t127 -316h-275q0 51 -11 83q-12 34 -40 53t-78 28q-55 10 -124 10q-142 0 -200 -33q-59 -33 -59 -119q0 -55 21 -91t55 -57q37 -22 81 -31q46 -9 99 -9h95v-234h-101q-59 0 -108 -10
q-52 -11 -89 -33q-40 -24 -61 -59q-22 -37 -22 -92q0 -88 64 -121t214 -33q85 0 140 9t87 30q32 22 45 54q13 33 13 81h274q0 -107 -29 -182q-30 -79 -96 -128q-69 -52 -170 -75q-105 -24 -253 -24q-286 0 -426 90t-140 280q0 153 84 229q83 76 236 103q-124 29 -201 100
q-78 72 -88 205z" />
    <glyph glyph-name="uni0191" unicode="&#x191;" horiz-adv-x="1148" 
d="M434 797h563v-234h-563v-721q0 -66 -18 -126q-17 -58 -64 -106q-46 -48 -121 -74q-79 -28 -190 -28v222q52 0 84 19q33 20 33 73v1530h921v-236h-645v-319z" />
    <glyph glyph-name="florin" unicode="&#x192;" horiz-adv-x="669" 
d="M424 727v-885q0 -66 -18 -126q-17 -58 -64 -106q-46 -48 -121 -74q-79 -28 -190 -28v222q52 0 84 19t32 73v905h-124v215h124v123q0 208 135 293q133 84 429 76v-215q-81 4 -142 -4q-57 -8 -87 -25q-31 -18 -45 -50q-13 -30 -13 -75v-123h248v-215h-248z" />
    <glyph glyph-name="uni019D" unicode="&#x19d;" horiz-adv-x="1431" 
d="M895 584q41 -87 51 -107q9 -18 22.5 -46.5t16.5 -35.5q21 -45 29 -71h8l-12 75q-4 35 -9 75q-4 36 -4 81v797h277v-1352h-338l-399 768q-7 14 -18.5 36.5t-20 39t-14.5 30.5q-21 46 -38 82q-16 36 -28 72h-8q8 -50 12 -76q2 -13 4.5 -39.5t3.5 -34.5q4 -36 4 -81v-955
q0 -66 -18 -126q-17 -58 -64 -106q-46 -48 -121 -74q-79 -28 -190 -28v222q52 0 84 19q33 20 33 73v1530h338z" />
    <glyph glyph-name="uni019E" unicode="&#x19e;" horiz-adv-x="1148" 
d="M129 0v942h215l49 -133q33 90 100 122t173 32q103 0 175 -29q70 -28 112 -88t60 -153q17 -88 17 -222v-963h-276v963q0 82 -8 140q-8 59 -24 85q-18 31 -45 41q-28 11 -69 11q-104 0 -151 -57t-51 -191v-500h-277z" />
    <glyph glyph-name="uni019F" unicode="&#x19f;" horiz-adv-x="1417" 
d="M709 -20q-165 0 -282 34q-116 34 -194 116q-73 78 -112 215q-37 132 -37 331t37 331q39 137 112 215q76 81 194 115q120 35 282 35q160 0 280 -35q119 -35 195 -115q73 -78 112 -215q37 -132 37 -331t-37 -331q-39 -137 -112 -215q-77 -82 -195 -116q-117 -34 -280 -34z
M709 215q158 0 243 77t101 271h-688q16 -195 100 -271q85 -77 244 -77zM709 1137q-157 0 -242 -77q-84 -76 -102 -263h686q-18 185 -102 263q-83 77 -240 77z" />
    <glyph glyph-name="Ohorn" unicode="&#x1a0;" horiz-adv-x="1558" 
d="M709 -20q-165 0 -282 34q-116 34 -194 116q-73 78 -112 215q-37 132 -37 331t37 331q39 137 112 215q76 81 194 115q120 35 282 35q185 0 309 -45q125 -45 201 -149q24 -29 56 -50q30 -20 85 -20q49 0 70 20q22 21 22 68q0 22 -6 65t-29 91h142q28 -39 40 -103
q13 -67 13 -114q0 -51 -11 -88q-13 -43 -36 -72q-24 -30 -65 -48q-40 -18 -99 -18q-24 0 -45 3q-11 2 -41 8q18 -108 18 -244q0 -199 -37 -331q-39 -137 -112 -215q-77 -82 -195 -116q-117 -34 -280 -34zM709 215q89 0 155 24t109 76q41 49 63 143q21 88 21 218
q0 128 -21 217q-21 90 -63 142q-44 54 -109 78q-66 24 -155 24q-90 0 -156 -24q-65 -24 -109 -78q-42 -52 -63 -142q-21 -89 -21 -217q0 -130 21 -218q22 -94 63 -143q43 -52 109 -76t156 -24z" />
    <glyph glyph-name="ohorn" unicode="&#x1a1;" horiz-adv-x="1193" 
d="M528 -20q-120 0 -206 24t-144 82q-57 57 -84 152q-26 91 -26 233q0 143 26 234q27 94 84 151q58 58 144 82q89 25 206 25q162 0 264 -45q100 -44 150 -158q15 -21 38 -42q22 -20 54 -20q56 0 56 82q0 18 -7 70q-6 47 -28 92h141q29 -42 41 -103q12 -63 12 -118
q0 -45 -9 -85t-29 -71t-53 -48t-83 -17t-88 16q0 -14 1 -22t1 -23q0 -142 -26 -233q-27 -95 -84 -152q-58 -58 -145 -82t-206 -24zM528 195q104 0 144 60q41 61 41 216t-41 216t-144 61q-102 0 -143 -61t-41 -216t41 -216q41 -60 143 -60z" />
    <glyph glyph-name="uni01A7" unicode="&#x1a7;" horiz-adv-x="1241" 
d="M92 963q0 111 29 190q28 78 91 127q64 50 163 71q101 21 241 21q166 0 267 -26q106 -27 165 -76q60 -50 84 -120q23 -68 23 -161q0 -130 -40 -207q-41 -78 -110 -124q-68 -45 -168 -68q-105 -24 -214 -41q-66 -10 -102 -13q-46 -4 -90 -22q-40 -16 -64 -51
q-25 -36 -25 -98q0 -45 13 -72q13 -28 45 -46q30 -17 85 -25q49 -7 133 -7q92 0 149 9q55 9 87 31q31 21 41 54q10 31 10 80h275q0 -103 -28 -184q-27 -78 -92 -128t-171 -74q-102 -23 -264 -23q-154 0 -258 22q-105 22 -173 70q-69 48 -98 122q-30 75 -30 177q0 130 44 209
q44 78 119 121q78 44 178 65q94 19 216 37q82 12 97 14q44 6 82 23q35 16 56 50t21 97q0 41 -12 70q-12 28 -40 46q-27 17 -78 25q-59 9 -126 9q-80 0 -135 -10q-51 -9 -76 -29q-27 -21 -36 -54t-9 -81h-275z" />
    <glyph glyph-name="uni01A8" unicode="&#x1a8;" horiz-adv-x="952" 
d="M68 639q0 170 95 247t316 77q115 0 197 -20q81 -20 129 -55q50 -36 72 -88q22 -51 22 -120q0 -89 -34 -145q-37 -61 -90 -93q-59 -36 -132 -53q-88 -21 -160 -31q-4 -1 -27.5 -3.5t-34.5 -4.5q-29 -5 -47 -13t-31 -26q-11 -15 -11 -43q0 -40 33 -57q32 -16 116 -16
q80 0 119 19q41 20 41 89h268q0 -171 -98 -247t-326 -76q-120 0 -200 19q-84 20 -132 55q-51 37 -73 89q-23 54 -23 121q0 82 32 140t88 92t134 55t172 33q71 11 105 22q37 12 37 66q0 42 -31 59t-109 17q-75 0 -109 -21t-34 -88h-274z" />
    <glyph glyph-name="Uhorn" unicode="&#x1af;" horiz-adv-x="1591" 
d="M975 1352h276v-174q23 -27 57 -50q30 -20 85 -20q48 0 69 20q23 21 23 68q0 22 -6 65t-29 91h141q29 -41 41 -103q13 -67 13 -114t-12 -88q-13 -43 -36 -72q-24 -30 -64 -48q-41 -18 -99 -18q-62 0 -107 18q-49 20 -76 44v-295q0 -202 -32 -331q-33 -133 -103 -215
q-69 -81 -175 -116q-103 -34 -253 -34t-253 34q-106 35 -175 116t-102 215q-33 133 -33 331v676h276v-676q0 -127 17 -218q17 -92 52 -143q36 -52 90 -76t128 -24t128 24t90 76q35 51 52 143q17 91 17 218v676z" />
    <glyph glyph-name="uhorn" unicode="&#x1b0;" horiz-adv-x="1269" 
d="M387 942v-471q0 -90 7 -140q8 -55 24 -85q17 -31 45 -41q27 -10 69 -10q104 0 151 56q48 56 52 191v500h277v-174q18 -26 39 -47q23 -23 57 -23q55 0 55 82q0 25 -6 70q-6 44 -29 92h142q29 -42 41 -103q12 -63 12 -118q0 -45 -9 -85t-29 -71t-53 -48t-83 -17
q-46 0 -79 13q-34 13 -58 36v-549h-215l-52 133q-35 -91 -99 -122q-63 -31 -171 -31q-106 0 -175 28q-72 29 -113 88q-41 58 -59 153q-17 88 -17 222v471h276z" />
    <glyph glyph-name="uni01B5" unicode="&#x1b5;" horiz-adv-x="1138" 
d="M672 584l-266 -348h675v-236h-1024v236l267 348h-240v192h387l262 340h-676v236h1024v-236l-262 -340h238v-192h-385z" />
    <glyph glyph-name="uni01B6" unicode="&#x1b6;" horiz-adv-x="954" 
d="M57 0v215l158 168h-137v184h309l152 160h-482v215h840v-215l-152 -160h134v-184h-306l-157 -168h481v-215h-840z" />
    <glyph glyph-name="uni01BB" unicode="&#x1bb;" horiz-adv-x="1126" 
d="M72 0v236l348 348h-336v192h530q23 21 42 41q26 28 50 59q21 27 39 67q17 37 17 71q0 63 -46 93t-157 30t-159 -36t-48 -138h-274q0 226 122 318q121 91 355 91q252 0 368 -89q115 -88 115 -247q0 -94 -29 -156t-61 -104h109v-192h-297l-344 -348h628v-236h-972z" />
    <glyph glyph-name="uni01C4" unicode="&#x1c4;" horiz-adv-x="2463" 
d="M578 236q114 0 193 22q80 22 133 74q53 51 78 136q26 87 26 208t-26 208q-25 85 -78 136q-53 52 -133 74q-79 22 -193 22h-144v-880h144zM158 0v1352h420q185 0 317 -34q134 -35 220 -113q88 -81 128 -209q41 -132 41 -320q0 -189 -41 -321q-40 -128 -128 -209
q-84 -77 -220 -112q-132 -34 -317 -34h-420zM1425 0v236l676 880h-676v236h1024v-236l-675 -880h675v-236h-1024zM1839 1499l-289 273h267l59 -64l30 -35q12 -14 17 -24q9 -14 10 -21h9q1 7 10 21q6 10 17 24q4 4 8.5 9.5t11 13t10.5 12.5l59 64h266l-288 -273h-197z" />
    <glyph glyph-name="uni01C5" unicode="&#x1c5;" horiz-adv-x="2322" 
d="M578 236q114 0 193 22q80 22 133 74q53 51 78 136q26 87 26 208t-26 208q-25 85 -78 136q-53 52 -133 74q-79 22 -193 22h-144v-880h144zM158 0v1352h420q185 0 317 -34q134 -35 220 -113q88 -81 128 -209q41 -132 41 -320q0 -189 -41 -321q-40 -128 -128 -209
q-84 -77 -220 -112q-132 -34 -317 -34h-420zM1425 0v215l482 512h-482v215h840v-215l-481 -512h481v-215h-840zM1747 1090l-289 272h266l60 -64q5 -6 15.5 -17.5t14.5 -16.5q10 -12 17 -25q9 -14 10 -20h8q1 4 11 20q8 13 17 25q4 5 14.5 16.5t15.5 17.5l59 64h266
l-288 -272h-197z" />
    <glyph glyph-name="uni01C6" unicode="&#x1c6;" horiz-adv-x="2093" 
d="M487 -20q-108 0 -185 26q-79 27 -131 85q-53 59 -78 153q-25 93 -25 227t25 227q25 94 78 153q52 58 131 85t185 27q96 0 158 -32q61 -31 94 -116h9q-1 15 -5 46.5t-5 47.5q-5 52 -5 95v399l277 31v-1434h-215l-47 141q-33 -92 -97 -127q-62 -34 -164 -34zM535 195
q105 0 151 63q47 64 47 213t-47 213t-151 64q-51 0 -90 -13q-34 -11 -58 -43q-22 -29 -33 -84q-10 -50 -10 -137t10 -137q11 -55 33 -84q24 -32 58 -43q36 -12 90 -12zM1196 0v215l481 512h-481v215h840v-215l-482 -512h482v-215h-840zM1518 1090l-289 272h266l59 -64
q5 -6 15.5 -17.5t14.5 -16.5q13 -16 18 -25q9 -14 10 -20h8q1 6 10 20q5 9 18 25q2 2 29 34l60 64h266l-289 -272h-196z" />
    <glyph glyph-name="uni01C7" unicode="&#x1c7;" horiz-adv-x="2113" 
d="M158 0v1352h276v-1116h604v-236h-880zM1712 1352h277v-963q0 -195 -106 -303q-105 -106 -343 -106q-226 0 -335 97t-109 312h268q0 -97 43 -140q44 -44 135 -44q79 0 125 38q45 37 45 146v963z" />
    <glyph glyph-name="uni01C8" unicode="&#x1c8;" horiz-adv-x="1687" 
d="M158 0v1352h276v-1116h604v-236h-880zM1530 -158q0 -63 -19 -126q-18 -59 -63 -106q-46 -48 -121 -74q-79 -28 -190 -28v222q52 0 84 19t32 73v1120h277v-1100zM1253 1126v226h277v-226h-277z" />
    <glyph glyph-name="uni01C9" unicode="&#x1c9;" horiz-adv-x="1142" 
d="M504 0q-112 0 -191 28q-75 26 -120 73q-46 48 -64 107q-18 60 -18 126v1069l276 31v-1100q0 -64 33 -88q34 -25 84 -25v-221zM985 -158q0 -66 -18 -126q-17 -58 -64 -106q-46 -48 -121 -74q-79 -28 -190 -28v222q52 0 84 19q33 20 33 73v1120h276v-1100zM709 1126v226
h276v-226h-276z" />
    <glyph glyph-name="uni01CA" unicode="&#x1ca;" horiz-adv-x="2449" 
d="M895 584q41 -87 51 -107q9 -18 22.5 -46.5t16.5 -35.5q21 -45 29 -71h8l-12 75q-4 35 -9 75q-4 36 -4 81v797h277v-1352h-338l-399 768q-7 14 -18.5 36.5t-20 39t-14.5 30.5q-21 46 -38 82q-16 36 -28 72h-8q8 -50 12 -76q2 -13 4.5 -39.5t3.5 -34.5q4 -36 4 -81v-797
h-276v1352h338zM2048 1352h276v-963q0 -197 -105 -303t-343 -106q-226 0 -335 97t-109 312h268q0 -97 43 -140q44 -44 135 -44q79 0 125 38q45 37 45 146v963z" />
    <glyph glyph-name="uni01CB" unicode="&#x1cb;" horiz-adv-x="2023" 
d="M895 584q41 -87 51 -107q9 -18 22.5 -46.5t16.5 -35.5q21 -45 29 -71h8l-12 75q-4 35 -9 75q-4 36 -4 81v797h277v-1352h-338l-399 768q-7 14 -18.5 36.5t-20 39t-14.5 30.5q-21 46 -38 82q-16 36 -28 72h-8q8 -50 12 -76q2 -13 4.5 -39.5t3.5 -34.5q4 -36 4 -81v-797
h-276v1352h338zM1866 -158q0 -63 -19 -126q-18 -59 -63 -106q-46 -48 -121 -74q-79 -28 -190 -28v222q51 0 83 19q33 20 33 73v1120h277v-1100zM1589 1126v226h277v-226h-277z" />
    <glyph glyph-name="uni01CC" unicode="&#x1cc;" horiz-adv-x="1740" 
d="M129 0v942h215l49 -133q33 90 100 122t175 32q105 0 174 -24q68 -24 111 -74q42 -49 60 -128q17 -74 17 -184v-553h-276v553q0 59 -8 99q-8 41 -23 60q-16 20 -42 28q-27 8 -65 8q-110 0 -158 -56q-47 -55 -52 -192v-500h-277zM1583 -158q0 -66 -18 -126
q-17 -58 -64 -106q-46 -48 -121 -74q-79 -28 -190 -28v222q52 0 84 19q33 20 33 73v1120h276v-1100zM1307 1126v226h276v-226h-276z" />
    <glyph glyph-name="uni01CD" unicode="&#x1cd;" horiz-adv-x="1374" 
d="M975 250h-576l-96 -250h-283l543 1352h252l539 -1352h-283zM489 485h396l-97 252q-31 80 -47 136q-15 53 -28 110q-14 62 -19 98h-8q-3 -14 -10.5 -47.5t-11.5 -52.5q-13 -52 -30 -110q-18 -64 -46 -134zM588 1499l-289 273h266l60 -64q15 -17 29 -35q15 -19 18 -24
q9 -14 10 -21h8q1 7 10 21q3 5 18 24l30 35l59 64h266l-289 -273h-196z" />
    <glyph glyph-name="uni01CE" unicode="&#x1ce;" horiz-adv-x="1046" 
d="M1012 -10q-87 0 -143 10q-59 11 -95 28t-56 42q-21 26 -28 53q-34 -87 -97 -115t-171 -28q-72 0 -133 11q-67 12 -117 43q-52 32 -83 88q-32 58 -32 146q0 102 39 158q40 56 99 83q62 28 131 35q41 4 137 13l196 18v76q0 55 -29 75q-31 22 -112 22q-87 0 -114 -25
q-25 -24 -25 -84h-275q0 174 99 249t315 75q114 0 197 -22q80 -21 129 -61t70 -98q22 -60 22 -131v-368q0 -37 21 -58q20 -20 55 -20v-215zM446 205q100 0 149 38q48 37 60 140l-192 -18q-76 -7 -104 -24q-25 -15 -25 -62q0 -42 22 -58t90 -16zM424 1090l-289 272h266
l60 -64q27 -32 29 -34q13 -16 18 -25q9 -14 10 -20h8q1 4 11 20q7 13 17 25q4 5 14.5 16.5t15.5 17.5l59 64h266l-288 -272h-197z" />
    <glyph glyph-name="uni01CF" unicode="&#x1cf;" horiz-adv-x="591" 
d="M158 0v1352h276v-1352h-276zM201 1499l-289 273h266l60 -64q15 -17 29 -35q15 -19 18 -24q9 -14 10 -21h8q1 7 10 21q3 5 18 24q14 18 29 35l60 64h266l-289 -273h-196z" />
    <glyph glyph-name="uni01D0" unicode="&#x1d0;" horiz-adv-x="473" 
d="M100 0v942h277v-942h-277zM141 1090l-288 272h266l59 -64q5 -6 15.5 -17.5t14.5 -16.5q10 -12 17 -25q10 -16 11 -20h8q1 6 10 20q8 13 17 25q4 5 14.5 16.5t15.5 17.5l59 64h267l-289 -272h-197z" />
    <glyph glyph-name="uni01D1" unicode="&#x1d1;" horiz-adv-x="1417" 
d="M709 -20q-165 0 -282 34q-116 34 -194 116q-73 78 -112 215q-37 132 -37 331t37 331q39 137 112 215q76 81 194 115q120 35 282 35q160 0 280 -35q119 -35 195 -115q73 -78 112 -215q37 -132 37 -331t-37 -331q-39 -137 -112 -215q-77 -82 -195 -116q-117 -34 -280 -34z
M709 215q89 0 155 24t109 76q41 49 63 143q21 88 21 218q0 128 -21 217q-21 90 -63 142q-44 54 -109 78q-66 24 -155 24q-90 0 -156 -24q-65 -24 -109 -78q-42 -52 -63 -142q-21 -89 -21 -217q0 -130 21 -218q22 -94 63 -143q43 -52 109 -76t156 -24zM610 1499l-288 273h266
l59 -64l30 -35q11 -14 17 -24q10 -16 11 -21h8q1 7 10 21q5 10 17 24l30 35l59 64h267l-289 -273h-197z" />
    <glyph glyph-name="uni01D2" unicode="&#x1d2;" horiz-adv-x="1056" 
d="M528 -20q-120 0 -206 24t-144 82q-57 57 -84 152q-26 91 -26 233q0 143 26 234q27 94 84 151q58 58 144 82q89 25 206 25q115 0 206 -25q87 -24 145 -82q57 -57 84 -151q26 -91 26 -234q0 -142 -26 -233q-27 -95 -84 -152q-58 -58 -145 -82t-206 -24zM528 195
q104 0 144 60q41 61 41 216t-41 216t-144 61q-102 0 -143 -61t-41 -216t41 -216q41 -60 143 -60zM430 1090l-289 272h267l59 -64q5 -6 15.5 -17.5t14.5 -16.5q9 -12 17 -25q9 -14 10 -20h8q1 4 11 20q7 13 17 25q4 5 14.5 16.5t15.5 17.5l59 64h266l-288 -272h-197z" />
    <glyph glyph-name="uni01D3" unicode="&#x1d3;" horiz-adv-x="1376" 
d="M975 1352h276v-676q0 -202 -32 -331q-33 -133 -103 -215q-69 -81 -175 -116q-103 -34 -253 -34t-253 34q-106 35 -175 116t-102 215q-33 133 -33 331v676h276v-676q0 -127 17 -218q17 -92 52 -143q36 -52 90 -76t128 -24t128 24t90 76q35 51 52 143q17 91 17 218v676z
M590 1499l-289 273h266l60 -64q15 -17 29 -35q15 -19 18 -24q9 -14 10 -21h8q1 7 10 21q3 5 18 24l30 35l59 64h266l-289 -273h-196z" />
    <glyph glyph-name="uni01D4" unicode="&#x1d4;" horiz-adv-x="1140" 
d="M387 942v-471q0 -90 7 -140q8 -55 24 -85q17 -31 45 -41q27 -10 69 -10q104 0 151 56q48 56 52 191v500h277v-942h-215l-52 133q-35 -91 -99 -122q-63 -31 -171 -31q-106 0 -175 28q-72 29 -113 88q-41 58 -59 153q-17 88 -17 222v471h276zM471 1090l-289 272h267l59 -64
q5 -6 15.5 -17.5t14.5 -16.5q10 -12 17 -25q9 -14 10 -20h8q1 4 11 20q8 13 17 25q4 5 14.5 16.5t15.5 17.5l59 64h266l-288 -272h-197z" />
    <glyph glyph-name="uni01D5" unicode="&#x1d5;" horiz-adv-x="1376" 
d="M975 1352h276v-676q0 -202 -32 -331q-33 -133 -103 -215q-69 -81 -175 -116q-103 -34 -253 -34t-253 34q-106 35 -175 116t-102 215q-33 133 -33 331v676h276v-676q0 -127 17 -218q17 -92 52 -143q36 -52 90 -76t128 -24t128 24t90 76q35 51 52 143q17 91 17 218v676z
M375 1495v246h235v-246h-235zM764 1495v246h235v-246h-235zM324 1841v144h727v-144h-727z" />
    <glyph glyph-name="uni01D6" unicode="&#x1d6;" horiz-adv-x="1140" 
d="M387 942v-471q0 -90 7 -140q8 -55 24 -85q17 -31 45 -41q27 -10 69 -10q104 0 151 56q48 56 52 191v500h277v-942h-215l-52 133q-35 -91 -99 -122q-63 -31 -171 -31q-106 0 -175 28q-72 29 -113 88q-41 58 -59 153q-17 88 -17 222v471h276zM258 1085v246h236v-246h-236z
M647 1085v246h236v-246h-236zM207 1432v143h727v-143h-727z" />
    <glyph glyph-name="uni01D7" unicode="&#x1d7;" horiz-adv-x="1376" 
d="M975 1352h276v-676q0 -202 -32 -331q-33 -133 -103 -215q-69 -81 -175 -116q-103 -34 -253 -34t-253 34q-106 35 -175 116t-102 215q-33 133 -33 331v676h276v-676q0 -127 17 -218q17 -92 52 -143q36 -52 90 -76t128 -24t128 24t90 76q35 51 52 143q17 91 17 218v676z
M375 1495v246h235v-246h-235zM764 1495v246h235v-246h-235zM526 1892l144 293h344l-258 -293h-230z" />
    <glyph glyph-name="uni01D8" unicode="&#x1d8;" horiz-adv-x="1140" 
d="M387 942v-471q0 -90 7 -140q8 -55 24 -85q17 -31 45 -41q27 -10 69 -10q104 0 151 56q48 56 52 191v500h277v-942h-215l-52 133q-35 -91 -99 -122q-63 -31 -171 -31q-106 0 -175 28q-72 29 -113 88q-41 58 -59 153q-17 88 -17 222v471h276zM258 1085v246h236v-246h-236z
M647 1085v246h236v-246h-236zM408 1483l143 293h344l-258 -293h-229z" />
    <glyph glyph-name="uni01D9" unicode="&#x1d9;" horiz-adv-x="1376" 
d="M975 1352h276v-676q0 -202 -32 -331q-33 -133 -103 -215q-69 -81 -175 -116q-103 -34 -253 -34t-253 34q-106 35 -175 116t-102 215q-33 133 -33 331v676h276v-676q0 -127 17 -218q17 -92 52 -143q36 -52 90 -76t128 -24t128 24t90 76q35 51 52 143q17 91 17 218v676z
M375 1495v246h235v-246h-235zM764 1495v246h235v-246h-235zM590 1909l-289 272h266l60 -63q15 -17 29 -35q13 -16 18 -25q9 -14 10 -20h8q1 6 10 20q5 9 18 25l30 35l59 63h266l-289 -272h-196z" />
    <glyph glyph-name="uni01DA" unicode="&#x1da;" horiz-adv-x="1140" 
d="M387 942v-471q0 -90 7 -140q8 -55 24 -85q17 -31 45 -41q27 -10 69 -10q104 0 151 56q48 56 52 191v500h277v-942h-215l-52 133q-35 -91 -99 -122q-63 -31 -171 -31q-106 0 -175 28q-72 29 -113 88q-41 58 -59 153q-17 88 -17 222v471h276zM258 1085v246h236v-246h-236z
M647 1085v246h236v-246h-236zM471 1499l-289 273h267l59 -64l30 -35q12 -14 17 -24q9 -14 10 -21h8q1 5 11 21q6 10 17 24l30 35l59 64h266l-288 -273h-197z" />
    <glyph glyph-name="uni01DB" unicode="&#x1db;" horiz-adv-x="1376" 
d="M975 1352h276v-676q0 -202 -32 -331q-33 -133 -103 -215q-69 -81 -175 -116q-103 -34 -253 -34t-253 34q-106 35 -175 116t-102 215q-33 133 -33 331v676h276v-676q0 -127 17 -218q17 -92 52 -143q36 -52 90 -76t128 -24t128 24t90 76q35 51 52 143q17 91 17 218v676z
M375 1495v246h235v-246h-235zM764 1495v246h235v-246h-235zM621 1892l-259 293h345l143 -293h-229z" />
    <glyph glyph-name="uni01DC" unicode="&#x1dc;" horiz-adv-x="1140" 
d="M387 942v-471q0 -90 7 -140q8 -55 24 -85q17 -31 45 -41q27 -10 69 -10q104 0 151 56q48 56 52 191v500h277v-942h-215l-52 133q-35 -91 -99 -122q-63 -31 -171 -31q-106 0 -175 28q-72 29 -113 88q-41 58 -59 153q-17 88 -17 222v471h276zM258 1085v246h236v-246h-236z
M647 1085v246h236v-246h-236zM502 1483l-258 293h344l143 -293h-229z" />
    <glyph glyph-name="uni01DD" unicode="&#x1dd;" horiz-adv-x="1019" 
d="M672 553q-4 47 -14 88q-9 35 -30 60q-19 22 -58 35q-36 12 -91 12q-60 0 -91 -21q-32 -21 -32 -88h-274q0 91 30 152t84 100q53 38 131 55q79 17 173 17q114 0 201 -26q85 -25 141 -83q54 -56 82 -151q26 -90 26 -228q0 -143 -28 -236q-29 -96 -86 -153q-58 -58 -145 -82
t-204 -24q-111 0 -187 20q-80 21 -130 67q-52 48 -77 122q-25 75 -25 192q0 34 4 77q5 50 22 95h578zM489 195q99 0 135 35q39 37 46 128h-326v-24q0 -38 4 -62q4 -26 19 -44t43 -25q30 -8 79 -8z" />
    <glyph glyph-name="uni01DE" unicode="&#x1de;" horiz-adv-x="1374" 
d="M975 250h-576l-96 -250h-283l543 1352h252l539 -1352h-283zM489 485h396l-97 252q-31 80 -47 136q-15 53 -28 110q-14 62 -19 98h-8q-3 -14 -10.5 -47.5t-11.5 -52.5q-13 -52 -30 -110q-18 -64 -46 -134zM375 1495v246h235v-246h-235zM764 1495v246h235v-246h-235z
M324 1841v144h727v-144h-727z" />
    <glyph glyph-name="uni01DF" unicode="&#x1df;" horiz-adv-x="1046" 
d="M1012 -10q-87 0 -143 10q-59 11 -95 28t-56 42q-21 26 -28 53q-34 -87 -97 -115t-171 -28q-72 0 -133 11q-67 12 -117 43q-52 32 -83 88q-32 58 -32 146q0 102 39 158q40 56 99 83q62 28 131 35q41 4 137 13l196 18v76q0 55 -29 75q-31 22 -112 22q-87 0 -114 -25
q-25 -24 -25 -84h-275q0 174 99 249t315 75q114 0 197 -22q80 -21 129 -61t70 -98q22 -60 22 -131v-368q0 -37 21 -58q20 -20 55 -20v-215zM446 205q100 0 149 38q48 37 60 140l-192 -18q-76 -7 -104 -24q-25 -15 -25 -62q0 -42 22 -58t90 -16zM211 1085v246h235v-246h-235z
M600 1085v246h236v-246h-236zM160 1432v143h727v-143h-727z" />
    <glyph glyph-name="uni01E0" unicode="&#x1e0;" horiz-adv-x="1374" 
d="M975 250h-576l-96 -250h-283l543 1352h252l539 -1352h-283zM489 485h396l-97 252q-31 80 -47 136q-15 53 -28 110q-14 62 -19 98h-8q-3 -14 -10.5 -47.5t-11.5 -52.5q-13 -52 -30 -110q-18 -64 -46 -134zM569 1495v246h236v-246h-236zM324 1841v144h727v-144h-727z" />
    <glyph glyph-name="uni01E1" unicode="&#x1e1;" horiz-adv-x="1046" 
d="M1012 -10q-87 0 -143 10q-59 11 -95 28t-56 42q-21 26 -28 53q-34 -87 -97 -115t-171 -28q-72 0 -133 11q-67 12 -117 43q-52 32 -83 88q-32 58 -32 146q0 102 39 158q40 56 99 83q62 28 131 35q41 4 137 13l196 18v76q0 55 -29 75q-31 22 -112 22q-87 0 -114 -25
q-25 -24 -25 -84h-275q0 174 99 249t315 75q114 0 197 -22q80 -21 129 -61t70 -98q22 -60 22 -131v-368q0 -37 21 -58q20 -20 55 -20v-215zM446 205q100 0 149 38q48 37 60 140l-192 -18q-76 -7 -104 -24q-25 -15 -25 -62q0 -42 22 -58t90 -16zM406 1085v246h235v-246h-235z
M160 1432v143h727v-143h-727z" />
    <glyph glyph-name="uni01E2" unicode="&#x1e2;" horiz-adv-x="1736" 
d="M815 0v250h-416l-96 -250h-283l543 1352h1071v-236h-542v-319h460v-234h-460v-327h542v-236h-819zM489 485h326v596h-129q-3 -14 -10.5 -47.5t-11.5 -52.5q-13 -52 -30 -110q-18 -64 -46 -134zM612 1534v143h727v-143h-727z" />
    <glyph glyph-name="uni01E3" unicode="&#x1e3;" horiz-adv-x="1529" 
d="M895 389q6 -101 39 -147q33 -47 129 -47q55 0 81 20q27 21 27 88h275q0 -89 -30 -151t-80 -101q-48 -38 -119 -55q-67 -16 -150 -16q-114 0 -186 34q-74 35 -113 127q-40 -95 -121 -129q-77 -32 -211 -32q-81 0 -144 11q-68 12 -121 42t-83 87q-31 59 -31 146
q0 69 20 118q20 50 51 79q31 30 74 48q42 18 87 27t90 12q55 4 84 7l155 16v78q0 54 -25 75q-27 22 -95 22q-76 0 -98 -25q-21 -24 -21 -84h-275q0 165 91 245q89 79 282 79q127 0 200 -35q72 -34 105 -107q45 81 117 111q76 31 182 31q188 0 284 -91q95 -90 95 -311
q0 -34 -4 -77q-5 -50 -22 -95h-539zM1057 748q-86 0 -119 -35q-34 -35 -41 -129h287v22q0 37 -3 64q-3 24 -16 44q-11 17 -38 25q-31 9 -70 9zM440 205q86 0 125 36t49 140l-151 -16q-76 -7 -104 -24q-25 -15 -25 -60q0 -41 21 -59q20 -17 85 -17zM401 1124v144h727v-144
h-727z" />
    <glyph glyph-name="uni01E4" unicode="&#x1e4;" horiz-adv-x="1368" 
d="M1016 0l-35 180q-56 -109 -154 -155q-96 -45 -229 -45q-152 0 -251 51q-100 52 -158 145q-56 91 -81 223q-24 129 -24 287q0 201 35 336q34 133 108 211q73 78 188 108q118 31 269 31q120 0 213 -17q99 -18 170 -64q74 -47 113 -125q41 -80 41 -203h-277q0 54 -18 89
q-17 33 -53 53q-34 19 -80 25q-54 7 -105 7q-94 0 -157 -18t-100 -67t-54 -142q-17 -94 -17 -238q0 -120 13 -214q12 -88 44 -141t85 -77q55 -25 135 -25q82 0 151 25q65 24 111 77h-194v123h256q11 34 12 72h-268v213h546v-285h99v-123h-99v-317h-235z" />
    <glyph glyph-name="uni01E5" unicode="&#x1e5;" horiz-adv-x="1093" 
d="M989 -279q-22 -101 -135 -158q-112 -57 -340 -57q-245 0 -361 64q-114 63 -114 178q0 76 47 137q46 59 113 111q-66 56 -66 143q0 53 23 85q26 37 59 63q-73 41 -110 115t-37 192q0 104 30 175q30 69 88 114q56 43 140 61q87 19 182 19q132 0 230 -33t151 -113
q33 64 85 95q50 30 120 30v-235q-95 0 -148 -62q0 -16 1 -24t1 -27q0 -104 -30 -175q-29 -68 -89 -114q-56 -43 -139 -61q-87 -19 -182 -19h-43q-15 0 -39 2q-18 -27 -18 -65q0 -20 15 -32q12 -10 85 -21q40 -5 134 -20q84 -13 150 -38q74 -28 128 -76q55 -49 71 -131h195
v-123h-197zM672 594q0 86 -36 120q-35 34 -128 34t-128 -34q-36 -34 -36 -120t36 -120q35 -34 128 -34t128 34q36 34 36 120zM508 -104q-74 6 -143 24q-14 -22 -37 -49q-19 -22 -19 -55q0 -52 47 -73q49 -22 152 -22h33v123h170q-11 17 -32 26q-18 8 -49 13q-26 4 -60 6
q-22 1 -62 7z" />
    <glyph glyph-name="Gcaron" unicode="&#x1e6;" horiz-adv-x="1368" 
d="M1016 0l-35 180q-56 -109 -154 -155q-96 -45 -229 -45q-152 0 -251 51q-100 52 -158 145q-56 91 -81 223q-24 129 -24 287q0 201 35 336q34 133 108 211q73 78 188 108q118 31 269 31q120 0 213 -17q99 -18 170 -64q74 -47 113 -125q41 -80 41 -203h-277q0 54 -18 89
q-17 33 -53 53q-34 19 -80 25q-54 7 -105 7q-94 0 -157 -18t-100 -67t-54 -142q-17 -94 -17 -238q0 -120 13 -214q12 -88 44 -141t85 -77q55 -25 135 -25q139 0 229 70q89 69 107 227h-268v213h546v-725h-235zM586 1499l-289 273h266l60 -64q15 -17 29 -35q15 -19 18 -24
q9 -14 10 -21h8q1 7 10 21q3 5 18 24q14 18 29 35l60 64h266l-289 -273h-196z" />
    <glyph glyph-name="gcaron" unicode="&#x1e7;" horiz-adv-x="1093" 
d="M948 594q0 -104 -30 -175q-29 -68 -89 -114q-56 -43 -139 -61q-87 -19 -182 -19h-43q-15 0 -39 2q-18 -27 -18 -65q0 -20 15 -32q12 -10 85 -21q42 -8 140 -22q85 -12 161 -43t133 -92q55 -59 55 -167q0 -135 -111 -211q-110 -76 -372 -76q-246 0 -360 66
q-115 67 -115 182q0 80 47 141q45 58 113 109q-66 56 -66 143q0 53 23 85q26 37 59 63q-73 41 -110 115t-37 192q0 104 30 175q30 69 88 114q56 43 140 61q87 19 182 19q132 0 230 -33t151 -113q33 64 85 95q50 30 120 30v-235q-95 0 -148 -62q0 -16 1 -24t1 -27zM672 594
q0 86 -36 120q-35 34 -128 34t-128 -34q-36 -34 -36 -120t36 -120q35 -34 128 -34t128 34q36 34 36 120zM508 -104q-74 6 -143 24q-15 -24 -36 -47q-20 -22 -20 -59q0 -53 47 -77q46 -24 154 -24q83 0 148 20q63 19 63 77q0 31 -20 46q-18 14 -50 22q-27 7 -68 10
q-25 2 -75 8zM449 1090l-289 272h266l59 -64q5 -6 15.5 -17.5t14.5 -16.5q9 -12 17 -25q10 -16 11 -20h8q1 6 10 20q5 9 18 25q2 2 29 34l60 64h266l-289 -272h-196z" />
    <glyph glyph-name="uni01E8" unicode="&#x1e8;" horiz-adv-x="1275" 
d="M158 0v1352h276v-555h156l358 555h293l-430 -668l440 -684h-293l-362 563h-162v-563h-276zM539 1499l-289 273h266l59 -64l30 -35q15 -19 18 -24q9 -14 10 -21h8q1 7 10 21q3 5 18 24q14 18 29 35l60 64h266l-289 -273h-196z" />
    <glyph glyph-name="uni01E9" unicode="&#x1e9;" horiz-adv-x="1048" 
d="M129 0v1403l277 31v-850h90l231 358h293l-299 -463l309 -479h-293l-231 358h-100v-358h-277zM510 1499l-289 273h266l60 -64l30 -35q11 -14 17 -24q9 -14 10 -21h8q1 5 11 21q5 10 17 24l30 35l59 64h266l-288 -273h-197z" />
    <glyph glyph-name="uni01EA" unicode="&#x1ea;" horiz-adv-x="1417" 
d="M586 -186q0 57 16 96q18 44 43 72q-145 6 -252 45t-175 119t-101 211t-33 319q0 199 37 331q39 137 112 215q76 81 194 115q120 35 282 35q160 0 280 -35q119 -35 195 -115q73 -78 112 -215q37 -132 37 -331q0 -164 -24 -284q-24 -118 -77 -202q-52 -82 -132 -129
t-191 -65q-52 -12 -89 -41q-36 -29 -36 -94q0 -43 21 -67q20 -23 67 -23q22 0 65 6q46 6 91 28v-141q-41 -29 -102 -41t-113 -12q-95 0 -162 47q-65 46 -65 156zM709 215q89 0 155 24t109 76q41 49 63 143q21 88 21 218q0 128 -21 217q-21 90 -63 142q-44 54 -109 78
q-66 24 -155 24q-90 0 -156 -24q-65 -24 -109 -78q-42 -52 -63 -142q-21 -89 -21 -217q0 -130 21 -218q22 -94 63 -143q43 -52 109 -76t156 -24z" />
    <glyph glyph-name="uni01EB" unicode="&#x1eb;" horiz-adv-x="1056" 
d="M813 -336q-41 -29 -102 -41t-113 -12q-95 0 -162 47q-65 46 -65 156q0 59 17 99q19 44 46 71q-190 16 -278 127q-88 110 -88 360q0 143 26 234q27 94 84 151q58 58 144 82q89 25 206 25q115 0 206 -25q87 -24 145 -82q57 -57 84 -151q26 -91 26 -234q0 -117 -17 -195
q-18 -84 -53 -139q-36 -57 -91 -92q-53 -34 -130 -49q-56 -17 -91 -43q-38 -27 -38 -92q0 -43 21 -67q20 -23 67 -23q21 0 65 6q46 6 91 28v-141zM528 195q104 0 144 60q41 61 41 216t-41 216t-144 61q-102 0 -143 -61t-41 -216t41 -216q41 -60 143 -60z" />
    <glyph glyph-name="uni01EC" unicode="&#x1ec;" horiz-adv-x="1417" 
d="M586 -186q0 57 16 96q18 44 43 72q-145 6 -252 45t-175 119t-101 211t-33 319q0 199 37 331q39 137 112 215q76 81 194 115q120 35 282 35q160 0 280 -35q119 -35 195 -115q73 -78 112 -215q37 -132 37 -331q0 -164 -24 -284q-24 -118 -77 -202q-52 -82 -132 -129
t-191 -65q-52 -12 -89 -41q-36 -29 -36 -94q0 -43 21 -67q20 -23 67 -23q22 0 65 6q46 6 91 28v-141q-41 -29 -102 -41t-113 -12q-95 0 -162 47q-65 46 -65 156zM709 215q89 0 155 24t109 76q41 49 63 143q21 88 21 218q0 128 -21 217q-21 90 -63 142q-44 54 -109 78
q-66 24 -155 24q-90 0 -156 -24q-65 -24 -109 -78q-42 -52 -63 -142q-21 -89 -21 -217q0 -130 21 -218q22 -94 63 -143q43 -52 109 -76t156 -24zM346 1534v143h727v-143h-727z" />
    <glyph glyph-name="uni01ED" unicode="&#x1ed;" horiz-adv-x="1056" 
d="M813 -336q-41 -29 -102 -41t-113 -12q-95 0 -162 47q-65 46 -65 156q0 59 17 99q19 44 46 71q-190 16 -278 127q-88 110 -88 360q0 143 26 234q27 94 84 151q58 58 144 82q89 25 206 25q115 0 206 -25q87 -24 145 -82q57 -57 84 -151q26 -91 26 -234q0 -117 -17 -195
q-18 -84 -53 -139q-36 -57 -91 -92q-53 -34 -130 -49q-56 -17 -91 -43q-38 -27 -38 -92q0 -43 21 -67q20 -23 67 -23q21 0 65 6q46 6 91 28v-141zM528 195q104 0 144 60q41 61 41 216t-41 216t-144 61q-102 0 -143 -61t-41 -216t41 -216q41 -60 143 -60zM166 1124v144h727
v-144h-727z" />
    <glyph glyph-name="uni01F0" unicode="&#x1f0;" horiz-adv-x="591" 
d="M434 -158q0 -66 -18 -126q-17 -58 -64 -106q-46 -48 -121 -74q-79 -28 -190 -28v222q52 0 84 19q33 20 33 73v1120h276v-1100zM201 1090l-289 272h266l60 -64q27 -32 29 -34q13 -16 18 -25q9 -14 10 -20h8q1 6 10 20q5 9 18 25q2 2 29 34l60 64h266l-289 -272h-196z" />
    <glyph glyph-name="uni01F1" unicode="&#x1f1;" horiz-adv-x="2463" 
d="M578 236q114 0 193 22q80 22 133 74q53 51 78 136q26 87 26 208t-26 208q-25 85 -78 136q-53 52 -133 74q-79 22 -193 22h-144v-880h144zM158 0v1352h420q185 0 317 -34q134 -35 220 -113q88 -81 128 -209q41 -132 41 -320q0 -189 -41 -321q-40 -128 -128 -209
q-84 -77 -220 -112q-132 -34 -317 -34h-420zM1425 0v236l676 880h-676v236h1024v-236l-675 -880h675v-236h-1024z" />
    <glyph glyph-name="uni01F2" unicode="&#x1f2;" horiz-adv-x="2322" 
d="M578 236q114 0 193 22q80 22 133 74q53 51 78 136q26 87 26 208t-26 208q-25 85 -78 136q-53 52 -133 74q-79 22 -193 22h-144v-880h144zM158 0v1352h420q185 0 317 -34q134 -35 220 -113q88 -81 128 -209q41 -132 41 -320q0 -189 -41 -321q-40 -128 -128 -209
q-84 -77 -220 -112q-132 -34 -317 -34h-420zM1425 0v215l482 512h-482v215h840v-215l-481 -512h481v-215h-840z" />
    <glyph glyph-name="uni01F3" unicode="&#x1f3;" horiz-adv-x="2093" 
d="M487 -20q-108 0 -185 26q-79 27 -131 85q-53 59 -78 153q-25 93 -25 227t25 227q25 94 78 153q52 58 131 85t185 27q96 0 158 -32q61 -31 94 -116h9q-1 15 -5 46.5t-5 47.5q-5 52 -5 95v399l277 31v-1434h-215l-47 141q-33 -92 -97 -127q-62 -34 -164 -34zM535 195
q105 0 151 63q47 64 47 213t-47 213t-151 64q-51 0 -90 -13q-34 -11 -58 -43q-22 -29 -33 -84q-10 -50 -10 -137t10 -137q11 -55 33 -84q24 -32 58 -43q36 -12 90 -12zM1196 0v215l481 512h-481v215h840v-215l-482 -512h482v-215h-840z" />
    <glyph glyph-name="uni01F4" unicode="&#x1f4;" horiz-adv-x="1368" 
d="M1016 0l-35 180q-56 -109 -154 -155q-96 -45 -229 -45q-152 0 -251 51q-100 52 -158 145q-56 91 -81 223q-24 129 -24 287q0 201 35 336q34 133 108 211q73 78 188 108q118 31 269 31q120 0 213 -17q99 -18 170 -64q74 -47 113 -125q41 -80 41 -203h-277q0 54 -18 89
q-17 33 -53 53q-34 19 -80 25q-54 7 -105 7q-94 0 -157 -18t-100 -67t-54 -142q-17 -94 -17 -238q0 -120 13 -214q12 -88 44 -141t85 -77q55 -25 135 -25q139 0 229 70q89 69 107 227h-268v213h546v-725h-235zM522 1483l144 293h344l-258 -293h-230z" />
    <glyph glyph-name="uni01F5" unicode="&#x1f5;" horiz-adv-x="1093" 
d="M948 594q0 -104 -30 -175q-29 -68 -89 -114q-56 -43 -139 -61q-87 -19 -182 -19h-43q-15 0 -39 2q-18 -27 -18 -65q0 -20 15 -32q12 -10 85 -21q42 -8 140 -22q85 -12 161 -43t133 -92q55 -59 55 -167q0 -135 -111 -211q-110 -76 -372 -76q-246 0 -360 66
q-115 67 -115 182q0 80 47 141q45 58 113 109q-66 56 -66 143q0 53 23 85q26 37 59 63q-73 41 -110 115t-37 192q0 104 30 175q30 69 88 114q56 43 140 61q87 19 182 19q132 0 230 -33t151 -113q33 64 85 95q50 30 120 30v-235q-95 0 -148 -62q0 -16 1 -24t1 -27zM672 594
q0 86 -36 120q-35 34 -128 34t-128 -34q-36 -34 -36 -120t36 -120q35 -34 128 -34t128 34q36 34 36 120zM508 -104q-74 6 -143 24q-15 -24 -36 -47q-20 -22 -20 -59q0 -53 47 -77q46 -24 154 -24q83 0 148 20q63 19 63 77q0 31 -20 46q-18 14 -50 22q-27 7 -68 10
q-25 2 -75 8zM385 1073l143 293h344l-258 -293h-229z" />
    <glyph glyph-name="uni01F8" unicode="&#x1f8;" horiz-adv-x="1431" 
d="M895 584q41 -87 51 -107q9 -18 22.5 -46.5t16.5 -35.5q21 -45 29 -71h8l-12 75q-4 35 -9 75q-4 36 -4 81v797h277v-1352h-338l-399 768q-7 14 -18.5 36.5t-20 39t-14.5 30.5q-21 46 -38 82q-16 36 -28 72h-8q8 -50 12 -76q2 -13 4.5 -39.5t3.5 -34.5q4 -36 4 -81v-797
h-276v1352h338zM647 1483l-258 293h344l144 -293h-230z" />
    <glyph glyph-name="uni01F9" unicode="&#x1f9;" horiz-adv-x="1148" 
d="M129 0v942h215l49 -133q33 90 100 122t175 32q105 0 174 -24q68 -24 111 -74q42 -49 60 -128q17 -74 17 -184v-553h-276v553q0 59 -8 99q-8 41 -23 60q-16 20 -42 28q-27 8 -65 8q-110 0 -158 -56q-47 -55 -52 -192v-500h-277zM506 1073l-258 293h344l143 -293h-229z" />
    <glyph glyph-name="Aringacute" unicode="&#x1fa;" horiz-adv-x="1374" 
d="M975 250h-576l-96 -250h-283l543 1352h252l539 -1352h-283zM489 485h396l-97 252q-31 80 -47 136q-15 53 -28 110q-14 62 -19 98h-8q-3 -14 -10.5 -47.5t-11.5 -52.5q-13 -52 -30 -110q-18 -64 -46 -134zM686 1481q-92 0 -140 53q-48 52 -48 131q0 73 51 125
q51 53 137 53t137 -53q51 -52 51 -125q0 -79 -48 -131q-48 -53 -140 -53zM686 1745q-38 0 -59 -24t-21 -58q0 -30 20 -55t60 -25t60 25t20 55q0 34 -21 58t-59 24zM524 1933l144 293h344l-258 -293h-230z" />
    <glyph glyph-name="aringacute" unicode="&#x1fb;" horiz-adv-x="1046" 
d="M1012 -10q-87 0 -143 10q-59 11 -95 28t-56 42q-21 26 -28 53q-34 -87 -97 -115t-171 -28q-72 0 -133 11q-67 12 -117 43q-52 32 -83 88q-32 58 -32 146q0 102 39 158q40 56 99 83q62 28 131 35q41 4 137 13l196 18v76q0 55 -29 75q-31 22 -112 22q-87 0 -114 -25
q-25 -24 -25 -84h-275q0 174 99 249t315 75q114 0 197 -22q80 -21 129 -61t70 -98q22 -60 22 -131v-368q0 -37 21 -58q20 -20 55 -20v-215zM446 205q100 0 149 38q48 37 60 140l-192 -18q-76 -7 -104 -24q-25 -15 -25 -62q0 -42 22 -58t90 -16zM522 1071q-92 0 -140 53
q-48 52 -48 131q0 73 51 125q52 54 137 54t137 -54t52 -125q0 -79 -48 -131q-48 -53 -141 -53zM522 1335q-39 0 -59 -23q-21 -24 -21 -59q0 -30 20 -55q20 -24 60 -24q42 0 61 24q19 23 19 55q0 36 -20 59t-60 23zM393 1524l144 293h344l-258 -293h-230z" />
    <glyph glyph-name="AEacute" unicode="&#x1fc;" horiz-adv-x="1736" 
d="M815 0v250h-416l-96 -250h-283l543 1352h1071v-236h-542v-319h460v-234h-460v-327h542v-236h-819zM489 485h326v596h-129q-3 -14 -10.5 -47.5t-11.5 -52.5q-13 -52 -30 -110q-18 -64 -46 -134zM815 1483l143 293h345l-259 -293h-229z" />
    <glyph glyph-name="aeacute" unicode="&#x1fd;" horiz-adv-x="1529" 
d="M895 389q6 -101 39 -147q33 -47 129 -47q55 0 81 20q27 21 27 88h275q0 -89 -30 -151t-80 -101q-48 -38 -119 -55q-67 -16 -150 -16q-114 0 -186 34q-74 35 -113 127q-40 -95 -121 -129q-77 -32 -211 -32q-81 0 -144 11q-68 12 -121 42t-83 87q-31 59 -31 146
q0 69 20 118q20 50 51 79q31 30 74 48q42 18 87 27t90 12q55 4 84 7l155 16v78q0 54 -25 75q-27 22 -95 22q-76 0 -98 -25q-21 -24 -21 -84h-275q0 165 91 245q89 79 282 79q127 0 200 -35q72 -34 105 -107q45 81 117 111q76 31 182 31q188 0 284 -91q95 -90 95 -311
q0 -34 -4 -77q-5 -50 -22 -95h-539zM1057 748q-86 0 -119 -35q-34 -35 -41 -129h287v22q0 37 -3 64q-3 24 -16 44q-11 17 -38 25q-31 9 -70 9zM440 205q86 0 125 36t49 140l-151 -16q-76 -7 -104 -24q-25 -15 -25 -60q0 -41 21 -59q20 -17 85 -17zM602 1073l143 293h345
l-259 -293h-229z" />
    <glyph glyph-name="Oslashacute" unicode="&#x1fe;" horiz-adv-x="1417" 
d="M78 59l108 131q-102 159 -102 486q0 199 37 331q39 137 112 215q76 81 194 115q120 35 282 35q131 0 225 -20q97 -21 172 -68l90 109l145 -121l-104 -123q96 -159 96 -473q0 -199 -37 -331q-39 -137 -112 -215q-77 -82 -195 -116q-117 -34 -280 -34q-125 0 -219 18
q-95 18 -166 61l-101 -120zM360 676q0 -154 27 -246l543 647q-78 60 -221 60q-90 0 -156 -24q-65 -24 -109 -78q-42 -52 -63 -142q-21 -89 -21 -217zM709 215q89 0 155 24t109 76q41 49 63 143q21 88 21 218q0 134 -25 229l-534 -639q39 -28 93 -40q48 -11 118 -11z
M547 1483l143 293h344l-258 -293h-229z" />
    <glyph glyph-name="oslashacute" unicode="&#x1ff;" horiz-adv-x="1056" 
d="M29 12l106 127q-35 60 -51 141q-16 79 -16 191q0 143 26 234q27 94 84 151q58 58 144 82q89 25 206 25q77 0 145 -11q65 -11 115 -34l97 114l145 -123l-102 -121q61 -113 61 -317q0 -142 -26 -233q-27 -95 -84 -152q-58 -58 -145 -82t-206 -24q-152 0 -247 36l-107 -127z
M344 471v-43q0 -15 2 -37l283 336q-39 21 -101 21q-102 0 -143 -61t-41 -216zM528 195q104 0 144 60q41 61 41 216v30q0 7 -2 27l-269 -319q28 -14 86 -14zM367 1073l143 293h344l-258 -293h-229z" />
    <glyph glyph-name="uni0200" unicode="&#x200;" horiz-adv-x="1374" 
d="M975 250h-576l-96 -250h-283l543 1352h252l539 -1352h-283zM489 485h396l-97 252q-31 80 -47 136q-15 53 -28 110q-14 62 -19 98h-8q-3 -14 -10.5 -47.5t-11.5 -52.5q-13 -52 -30 -110q-18 -64 -46 -134zM897 1507l-201 293h269l106 -293h-174zM539 1507l-238 293h287
l143 -293h-192z" />
    <glyph glyph-name="uni0201" unicode="&#x201;" horiz-adv-x="1046" 
d="M1012 -10q-87 0 -143 10q-59 11 -95 28t-56 42q-21 26 -28 53q-34 -87 -97 -115t-171 -28q-72 0 -133 11q-67 12 -117 43q-52 32 -83 88q-32 58 -32 146q0 102 39 158q40 56 99 83q62 28 131 35q41 4 137 13l196 18v76q0 55 -29 75q-31 22 -112 22q-87 0 -114 -25
q-25 -24 -25 -84h-275q0 174 99 249t315 75q114 0 197 -22q80 -21 129 -61t70 -98q22 -60 22 -131v-368q0 -37 21 -58q20 -20 55 -20v-215zM446 205q100 0 149 38q48 37 60 140l-192 -18q-76 -7 -104 -24q-25 -15 -25 -62q0 -42 22 -58t90 -16zM733 1098l-201 293h269
l106 -293h-174zM375 1098l-238 293h287l143 -293h-192z" />
    <glyph glyph-name="uni0202" unicode="&#x202;" horiz-adv-x="1374" 
d="M975 250h-576l-96 -250h-283l543 1352h252l539 -1352h-283zM489 485h396l-97 252q-31 80 -47 136q-15 53 -28 110q-14 62 -19 98h-8q-3 -14 -10.5 -47.5t-11.5 -52.5q-13 -52 -30 -110q-18 -64 -46 -134zM686 1593q-133 0 -133 -98h-186q0 137 79 200q78 62 240 62
t240 -62q80 -63 80 -200h-187q0 98 -133 98z" />
    <glyph glyph-name="uni0203" unicode="&#x203;" horiz-adv-x="1046" 
d="M1012 -10q-87 0 -143 10q-59 11 -95 28t-56 42q-21 26 -28 53q-34 -87 -97 -115t-171 -28q-72 0 -133 11q-67 12 -117 43q-52 32 -83 88q-32 58 -32 146q0 102 39 158q40 56 99 83q62 28 131 35q41 4 137 13l196 18v76q0 55 -29 75q-31 22 -112 22q-87 0 -114 -25
q-25 -24 -25 -84h-275q0 174 99 249t315 75q114 0 197 -22q80 -21 129 -61t70 -98q22 -60 22 -131v-368q0 -37 21 -58q20 -20 55 -20v-215zM446 205q100 0 149 38q48 37 60 140l-192 -18q-76 -7 -104 -24q-25 -15 -25 -62q0 -42 22 -58t90 -16zM522 1184q-133 0 -133 -99
h-186q0 137 80 200t239 63q160 0 240 -63t80 -200h-187q0 99 -133 99z" />
    <glyph glyph-name="uni0204" unicode="&#x204;" horiz-adv-x="1181" 
d="M158 0v1352h921v-236h-645v-319h563v-234h-563v-327h645v-236h-921zM719 1507l-201 293h268l107 -293h-174zM360 1507l-237 293h287l143 -293h-193z" />
    <glyph glyph-name="uni0205" unicode="&#x205;" horiz-adv-x="1019" 
d="M346 389q1 -50 12 -88q10 -34 32 -60q20 -23 57 -35q33 -11 92 -11q61 0 91 20q32 21 32 88h274q0 -89 -30 -151t-84 -101q-53 -38 -132 -55q-76 -16 -172 -16q-118 0 -202 25q-83 25 -140 83q-54 56 -82 151q-26 90 -26 228q0 143 28 236q29 96 86 153q58 58 145 82
q91 25 203 25q108 0 187 -21q83 -22 131 -66q52 -47 77 -124q25 -76 25 -191q0 -34 -4 -77q-5 -50 -22 -95h-578zM528 748q-98 0 -135 -37q-38 -38 -45 -127h326v24q0 38 -4 62q-4 26 -19 44t-43 25q-34 9 -80 9zM637 1098l-201 293h269l106 -293h-174zM279 1098l-238 293
h287l143 -293h-192z" />
    <glyph glyph-name="uni0206" unicode="&#x206;" horiz-adv-x="1181" 
d="M158 0v1352h921v-236h-645v-319h563v-234h-563v-327h645v-236h-921zM590 1593q-133 0 -133 -98h-187q0 137 80 200q78 62 240 62q161 0 239 -62q80 -63 80 -200h-186q0 98 -133 98z" />
    <glyph glyph-name="uni0207" unicode="&#x207;" horiz-adv-x="1019" 
d="M346 389q1 -50 12 -88q10 -34 32 -60q20 -23 57 -35q33 -11 92 -11q61 0 91 20q32 21 32 88h274q0 -89 -30 -151t-84 -101q-53 -38 -132 -55q-76 -16 -172 -16q-118 0 -202 25q-83 25 -140 83q-54 56 -82 151q-26 90 -26 228q0 143 28 236q29 96 86 153q58 58 145 82
q91 25 203 25q108 0 187 -21q83 -22 131 -66q52 -47 77 -124q25 -76 25 -191q0 -34 -4 -77q-5 -50 -22 -95h-578zM528 748q-98 0 -135 -37q-38 -38 -45 -127h326v24q0 38 -4 62q-4 26 -19 44t-43 25q-34 9 -80 9zM510 1184q-133 0 -133 -99h-187q0 137 80 200q79 63 240 63
q160 0 240 -63q79 -63 79 -200h-186q0 99 -133 99z" />
    <glyph glyph-name="uni0208" unicode="&#x208;" horiz-adv-x="591" 
d="M158 0v1352h276v-1352h-276zM428 1507l-201 293h269l106 -293h-174zM70 1507l-238 293h287l143 -293h-192z" />
    <glyph glyph-name="uni0209" unicode="&#x209;" horiz-adv-x="473" 
d="M100 0v942h277v-942h-277zM369 1098l-201 293h268l107 -293h-174zM10 1098l-237 293h286l144 -293h-193z" />
    <glyph glyph-name="uni020A" unicode="&#x20a;" horiz-adv-x="591" 
d="M158 0v1352h276v-1352h-276zM299 1593q-133 0 -133 -98h-186q0 137 79 200q78 62 240 62t240 -62q79 -63 79 -200h-186q0 98 -133 98z" />
    <glyph glyph-name="uni020B" unicode="&#x20b;" horiz-adv-x="473" 
d="M100 0v942h277v-942h-277zM240 1184q-134 0 -134 -99h-186q0 137 80 200t240 63t239 -63q80 -63 80 -200h-186q0 99 -133 99z" />
    <glyph glyph-name="uni020C" unicode="&#x20c;" horiz-adv-x="1417" 
d="M709 -20q-165 0 -282 34q-116 34 -194 116q-73 78 -112 215q-37 132 -37 331t37 331q39 137 112 215q76 81 194 115q120 35 282 35q160 0 280 -35q119 -35 195 -115q73 -78 112 -215q37 -132 37 -331t-37 -331q-39 -137 -112 -215q-77 -82 -195 -116q-117 -34 -280 -34z
M709 215q89 0 155 24t109 76q41 49 63 143q21 88 21 218q0 128 -21 217q-21 90 -63 142q-44 54 -109 78q-66 24 -155 24q-90 0 -156 -24q-65 -24 -109 -78q-42 -52 -63 -142q-21 -89 -21 -217q0 -130 21 -218q22 -94 63 -143q43 -52 109 -76t156 -24zM838 1507l-201 293h268
l107 -293h-174zM479 1507l-237 293h286l144 -293h-193z" />
    <glyph glyph-name="uni020D" unicode="&#x20d;" horiz-adv-x="1056" 
d="M528 -20q-120 0 -206 24t-144 82q-57 57 -84 152q-26 91 -26 233q0 143 26 234q27 94 84 151q58 58 144 82q89 25 206 25q115 0 206 -25q87 -24 145 -82q57 -57 84 -151q26 -91 26 -234q0 -142 -26 -233q-27 -95 -84 -152q-58 -58 -145 -82t-206 -24zM528 195
q104 0 144 60q41 61 41 216t-41 216t-144 61q-102 0 -143 -61t-41 -216t41 -216q41 -60 143 -60zM659 1098l-200 293h268l107 -293h-175zM301 1098l-238 293h287l144 -293h-193z" />
    <glyph glyph-name="uni020E" unicode="&#x20e;" horiz-adv-x="1417" 
d="M709 -20q-165 0 -282 34q-116 34 -194 116q-73 78 -112 215q-37 132 -37 331t37 331q39 137 112 215q76 81 194 115q120 35 282 35q160 0 280 -35q119 -35 195 -115q73 -78 112 -215q37 -132 37 -331t-37 -331q-39 -137 -112 -215q-77 -82 -195 -116q-117 -34 -280 -34z
M709 215q89 0 155 24t109 76q41 49 63 143q21 88 21 218q0 128 -21 217q-21 90 -63 142q-44 54 -109 78q-66 24 -155 24q-90 0 -156 -24q-65 -24 -109 -78q-42 -52 -63 -142q-21 -89 -21 -217q0 -130 21 -218q22 -94 63 -143q43 -52 109 -76t156 -24zM709 1593
q-134 0 -134 -98h-186q0 137 80 200q78 62 240 62q161 0 239 -62q80 -63 80 -200h-186q0 98 -133 98z" />
    <glyph glyph-name="uni020F" unicode="&#x20f;" horiz-adv-x="1056" 
d="M528 -20q-120 0 -206 24t-144 82q-57 57 -84 152q-26 91 -26 233q0 143 26 234q27 94 84 151q58 58 144 82q89 25 206 25q115 0 206 -25q87 -24 145 -82q57 -57 84 -151q26 -91 26 -234q0 -142 -26 -233q-27 -95 -84 -152q-58 -58 -145 -82t-206 -24zM528 195
q104 0 144 60q41 61 41 216t-41 216t-144 61q-102 0 -143 -61t-41 -216t41 -216q41 -60 143 -60zM528 1184q-133 0 -133 -99h-186q0 137 80 200t239 63q160 0 240 -63t80 -200h-186q0 99 -134 99z" />
    <glyph glyph-name="uni0210" unicode="&#x210;" horiz-adv-x="1318" 
d="M158 0v1352h565q123 0 214 -24t149 -76q60 -54 88 -139t28 -212q0 -186 -57 -291q-56 -103 -180 -147l299 -463h-316l-276 430h-238v-430h-276zM711 666q117 0 166 51q49 50 49 184q0 122 -49 168q-50 47 -166 47h-277v-450h277zM788 1507l-200 293h268l107 -293h-175z
M430 1507l-237 293h286l144 -293h-193z" />
    <glyph glyph-name="uni0211" unicode="&#x211;" horiz-adv-x="671" 
d="M100 0v942h236l41 -164q30 109 95 147t175 38v-215q-134 0 -201 -61q-64 -59 -69 -202v-485h-277zM549 1098l-201 293h268l107 -293h-174zM190 1098l-237 293h287l143 -293h-193z" />
    <glyph glyph-name="uni0212" unicode="&#x212;" horiz-adv-x="1318" 
d="M158 0v1352h565q123 0 214 -24t149 -76q60 -54 88 -139t28 -212q0 -186 -57 -291q-56 -103 -180 -147l299 -463h-316l-276 430h-238v-430h-276zM711 666q117 0 166 51q49 50 49 184q0 122 -49 168q-50 47 -166 47h-277v-450h277zM659 1593q-133 0 -133 -98h-186
q0 137 80 200q78 62 239 62q162 0 240 -62q80 -63 80 -200h-186q0 98 -134 98z" />
    <glyph glyph-name="uni0213" unicode="&#x213;" horiz-adv-x="671" 
d="M100 0v942h236l41 -164q30 109 95 147t175 38v-215q-134 0 -201 -61q-64 -59 -69 -202v-485h-277zM338 1184q-133 0 -133 -99h-187q0 137 80 200t240 63t240 -63q79 -63 79 -200h-186q0 99 -133 99z" />
    <glyph glyph-name="uni0214" unicode="&#x214;" horiz-adv-x="1376" 
d="M975 1352h276v-676q0 -202 -32 -331q-33 -133 -103 -215q-69 -81 -175 -116q-103 -34 -253 -34t-253 34q-106 35 -175 116t-102 215q-33 133 -33 331v676h276v-676q0 -127 17 -218q17 -92 52 -143q36 -52 90 -76t128 -24t128 24t90 76q35 51 52 143q17 91 17 218v676z
M817 1507l-201 293h269l106 -293h-174zM459 1507l-238 293h287l143 -293h-192z" />
    <glyph glyph-name="uni0215" unicode="&#x215;" horiz-adv-x="1140" 
d="M387 942v-471q0 -90 7 -140q8 -55 24 -85q17 -31 45 -41q27 -10 69 -10q104 0 151 56q48 56 52 191v500h277v-942h-215l-52 133q-35 -91 -99 -122q-63 -31 -171 -31q-106 0 -175 28q-72 29 -113 88q-41 58 -59 153q-17 88 -17 222v471h276zM698 1098l-200 293h268
l106 -293h-174zM340 1098l-238 293h287l143 -293h-192z" />
    <glyph glyph-name="uni0216" unicode="&#x216;" horiz-adv-x="1376" 
d="M975 1352h276v-676q0 -202 -32 -331q-33 -133 -103 -215q-69 -81 -175 -116q-103 -34 -253 -34t-253 34q-106 35 -175 116t-102 215q-33 133 -33 331v676h276v-676q0 -127 17 -218q17 -92 52 -143q36 -52 90 -76t128 -24t128 24t90 76q35 51 52 143q17 91 17 218v676z
M688 1593q-133 0 -133 -98h-186q0 137 80 200q78 62 239 62q162 0 240 -62q80 -63 80 -200h-187q0 98 -133 98z" />
    <glyph glyph-name="uni0217" unicode="&#x217;" horiz-adv-x="1140" 
d="M387 942v-471q0 -90 7 -140q8 -55 24 -85q17 -31 45 -41q27 -10 69 -10q104 0 151 56q48 56 52 191v500h277v-942h-215l-52 133q-35 -91 -99 -122q-63 -31 -171 -31q-106 0 -175 28q-72 29 -113 88q-41 58 -59 153q-17 88 -17 222v471h276zM569 1184q-133 0 -133 -99
h-186q0 137 80 200t239 63q161 0 240 -63q80 -63 80 -200h-187q0 99 -133 99z" />
    <glyph glyph-name="Scommaaccent" unicode="&#x218;" horiz-adv-x="1255" 
d="M872 963q0 48 -9 81t-36 54q-26 20 -77 29q-57 10 -134 10q-68 0 -127 -9q-49 -7 -77 -25t-40 -46q-12 -29 -12 -70q0 -63 21 -97t56 -50q38 -17 82 -23q15 -2 97 -14q126 -18 217 -37q98 -20 177 -65q75 -43 119 -121q45 -81 45 -209q0 -99 -31 -177q-30 -75 -97 -122
t-174 -70q-104 -22 -258 -22q-162 0 -264 23q-106 24 -171 74t-92 128q-28 81 -28 184h275q0 -49 10 -80q10 -33 41 -54q32 -22 87 -31q57 -9 149 -9q84 0 133 7q55 8 85 25q32 18 45 46q13 27 13 72q0 62 -25 98q-24 35 -64 51q-44 18 -90 22q-36 3 -102 13
q-107 16 -215 41q-101 23 -169 68q-70 46 -109 124t-39 207q0 91 24 161q24 72 83 120q59 49 165 76q101 26 267 26q141 0 241 -21q99 -21 163 -71q63 -49 91 -127q29 -79 29 -190h-275zM516 -479q18 0 46 2q22 2 37 12q16 11 25 33t9 63h-123v226h235v-226q0 -46 -8 -88
q-7 -38 -32 -66q-24 -27 -70 -42q-45 -15 -119 -15v101z" />
    <glyph glyph-name="scommaaccent" unicode="&#x219;" horiz-adv-x="968" 
d="M621 639q0 67 -34 88q-35 21 -110 21q-77 0 -108 -17t-31 -59q0 -54 37 -66q35 -11 104 -22q94 -12 172 -33t134 -55t88 -92t32 -140q0 -70 -22 -121q-22 -52 -73 -89q-48 -35 -132 -55q-80 -19 -201 -19q-227 0 -325 76q-99 76 -99 247h269q0 -70 40 -89q39 -19 119 -19
q87 0 118 16q32 17 32 57q0 28 -11 43q-13 18 -31 26t-48 13q-11 2 -32.5 4.5t-29.5 3.5q-72 10 -160 31q-74 17 -133 53q-56 34 -90 93q-33 57 -33 145q0 66 23 120q22 52 72 88q48 35 129 55q82 20 196 20q222 0 317 -77t95 -247h-274zM373 -479q18 0 46 2q22 2 37 12
q15 11 24 33t9 63h-122v226h235v-226q0 -46 -8 -88q-7 -37 -33 -66q-24 -27 -69 -42t-119 -15v101z" />
    <glyph glyph-name="uni021A" unicode="&#x21a;" horiz-adv-x="1116" 
d="M420 0v1116h-400v236h1076v-236h-400v-1116h-276zM446 -479q19 0 47 2q21 1 36 12q16 11 25 33t9 63h-123v226h236v-226q0 -46 -8 -88q-7 -37 -33 -66q-24 -27 -70 -42q-45 -15 -119 -15v101z" />
    <glyph glyph-name="uni021B" unicode="&#x21b;" horiz-adv-x="700" 
d="M670 727h-248v-358q0 -43 9 -73t33 -48q25 -19 62 -26q36 -7 101 -7v-215q-115 0 -204 18t-151 62q-61 43 -94 114t-33 175v358h-125v215h125v184l277 62v-246h248v-215zM238 -479q18 0 46 2q22 2 37 12q15 11 24 33t9 63h-123v226h236v-226q0 -46 -8 -88q-7 -37 -33 -66
q-24 -27 -70 -42q-45 -15 -118 -15v101z" />
    <glyph glyph-name="uni021C" unicode="&#x21c;" horiz-adv-x="1273" 
d="M614 797q54 0 100 9q44 9 81 31q34 21 55 57q20 34 20 91q0 86 -58 119q-59 33 -200 33q-70 0 -125 -10q-49 -9 -77 -28t-40 -53t-12 -83h-274q0 223 127 316q128 93 391 93q153 0 263 -29q107 -28 173 -79q65 -50 91 -122q26 -71 18 -155q-12 -132 -89 -205
q-76 -71 -200 -100q150 -27 235 -103t85 -229q0 -190 -140 -280t-426 -90q-149 0 -254 24q-101 23 -170 75q-64 48 -95 128q-30 78 -30 182h275q0 -47 12 -81q11 -33 45 -54q33 -21 88 -30t140 -9q149 0 214 33q64 33 64 121q0 55 -22 92q-21 35 -61 59q-37 22 -89 33
q-49 10 -108 10h-101v234h94z" />
    <glyph glyph-name="uni021D" unicode="&#x21d;" horiz-adv-x="989" 
d="M475 387q55 0 94 40q39 41 39 148q0 99 -29 135q-30 38 -104 38q-78 0 -105 -34q-28 -36 -28 -79h-274q0 328 395 328q120 0 204 -29q82 -28 134 -79q50 -48 70 -121q20 -72 14 -156q-11 -129 -68 -202q-59 -74 -153 -102q120 -27 185 -103q66 -77 66 -230
q0 -193 -111 -282q-112 -89 -343 -89q-116 0 -192 20q-77 20 -128 62q-48 39 -71 102t-23 144h275q0 -59 31 -86t118 -27q91 0 129 34q39 35 39 138q0 55 -12 93q-12 36 -34 62q-20 22 -50 32q-32 10 -62 10h-100v233h94z" />
    <glyph glyph-name="uni021E" unicode="&#x21e;" horiz-adv-x="1431" 
d="M997 0v563h-563v-563h-276v1352h276v-555h563v555h277v-1352h-277zM616 1499l-288 273h266l59 -64l30 -35q11 -14 17 -24q10 -16 11 -21h8q1 7 10 21q5 10 17 24l30 35l60 64h266l-289 -273h-197z" />
    <glyph glyph-name="uni021F" unicode="&#x21f;" horiz-adv-x="1148" 
d="M129 1403l277 31v-430q0 -33 -6 -95q-2 -15 -4.5 -46.5t-4.5 -47.5h6q35 87 98 117q65 31 164 31q185 0 278 -95q93 -94 93 -315v-553h-276v553q0 117 -33 156t-111 39q-108 0 -156 -63t-48 -214v-471h-277v1403zM539 1499l-289 273h266l59 -64l30 -35q15 -19 18 -24
q9 -14 10 -21h8q1 7 10 21q3 5 18 24q14 18 29 35l60 64h266l-289 -273h-196z" />
    <glyph glyph-name="uni0220" unicode="&#x220;" horiz-adv-x="1148" 
d="M129 0v942h215l49 -133q33 90 100 122t173 32q103 0 175 -29q70 -28 112 -88t60 -153q17 -88 17 -222v-963h-276v963q0 82 -8 140q-8 59 -24 85q-18 31 -45 41q-28 11 -69 11q-104 0 -151 -57t-51 -191v-500h-277z" />
    <glyph glyph-name="uni0226" unicode="&#x226;" horiz-adv-x="1374" 
d="M975 250h-576l-96 -250h-283l543 1352h252l539 -1352h-283zM489 485h396l-97 252q-31 80 -47 136q-15 53 -28 110q-14 62 -19 98h-8q-3 -14 -10.5 -47.5t-11.5 -52.5q-13 -52 -30 -110q-18 -64 -46 -134zM569 1495v246h236v-246h-236z" />
    <glyph glyph-name="uni0227" unicode="&#x227;" horiz-adv-x="1046" 
d="M1012 -10q-87 0 -143 10q-59 11 -95 28t-56 42q-21 26 -28 53q-34 -87 -97 -115t-171 -28q-72 0 -133 11q-67 12 -117 43q-52 32 -83 88q-32 58 -32 146q0 102 39 158q40 56 99 83q62 28 131 35q41 4 137 13l196 18v76q0 55 -29 75q-31 22 -112 22q-87 0 -114 -25
q-25 -24 -25 -84h-275q0 174 99 249t315 75q114 0 197 -22q80 -21 129 -61t70 -98q22 -60 22 -131v-368q0 -37 21 -58q20 -20 55 -20v-215zM446 205q100 0 149 38q48 37 60 140l-192 -18q-76 -7 -104 -24q-25 -15 -25 -62q0 -42 22 -58t90 -16zM406 1085v246h235v-246h-235z
" />
    <glyph glyph-name="uni0228" unicode="&#x228;" horiz-adv-x="1181" 
d="M821 -242q0 -96 -80 -143t-196 -47q-55 0 -99 9q-42 9 -65 24v131q65 -31 133 -31q48 0 75 12t27 41q0 33 -33 52q-36 20 -112 26l18 168h-331v1352h921v-236h-645v-319h563v-234h-563v-327h645v-236h-452l-6 -78q200 -12 200 -164z" />
    <glyph glyph-name="uni0229" unicode="&#x229;" horiz-adv-x="1019" 
d="M719 -242q0 -48 -20 -85q-19 -34 -54 -59q-32 -22 -82 -35q-43 -11 -100 -11q-55 0 -98 9t-66 24v131q65 -31 133 -31q82 0 82 53q0 33 -30 52q-31 20 -95 26l17 154q-90 11 -152 43q-65 34 -106 90t-61 143q-19 83 -19 205q0 143 28 236q29 96 86 153q58 58 145 82
q91 25 203 25q108 0 187 -21q83 -22 131 -66q52 -47 77 -124q25 -76 25 -191q0 -34 -4 -77q-5 -50 -22 -95h-578q1 -50 12 -88q10 -34 32 -60q20 -23 57 -35q33 -11 92 -11q61 0 91 20q32 21 32 88h274q0 -83 -28 -147q-27 -62 -79 -100t-123 -56q-74 -19 -163 -20l-4 -58
q180 -12 180 -164zM528 748q-98 0 -135 -37q-38 -38 -45 -127h326v24q0 38 -4 62q-4 26 -19 44t-43 25q-34 9 -80 9z" />
    <glyph glyph-name="uni022A" unicode="&#x22a;" horiz-adv-x="1417" 
d="M709 -20q-165 0 -282 34q-116 34 -194 116q-73 78 -112 215q-37 132 -37 331t37 331q39 137 112 215q76 81 194 115q120 35 282 35q160 0 280 -35q119 -35 195 -115q73 -78 112 -215q37 -132 37 -331t-37 -331q-39 -137 -112 -215q-77 -82 -195 -116q-117 -34 -280 -34z
M709 215q89 0 155 24t109 76q41 49 63 143q21 88 21 218q0 128 -21 217q-21 90 -63 142q-44 54 -109 78q-66 24 -155 24q-90 0 -156 -24q-65 -24 -109 -78q-42 -52 -63 -142q-21 -89 -21 -217q0 -130 21 -218q22 -94 63 -143q43 -52 109 -76t156 -24zM395 1495v246h236v-246
h-236zM784 1495v246h236v-246h-236zM344 1841v144h727v-144h-727z" />
    <glyph glyph-name="uni022B" unicode="&#x22b;" horiz-adv-x="1056" 
d="M528 -20q-120 0 -206 24t-144 82q-57 57 -84 152q-26 91 -26 233q0 143 26 234q27 94 84 151q58 58 144 82q89 25 206 25q115 0 206 -25q87 -24 145 -82q57 -57 84 -151q26 -91 26 -234q0 -142 -26 -233q-27 -95 -84 -152q-58 -58 -145 -82t-206 -24zM528 195
q104 0 144 60q41 61 41 216t-41 216t-144 61q-102 0 -143 -61t-41 -216t41 -216q41 -60 143 -60zM215 1085v246h236v-246h-236zM604 1085v246h236v-246h-236zM164 1432v143h727v-143h-727z" />
    <glyph glyph-name="uni022C" unicode="&#x22c;" horiz-adv-x="1417" 
d="M709 -20q-165 0 -282 34q-116 34 -194 116q-73 78 -112 215q-37 132 -37 331t37 331q39 137 112 215q76 81 194 115q120 35 282 35q160 0 280 -35q119 -35 195 -115q73 -78 112 -215q37 -132 37 -331t-37 -331q-39 -137 -112 -215q-77 -82 -195 -116q-117 -34 -280 -34z
M709 215q89 0 155 24t109 76q41 49 63 143q21 88 21 218q0 128 -21 217q-21 90 -63 142q-44 54 -109 78q-66 24 -155 24q-90 0 -156 -24q-65 -24 -109 -78q-42 -52 -63 -142q-21 -89 -21 -217q0 -130 21 -218q22 -94 63 -143q43 -52 109 -76t156 -24zM846 1497q-48 0 -73 12
q-23 11 -60 35q-14 9 -33.5 22t-24.5 16q-20 13 -43 13q-61 0 -61 -100h-152q0 39 5 87q4 40 24 80q17 35 53 58q35 23 94 23q44 0 67 -11q26 -12 54 -30q41 -28 58 -41q22 -16 51 -16t40 20q11 19 11 74h160q0 -53 -4 -92q-4 -42 -21 -77q-16 -34 -50 -53q-35 -20 -95 -20z
M344 1841v144h727v-144h-727z" />
    <glyph glyph-name="uni022D" unicode="&#x22d;" horiz-adv-x="1056" 
d="M528 -20q-120 0 -206 24t-144 82q-57 57 -84 152q-26 91 -26 233q0 143 26 234q27 94 84 151q58 58 144 82q89 25 206 25q115 0 206 -25q87 -24 145 -82q57 -57 84 -151q26 -91 26 -234q0 -142 -26 -233q-27 -95 -84 -152q-58 -58 -145 -82t-206 -24zM528 195
q104 0 144 60q41 61 41 216t-41 216t-144 61q-102 0 -143 -61t-41 -216t41 -216q41 -60 143 -60zM666 1087q-45 0 -73 13q-26 12 -61 35q-14 9 -33 21.5t-24 15.5q-22 14 -43 14q-61 0 -61 -101h-152q0 39 5 87q4 40 24 80q18 36 53 59q34 22 94 22q44 0 67 -11
q26 -12 54 -30q21 -15 57 -41q22 -16 52 -16q29 0 40 20q11 19 11 74h160q0 -44 -5 -92q-5 -45 -20 -77q-16 -34 -50 -53q-35 -20 -95 -20zM164 1432v143h727v-143h-727z" />
    <glyph glyph-name="uni022E" unicode="&#x22e;" horiz-adv-x="1417" 
d="M709 -20q-165 0 -282 34q-116 34 -194 116q-73 78 -112 215q-37 132 -37 331t37 331q39 137 112 215q76 81 194 115q120 35 282 35q160 0 280 -35q119 -35 195 -115q73 -78 112 -215q37 -132 37 -331t-37 -331q-39 -137 -112 -215q-77 -82 -195 -116q-117 -34 -280 -34z
M709 215q89 0 155 24t109 76q41 49 63 143q21 88 21 218q0 128 -21 217q-21 90 -63 142q-44 54 -109 78q-66 24 -155 24q-90 0 -156 -24q-65 -24 -109 -78q-42 -52 -63 -142q-21 -89 -21 -217q0 -130 21 -218q22 -94 63 -143q43 -52 109 -76t156 -24zM590 1495v246h235v-246
h-235z" />
    <glyph glyph-name="uni022F" unicode="&#x22f;" horiz-adv-x="1056" 
d="M528 -20q-120 0 -206 24t-144 82q-57 57 -84 152q-26 91 -26 233q0 143 26 234q27 94 84 151q58 58 144 82q89 25 206 25q115 0 206 -25q87 -24 145 -82q57 -57 84 -151q26 -91 26 -234q0 -142 -26 -233q-27 -95 -84 -152q-58 -58 -145 -82t-206 -24zM528 195
q104 0 144 60q41 61 41 216t-41 216t-144 61q-102 0 -143 -61t-41 -216t41 -216q41 -60 143 -60zM410 1085v246h235v-246h-235z" />
    <glyph glyph-name="uni0230" unicode="&#x230;" horiz-adv-x="1417" 
d="M709 -20q-165 0 -282 34q-116 34 -194 116q-73 78 -112 215q-37 132 -37 331t37 331q39 137 112 215q76 81 194 115q120 35 282 35q160 0 280 -35q119 -35 195 -115q73 -78 112 -215q37 -132 37 -331t-37 -331q-39 -137 -112 -215q-77 -82 -195 -116q-117 -34 -280 -34z
M709 215q89 0 155 24t109 76q41 49 63 143q21 88 21 218q0 128 -21 217q-21 90 -63 142q-44 54 -109 78q-66 24 -155 24q-90 0 -156 -24q-65 -24 -109 -78q-42 -52 -63 -142q-21 -89 -21 -217q0 -130 21 -218q22 -94 63 -143q43 -52 109 -76t156 -24zM590 1495v246h235v-246
h-235zM344 1841v144h727v-144h-727z" />
    <glyph glyph-name="uni0231" unicode="&#x231;" horiz-adv-x="1056" 
d="M528 -20q-120 0 -206 24t-144 82q-57 57 -84 152q-26 91 -26 233q0 143 26 234q27 94 84 151q58 58 144 82q89 25 206 25q115 0 206 -25q87 -24 145 -82q57 -57 84 -151q26 -91 26 -234q0 -142 -26 -233q-27 -95 -84 -152q-58 -58 -145 -82t-206 -24zM528 195
q104 0 144 60q41 61 41 216t-41 216t-144 61q-102 0 -143 -61t-41 -216t41 -216q41 -60 143 -60zM410 1085v246h235v-246h-235zM164 1432v143h727v-143h-727z" />
    <glyph glyph-name="uni0232" unicode="&#x232;" horiz-adv-x="1222" 
d="M516 977q30 -60 48 -108q15 -39 28 -83q9 -32 14 -71h8q4 31 15 71q19 61 26 82q16 45 47 107l197 377h303l-454 -875v-477h-277v477l-451 875h306zM248 1534v143h727v-143h-727z" />
    <glyph glyph-name="uni0233" unicode="&#x233;" horiz-adv-x="1001" 
d="M426 512q21 -73 33 -127l20 -96q12 -75 13 -82h8q4 37 12 84q6 30 20 95q12 52 35 124l142 432h288l-385 -1030q-78 -209 -199 -306q-122 -98 -261 -98v236q31 0 62 19q30 19 60 50q31 33 53 67t35 75l-358 987h289zM139 1124v144h727v-144h-727z" />
    <glyph glyph-name="dotlessj" unicode="&#x237;" horiz-adv-x="591" 
d="M434 -158q0 -66 -18 -126q-17 -58 -64 -106q-46 -48 -121 -74q-79 -28 -190 -28v222q52 0 84 19q33 20 33 73v1120h276v-1100z" />
    <glyph glyph-name="apostrophe" unicode="&#x2bc;" horiz-adv-x="550" 
d="M104 893q87 0 122 34q36 35 36 117h-164v308h338v-308q0 -62 -11 -110q-12 -53 -46 -93q-35 -41 -100 -65q-66 -24 -175 -24v141z" />
    <glyph glyph-name="circumflex" unicode="&#x2c6;" horiz-adv-x="929" 
d="M543 1382l248 -292h-226l-59 63q-16 16 -21 25q-2 3 -5 9t-5 9q-4 7 -6 16h-8q-2 -9 -6 -16q-5 -14 -31 -43l-59 -63h-226l248 292h156z" />
    <glyph glyph-name="caron" unicode="&#x2c7;" horiz-adv-x="929" 
d="M387 1090l-248 292h226l59 -63q26 -31 31 -43q4 -7 6 -16h8q2 9 6 16q2 3 5 9t5 9q5 9 21 25l59 63h226l-248 -292h-156z" />
    <glyph glyph-name="breve" unicode="&#x2d8;" horiz-adv-x="843" 
d="M422 1249q133 0 133 99h186q0 -137 -79 -200q-80 -63 -240 -63t-240 63t-80 200h187q0 -99 133 -99z" />
    <glyph glyph-name="dotaccent" unicode="&#x2d9;" horiz-adv-x="440" 
d="M102 1085v246h236v-246h-236z" />
    <glyph glyph-name="ring" unicode="&#x2da;" horiz-adv-x="581" 
d="M291 1071q-92 0 -140 53q-49 54 -49 131q0 71 52 125t137 54t137 -54q51 -52 51 -125q0 -79 -48 -131q-48 -53 -140 -53zM291 1335q-40 0 -60 -23t-20 -59q0 -32 19 -55q20 -24 61 -24t60 24q20 25 20 55q0 35 -21 59q-20 23 -59 23z" />
    <glyph glyph-name="ogonek" unicode="&#x2db;" horiz-adv-x="720" 
d="M139 -186q0 79 35 131q36 53 81 82q49 32 94 43q50 13 77 14l61 -84q-60 0 -104 -34q-45 -34 -45 -105q0 -44 20 -67t68 -23q21 0 64 6q48 7 92 28v-141q-41 -29 -103 -41q-61 -12 -112 -12q-95 0 -162 47q-66 46 -66 156z" />
    <glyph glyph-name="tilde" unicode="&#x2dc;" horiz-adv-x="821" 
d="M549 1087q-45 0 -73 13q-23 11 -60 35q-13 8 -32 20t-26 17q-22 14 -43 14q-61 0 -61 -101h-152q0 29 6 87q4 43 23 80q18 36 53 59q34 22 95 22q43 0 66 -11q25 -12 54 -30q41 -28 58 -41q22 -16 51 -16t40 20q11 19 11 74h160q0 -53 -4 -92q-4 -42 -21 -77
q-16 -34 -50 -53q-35 -20 -95 -20z" />
    <glyph glyph-name="hungarumlaut" unicode="&#x2dd;" horiz-adv-x="974" 
d="M102 1073l107 293h268l-201 -293h-174zM442 1073l144 293h286l-237 -293h-193z" />
    <glyph glyph-name="gravecomb" unicode="&#x300;" horiz-adv-x="692" 
d="M360 1073l-258 293h344l144 -293h-230z" />
    <glyph glyph-name="acutecomb" unicode="&#x301;" horiz-adv-x="692" 
d="M102 1073l144 293h344l-258 -293h-230z" />
    <glyph glyph-name="uni0302" unicode="&#x302;" horiz-adv-x="929" 
d="M563 1362l289 -272h-266l-60 63q-37 40 -47 59q-9 12 -10 21h-8q-1 -9 -10 -21q-9 -16 -48 -59l-59 -63h-266l289 272h196z" />
    <glyph glyph-name="tildecomb" unicode="&#x303;" horiz-adv-x="821" 
d="M549 1087q-45 0 -73 13q-23 11 -60 35q-13 8 -32 20t-26 17q-22 14 -43 14q-61 0 -61 -101h-152q0 29 6 87q4 43 23 80q18 36 53 59q34 22 95 22q43 0 66 -11q25 -12 54 -30q41 -28 58 -41q22 -16 51 -16t40 20q11 19 11 74h160q0 -53 -4 -92q-4 -42 -21 -77
q-16 -34 -50 -53q-35 -20 -95 -20z" />
    <glyph glyph-name="uni0304" unicode="&#x304;" horiz-adv-x="1030" 
d="M152 1124v144h727v-144h-727z" />
    <glyph glyph-name="uni0306" unicode="&#x306;" horiz-adv-x="843" 
d="M422 1249q133 0 133 99h186q0 -137 -79 -200q-80 -63 -240 -63t-240 63t-80 200h187q0 -99 133 -99z" />
    <glyph glyph-name="uni0307" unicode="&#x307;" horiz-adv-x="440" 
d="M102 1085v246h236v-246h-236z" />
    <glyph glyph-name="uni0308" unicode="&#x308;" horiz-adv-x="829" 
d="M102 1085v246h236v-246h-236zM492 1085v246h235v-246h-235z" />
    <glyph glyph-name="hookabovecomb" unicode="&#x309;" horiz-adv-x="507" 
d="M274 1184q23 0 33 19t10 42q0 55 -63 55q-30 0 -47 -15t-17 -38h-108q0 48 47 86q46 37 125 37q67 0 120 -32q52 -31 52 -97q0 -49 -34 -89t-97 -40v-72h-102v82q0 62 61 62h20z" />
    <glyph glyph-name="uni030A" unicode="&#x30a;" horiz-adv-x="581" 
d="M291 1071q-92 0 -140 53q-49 54 -49 131q0 71 52 125t137 54t137 -54q51 -52 51 -125q0 -79 -48 -131q-48 -53 -140 -53zM291 1335q-40 0 -60 -23t-20 -59q0 -32 19 -55q20 -24 61 -24t60 24q20 25 20 55q0 35 -21 59q-20 23 -59 23z" />
    <glyph glyph-name="uni030B" unicode="&#x30b;" horiz-adv-x="974" 
d="M102 1073l107 293h268l-201 -293h-174zM442 1073l144 293h286l-237 -293h-193z" />
    <glyph glyph-name="uni030C" unicode="&#x30c;" horiz-adv-x="929" 
d="M367 1090l-289 272h266l59 -64q5 -6 15.5 -17.5t14.5 -16.5q13 -16 18 -25q9 -14 10 -20h8q1 6 10 20q5 9 18 25q2 2 29 34l60 64h266l-289 -272h-196z" />
    <glyph glyph-name="uni030F" unicode="&#x30f;" horiz-adv-x="974" 
d="M698 1098l-200 293h268l106 -293h-174zM340 1098l-238 293h287l143 -293h-192z" />
    <glyph glyph-name="uni0310" unicode="&#x310;" horiz-adv-x="843" 
d="M422 1249q133 0 133 99h186q0 -137 -79 -200q-80 -63 -240 -63t-240 63t-80 200h187q0 -99 133 -99zM328 1393v196h188v-196h-188z" />
    <glyph glyph-name="uni0311" unicode="&#x311;" horiz-adv-x="843" 
d="M422 1184q-133 0 -133 -99h-187q0 137 80 200t240 63t240 -63q79 -63 79 -200h-186q0 99 -133 99z" />
    <glyph glyph-name="uni0312" unicode="&#x312;" horiz-adv-x="399" 
d="M270 1423q-34 0 -54 -29q-21 -30 -21 -102h81v-164h-153v164q0 46 7 81q8 39 24 67t45 46q27 17 71 17v-80z" />
    <glyph glyph-name="uni0313" unicode="&#x313;" horiz-adv-x="399" 
d="M129 1208q33 0 54 30q22 31 22 101h-82v164h153v-164q0 -46 -7 -81q-8 -40 -23 -66q-16 -28 -45 -46t-72 -18v80z" />
    <glyph glyph-name="uni0314" unicode="&#x314;" horiz-adv-x="399" 
d="M270 1128q-42 0 -71 18t-45 46t-24 66q-7 35 -7 81v164h153v-164h-81q0 -71 21 -101t54 -30v-80z" />
    <glyph glyph-name="uni0315" unicode="&#x315;" horiz-adv-x="399" 
d="M129 1208q33 0 54 30q22 31 22 101h-82v164h153v-164q0 -46 -7 -81q-8 -40 -23 -66q-16 -28 -45 -46t-72 -18v80z" />
    <glyph glyph-name="uni0316" unicode="&#x316;" horiz-adv-x="692" 
d="M340 -422l-238 313h344l144 -313h-250z" />
    <glyph glyph-name="uni0317" unicode="&#x317;" horiz-adv-x="620" 
d="M102 -422l144 313h344l-238 -313h-250z" />
    <glyph glyph-name="dotbelowcomb" unicode="&#x323;" horiz-adv-x="440" 
d="M102 -389v246h236v-246h-236z" />
    <glyph glyph-name="uni0324" unicode="&#x324;" horiz-adv-x="829" 
d="M102 -389v246h236v-246h-236zM492 -389v246h235v-246h-235z" />
    <glyph glyph-name="uni0325" unicode="&#x325;" horiz-adv-x="581" 
d="M291 -492q-91 0 -140 54t-49 131q0 71 52 125q51 53 137 53t137 -53q51 -52 51 -125q0 -79 -48 -131q-49 -54 -140 -54zM291 -227q-39 0 -60 -24q-20 -23 -20 -58q0 -33 19 -56q20 -24 61 -24t60 24q20 25 20 56q0 34 -21 58t-59 24z" />
    <glyph glyph-name="uni0327" unicode="&#x327;" horiz-adv-x="655" 
d="M573 -242q0 -50 -19 -85q-19 -34 -54 -59q-32 -22 -82 -35q-43 -11 -101 -11q-55 0 -98 9q-42 9 -65 24v131q65 -31 133 -31q82 0 82 53q0 33 -30 52q-31 20 -95 26l22 205h137l-10 -115q180 -12 180 -164z" />
    <glyph glyph-name="uni0328" unicode="&#x328;" horiz-adv-x="720" 
d="M139 -186q0 79 35 131q36 53 81 82q49 32 94 43q50 13 77 14l61 -84q-60 0 -104 -34q-45 -34 -45 -105q0 -44 20 -67t68 -23q21 0 64 6q48 7 92 28v-141q-41 -29 -103 -41q-61 -12 -112 -12q-95 0 -162 47q-66 46 -66 156z" />
    <glyph glyph-name="uni032C" unicode="&#x32c;" horiz-adv-x="929" 
d="M367 -420l-289 273h266l59 -64q4 -5 10.5 -12.5t11 -13t8.5 -9.5q15 -19 18 -24q9 -14 10 -21h8q1 7 10 21q3 5 18 24q14 17 29 35l60 64h266l-289 -273h-196z" />
    <glyph glyph-name="uni032D" unicode="&#x32d;" horiz-adv-x="929" 
d="M563 -147l289 -273h-266l-60 64q-37 40 -47 59q-9 12 -10 21h-8q-1 -9 -10 -21q-9 -16 -48 -59l-59 -64h-266l289 273h196z" />
    <glyph glyph-name="uni032E" unicode="&#x32e;" horiz-adv-x="843" 
d="M422 -242q133 0 133 99h186q0 -137 -79 -200q-80 -63 -240 -63t-240 63t-80 200h187q0 -99 133 -99z" />
    <glyph glyph-name="uni032F" unicode="&#x32f;" horiz-adv-x="843" 
d="M422 -307q-133 0 -133 -99h-187q0 137 80 200t240 63t240 -63q79 -63 79 -200h-186q0 99 -133 99z" />
    <glyph glyph-name="uni0330" unicode="&#x330;" horiz-adv-x="821" 
d="M549 -385q-47 0 -73 12q-23 11 -60 35q-14 9 -33.5 22t-24.5 16q-20 13 -43 13q-61 0 -61 -100h-152q0 29 6 87q4 43 23 80q17 35 53 58q35 23 95 23q41 0 66 -12q32 -15 54 -29q41 -28 58 -41q23 -17 51 -17t40 21q11 19 11 74h160q0 -54 -4 -93q-4 -41 -21 -76t-50 -54
q-34 -19 -95 -19z" />
    <glyph glyph-name="uni0331" unicode="&#x331;" horiz-adv-x="1030" 
d="M152 -326v144h727v-144h-727z" />
    <glyph glyph-name="uni0400" unicode="&#x400;" horiz-adv-x="1181" 
d="M158 0v1352h921v-236h-645v-319h563v-234h-563v-327h645v-236h-921zM604 1483l-258 293h344l144 -293h-230z" />
    <glyph glyph-name="afii10023" unicode="&#x401;" horiz-adv-x="1181" 
d="M158 0v1352h921v-236h-645v-319h563v-234h-563v-327h645v-236h-921zM279 1495v246h235v-246h-235zM668 1495v246h235v-246h-235z" />
    <glyph glyph-name="afii10051" unicode="&#x402;" horiz-adv-x="1449" 
d="M762 236q82 0 135 12q55 12 84 39q30 27 42 68q11 39 11 102q0 58 -11 91q-12 37 -38 57q-29 22 -73 31q-46 9 -113 9q-72 0 -117 -15q-44 -14 -72 -43q-26 -26 -37 -64q-10 -36 -12 -77v-446h-276v1116h-256v236h932v-236h-400v-133q0 -72 -4 -123q-6 -70 -14 -121
l-11 -67h5q18 62 48 103t68 64q37 23 87 32q53 10 104 10q241 0 354 -101t113 -327q0 -123 -31 -211q-31 -87 -95 -141q-63 -53 -166 -77q-102 -24 -241 -24h-51v236h35z" />
    <glyph glyph-name="afii10052" unicode="&#x403;" horiz-adv-x="1116" 
d="M455 0h-277v1352h881v-236h-604v-1116zM395 1483l144 293h344l-258 -293h-230z" />
    <glyph glyph-name="afii10053" unicode="&#x404;" horiz-adv-x="1255" 
d="M1221 389q0 -109 -44 -188q-42 -76 -121 -127q-77 -50 -178 -72q-100 -22 -216 -22q-152 0 -256 36q-109 38 -181 120q-71 82 -106 216q-35 135 -35 326q0 188 35 323q35 134 106 216q69 79 181 118q107 37 256 37q125 0 225 -22q102 -22 177 -72q76 -50 116 -127
q41 -79 41 -188h-267q0 97 -75 135q-77 39 -195 39q-76 0 -134 -18q-59 -18 -98 -57q-41 -41 -65 -105q-26 -70 -33 -160h461v-234h-461q7 -97 32 -165q24 -66 65 -107t99 -59q55 -17 136 -17q51 0 99 9q49 9 86 30q41 23 61 54q22 34 22 81h267z" />
    <glyph glyph-name="afii10054" unicode="&#x405;" horiz-adv-x="1255" 
d="M872 963q0 48 -9 81t-36 54q-26 20 -77 29q-57 10 -134 10q-68 0 -127 -9q-49 -7 -77 -25t-40 -46q-12 -29 -12 -70q0 -63 21 -97t56 -50q38 -17 82 -23q15 -2 97 -14q126 -18 217 -37q98 -20 177 -65q75 -43 119 -121q45 -81 45 -209q0 -99 -31 -177q-30 -75 -97 -122
t-174 -70q-104 -22 -258 -22q-162 0 -264 23q-106 24 -171 74t-92 128q-28 81 -28 184h275q0 -49 10 -80q10 -33 41 -54q32 -22 87 -31q57 -9 149 -9q84 0 133 7q55 8 85 25q32 18 45 46q13 27 13 72q0 62 -25 98q-24 35 -64 51q-44 18 -90 22q-36 3 -102 13
q-107 16 -215 41q-101 23 -169 68q-70 46 -109 124t-39 207q0 91 24 161q24 72 83 120q59 49 165 76q101 26 267 26q141 0 241 -21q99 -21 163 -71q63 -49 91 -127q29 -79 29 -190h-275z" />
    <glyph glyph-name="afii10055" unicode="&#x406;" horiz-adv-x="591" 
d="M158 0v1352h276v-1352h-276z" />
    <glyph glyph-name="afii10056" unicode="&#x407;" horiz-adv-x="591" 
d="M158 0v1352h276v-1352h-276zM-14 1495v246h235v-246h-235zM375 1495v246h235v-246h-235z" />
    <glyph glyph-name="afii10057" unicode="&#x408;" horiz-adv-x="1017" 
d="M616 1352h277v-963q0 -195 -106 -303q-105 -106 -343 -106q-225 0 -334 97q-110 98 -110 312h268q0 -97 43 -140q44 -44 135 -44q79 0 125 38q45 37 45 146v963z" />
    <glyph glyph-name="afii10058" unicode="&#x409;" horiz-adv-x="1847" 
d="M1100 881h207q123 0 214 -24t149 -76q59 -53 87 -139q29 -89 29 -212q0 -119 -29 -203q-28 -82 -87 -133t-149 -72q-96 -22 -214 -22h-484v1116h-288l-31 -563q-7 -141 -25 -256q-17 -107 -62 -171q-47 -66 -134 -96q-89 -30 -240 -30v236q67 0 103 21t53 62
q15 37 20 100q1 6 8 134l49 799h824v-471zM1100 645v-409h194q116 0 166 42q49 42 49 152q0 122 -49 168q-50 47 -166 47h-194z" />
    <glyph glyph-name="afii10059" unicode="&#x40a;" horiz-adv-x="1939" 
d="M1192 881h207q123 0 214 -24t149 -76q59 -53 87 -139q29 -89 29 -212q0 -119 -29 -203q-28 -82 -87 -133t-149 -72q-96 -22 -214 -22h-484v563h-481v-563h-276v1352h276v-555h481v555h277v-471zM1192 645v-409h194q117 0 166 42q50 42 50 152q0 121 -50 168t-166 47h-194
z" />
    <glyph glyph-name="afii10060" unicode="&#x40b;" horiz-adv-x="1449" 
d="M1034 0v434q0 69 -16 110t-45 64q-28 22 -70 30q-38 7 -90 7q-126 0 -188 -44t-64 -159v-442h-276v1116h-256v236h932v-236h-400v-133q0 -72 -4 -123q-6 -70 -14 -121l-11 -67h3q17 64 47 106q30 43 68 64q40 22 90 30q59 9 108 9q234 0 348 -105q115 -106 115 -346v-430
h-277z" />
    <glyph glyph-name="afii10061" unicode="&#x40c;" horiz-adv-x="1275" 
d="M158 0v1352h276v-555h156l358 555h293l-430 -668l440 -684h-293l-362 563h-162v-563h-276zM475 1483l143 293h345l-258 -293h-230z" />
    <glyph glyph-name="uni040D" unicode="&#x40d;" horiz-adv-x="1431" 
d="M936 1352h338v-1352h-277v797q0 71 4 115q5 53 9 85q7 46 12 72h-8q-11 -41 -27 -86q-19 -51 -36 -95q-20 -50 -56 -120l-399 -768h-338v1352h276v-797q0 -72 -4 -116q-7 -78 -8 -85q-6 -42 -12 -71h8q8 40 24 86q21 56 37 95q19 45 58 120zM598 1483l-258 293h344
l143 -293h-229z" />
    </font>
</defs>
</svg>
